<?xml version="1.0" standalone="no"?>
<!DOCTYPE svg PUBLIC "-//W3C//DTD SVG 1.1//EN" "http://www.w3.org/Graphics/SVG/1.1/DTD/svg11.dtd" >
<svg xmlns="http://www.w3.org/2000/svg">
<metadata></metadata>
<defs>
<font id="kiroextra_bold" horiz-adv-x="330" >
<font-face units-per-em="1000" ascent="808" descent="-192" />
<missing-glyph horiz-adv-x="215" />
<glyph unicode="ff" horiz-adv-x="621" d="M633 696q26 -9 16 -36l-24 -63q-8 -23 -36 -14q-18 7 -44 7t-41.5 -17.5t-15.5 -47.5v-25h100q28 0 28 -28v-66q0 -28 -28 -28h-100v-350q0 -28 -28 -28h-86q-28 0 -28 28v350h-130v-350q0 -28 -28 -28h-86q-28 0 -28 28v350h-30q-28 0 -28 28v66q0 28 28 28h30v10 q0 93 49.5 142.5t144.5 49.5q72 0 134 -32q48 42 129 42q61 0 102 -16zM216 500h130v23q0 21 3 40q-35 20 -72 20q-29 0 -45 -17.5t-16 -47.5v-18z" />
<glyph unicode="fi" horiz-adv-x="538" d="M216 525v-25h242q28 0 28 -28v-444q0 -28 -28 -28h-86q-28 0 -28 28v350h-128v-350q0 -28 -28 -28h-86q-28 0 -28 28v350h-30q-28 0 -28 28v66q0 28 28 28h30v20q0 94 50.5 143t148.5 49q69 0 129 -28q27 -12 13 -38l-29 -60q-12 -25 -39 -11q-31 15 -65 15 q-66 0 -66 -65z" />
<glyph unicode="fl" horiz-adv-x="548" d="M382 700h86q28 0 28 -28v-644q0 -28 -28 -28h-86q-28 0 -28 28v540q-34 22 -77 22q-29 0 -45 -17.5t-16 -47.5v-25h80q28 0 28 -28v-66q0 -28 -28 -28h-80v-350q0 -28 -28 -28h-86q-28 0 -28 28v350h-30q-28 0 -28 28v66q0 28 28 28h30v20q0 93 49.5 142.5t144.5 49.5 q55 0 97 -16q7 4 17 4z" />
<glyph unicode="ffi" horiz-adv-x="810" d="M488 525v-25h242q28 0 28 -28v-444q0 -28 -28 -28h-86q-28 0 -28 28v350h-128v-350q0 -28 -28 -28h-86q-28 0 -28 28v350h-130v-350q0 -28 -28 -28h-86q-28 0 -28 28v350h-30q-28 0 -28 28v66q0 28 28 28h30v10q0 93 49.5 142.5t144.5 49.5q75 0 135 -33q50 43 142 43 q69 0 129 -28q27 -12 13 -38l-29 -60q-12 -25 -39 -11q-31 15 -65 15q-66 0 -66 -65zM216 500h130v23q0 21 3 40q-35 20 -72 20q-29 0 -45 -17.5t-16 -47.5v-18z" />
<glyph unicode="ffl" horiz-adv-x="820" d="M654 700h86q28 0 28 -28v-644q0 -28 -28 -28h-86q-28 0 -28 28v540q-34 22 -77 22q-29 0 -45 -17.5t-16 -47.5v-25h80q28 0 28 -28v-66q0 -28 -28 -28h-80v-350q0 -28 -28 -28h-86q-28 0 -28 28v350h-130v-350q0 -28 -28 -28h-86q-28 0 -28 28v350h-30q-28 0 -28 28v66 q0 28 28 28h30v10q0 93 49.5 142.5t144.5 49.5q75 0 135 -33q49 43 137 43q55 0 97 -16q7 4 17 4zM216 500h130v23q0 21 3 40q-35 20 -72 20q-29 0 -45 -17.5t-16 -47.5v-18z" />
<glyph unicode="fb" horiz-adv-x="796" d="M382 700h86q28 0 28 -28v-188h2q32 28 85 28q85 0 130 -50t45 -142v-140q0 -92 -52.5 -142t-149.5 -50t-149.5 50t-52.5 142v388q-34 22 -77 22q-29 0 -45 -17.5t-16 -47.5v-25h80q28 0 28 -28v-66q0 -28 -28 -28h-80v-350q0 -28 -28 -28h-86q-28 0 -28 28v350h-30 q-28 0 -28 28v66q0 28 28 28h30v20q0 93 49.5 142.5t144.5 49.5q55 0 97 -16q7 4 17 4zM616 188v124q0 78 -60 78t-60 -78v-124q0 -78 60 -78t60 78z" />
<glyph unicode="ffb" horiz-adv-x="1068" d="M637 696q7 4 17 4h86q28 0 28 -28v-188h2q32 28 85 28q85 0 130 -50t45 -142v-140q0 -92 -52.5 -142t-149.5 -50t-149.5 50t-52.5 142v388q-34 22 -77 22q-29 0 -45 -17.5t-16 -47.5v-25h80q28 0 28 -28v-66q0 -28 -28 -28h-80v-350q0 -28 -28 -28h-86q-28 0 -28 28v350 h-130v-350q0 -28 -28 -28h-86q-28 0 -28 28v350h-30q-28 0 -28 28v66q0 28 28 28h30v10q0 93 49.5 142.5t144.5 49.5q75 0 135 -33q49 43 137 43q55 0 97 -16zM216 500h130v23q0 21 3 40q-35 20 -72 20q-29 0 -45 -17.5t-16 -47.5v-18zM888 188v124q0 78 -60 78t-60 -78 v-124q0 -78 60 -78t60 78z" />
<glyph unicode="fh" horiz-adv-x="798" d="M354 28v540q-34 22 -77 22q-29 0 -45 -17.5t-16 -47.5v-25h80q28 0 28 -28v-66q0 -28 -28 -28h-80v-350q0 -28 -28 -28h-86q-28 0 -28 28v350h-30q-28 0 -28 28v66q0 28 28 28h30v20q0 93 49.5 142.5t144.5 49.5q55 0 97 -16q7 4 17 4h86q28 0 28 -28v-188h2q32 28 87 28 q80 0 122.5 -49t42.5 -140v-295q0 -28 -28 -28h-86q-28 0 -28 28v288q0 74 -56 74t-56 -74v-288q0 -28 -28 -28h-86q-28 0 -28 28z" />
<glyph unicode="ffh" horiz-adv-x="1070" d="M637 696q7 4 17 4h86q28 0 28 -28v-188h2q32 28 87 28q80 0 122.5 -49t42.5 -140v-295q0 -28 -28 -28h-86q-28 0 -28 28v288q0 74 -56 74t-56 -74v-288q0 -28 -28 -28h-86q-28 0 -28 28v540q-34 22 -77 22q-29 0 -45 -17.5t-16 -47.5v-25h80q28 0 28 -28v-66 q0 -28 -28 -28h-80v-350q0 -28 -28 -28h-86q-28 0 -28 28v350h-130v-350q0 -28 -28 -28h-86q-28 0 -28 28v350h-30q-28 0 -28 28v66q0 28 28 28h30v10q0 93 49.5 142.5t144.5 49.5q75 0 135 -33q49 43 137 43q55 0 97 -16zM216 500h130v23q0 21 3 40q-35 20 -72 20 q-29 0 -45 -17.5t-16 -47.5v-18z" />
<glyph unicode="fj" horiz-adv-x="538" d="M216 525v-25h242q28 0 28 -28v-462q0 -170 -161 -170h-27q-28 0 -28 28v66q0 28 28 28q26 0 36 10.5t10 37.5v368h-128v-350q0 -28 -28 -28h-86q-28 0 -28 28v350h-30q-28 0 -28 28v66q0 28 28 28h30v20q0 94 50.5 143t148.5 49q69 0 129 -28q27 -12 13 -38l-29 -60 q-12 -25 -39 -11q-31 15 -65 15q-66 0 -66 -65z" />
<glyph unicode="ffj" horiz-adv-x="810" d="M488 525v-25h242q28 0 28 -28v-462q0 -170 -161 -170h-27q-28 0 -28 28v66q0 28 28 28q26 0 36 10.5t10 37.5v368h-128v-350q0 -28 -28 -28h-86q-28 0 -28 28v350h-130v-350q0 -28 -28 -28h-86q-28 0 -28 28v350h-30q-28 0 -28 28v66q0 28 28 28h30v10q0 93 49.5 142.5 t144.5 49.5q75 0 135 -33q50 43 142 43q69 0 129 -28q27 -12 13 -38l-29 -60q-12 -25 -39 -11q-31 15 -65 15q-66 0 -66 -65zM216 500h130v23q0 21 3 40q-35 20 -72 20q-29 0 -45 -17.5t-16 -47.5v-18z" />
<glyph unicode="fk" horiz-adv-x="790" d="M354 28v540q-34 22 -77 22q-29 0 -45 -17.5t-16 -47.5v-25h80q28 0 28 -28v-66q0 -28 -28 -28h-80v-350q0 -28 -28 -28h-86q-28 0 -28 28v350h-30q-28 0 -28 28v66q0 28 28 28h30v20q0 93 49.5 142.5t144.5 49.5q55 0 97 -16q7 4 17 4h86q28 0 28 -28v-379h2l112 188 q10 19 33 19h99q17 0 22.5 -10t-3.5 -24l-137 -208l148 -224q9 -14 3.5 -24t-22.5 -10h-107q-23 0 -33 19l-115 191h-2v-182q0 -28 -28 -28h-86q-28 0 -28 28z" />
<glyph unicode="ffk" horiz-adv-x="1062" d="M637 696q7 4 17 4h86q28 0 28 -28v-379h2l112 188q10 19 33 19h99q17 0 22.5 -10t-3.5 -24l-137 -208l148 -224q9 -14 3.5 -24t-22.5 -10h-107q-23 0 -33 19l-115 191h-2v-182q0 -28 -28 -28h-86q-28 0 -28 28v540q-34 22 -77 22q-29 0 -45 -17.5t-16 -47.5v-25h80 q28 0 28 -28v-66q0 -28 -28 -28h-80v-350q0 -28 -28 -28h-86q-28 0 -28 28v350h-130v-350q0 -28 -28 -28h-86q-28 0 -28 28v350h-30q-28 0 -28 28v66q0 28 28 28h30v10q0 93 49.5 142.5t144.5 49.5q75 0 135 -33q49 43 137 43q55 0 97 -16zM216 500h130v23q0 21 3 40 q-35 20 -72 20q-29 0 -45 -17.5t-16 -47.5v-18z" />
<glyph unicode="ft" horiz-adv-x="635" d="M377 660l-23 -62q-9 -24 -36 -15q-18 7 -42 7q-28 0 -44 -17.5t-16 -47.5v-25h130v49q0 28 28 28h86q28 0 28 -28v-49h100q28 0 28 -28v-66q0 -28 -28 -28h-100v-210q0 -58 59 -58q14 0 34 5q29 9 35 -18l11 -63q6 -26 -18 -34q-35 -12 -80 -12q-183 0 -183 183v207h-130 v-350q0 -28 -28 -28h-86q-28 0 -28 28v350h-30q-28 0 -28 28v66q0 28 28 28h30v20q0 92 48 142t137 50q61 0 103 -16q26 -9 15 -36z" />
<glyph unicode="fft" horiz-adv-x="907" d="M888 97l11 -63q6 -26 -18 -34q-35 -12 -80 -12q-183 0 -183 183v207h-130v-350q0 -28 -28 -28h-86q-28 0 -28 28v350h-130v-350q0 -28 -28 -28h-86q-28 0 -28 28v350h-30q-28 0 -28 28v66q0 28 28 28h30v10q0 93 49.5 142.5t144.5 49.5q72 0 134 -32q48 42 129 42 q61 0 103 -16q26 -9 15 -36l-23 -62q-9 -24 -36 -15q-18 7 -42 7q-28 0 -44 -17.5t-16 -47.5v-25h130v49q0 28 28 28h86q28 0 28 -28v-49h100q28 0 28 -28v-66q0 -28 -28 -28h-100v-210q0 -58 59 -58q14 0 34 5q29 9 35 -18zM216 500h130v23q0 21 3 40q-35 20 -72 20 q-29 0 -45 -17.5t-16 -47.5v-18z" />
<glyph unicode=" "  horiz-adv-x="215" />
<glyph unicode="&#x09;" horiz-adv-x="215" />
<glyph unicode="&#xa0;" horiz-adv-x="215" />
<glyph unicode="!" horiz-adv-x="268" d="M202 379l-24 -139q-3 -19 -22 -19h-44q-19 0 -22 19l-24 139q-3 19 -3 34v223q0 28 28 28h86q28 0 28 -28v-223q0 -15 -3 -34zM195 12q-24 -24 -61 -24t-61 24t-24 61t24 61t61 24t61 -24t24 -61t-24 -61z" />
<glyph unicode="&#x22;" horiz-adv-x="435" d="M191 635l-16 -218q-2 -23 -25 -23h-56q-23 0 -25 23l-16 218q-2 29 27 29h84q29 0 27 -29zM386 635l-16 -218q-2 -23 -25 -23h-56q-23 0 -25 23l-16 218q-2 29 27 29h84q29 0 27 -29z" />
<glyph unicode="#" horiz-adv-x="530" d="M425 369l-17 -94h47q26 0 21 -26l-11 -64q-4 -22 -26 -22h-50l-25 -141q-4 -22 -26 -22h-66q-26 0 -21 26l24 137h-66l-25 -141q-4 -22 -26 -22h-66q-26 0 -21 26l24 137h-46q-26 0 -21 26l11 64q4 22 26 22h49l17 94h-46q-26 0 -21 26l11 64q4 22 26 22h50l21 121 q4 22 26 22h66q26 0 21 -26l-20 -117h66l21 121q4 22 26 22h66q26 0 21 -26l-20 -117h46q26 0 21 -26l-11 -64q-4 -22 -26 -22h-50zM311 369h-66l-17 -94h66z" />
<glyph unicode="$" horiz-adv-x="530" d="M506 197q0 -80 -56 -133q-54 -51 -147 -56v-67q0 -11 -11 -11h-20q-11 0 -11 11v68q-124 6 -199 81q-18 20 1 39l55 57q18 18 40 0q44 -41 103 -47v105q-106 9 -154 52t-48 131q0 79 56 132q55 52 146 57v61q0 11 11 11h20q11 0 11 -11v-62q107 -6 170 -66q18 -20 -1 -40 l-55 -56q-17 -19 -39 0q-32 26 -75 32v-105q109 -10 156 -52t47 -131zM207 432q0 -36 54 -46v99q-54 -11 -54 -53zM303 238v-99q55 7 55 53q0 36 -55 46z" />
<glyph unicode="%" horiz-adv-x="652" d="M25 428v82q0 59 34.5 92.5t96.5 33.5q61 0 95.5 -33.5t34.5 -92.5v-82q0 -60 -34 -93t-96 -33t-96.5 33t-34.5 93zM157 0h-62q-14 0 -18 8t4 20l386 581q11 15 28 15h62q14 0 18 -8t-4 -20l-386 -581q-11 -15 -28 -15zM119 511v-84q0 -40 37 -40q36 0 36 40v84 q0 40 -36 40q-37 0 -37 -40zM366 114v82q0 59 34.5 92.5t96.5 33.5q61 0 95.5 -33.5t34.5 -92.5v-82q0 -60 -34 -93t-96 -33t-96.5 33t-34.5 93zM460 197v-84q0 -40 37 -40q36 0 36 40v84q0 40 -36 40q-37 0 -37 -40z" />
<glyph unicode="&#x26;" horiz-adv-x="613" d="M431 16l-19 23q-70 -51 -159 -51q-106 0 -165.5 51.5t-59.5 143.5q0 118 109 194q-43 67 -43 125q0 83 49 128.5t136 45.5q83 0 142 -36q23 -14 8 -38l-34 -58q-14 -24 -38 -9q-31 19 -62 19q-59 0 -59 -53q0 -27 37 -73l145 -177q16 33 28 70q7 27 34 19l79 -21 q29 -6 18 -35q-22 -68 -69 -143l87 -107q11 -14 6.5 -24t-22.5 -10h-114q-21 0 -34 16zM265 113q35 0 66 24l-113 138q-42 -37 -42 -85q0 -36 23.5 -56.5t65.5 -20.5z" />
<glyph unicode="'" horiz-adv-x="240" d="M191 635l-16 -218q-2 -23 -25 -23h-56q-23 0 -25 23l-16 218q-2 29 27 29h84q29 0 27 -29z" />
<glyph unicode="(" horiz-adv-x="354" d="M217 664h79q15 0 19 -8t-4 -21q-103 -160 -103 -348t103 -348q8 -13 4 -21t-19 -8h-79q-18 0 -29 14q-125 160 -125 363t125 363q11 14 29 14z" />
<glyph unicode=")" horiz-adv-x="354" d="M141 -90h-79q-15 0 -19 8t4 21q103 160 103 348t-103 348q-8 13 -4 21t19 8h79q18 0 29 -14q125 -160 125 -363t-125 -363q-11 -14 -29 -14z" />
<glyph unicode="*" horiz-adv-x="490" d="M451 486l-137 -23l98 -99q19 -19 -3 -35l-58 -41q-23 -17 -34 8l-64 122l-64 -122q-11 -25 -34 -8l-58 41q-22 16 -3 35l98 99l-137 23q-27 4 -19 31l22 68q8 28 32 14l124 -61l-19 135q-5 27 23 27h71q27 0 23 -27l-20 -135l124 61q24 14 32 -14l22 -68q8 -27 -19 -31z " />
<glyph unicode="+" horiz-adv-x="530" d="M480 213h-149v-149q0 -28 -28 -28h-76q-28 0 -28 28v149h-149q-28 0 -28 28v76q0 28 28 28h149v149q0 28 28 28h76q28 0 28 -28v-149h149q28 0 28 -28v-76q0 -28 -28 -28z" />
<glyph unicode="," horiz-adv-x="266" d="M223 63q0 -56 -29 -114t-74 -95q-16 -12 -29 1l-28 25q-15 15 0 30q36 37 45 92q-55 18 -55 76q0 36 24 58t61 22t61 -25.5t24 -69.5z" />
<glyph unicode="-" horiz-adv-x="340" d="M310 315v-80q0 -28 -28 -28h-224q-28 0 -28 28v80q0 28 28 28h224q28 0 28 -28z" />
<glyph unicode="." horiz-adv-x="266" d="M194 12q-24 -24 -61 -24t-61 24t-24 61t24 61t61 24t61 -24t24 -61t-24 -61z" />
<glyph unicode="/" horiz-adv-x="370" d="M28 27l204 617q8 20 28 20h78q28 0 20 -27l-204 -617q-8 -20 -28 -20h-78q-28 0 -20 27z" />
<glyph unicode="0" horiz-adv-x="530" d="M41 202v220q0 102 58.5 158t165.5 56t165.5 -56t58.5 -158v-220q0 -102 -58.5 -158t-165.5 -56t-165.5 56t-58.5 158zM189 422v-220q0 -40 20 -62t56 -22t56 22t20 62v220q0 40 -20 62t-56 22t-56 -22t-20 -62z" />
<glyph unicode="1" horiz-adv-x="530" d="M427 596v-568q0 -28 -28 -28h-92q-28 0 -28 28v408l-85 -61q-23 -17 -39 7l-43 62q-15 23 7 39l175 130q16 11 34 11h71q28 0 28 -28z" />
<glyph unicode="2" horiz-adv-x="530" d="M266 132v-2h199q28 0 28 -28v-74q0 -28 -28 -28h-368q-28 0 -28 28v77q0 20 14 34l223 220q44 44 44 81q0 31 -20 48.5t-55 17.5q-55 0 -97 -53q-20 -24 -39 -5l-59 50q-20 19 -4 40q78 98 205 98q100 0 158.5 -52.5t58.5 -143.5q0 -96 -83 -173z" />
<glyph unicode="3" horiz-adv-x="530" d="M426 322v-2q86 -41 86 -145q0 -88 -61 -137.5t-168 -49.5q-137 0 -216 81q-18 18 0 39l50 60q18 23 40 1q53 -51 117 -51q43 0 66.5 18t23.5 50q0 39 -26 54.5t-93 15.5h-15q-28 0 -28 28v68q0 28 28 28h10q61 0 84.5 13.5t23.5 48.5q0 64 -79 64q-57 0 -107 -50 q-21 -22 -39 0l-50 60q-17 21 1 39q84 81 204 81q102 0 160 -48.5t58 -134.5q0 -91 -70 -131z" />
<glyph unicode="4" horiz-adv-x="530" d="M440 596v-343h45q28 0 28 -28v-74q0 -28 -28 -28h-45v-95q0 -28 -28 -28h-92q-28 0 -28 28v95h-240q-28 0 -28 28v89q0 18 11 35l242 332q14 17 34 17h101q28 0 28 -28zM292 434h-2l-131 -181h133v181z" />
<glyph unicode="5" horiz-adv-x="530" d="M316 409q90 0 145 -58q55 -56 55 -151q0 -98 -61 -155t-167 -57q-136 0 -216 81q-18 18 0 39l50 60q18 23 40 1q52 -51 117 -51q42 0 65.5 22t23.5 60q0 36 -25 57.5t-66 21.5q-39 0 -69 -18q-16 -12 -36 -9l-64 9q-26 5 -25 31l19 305q2 27 29 27h320q28 0 28 -28v-74 q0 -28 -28 -28h-227l-7 -107h2q40 22 97 22z" />
<glyph unicode="6" horiz-adv-x="530" d="M319 416q83 0 131 -56t48 -153q0 -101 -60 -160t-164 -59q-107 0 -165.5 56t-58.5 158v210q0 107 58 165q59 59 165 59q107 0 178 -46q22 -14 8 -38l-38 -65q-14 -25 -38 -8q-42 27 -94 27q-44 0 -67.5 -24.5t-23.5 -70.5v-39h2q44 44 119 44zM218 140q19 -22 56 -22 t56 22q20 23 20 62t-20 62q-19 22 -56 22t-56 -22q-20 -23 -20 -62t20 -62z" />
<glyph unicode="7" horiz-adv-x="530" d="M502 596v-90q0 -16 -8 -34l-205 -451q-11 -21 -33 -21h-105q-16 0 -22 9.5t1 23.5l220 461h-175v-79q0 -28 -28 -28h-78q-28 0 -28 28v181q0 28 28 28h405q28 0 28 -28z" />
<glyph unicode="8" horiz-adv-x="530" d="M415 321v-2q85 -46 85 -144q0 -89 -61.5 -138t-173.5 -49t-173.5 49t-61.5 138q0 98 85 144v2q-69 45 -69 132t57.5 135t161.5 48t161 -48q58 -48 58 -135t-69 -132zM194 442q0 -62 71 -62t71 62q0 64 -71 64t-71 -64zM352 186q0 70 -87 70t-87 -70q0 -68 87 -68t87 68z " />
<glyph unicode="9" horiz-adv-x="530" d="M256 636q107 0 165.5 -56t58.5 -158v-210q0 -106 -59 -165t-164 -59q-107 0 -178 46q-22 14 -8 38l38 65q14 25 38 8q42 -27 94 -27q44 0 67.5 24.5t23.5 70.5v39h-2q-44 -44 -119 -44q-83 0 -131 56t-48 153q0 101 60 160t164 59zM200 360q19 -22 56 -22t56 22 q20 23 20 62t-20 62q-19 22 -56 22t-56 -22q-20 -23 -20 -62t20 -62z" />
<glyph unicode=":" horiz-adv-x="266" d="M194 12q-24 -24 -61 -24t-61 24t-24 61t24 61t61 24t61 -24t24 -61t-24 -61zM194 348q-24 -24 -61 -24t-61 24t-24 61t24 61t61 24t61 -24t24 -61t-24 -61z" />
<glyph unicode=";" horiz-adv-x="266" d="M223 63q0 -56 -29 -114t-74 -95q-16 -12 -29 1l-28 25q-15 15 0 30q36 37 45 92q-55 18 -55 76q0 36 24 58t61 22t61 -25.5t24 -69.5zM199 348q-24 -24 -61 -24t-61 24t-24 61t24 61t61 24t61 -24t24 -61t-24 -61z" />
<glyph unicode="&#x3c;" horiz-adv-x="530" d="M219 280v-2l254 -96q22 -9 22 -32v-82q0 -16 -9 -22t-23 0l-407 163q-22 9 -22 33v74q0 24 22 33l407 163q14 6 23 0t9 -22v-82q0 -23 -22 -32z" />
<glyph unicode="=" horiz-adv-x="530" d="M498 432v-76q0 -28 -28 -28h-410q-28 0 -28 28v76q0 28 28 28h410q28 0 28 -28zM498 202v-76q0 -28 -28 -28h-410q-28 0 -28 28v76q0 28 28 28h410q28 0 28 -28z" />
<glyph unicode="&#x3e;" horiz-adv-x="530" d="M310 278v2l-254 96q-22 9 -22 32v82q0 16 9 22t23 0l407 -163q22 -9 22 -33v-74q0 -24 -22 -33l-407 -163q-14 -6 -23 0t-9 22v82q0 23 22 32z" />
<glyph unicode="?" horiz-adv-x="466" d="M245 676q99 0 158 -50.5t59 -135.5q0 -61 -23.5 -98.5t-80.5 -67.5q-36 -19 -51 -35.5t-18 -40.5q-5 -27 -29 -27h-78q-28 0 -28 28q0 54 22 91t75 69q36 22 49.5 39.5t13.5 41.5q0 26 -19 41t-51 15q-61 0 -102 -53q-18 -24 -39 -5l-59 50q-20 19 -4 40q78 98 205 98z M285 12q-24 -24 -61 -24t-61 24t-24 61t24 61t61 24t61 -24t24 -61t-24 -61z" />
<glyph unicode="@" horiz-adv-x="738" d="M222 227q0 113 135 113h52q0 63 -59 63q-26 0 -55 -17q-21 -13 -32 7l-20 37q-11 20 8 32q47 30 109 30q74 0 113.5 -38t39.5 -111v-93q0 -53 37 -53q25 0 36.5 30.5t11.5 111.5q0 48 -10 89t-33 78t-65.5 58.5t-101.5 21.5q-122 0 -185 -79t-63 -223q0 -127 65 -199 t182 -72q96 0 160 43q21 13 31 -8l18 -41q9 -19 -9 -31q-80 -52 -203 -52q-165 0 -257 95q-92 97 -92 262q0 185 91 289q91 106 265 106q164 0 242 -104q70 -93 70 -233q0 -111 -40 -171.5t-115 -60.5q-66 0 -92 45h-2q-36 -45 -107 -45q-58 0 -91.5 31.5t-33.5 88.5z M409 254v15h-38q-45 0 -45 -36t39 -36q44 0 44 57z" />
<glyph unicode="A" horiz-adv-x="602" d="M397 641l186 -609q8 -32 -23 -32h-106q-25 0 -31 24l-22 81h-196l-22 -81q-6 -24 -31 -24h-102q-31 0 -23 32l186 609q8 23 31 23h122q23 0 31 -23zM367 235l-63 247h-2l-62 -247h127z" />
<glyph unicode="B" horiz-adv-x="569" d="M438 341v-2q99 -38 99 -160q0 -94 -56.5 -136.5t-180.5 -42.5h-206q-28 0 -28 28v608q0 28 28 28h188q124 0 180.5 -42t56.5 -134q0 -108 -81 -147zM222 528v-125h61q80 0 80 63q0 62 -80 62h-61zM222 269v-133h77q80 0 80 67q0 66 -80 66h-77z" />
<glyph unicode="C" horiz-adv-x="521" d="M293 124q53 0 92 51q17 23 39 8l69 -49q22 -16 8 -38q-71 -108 -208 -108q-118 0 -182 62t-64 178v208q0 116 64 178t182 62q137 0 208 -108q14 -22 -8 -38l-69 -49q-22 -15 -39 8q-38 51 -92 51q-90 0 -90 -116v-184q0 -116 90 -116z" />
<glyph unicode="D" horiz-adv-x="593" d="M94 664h201q251 0 251 -232v-199q0 -233 -251 -233h-201q-28 0 -28 28v608q0 28 28 28zM390 244v177q0 107 -104 107h-64v-392h64q104 0 104 108z" />
<glyph unicode="E" horiz-adv-x="540" d="M222 528v-125h208q28 0 28 -28v-78q0 -28 -28 -28h-208v-133h252q28 0 28 -28v-80q0 -28 -28 -28h-380q-28 0 -28 28v608q0 28 28 28h380q28 0 28 -28v-80q0 -28 -28 -28h-252z" />
<glyph unicode="F" horiz-adv-x="512" d="M222 528v-134h198q28 0 28 -28v-80q0 -28 -28 -28h-198v-230q0 -28 -28 -28h-100q-28 0 -28 28v608q0 28 28 28h370q28 0 28 -28v-80q0 -28 -28 -28h-242z" />
<glyph unicode="G" horiz-adv-x="573" d="M538 356v-121q0 -119 -63.5 -183t-181.5 -64t-182 62t-64 178v208q0 115 65 177.5t186 62.5q152 0 222 -108q14 -22 -8 -38l-69 -49q-22 -15 -39 8q-40 51 -107 51q-94 0 -94 -116v-184q0 -116 93 -116q92 0 92 121v5h-72q-28 0 -28 28v78q0 28 28 28h194q28 0 28 -28z " />
<glyph unicode="H" horiz-adv-x="622" d="M556 636v-608q0 -28 -28 -28h-100q-28 0 -28 28v240h-178v-240q0 -28 -28 -28h-100q-28 0 -28 28v608q0 28 28 28h100q28 0 28 -28v-232h178v232q0 28 28 28h100q28 0 28 -28z" />
<glyph unicode="I" horiz-adv-x="288" d="M222 636v-608q0 -28 -28 -28h-100q-28 0 -28 28v608q0 28 28 28h100q28 0 28 -28z" />
<glyph unicode="J" horiz-adv-x="525" d="M483 636v-415q0 -112 -58.5 -172.5t-168.5 -60.5q-145 0 -217 97q-15 21 6 39l63 56q21 18 39 -5q44 -51 100 -51q80 0 80 107v405q0 28 28 28h100q28 0 28 -28z" />
<glyph unicode="K" horiz-adv-x="589" d="M549 630l-192 -290l203 -306q9 -14 3.5 -24t-22.5 -10h-126q-22 0 -34 19l-157 254h-2v-245q0 -28 -28 -28h-100q-28 0 -28 28v608q0 28 28 28h100q28 0 28 -28v-242h2l155 251q12 19 34 19h117q17 0 22.5 -10t-3.5 -24z" />
<glyph unicode="L" horiz-adv-x="505" d="M487 108v-80q0 -28 -28 -28h-365q-28 0 -28 28v608q0 28 28 28h100q28 0 28 -28v-500h237q28 0 28 -28z" />
<glyph unicode="M" horiz-adv-x="837" d="M573 664h170q28 0 28 -28v-608q0 -28 -28 -28h-100q-28 0 -28 28v421h-2l-130 -426q-8 -23 -31 -23h-70q-23 0 -31 23l-131 429h-2v-424q0 -28 -28 -28h-96q-28 0 -28 28v608q0 28 28 28h173q25 0 31 -23l121 -403h2l121 403q6 23 31 23z" />
<glyph unicode="N" horiz-adv-x="622" d="M528 0h-102q-24 0 -33 21l-173 375h-2v-368q0 -28 -28 -28h-96q-28 0 -28 28v608q0 28 28 28h114q24 0 33 -21l161 -349h2v342q0 28 28 28h96q28 0 28 -28v-608q0 -28 -28 -28z" />
<glyph unicode="O" horiz-adv-x="596" d="M47 228v208q0 115 65 177.5t186 62.5t186 -62.5t65 -177.5v-208q0 -115 -65 -177.5t-186 -62.5t-186 62.5t-65 177.5zM203 424v-184q0 -116 95 -116t95 116v184q0 116 -95 116t-95 -116z" />
<glyph unicode="P" horiz-adv-x="558" d="M94 664h189q129 0 190 -53t61 -166q0 -114 -61 -167.5t-190 -53.5h-61v-196q0 -28 -28 -28h-100q-28 0 -28 28v608q0 28 28 28zM222 528v-168h60q94 0 94 84t-94 84h-60z" />
<glyph unicode="Q" horiz-adv-x="596" d="M539 -44l23 -59q10 -24 -13 -38q-43 -24 -101 -24q-162 0 -177 154q-108 7 -166 68.5t-58 170.5v208q0 115 65 177.5t186 62.5t186 -62.5t65 -177.5v-208q0 -171 -137 -222q2 -47 49 -47q22 0 40 9q28 15 38 -12zM203 424v-184q0 -116 95 -116t95 116v184q0 116 -95 116 t-95 -116z" />
<glyph unicode="R" horiz-adv-x="570" d="M257 238h-35v-210q0 -28 -28 -28h-100q-28 0 -28 28v608q0 28 28 28h187q248 0 248 -212q0 -150 -121 -195l123 -224q8 -14 2 -23.5t-22 -9.5h-118q-23 0 -33 21zM222 528v-158h59q90 0 90 79t-90 79h-59z" />
<glyph unicode="S" horiz-adv-x="522" d="M273 676q136 0 210 -71q19 -19 0 -40l-59 -60q-18 -18 -40 -1q-42 36 -102 36q-76 0 -76 -67q0 -28 24 -43t83 -25q109 -18 156.5 -67t47.5 -142q0 -94 -61 -151q-62 -57 -162 -57q-156 0 -241 87q-18 20 1 39l59 61q19 19 40 0q59 -51 132 -51q76 0 76 67q0 28 -23 42.5 t-84 25.5q-110 19 -157 67.5t-47 141.5q0 94 61 151t162 57z" />
<glyph unicode="T" horiz-adv-x="516" d="M470 528h-134v-500q0 -28 -28 -28h-100q-28 0 -28 28v500h-134q-28 0 -28 28v80q0 28 28 28h424q28 0 28 -28v-80q0 -28 -28 -28z" />
<glyph unicode="U" horiz-adv-x="588" d="M531 636v-415q0 -112 -61.5 -172.5t-175.5 -60.5t-175.5 60.5t-61.5 172.5v415q0 28 28 28h100q28 0 28 -28v-407q0 -105 83 -105t83 105v407q0 28 28 28h96q28 0 28 -28z" />
<glyph unicode="V" horiz-adv-x="584" d="M446 664h100q32 0 24 -32l-180 -609q-8 -23 -31 -23h-118q-23 0 -31 23l-180 609q-8 32 24 32h106q25 0 31 -24l111 -420h2l111 420q6 24 31 24z" />
<glyph unicode="W" horiz-adv-x="860" d="M717 664h105q31 0 24 -31l-151 -609q-6 -24 -31 -24h-108q-25 0 -31 24l-86 359h-2l-86 -359q-6 -24 -31 -24h-108q-25 0 -31 24l-151 609q-7 31 24 31h111q24 0 30 -25l81 -395h2l92 396q6 24 31 24h80q25 0 31 -24l92 -394h2l81 393q6 25 30 25z" />
<glyph unicode="X" horiz-adv-x="594" d="M560 631l-162 -289l172 -309q8 -14 2 -23.5t-22 -9.5h-119q-22 0 -33 20l-97 194h-2l-98 -194q-11 -20 -33 -20h-112q-16 0 -22 9.5t2 23.5l172 309l-162 289q-8 14 -2 23.5t22 9.5h120q22 0 33 -20l86 -172h2l86 172q11 20 33 20h114q16 0 22 -9.5t-2 -23.5z" />
<glyph unicode="Y" horiz-adv-x="560" d="M423 664h114q16 0 22 -9.5t-2 -23.5l-193 -357v-246q0 -28 -28 -28h-100q-28 0 -28 28v247l-193 356q-8 14 -2 23.5t22 9.5h120q22 0 33 -20l100 -204h2l100 204q11 20 33 20z" />
<glyph unicode="Z" horiz-adv-x="535" d="M470 0h-405q-28 0 -28 28v94q0 18 11 35l262 371h-230q-28 0 -28 28v80q0 28 28 28h385q28 0 28 -28v-94q0 -18 -11 -35l-262 -371h250q28 0 28 -28v-80q0 -28 -28 -28z" />
<glyph unicode="[" horiz-adv-x="354" d="M217 552v-530h73q24 0 24 -24v-64q0 -24 -24 -24h-191q-24 0 -24 24v706q0 24 24 24h191q24 0 24 -24v-64q0 -24 -24 -24h-73z" />
<glyph unicode="\" horiz-adv-x="370" d="M48 664h78q20 0 28 -20l204 -617q8 -27 -20 -27h-78q-20 0 -28 20l-204 617q-8 27 20 27z" />
<glyph unicode="]" horiz-adv-x="354" d="M137 22v530h-73q-24 0 -24 24v64q0 24 24 24h191q24 0 24 -24v-706q0 -24 -24 -24h-191q-24 0 -24 24v64q0 24 24 24h73z" />
<glyph unicode="^" horiz-adv-x="530" d="M372 278l-102 193l-102 -193q-11 -20 -34 -20h-90q-16 0 -21.5 9.5t2.5 23.5l173 313q11 20 33 20h78q22 0 33 -20l173 -313q8 -14 2.5 -23.5t-21.5 -9.5h-90q-23 0 -34 20z" />
<glyph unicode="_" horiz-adv-x="500" d="M500 -120h-500v80h500v-80z" />
<glyph unicode="`" horiz-adv-x="500" d="M298 565h-81q-19 0 -29 15l-81 118q-8 12 -3.5 20.5t18.5 8.5h98q17 0 28 -17l67 -116q7 -13 2 -21t-19 -8z" />
<glyph unicode="a" horiz-adv-x="464" d="M218 512q101 0 154.5 -51.5t53.5 -151.5v-129q0 -92 -52.5 -142t-149.5 -50q-195 0 -195 163q0 74 46.5 113.5t136.5 39.5h72q0 46 -20 66t-60 20q-42 0 -79 -24q-25 -14 -38 8l-31 57q-14 23 8 38q67 43 154 43zM224 110q60 0 60 78v21h-52q-44 4 -57 -33 q-11 -32 11 -54q14 -15 38 -12z" />
<glyph unicode="b" horiz-adv-x="490" d="M277 512q85 0 130 -50t45 -142v-140q0 -92 -52.5 -142t-149.5 -50t-149.5 50t-52.5 142v492q0 28 28 28h86q28 0 28 -28v-188h2q32 28 85 28zM310 188v124q0 78 -60 78t-60 -78v-124q0 -78 60 -78t60 78z" />
<glyph unicode="c" horiz-adv-x="395" d="M346 123l35 -53q14 -23 -5 -39q-55 -43 -131 -43q-99 0 -153 52t-54 151v119q0 98 53 150t150 52q75 0 125 -33q21 -15 6 -39l-35 -54q-15 -22 -39 -8q-21 12 -47 12q-71 0 -71 -88v-104q0 -88 76 -88q28 0 51 18q24 19 39 -5z" />
<glyph unicode="d" horiz-adv-x="490" d="M328 700h86q28 0 28 -28v-492q0 -92 -52.5 -142t-149.5 -50t-149.5 50t-52.5 142v140q0 92 45 142t130 50q53 0 85 -28h2v188q0 28 28 28zM300 188v124q0 78 -60 78t-60 -78v-124q0 -78 60 -78t60 78z" />
<glyph unicode="e" horiz-adv-x="463" d="M434 320v-83q0 -28 -28 -28h-226v-11q0 -48 19 -68q20 -20 62 -20q43 0 77 25q26 17 39 -6l35 -53q14 -22 -6 -39q-62 -49 -149 -49q-219 0 -219 203v129q0 92 51.5 142t146.5 50t146.5 -50t51.5 -142zM180 304h120v8q0 78 -60 78t-60 -78v-8z" />
<glyph unicode="f" horiz-adv-x="349" d="M216 525v-25h100q28 0 28 -28v-66q0 -28 -28 -28h-100v-350q0 -28 -28 -28h-86q-28 0 -28 28v350h-30q-28 0 -28 28v66q0 28 28 28h30v20q0 92 48 142t137 50q61 0 102 -16q26 -9 16 -36l-24 -63q-8 -23 -36 -14q-18 7 -44 7t-41.5 -17.5t-15.5 -47.5z" />
<glyph unicode="g" horiz-adv-x="490" d="M442 320v-304q0 -89 -54 -138.5t-151 -49.5q-101 0 -165 48q-21 16 -7 39l34 57q15 25 39 8q43 -31 90 -31q72 0 72 69v19h-2q-32 -28 -85 -28q-85 0 -130 50t-45 142v119q0 92 52.5 142t149.5 50t149.5 -50t52.5 -142zM300 209v103q0 78 -60 78t-60 -78v-103 q0 -78 60 -78t60 78z" />
<glyph unicode="h" horiz-adv-x="496" d="M283 512q80 0 122.5 -49t42.5 -140v-295q0 -28 -28 -28h-86q-28 0 -28 28v288q0 74 -56 74t-56 -74v-288q0 -28 -28 -28h-86q-28 0 -28 28v644q0 28 28 28h86q28 0 28 -28v-188h2q32 28 87 28z" />
<glyph unicode="i" horiz-adv-x="246" d="M180 588q-22 -22 -57 -22q-36 0 -58 22t-22 58q0 35 22 57q23 23 58 23q34 0 57 -23t23 -57q0 -35 -23 -58zM166 0h-86q-28 0 -28 28v444q0 28 28 28h86q28 0 28 -28v-444q0 -28 -28 -28z" />
<glyph unicode="j" horiz-adv-x="246" d="M6 -38q26 0 36 10.5t10 37.5v462q0 28 28 28h86q28 0 28 -28v-462q0 -170 -161 -170h-27q-28 0 -28 28v66q0 28 28 28zM180 588q-22 -22 -57 -22q-36 0 -58 22t-22 58q0 35 22 57q23 23 58 23q34 0 57 -23t23 -57q0 -35 -23 -58z" />
<glyph unicode="k" horiz-adv-x="488" d="M459 466l-137 -208l148 -224q9 -14 3.5 -24t-22.5 -10h-107q-23 0 -33 19l-115 191h-2v-182q0 -28 -28 -28h-86q-28 0 -28 28v644q0 28 28 28h86q28 0 28 -28v-379h2l112 188q10 19 33 19h99q17 0 22.5 -10t-3.5 -24z" />
<glyph unicode="l" horiz-adv-x="246" d="M166 0h-86q-28 0 -28 28v644q0 28 28 28h86q28 0 28 -28v-644q0 -28 -28 -28z" />
<glyph unicode="m" horiz-adv-x="742" d="M506 512q91 0 139.5 -49t48.5 -141v-294q0 -28 -28 -28h-86q-28 0 -28 28v289q0 73 -55 73t-55 -73v-289q0 -28 -28 -28h-86q-28 0 -28 28v289q0 73 -56 73q-54 0 -54 -73v-289q0 -28 -28 -28h-86q-28 0 -28 28v294q0 91 48.5 140.5t138.5 49.5q87 0 135 -50h2 q47 50 134 50z" />
<glyph unicode="n" horiz-adv-x="492" d="M302 28v288q0 74 -56 74t-56 -74v-288q0 -28 -28 -28h-86q-28 0 -28 28v295q0 91 51.5 140t146.5 49t146.5 -49t51.5 -140v-295q0 -28 -28 -28h-86q-28 0 -28 28z" />
<glyph unicode="o" horiz-adv-x="480" d="M442 320v-140q0 -92 -52.5 -142t-149.5 -50t-149.5 50t-52.5 142v140q0 92 52.5 142t149.5 50t149.5 -50t52.5 -142zM300 188v124q0 78 -60 78t-60 -78v-124q0 -78 60 -78t60 78z" />
<glyph unicode="p" horiz-adv-x="490" d="M452 320v-140q0 -92 -45 -142t-130 -50q-54 0 -85 28h-2v-148q0 -28 -28 -28h-86q-28 0 -28 28v452q0 92 52.5 142t149.5 50t149.5 -50t52.5 -142zM310 188v124q0 78 -60 78t-60 -78v-124q0 -78 60 -78t60 78z" />
<glyph unicode="q" horiz-adv-x="490" d="M442 320v-452q0 -28 -28 -28h-86q-28 0 -28 28v149h-2q-32 -28 -85 -28q-85 0 -130 50t-45 142v139q0 92 52.5 142t149.5 50t149.5 -50t52.5 -142zM300 189v123q0 78 -60 78t-60 -78v-123q0 -78 60 -78t60 78z" />
<glyph unicode="r" horiz-adv-x="369" d="M48 28v287q0 97 46.5 147t136.5 50q63 0 113 -26q25 -12 11 -38l-28 -57q-11 -25 -38 -11q-19 10 -42 10q-57 0 -57 -67v-295q0 -28 -28 -28h-86q-28 0 -28 28z" />
<glyph unicode="s" horiz-adv-x="418" d="M417 147q0 -73 -49.5 -116t-132.5 -43q-116 0 -183 49q-22 15 -7 38l34 57q15 23 39 8q50 -32 100 -32q60 0 60 42q0 17 -16 26.5t-57 14.5q-84 11 -122 50t-38 112q0 71 51.5 115t136.5 44q87 0 150 -36q22 -14 8 -38l-30 -56q-13 -23 -38 -10q-35 20 -74 20 q-65 0 -65 -42q0 -31 71 -38q84 -10 123 -50t39 -115z" />
<glyph unicode="t" horiz-adv-x="363" d="M344 96l11 -62q4 -27 -18 -34q-36 -12 -80 -12q-183 0 -183 183v207h-30q-28 0 -28 28v66q0 28 28 28h30v99q0 28 28 28h86q28 0 28 -28v-99h100q28 0 28 -28v-66q0 -28 -28 -28h-100v-210q0 -58 59 -58q14 0 34 5q29 9 35 -19z" />
<glyph unicode="u" horiz-adv-x="486" d="M438 472v-298q0 -90 -50.5 -138t-144.5 -48t-144.5 48t-50.5 138v298q0 28 28 28h86q28 0 28 -28v-294q0 -68 55 -68t55 68v294q0 28 28 28h82q28 0 28 -28z" />
<glyph unicode="v" horiz-adv-x="472" d="M353 500h84q31 0 23 -32l-136 -445q-8 -23 -31 -23h-106q-23 0 -31 23l-136 445q-8 32 23 32h91q25 0 31 -24l77 -307h2l78 307q6 24 31 24z" />
<glyph unicode="w" horiz-adv-x="713" d="M599 500h82q31 0 24 -31l-116 -445q-6 -24 -31 -24h-97q-25 0 -31 24l-64 254h-2l-65 -254q-6 -24 -31 -24h-97q-25 0 -31 24l-116 445q-7 31 24 31h89q24 0 30 -25l64 -293h2l76 294q6 24 31 24h57q25 0 31 -24l75 -289h2l63 288q6 25 31 25z" />
<glyph unicode="x" horiz-adv-x="485" d="M454 467l-118 -208l129 -226q8 -14 2.5 -23.5t-22.5 -9.5h-102q-23 0 -33 21l-64 135h-2l-64 -135q-10 -21 -33 -21h-95q-16 0 -22 9.5t2 23.5l129 227l-118 207q-8 14 -2 23.5t22 9.5h103q22 0 33 -21l53 -113h2l53 113q11 21 33 21h94q16 0 22 -9.5t-2 -23.5z" />
<glyph unicode="y" horiz-adv-x="496" d="M330 500h86q28 0 28 -28v-456q0 -89 -54 -138.5t-151 -49.5q-99 0 -166 48q-19 16 -6 39l34 57q15 25 39 8q43 -31 90 -31q72 0 72 69v18h-2q-32 -28 -87 -28q-80 0 -122.5 49t-42.5 140v275q0 28 28 28h86q28 0 28 -28v-268q0 -74 56 -74t56 74v268q0 28 28 28z" />
<glyph unicode="z" horiz-adv-x="440" d="M407 94v-66q0 -28 -28 -28h-318q-28 0 -28 28v81q0 19 12 34l193 235h-162q-28 0 -28 28v66q0 28 28 28h298q28 0 28 -28v-81q0 -19 -12 -34l-193 -235h182q28 0 28 -28z" />
<glyph unicode="{" horiz-adv-x="364" d="M245 474v-62q0 -104 -92 -124v-2q92 -20 92 -124v-62q0 -43 12.5 -60.5t42.5 -17.5q24 0 24 -24v-64q0 -24 -24 -24h-27q-89 0 -129.5 38.5t-40.5 124.5v73q0 76 -46 83q-24 5 -24 26v64q0 21 24 26q46 7 46 83v73q0 86 40.5 124.5t129.5 38.5h27q24 0 24 -24v-64 q0 -24 -24 -24q-30 0 -42.5 -17.5t-12.5 -60.5z" />
<glyph unicode="|" horiz-adv-x="265" d="M167 -160h-69q-24 0 -24 24v812q0 24 24 24h69q24 0 24 -24v-812q0 -24 -24 -24z" />
<glyph unicode="}" horiz-adv-x="364" d="M119 100v62q0 104 92 124v2q-92 20 -92 124v62q0 43 -12.5 60.5t-42.5 17.5q-24 0 -24 24v64q0 24 24 24h27q89 0 129.5 -38.5t40.5 -124.5v-73q0 -76 46 -83q24 -5 24 -26v-64q0 -21 -24 -26q-46 -7 -46 -83v-73q0 -86 -40.5 -124.5t-129.5 -38.5h-27q-24 0 -24 24v64 q0 24 24 24q30 0 42.5 17.5t12.5 60.5z" />
<glyph unicode="~" horiz-adv-x="530" d="M193 244q-32 0 -58 -42q-14 -24 -38 -12l-61 32q-24 14 -12 38q32 61 70.5 88.5t90.5 27.5q50 0 114 -38q39 -24 62 -24q33 0 58 42q14 24 38 12l61 -32q24 -14 12 -38q-32 -61 -70.5 -88.5t-90.5 -27.5q-50 0 -114 38q-39 24 -62 24z" />
<glyph unicode="&#xa1;" horiz-adv-x="268" d="M66 285l24 139q3 19 22 19h44q19 0 22 -19l24 -139q3 -19 3 -34v-223q0 -28 -28 -28h-86q-28 0 -28 28v223q0 15 3 34zM73 652q24 24 61 24t61 -24t24 -61t-24 -61t-61 -24t-61 24t-24 61t24 61z" />
<glyph unicode="&#xa2;" horiz-adv-x="530" d="M430 150l37 -57q14 -23 -5 -39q-46 -37 -119 -45v-68q0 -11 -11 -11h-20q-11 0 -11 11v67q-103 3 -158 57t-55 155v94q0 101 55 154.5t158 55.5v61q0 11 11 11h20q11 0 11 -11v-62q65 -6 108 -34q21 -15 6 -39l-38 -58q-15 -22 -39 -8q-15 9 -37 12v-260q30 4 48 19 q22 18 39 -5zM236 305v-78q0 -79 65 -90v259q-65 -9 -65 -91z" />
<glyph unicode="&#xa3;" horiz-adv-x="530" d="M485 569q18 -18 -1 -39l-54 -56q-19 -19 -40 0q-37 32 -87 32q-35 0 -54.5 -18t-19.5 -49q0 -23 19 -62q12 -25 15 -35h130q24 0 24 -24v-48q0 -24 -24 -24h-116q-5 -69 -50 -114v-2h225q28 0 28 -28v-74q0 -28 -28 -28h-348q-28 0 -28 28v76q0 20 16 35q53 53 53 103v4 h-62q-24 0 -24 24v48q0 24 24 24h36q-23 39 -30.5 63t-7.5 57q0 78 58.5 126t154.5 48q124 0 191 -67z" />
<glyph unicode="&#xa4;" horiz-adv-x="530" d="M465 309q0 -42 -17 -81l54 -52q17 -17 0 -34l-52 -52q-17 -17 -34 1l-52 54q-36 -18 -82 -18t-82 18l-52 -54q-17 -18 -34 -1l-52 52q-17 17 0 34l54 52q-17 39 -17 81q0 45 18 82l-54 52q-18 17 -1 34l52 52q17 17 34 0l52 -53q82 38 164 0l52 53q17 17 34 0l52 -52 q17 -17 -1 -34l-54 -52q18 -37 18 -82zM230 257q21 -21 53 -21t53 21t21 53t-21 53t-53 21t-53 -21t-21 -53t21 -53z" />
<glyph unicode="&#xa5;" horiz-adv-x="530" d="M384 624h104q17 0 22.5 -9.5t-3.5 -24.5l-159 -264h117q22 0 22 -22v-42q0 -22 -22 -22h-121v-54h121q22 0 22 -22v-42q0 -22 -22 -22h-121v-72q0 -28 -28 -28h-92q-28 0 -28 28v72h-121q-22 0 -22 22v42q0 22 22 22h121v54h-121q-22 0 -22 22v42q0 22 22 22h118 l-160 264q-9 15 -3.5 24.5t22.5 9.5h110q23 0 34 -20l76 -145h2l76 145q11 20 34 20z" />
<glyph unicode="&#xa6;" horiz-adv-x="265" d="M167 350h-69q-24 0 -24 24v302q0 24 24 24h69q24 0 24 -24v-302q0 -24 -24 -24zM167 -160h-69q-24 0 -24 24v302q0 24 24 24h69q24 0 24 -24v-302q0 -24 -24 -24z" />
<glyph unicode="&#xa7;" horiz-adv-x="544" d="M432 153v-2q63 -44 63 -133q0 -87 -59 -138.5t-160 -51.5q-144 0 -222 75q-19 19 0 40l50 51q18 19 39 1q53 -46 130 -46q39 0 61 15.5t22 43.5q0 23 -24 36t-86 22q-114 16 -163 57t-49 122q0 89 71 142v2q-56 44 -56 133t57.5 139.5t160.5 50.5q124 0 195 -62 q20 -18 0 -39l-49 -51q-18 -19 -40 -1q-41 32 -103 32q-37 0 -59.5 -16.5t-22.5 -43.5q0 -23 25 -36.5t85 -21.5q115 -15 163.5 -56t48.5 -122q0 -94 -78 -142zM303 193q31 10 49.5 31t18.5 47q0 31 -29.5 46.5t-109.5 26.5q-59 -25 -59 -76q0 -30 26 -47q25 -14 104 -28z " />
<glyph unicode="&#xa8;" horiz-adv-x="500" d="M158 572q-33 0 -53.5 21t-20.5 53t20.5 53t53.5 21q32 0 53 -21t21 -53t-21 -53t-53 -21zM342 572q-32 0 -53 21t-21 53t21 53t53 21q33 0 53.5 -21t20.5 -53t-20.5 -53t-53.5 -21z" />
<glyph unicode="&#xa9;" horiz-adv-x="752" d="M130 577q99 99 246 99q148 0 245 -99q99 -97 99 -245q0 -147 -99 -246q-98 -98 -245 -98q-146 0 -246 98q-98 100 -98 246q0 147 98 245zM192 141q76 -78 184 -78t183 78q76 79 76 191q0 113 -76 190q-75 79 -183 79t-184 -79q-75 -78 -75 -190t75 -191zM378 440 q-43 0 -43 -57v-102q0 -57 43 -57q24 0 42 21q14 17 31 5l34 -24q19 -14 5 -31q-39 -54 -112 -54q-67 0 -102.5 34.5t-35.5 98.5v116q0 64 35.5 98.5t102.5 34.5q73 0 112 -54q14 -17 -5 -31l-34 -24q-16 -12 -35 9q-17 17 -38 17z" />
<glyph unicode="&#xaa;" horiz-adv-x="360" d="M167 636q79 0 121.5 -40.5t42.5 -117.5v-97q0 -71 -41.5 -110t-116.5 -39q-154 0 -154 128q0 118 142 118h49q0 54 -56 54q-28 0 -54 -14q-23 -12 -33 7l-26 48q-11 22 7 32q50 31 119 31zM173 336q37 0 37 51v11h-31q-39 0 -39 -31t33 -31z" />
<glyph unicode="&#xab;" horiz-adv-x="498" d="M260 416l-102 -166l102 -166q7 -13 2.5 -21t-18.5 -8h-79q-19 0 -29 16l-100 162q-11 17 0 34l100 162q10 16 29 16h79q14 0 18.5 -8t-2.5 -21zM472 416l-102 -166l102 -166q7 -13 2.5 -21t-18.5 -8h-79q-19 0 -29 16l-100 162q-11 17 0 34l100 162q10 16 29 16h79 q14 0 18.5 -8t-2.5 -21z" />
<glyph unicode="&#xac;" horiz-adv-x="530" d="M508 367v-253q0 -28 -28 -28h-76q-28 0 -28 28v149h-326q-28 0 -28 28v76q0 28 28 28h430q28 0 28 -28z" />
<glyph unicode="&#xad;" horiz-adv-x="340" d="M310 315v-80q0 -28 -28 -28h-224q-28 0 -28 28v80q0 28 28 28h224q28 0 28 -28z" />
<glyph unicode="&#xae;" horiz-adv-x="752" d="M130 577q99 99 246 99q148 0 245 -99q99 -97 99 -245q0 -147 -99 -246q-98 -98 -245 -98q-146 0 -246 98q-98 100 -98 246q0 147 98 245zM192 141q76 -78 184 -78t183 78q76 79 76 191q0 113 -76 190q-75 79 -183 79t-184 -79q-75 -78 -75 -190t75 -191zM520 397 q0 -86 -70 -110l66 -113q6 -11 1.5 -18.5t-17.5 -7.5h-61q-17 0 -26 16l-63 131h-2v-125q0 -22 -22 -22h-51q-22 0 -22 22v324q0 22 22 22h106q139 0 139 -119zM348 433v-75h33q42 0 42 37q0 38 -42 38h-33z" />
<glyph unicode="&#xaf;" horiz-adv-x="500" d="M394 668v-64q0 -24 -24 -24h-239q-24 0 -24 24v64q0 24 24 24h239q24 0 24 -24z" />
<glyph unicode="&#xb0;" horiz-adv-x="368" d="M300 358q-46 -46 -116 -46t-116 46t-46 116t46 116t116 46t116 -46t46 -116t-46 -116zM139 426q18 -19 45 -19t45 19t18 48t-18 48t-45 19t-45 -19t-18 -48t18 -48z" />
<glyph unicode="&#xb1;" horiz-adv-x="530" d="M331 263v-131h144q28 0 28 -28v-76q0 -28 -28 -28h-420q-28 0 -28 28v76q0 28 28 28h144v131h-144q-28 0 -28 28v76q0 28 28 28h144v119q0 28 28 28h76q28 0 28 -28v-119h144q28 0 28 -28v-76q0 -28 -28 -28h-144z" />
<glyph unicode="&#xb2;" d="M180 455v-2h103q23 0 23 -23v-43q0 -23 -23 -23h-212q-23 0 -23 23v45q0 17 12 29l129 130q23 25 23 42q0 34 -39 34q-28 0 -49 -25q-15 -18 -32 -4l-34 30q-18 14 -2 33q49 55 121 55q63 0 98.5 -32.5t35.5 -90.5q0 -55 -53 -105z" />
<glyph unicode="&#xb3;" d="M264 561v-2q55 -22 55 -87q0 -55 -37 -85.5t-103 -30.5q-80 0 -127 46q-15 15 -1 32l28 35q15 19 32 2q32 -26 62 -26q47 0 47 34q0 21 -14.5 29t-51.5 8h-2q-23 0 -23 23v39q0 23 23 23q34 0 46.5 7t12.5 26q0 33 -41 33q-27 0 -55 -25q-19 -16 -32 1l-28 34 q-14 18 1 33q52 46 120 46q63 0 98.5 -30.5t35.5 -84.5q0 -58 -46 -80z" />
<glyph unicode="&#xb4;" horiz-adv-x="500" d="M402 698l-81 -118q-11 -15 -29 -15h-81q-14 0 -19 8t2 21l67 116q11 17 28 17h98q14 0 18.5 -8.5t-3.5 -20.5z" />
<glyph unicode="&#xb5;" horiz-adv-x="496" d="M334 500h86q28 0 28 -28v-295q0 -91 -42.5 -140t-122.5 -49q-55 0 -87 28h-2v-148q0 -28 -28 -28h-86q-28 0 -28 28v604q0 28 28 28h86q28 0 28 -28v-288q0 -74 56 -74t56 74v288q0 28 28 28z" />
<glyph unicode="&#xb6;" horiz-adv-x="582" d="M519 677v-814q0 -23 -23 -23h-65q-23 0 -23 23v721h-69v-721q0 -23 -23 -23h-65q-23 0 -23 23v399q-106 8 -156.5 61.5t-50.5 157.5q0 113 61 166t190 53h224q23 0 23 -23z" />
<glyph unicode="&#xb7;" horiz-adv-x="266" d="M194 251q-24 -24 -61 -24t-61 24t-24 61t24 61t61 24t61 -24t24 -61t-24 -61z" />
<glyph unicode="&#xb8;" horiz-adv-x="500" d="M232 28h65l-12 -61q34 -4 53 -21.5t19 -43.5q0 -74 -106 -74q-45 0 -75 13q-22 9 -12 33l10 24q9 23 32 12q24 -11 40 -11q26 0 26 19q0 17 -34 20q-13 2 -17 7.5t-2 17.5z" />
<glyph unicode="&#xb9;" d="M278 726v-340q0 -23 -23 -23h-53q-23 0 -23 23v235l-39 -29q-19 -13 -32 5l-25 36q-12 19 6 33l97 73q13 10 29 10h40q23 0 23 -23z" />
<glyph unicode="&#xba;" horiz-adv-x="375" d="M346 487v-106q0 -71 -41.5 -110t-117.5 -39t-117 39t-41 110v106q0 71 41 110t117 39t117.5 -39t41.5 -110zM225 387v94q0 51 -38 51q-37 0 -37 -51v-94q0 -51 37 -51q38 0 38 51z" />
<glyph unicode="&#xbb;" horiz-adv-x="498" d="M252 84l102 166l-102 166q-7 13 -2.5 21t18.5 8h79q19 0 29 -16l100 -162q11 -17 0 -34l-100 -162q-10 -16 -29 -16h-79q-14 0 -18.5 8t2.5 21zM40 84l102 166l-102 166q-7 13 -2.5 21t18.5 8h79q19 0 29 -16l100 -162q11 -17 0 -34l-100 -162q-10 -16 -29 -16h-79 q-14 0 -18.5 8t2.5 21z" />
<glyph unicode="&#xbc;" horiz-adv-x="804" d="M759 363v-200h20q23 0 23 -23v-43q0 -23 -23 -23h-20v-51q0 -23 -23 -23h-53q-23 0 -23 23v51h-132q-23 0 -23 23v54q0 15 9 29l134 192q11 14 28 14h60q23 0 23 -23zM660 163v99h-2l-69 -99h71zM209 28l386 581q11 15 28 15h62q14 0 18 -8t-4 -20l-386 -581 q-11 -15 -28 -15h-62q-14 0 -18 8t4 20zM278 601v-340q0 -23 -23 -23h-53q-23 0 -23 23v235l-39 -29q-19 -13 -32 5l-25 36q-12 20 6 33l97 73q13 10 29 10h40q23 0 23 -23z" />
<glyph unicode="&#xbd;" horiz-adv-x="804" d="M658 92v-2h103q23 0 23 -23v-43q0 -23 -23 -23h-212q-23 0 -23 23v45q0 17 12 29l129 130q23 25 23 42q0 34 -39 34q-28 0 -49 -25q-15 -18 -32 -4l-34 30q-18 14 -2 33q49 55 121 55q63 0 98.5 -32.5t35.5 -90.5q0 -55 -53 -105zM169 28l386 581q11 15 28 15h62 q14 0 18 -8t-4 -20l-386 -581q-11 -15 -28 -15h-62q-14 0 -18 8t4 20zM278 601v-340q0 -23 -23 -23h-53q-23 0 -23 23v235l-39 -29q-19 -13 -32 5l-25 36q-12 20 6 33l97 73q13 10 29 10h40q23 0 23 -23z" />
<glyph unicode="&#xbe;" horiz-adv-x="804" d="M264 436v-2q55 -22 55 -87q0 -55 -37 -85.5t-103 -30.5q-80 0 -127 46q-15 15 -1 32l28 35q15 19 32 2q32 -26 62 -26q47 0 47 34q0 21 -14.5 29t-51.5 8h-2q-23 0 -23 23v39q0 23 23 23q34 0 46.5 7t12.5 26q0 33 -41 33q-27 0 -55 -25q-19 -16 -32 1l-28 34 q-14 18 1 33q52 46 120 46q63 0 98.5 -30.5t35.5 -84.5q0 -58 -46 -80zM761 363v-200h20q23 0 23 -23v-43q0 -23 -23 -23h-20v-51q0 -23 -23 -23h-53q-23 0 -23 23v51h-132q-23 0 -23 23v54q0 15 9 29l134 192q11 14 28 14h60q23 0 23 -23zM662 163v99h-2l-69 -99h71z M206 28l386 581q10 15 28 15h62q14 0 18 -8t-4 -20l-386 -581q-10 -15 -28 -15h-62q-14 0 -18 8t4 20z" />
<glyph unicode="&#xbf;" horiz-adv-x="466" d="M238 -12q-99 0 -158 50.5t-59 135.5q0 61 23.5 98.5t80.5 67.5q36 19 51 35.5t18 40.5q4 27 29 27h78q28 0 28 -28q0 -54 -22 -91t-75 -69q-36 -22 -49.5 -39.5t-13.5 -41.5q0 -26 19 -41t51 -15q61 0 102 53q18 24 39 5l59 -50q20 -19 4 -40q-78 -98 -205 -98zM198 652 q24 24 61 24t61 -24t24 -61t-24 -61t-61 -24t-61 24t-24 61t24 61z" />
<glyph unicode="&#xc0;" horiz-adv-x="602" d="M397 641l186 -609q8 -32 -23 -32h-106q-25 0 -31 24l-22 81h-196l-22 -81q-6 -24 -31 -24h-102q-31 0 -23 32l186 609q8 23 31 23h122q23 0 31 -23zM367 235l-63 247h-2l-62 -247h127zM349 723h-81q-18 0 -29 15l-81 118q-8 12 -3.5 20.5t18.5 8.5h98q17 0 28 -17 l67 -116q7 -13 2 -21t-19 -8z" />
<glyph unicode="&#xc1;" horiz-adv-x="602" d="M397 641l186 -609q8 -32 -23 -32h-106q-25 0 -31 24l-22 81h-196l-22 -81q-6 -24 -31 -24h-102q-31 0 -23 32l186 609q8 23 31 23h122q23 0 31 -23zM367 235l-63 247h-2l-62 -247h127zM452 856l-81 -118q-11 -15 -29 -15h-81q-14 0 -19 8t2 21l67 116q11 17 28 17h98 q14 0 18.5 -8.5t-3.5 -20.5z" />
<glyph unicode="&#xc2;" horiz-adv-x="602" d="M397 641l186 -609q8 -32 -23 -32h-106q-25 0 -31 24l-22 81h-196l-22 -81q-6 -24 -31 -24h-102q-31 0 -23 32l186 609q8 23 31 23h122q23 0 31 -23zM367 235l-63 247h-2l-62 -247h127zM339 738l-34 50l-34 -50q-11 -15 -29 -15h-74q-15 0 -19 8.5t4 20.5l80 118 q11 15 29 15h86q18 0 29 -15l80 -118q8 -12 4 -20.5t-19 -8.5h-74q-18 0 -29 15z" />
<glyph unicode="&#xc3;" horiz-adv-x="602" d="M397 641l186 -609q8 -32 -23 -32h-106q-25 0 -31 24l-22 81h-196l-22 -81q-6 -24 -31 -24h-102q-31 0 -23 32l186 609q8 23 31 23h122q23 0 31 -23zM367 235l-63 247h-2l-62 -247h127zM210 726h-47q-24 0 -21 23q6 62 35 95t77 33q36 0 74 -30q16 -14 27 -14q15 0 21 21 q6 20 24 20h47q24 0 21 -23q-6 -62 -35 -95t-77 -33q-36 0 -74 30q-16 14 -27 14q-15 0 -21 -21q-6 -20 -24 -20z" />
<glyph unicode="&#xc4;" horiz-adv-x="602" d="M397 641l186 -609q8 -32 -23 -32h-106q-25 0 -31 24l-22 81h-196l-22 -81q-6 -24 -31 -24h-102q-31 0 -23 32l186 609q8 23 31 23h122q23 0 31 -23zM367 235l-63 247h-2l-62 -247h127zM213 730q-33 0 -53.5 21t-20.5 53t20.5 53t53.5 21q32 0 53 -21t21 -53t-21 -53 t-53 -21zM397 730q-32 0 -53 21t-21 53t21 53t53 21q33 0 53.5 -21t20.5 -53t-20.5 -53t-53.5 -21z" />
<glyph unicode="&#xc5;" horiz-adv-x="602" d="M397 641l186 -609q8 -32 -23 -32h-106q-25 0 -31 24l-22 81h-196l-22 -81q-6 -24 -31 -24h-102q-31 0 -23 32l186 609q8 23 31 23h122q23 0 31 -23zM367 235l-63 247h-2l-62 -247h127zM370 737q-26 -26 -65 -26t-65 26t-26 65t26 65t65 26t65 -26t26 -65t-26 -65z M282 779q10 -9 23 -9t22 9q10 9 10 23t-10 23q-9 9 -22 9t-23 -9q-9 -9 -9 -23t9 -23z" />
<glyph unicode="&#xc6;" horiz-adv-x="861" d="M549 528v-125h208q28 0 28 -28v-78q0 -28 -28 -28h-208v-133h252q28 0 28 -28v-80q0 -28 -28 -28h-380q-28 0 -28 28v77h-173l-38 -84q-9 -21 -32 -21h-114q-16 0 -22 9.5t1 23.5l299 611q11 20 33 20h454q28 0 28 -28v-80q0 -28 -28 -28h-252zM391 498l-112 -263h114 v263h-2z" />
<glyph unicode="&#xc7;" horiz-adv-x="521" d="M424 183l69 -49q22 -16 8 -38q-64 -99 -186 -107l-4 -22q34 -4 53 -21.5t19 -43.5q0 -74 -106 -74q-45 0 -75 13q-22 9 -12 33l10 24q9 23 32 12q24 -11 40 -11q26 0 26 19q0 17 -34 20q-13 2 -17 7.5t-2 17.5l5 27q-98 11 -150.5 72t-52.5 166v208q0 116 64 178t182 62 q137 0 208 -108q14 -22 -8 -38l-69 -49q-22 -15 -39 8q-38 51 -92 51q-90 0 -90 -116v-184q0 -116 90 -116q53 0 92 51q17 23 39 8z" />
<glyph unicode="&#xc8;" horiz-adv-x="540" d="M222 528v-125h208q28 0 28 -28v-78q0 -28 -28 -28h-208v-133h252q28 0 28 -28v-80q0 -28 -28 -28h-380q-28 0 -28 28v608q0 28 28 28h380q28 0 28 -28v-80q0 -28 -28 -28h-252zM328 723h-81q-19 0 -29 15l-81 118q-8 12 -3.5 20.5t18.5 8.5h98q17 0 28 -17l67 -116 q7 -13 2 -21t-19 -8z" />
<glyph unicode="&#xc9;" horiz-adv-x="540" d="M222 528v-125h208q28 0 28 -28v-78q0 -28 -28 -28h-208v-133h252q28 0 28 -28v-80q0 -28 -28 -28h-380q-28 0 -28 28v608q0 28 28 28h380q28 0 28 -28v-80q0 -28 -28 -28h-252zM431 856l-81 -118q-10 -15 -29 -15h-81q-14 0 -19 8t2 21l67 116q11 17 28 17h98 q14 0 18.5 -8.5t-3.5 -20.5z" />
<glyph unicode="&#xca;" horiz-adv-x="540" d="M222 528v-125h208q28 0 28 -28v-78q0 -28 -28 -28h-208v-133h252q28 0 28 -28v-80q0 -28 -28 -28h-380q-28 0 -28 28v608q0 28 28 28h380q28 0 28 -28v-80q0 -28 -28 -28h-252zM318 738l-34 50l-34 -50q-11 -15 -29 -15h-74q-15 0 -19 8.5t4 20.5l80 118q11 15 29 15h86 q19 0 29 -15l80 -118q8 -12 4 -20.5t-19 -8.5h-74q-19 0 -29 15z" />
<glyph unicode="&#xcb;" horiz-adv-x="540" d="M222 528v-125h208q28 0 28 -28v-78q0 -28 -28 -28h-208v-133h252q28 0 28 -28v-80q0 -28 -28 -28h-380q-28 0 -28 28v608q0 28 28 28h380q28 0 28 -28v-80q0 -28 -28 -28h-252zM192 730q-33 0 -53.5 21t-20.5 53t20.5 53t53.5 21q32 0 53 -21t21 -53t-21 -53t-53 -21z M376 730q-32 0 -53 21t-21 53t21 53t53 21q33 0 53.5 -21t20.5 -53t-20.5 -53t-53.5 -21z" />
<glyph unicode="&#xcc;" horiz-adv-x="288" d="M227 636v-608q0 -28 -28 -28h-100q-28 0 -28 28v608q0 28 28 28h100q28 0 28 -28zM193 723h-81q-18 0 -29 15l-81 118q-8 12 -3.5 20.5t18.5 8.5h98q17 0 28 -17l67 -116q7 -13 2 -21t-19 -8z" />
<glyph unicode="&#xcd;" horiz-adv-x="288" d="M222 636v-608q0 -28 -28 -28h-100q-28 0 -28 28v608q0 28 28 28h100q28 0 28 -28zM291 856l-81 -118q-10 -15 -29 -15h-81q-14 0 -19 8t2 21l67 116q11 17 28 17h98q14 0 18.5 -8.5t-3.5 -20.5z" />
<glyph unicode="&#xce;" horiz-adv-x="288" d="M226 636v-608q0 -28 -28 -28h-100q-28 0 -28 28v608q0 28 28 28h100q28 0 28 -28zM182 738l-34 50l-34 -50q-10 -15 -29 -15h-74q-15 0 -19 8.5t4 20.5l80 118q10 15 29 15h86q19 0 29 -15l80 -118q8 -12 4 -20.5t-19 -8.5h-74q-19 0 -29 15z" />
<glyph unicode="&#xcf;" horiz-adv-x="288" d="M52 730q-33 0 -53.5 21t-20.5 53t20.5 53t53.5 21q32 0 53 -21t21 -53t-21 -53t-53 -21zM236 730q-32 0 -53 21t-21 53t21 53t53 21q33 0 53.5 -21t20.5 -53t-20.5 -53t-53.5 -21zM222 636v-608q0 -28 -28 -28h-100q-28 0 -28 28v608q0 28 28 28h100q28 0 28 -28z" />
<glyph unicode="&#xd0;" horiz-adv-x="608" d="M109 664h201q251 0 251 -232v-199q0 -233 -251 -233h-201q-28 0 -28 28v248h-33q-25 0 -25 25v72q0 25 25 25h33v238q0 28 28 28zM405 244v177q0 107 -104 107h-64v-130h67q25 0 25 -25v-72q0 -25 -25 -25h-67v-140h64q104 0 104 108z" />
<glyph unicode="&#xd1;" horiz-adv-x="622" d="M528 0h-102q-24 0 -33 21l-173 375h-2v-368q0 -28 -28 -28h-96q-28 0 -28 28v608q0 28 28 28h114q24 0 33 -21l161 -349h2v342q0 28 28 28h96q28 0 28 -28v-608q0 -28 -28 -28zM216 726h-47q-24 0 -21 23q6 62 35 95t77 33q36 0 74 -30q16 -14 27 -14q15 0 21 21 q6 20 24 20h47q24 0 21 -23q-6 -62 -35 -95t-77 -33q-36 0 -74 30q-16 14 -27 14q-15 0 -21 -21q-6 -20 -24 -20z" />
<glyph unicode="&#xd2;" horiz-adv-x="596" d="M47 228v208q0 115 65 177.5t186 62.5t186 -62.5t65 -177.5v-208q0 -115 -65 -177.5t-186 -62.5t-186 62.5t-65 177.5zM203 424v-184q0 -116 95 -116t95 116v184q0 116 -95 116t-95 -116zM342 723h-81q-19 0 -29 15l-81 118q-8 12 -3.5 20.5t18.5 8.5h98q17 0 28 -17 l67 -116q7 -13 2 -21t-19 -8z" />
<glyph unicode="&#xd3;" horiz-adv-x="596" d="M47 228v208q0 115 65 177.5t186 62.5t186 -62.5t65 -177.5v-208q0 -115 -65 -177.5t-186 -62.5t-186 62.5t-65 177.5zM203 424v-184q0 -116 95 -116t95 116v184q0 116 -95 116t-95 -116zM445 856l-81 -118q-10 -15 -29 -15h-81q-14 0 -19 8t2 21l67 116q11 17 28 17h98 q14 0 18.5 -8.5t-3.5 -20.5z" />
<glyph unicode="&#xd4;" horiz-adv-x="596" d="M47 228v208q0 115 65 177.5t186 62.5t186 -62.5t65 -177.5v-208q0 -115 -65 -177.5t-186 -62.5t-186 62.5t-65 177.5zM203 424v-184q0 -116 95 -116t95 116v184q0 116 -95 116t-95 -116zM332 738l-34 50l-34 -50q-11 -15 -29 -15h-74q-15 0 -19 8.5t4 20.5l80 118 q11 15 29 15h86q18 0 29 -15l80 -118q8 -12 4 -20.5t-19 -8.5h-74q-19 0 -29 15z" />
<glyph unicode="&#xd5;" horiz-adv-x="596" d="M203 726h-47q-24 0 -21 23q6 62 35 95t77 33q37 0 74 -30q16 -14 27 -14q15 0 21 21q6 20 24 20h47q24 0 21 -23q-6 -62 -35 -95t-77 -33q-37 0 -74 30q-16 14 -27 14q-15 0 -21 -21q-6 -20 -24 -20zM47 228v208q0 115 65 177.5t186 62.5t186 -62.5t65 -177.5v-208 q0 -115 -65 -177.5t-186 -62.5t-186 62.5t-65 177.5zM203 424v-184q0 -116 95 -116t95 116v184q0 116 -95 116t-95 -116z" />
<glyph unicode="&#xd6;" horiz-adv-x="596" d="M47 228v208q0 115 65 177.5t186 62.5t186 -62.5t65 -177.5v-208q0 -115 -65 -177.5t-186 -62.5t-186 62.5t-65 177.5zM203 424v-184q0 -116 95 -116t95 116v184q0 116 -95 116t-95 -116zM206 730q-33 0 -53.5 21t-20.5 53t20.5 53t53.5 21q32 0 53 -21t21 -53t-21 -53 t-53 -21zM390 730q-32 0 -53 21t-21 53t21 53t53 21q33 0 53.5 -21t20.5 -53t-20.5 -53t-53.5 -21z" />
<glyph unicode="&#xd7;" horiz-adv-x="530" d="M520 415l-136 -136l136 -136q20 -20 0 -40l-53 -53q-20 -20 -40 0l-136 136l-136 -136q-20 -20 -40 0l-53 53q-20 20 0 40l136 136l-136 136q-20 20 0 40l53 53q20 20 40 0l136 -136l136 136q20 20 40 0l53 -53q20 -20 0 -40z" />
<glyph unicode="&#xd8;" horiz-adv-x="596" d="M556 600l-24 -37q27 -53 27 -127v-208q0 -115 -65 -177.5t-186 -62.5q-83 0 -140 30l-12 -18q-12 -20 -33 -7l-56 38q-20 12 -7 33l24 37q-27 52 -27 127v208q0 115 65 177.5t186 62.5q83 0 140 -30l12 18q12 20 33 7l56 -38q19 -13 7 -33zM308 540q-95 0 -95 -116v-128 h2l151 228q-19 16 -58 16zM403 368h-2l-151 -228q19 -16 58 -16q95 0 95 116v128z" />
<glyph unicode="&#xd9;" horiz-adv-x="588" d="M531 636v-415q0 -112 -61.5 -172.5t-175.5 -60.5t-175.5 60.5t-61.5 172.5v415q0 28 28 28h100q28 0 28 -28v-407q0 -105 83 -105t83 105v407q0 28 28 28h96q28 0 28 -28zM338 723h-81q-19 0 -29 15l-81 118q-8 12 -3.5 20.5t18.5 8.5h98q17 0 28 -17l67 -116 q7 -13 2 -21t-19 -8z" />
<glyph unicode="&#xda;" horiz-adv-x="588" d="M531 636v-415q0 -112 -61.5 -172.5t-175.5 -60.5t-175.5 60.5t-61.5 172.5v415q0 28 28 28h100q28 0 28 -28v-407q0 -105 83 -105t83 105v407q0 28 28 28h96q28 0 28 -28zM441 856l-81 -118q-10 -15 -29 -15h-81q-14 0 -19 8t2 21l67 116q11 17 28 17h98q14 0 18.5 -8.5 t-3.5 -20.5z" />
<glyph unicode="&#xdb;" horiz-adv-x="588" d="M531 636v-415q0 -112 -61.5 -172.5t-175.5 -60.5t-175.5 60.5t-61.5 172.5v415q0 28 28 28h100q28 0 28 -28v-407q0 -105 83 -105t83 105v407q0 28 28 28h96q28 0 28 -28zM328 738l-34 50l-34 -50q-10 -15 -29 -15h-74q-15 0 -19 8.5t4 20.5l80 118q10 15 29 15h86 q19 0 29 -15l80 -118q8 -12 4 -20.5t-19 -8.5h-74q-19 0 -29 15z" />
<glyph unicode="&#xdc;" horiz-adv-x="588" d="M531 636v-415q0 -112 -61.5 -172.5t-175.5 -60.5t-175.5 60.5t-61.5 172.5v415q0 28 28 28h100q28 0 28 -28v-407q0 -105 83 -105t83 105v407q0 28 28 28h96q28 0 28 -28zM202 730q-33 0 -53.5 21t-20.5 53t20.5 53t53.5 21q32 0 53 -21t21 -53t-21 -53t-53 -21zM386 730 q-32 0 -53 21t-21 53t21 53t53 21q33 0 53.5 -21t20.5 -53t-20.5 -53t-53.5 -21z" />
<glyph unicode="&#xdd;" horiz-adv-x="560" d="M423 664h114q16 0 22 -9.5t-2 -23.5l-193 -357v-246q0 -28 -28 -28h-100q-28 0 -28 28v247l-193 356q-8 14 -2 23.5t22 9.5h120q22 0 33 -20l100 -204h2l100 204q11 20 33 20zM433 856l-81 -118q-10 -15 -29 -15h-81q-14 0 -19 8t2 21l67 116q11 17 28 17h98 q14 0 18.5 -8.5t-3.5 -20.5z" />
<glyph unicode="&#xde;" horiz-adv-x="558" d="M222 636v-74h61q129 0 190 -53t61 -166q0 -114 -61 -167.5t-190 -53.5h-61v-94q0 -28 -28 -28h-100q-28 0 -28 28v608q0 28 28 28h100q28 0 28 -28zM222 426v-168h60q94 0 94 84t-94 84h-60z" />
<glyph unicode="&#xdf;" horiz-adv-x="556" d="M52 28v492q0 89 55 140.5t150 51.5q101 0 157 -46.5t56 -130.5q0 -85 -80 -145q-36 -28 -36 -47q0 -14 11.5 -22.5t44.5 -16.5q67 -16 97.5 -54t30.5 -103q0 -73 -49.5 -116t-132.5 -43q-80 0 -128 19q-24 9 -16 36l21 64q10 27 37 15q36 -14 69 -14q59 0 59 38 q0 18 -14 29t-50 22q-48 15 -79 37q-41 31 -41 107q0 67 72 126q44 35 44 62q0 29 -18 45t-51 16q-32 0 -49.5 -17t-17.5 -48v-497q0 -28 -28 -28h-86q-28 0 -28 28z" />
<glyph unicode="&#xe0;" horiz-adv-x="464" d="M218 512q101 0 154.5 -51.5t53.5 -151.5v-129q0 -92 -52.5 -142t-149.5 -50q-195 0 -195 163q0 74 46.5 113.5t136.5 39.5h72q0 46 -20 66t-60 20q-42 0 -79 -24q-25 -14 -38 8l-31 57q-14 23 8 38q67 43 154 43zM224 110q60 0 60 78v21h-52q-44 4 -57 -33 q-11 -32 11 -54q14 -15 38 -12zM279 565h-81q-18 0 -29 15l-81 118q-8 12 -3.5 20.5t18.5 8.5h98q17 0 28 -17l67 -116q7 -13 2 -21t-19 -8z" />
<glyph unicode="&#xe1;" horiz-adv-x="464" d="M218 512q101 0 154.5 -51.5t53.5 -151.5v-129q0 -92 -52.5 -142t-149.5 -50q-195 0 -195 163q0 74 46.5 113.5t136.5 39.5h72q0 46 -20 66t-60 20q-42 0 -79 -24q-25 -14 -38 8l-31 57q-14 23 8 38q67 43 154 43zM224 110q60 0 60 78v21h-52q-44 4 -57 -33 q-11 -32 11 -54q14 -15 38 -12zM382 698l-81 -118q-11 -15 -29 -15h-81q-14 0 -19 8t2 21l67 116q11 17 28 17h98q14 0 18.5 -8.5t-3.5 -20.5z" />
<glyph unicode="&#xe2;" horiz-adv-x="464" d="M218 512q101 0 154.5 -51.5t53.5 -151.5v-129q0 -92 -52.5 -142t-149.5 -50q-195 0 -195 163q0 74 46.5 113.5t136.5 39.5h72q0 46 -20 66t-60 20q-42 0 -79 -24q-25 -14 -38 8l-31 57q-14 23 8 38q67 43 154 43zM224 110q60 0 60 78v21h-52q-44 4 -57 -33 q-11 -32 11 -54q14 -15 38 -12zM269 580l-34 50l-34 -50q-11 -15 -29 -15h-74q-15 0 -19 8.5t4 20.5l80 118q11 15 29 15h86q18 0 29 -15l80 -118q8 -12 4 -20.5t-19 -8.5h-74q-18 0 -29 15z" />
<glyph unicode="&#xe3;" horiz-adv-x="464" d="M218 512q101 0 154.5 -51.5t53.5 -151.5v-129q0 -92 -52.5 -142t-149.5 -50q-195 0 -195 163q0 74 46.5 113.5t136.5 39.5h72q0 46 -20 66t-60 20q-42 0 -79 -24q-25 -14 -38 8l-31 57q-14 23 8 38q67 43 154 43zM224 110q60 0 60 78v21h-52q-44 4 -57 -33 q-11 -32 11 -54q14 -15 38 -12zM140 568h-47q-24 0 -21 23q6 62 35 95t77 33q37 0 74 -30q16 -14 27 -14q15 0 21 21q6 20 24 20h47q24 0 21 -23q-6 -62 -35 -95t-77 -33q-36 0 -74 30q-16 14 -27 14q-15 0 -21 -21q-6 -20 -24 -20z" />
<glyph unicode="&#xe4;" horiz-adv-x="464" d="M218 512q101 0 154.5 -51.5t53.5 -151.5v-129q0 -92 -52.5 -142t-149.5 -50q-195 0 -195 163q0 74 46.5 113.5t136.5 39.5h72q0 46 -20 66t-60 20q-42 0 -79 -24q-25 -14 -38 8l-31 57q-14 23 8 38q67 43 154 43zM224 110q60 0 60 78v21h-52q-44 4 -57 -33 q-11 -32 11 -54q14 -15 38 -12zM143 572q-33 0 -53.5 21t-20.5 53t20.5 53t53.5 21q32 0 53 -21t21 -53t-21 -53t-53 -21zM327 572q-32 0 -53 21t-21 53t21 53t53 21q33 0 53.5 -21t20.5 -53t-20.5 -53t-53.5 -21z" />
<glyph unicode="&#xe5;" horiz-adv-x="464" d="M218 512q101 0 154.5 -51.5t53.5 -151.5v-129q0 -92 -52.5 -142t-149.5 -50q-195 0 -195 163q0 74 46.5 113.5t136.5 39.5h72q0 46 -20 66t-60 20q-42 0 -79 -24q-25 -14 -38 8l-31 57q-14 23 8 38q67 43 154 43zM224 110q60 0 60 78v21h-52q-44 4 -57 -33 q-11 -32 11 -54q14 -15 38 -12zM300 579q-26 -26 -65 -26t-65 26t-26 65t26 65t65 26t65 -26t26 -65t-26 -65zM212 621q10 -9 23 -9t22 9q10 9 10 23t-10 23q-9 9 -22 9t-23 -9q-9 -9 -9 -23t9 -23z" />
<glyph unicode="&#xe6;" horiz-adv-x="709" d="M502 512q82 0 130 -51.5t48 -140.5v-83q0 -28 -28 -28h-226v-11q0 -48 19 -68q20 -20 62 -20q43 0 77 25q26 17 39 -6l35 -53q15 -23 -4 -39q-61 -49 -141 -49q-110 0 -155 68h-2q-44 -68 -152 -68q-81 0 -128 43.5t-47 119.5q0 74 46.5 113.5t136.5 39.5h72q0 46 -20 66 t-60 20q-42 0 -79 -24q-25 -14 -38 8l-31 57q-13 25 9 38q67 43 143 43q102 0 145 -66h2q43 66 147 66zM426 304h120v8q0 78 -60 78t-60 -78v-8zM284 188v21h-52q-44 4 -57 -33q-11 -32 11 -54q14 -15 38 -12q60 0 60 78z" />
<glyph unicode="&#xe7;" horiz-adv-x="395" d="M346 123l35 -53q15 -22 -5 -39q-50 -40 -123 -43l-4 -21q34 -4 53 -21.5t19 -43.5q0 -74 -106 -74q-45 0 -75 13q-22 9 -12 33l10 24q9 23 32 12q24 -11 40 -11q26 0 26 19q0 17 -34 20q-13 2 -17 7.5t-2 17.5l6 30q-151 30 -151 198v119q0 98 53 150t150 52 q75 0 125 -33q21 -15 6 -39l-35 -54q-15 -22 -39 -8q-21 12 -47 12q-71 0 -71 -88v-104q0 -88 76 -88q28 0 51 18q24 19 39 -5z" />
<glyph unicode="&#xe8;" horiz-adv-x="463" d="M434 320v-83q0 -28 -28 -28h-226v-11q0 -48 19 -68q20 -20 62 -20q43 0 77 25q26 17 39 -6l35 -53q14 -22 -6 -39q-62 -49 -149 -49q-219 0 -219 203v129q0 92 51.5 142t146.5 50t146.5 -50t51.5 -142zM180 304h120v8q0 78 -60 78t-60 -78v-8zM282 565h-81q-19 0 -29 15 l-81 118q-8 12 -3.5 20.5t18.5 8.5h98q17 0 28 -17l67 -116q7 -13 2 -21t-19 -8z" />
<glyph unicode="&#xe9;" horiz-adv-x="463" d="M434 320v-83q0 -28 -28 -28h-226v-11q0 -48 19 -68q20 -20 62 -20q43 0 77 25q26 17 39 -6l35 -53q14 -22 -6 -39q-62 -49 -149 -49q-219 0 -219 203v129q0 92 51.5 142t146.5 50t146.5 -50t51.5 -142zM180 304h120v8q0 78 -60 78t-60 -78v-8zM385 698l-81 -118 q-10 -15 -29 -15h-81q-14 0 -19 8t2 21l67 116q11 17 28 17h98q14 0 18.5 -8.5t-3.5 -20.5z" />
<glyph unicode="&#xea;" horiz-adv-x="463" d="M434 320v-83q0 -28 -28 -28h-226v-11q0 -48 19 -68q20 -20 62 -20q43 0 77 25q26 17 39 -6l35 -53q14 -22 -6 -39q-62 -49 -149 -49q-219 0 -219 203v129q0 92 51.5 142t146.5 50t146.5 -50t51.5 -142zM180 304h120v8q0 78 -60 78t-60 -78v-8zM272 580l-34 50l-34 -50 q-10 -15 -29 -15h-74q-15 0 -19 8.5t4 20.5l80 118q11 15 29 15h86q19 0 29 -15l80 -118q8 -12 4 -20.5t-19 -8.5h-74q-19 0 -29 15z" />
<glyph unicode="&#xeb;" horiz-adv-x="463" d="M434 320v-83q0 -28 -28 -28h-226v-11q0 -48 19 -68q20 -20 62 -20q43 0 77 25q26 17 39 -6l35 -53q14 -22 -6 -39q-62 -49 -149 -49q-219 0 -219 203v129q0 92 51.5 142t146.5 50t146.5 -50t51.5 -142zM180 304h120v8q0 78 -60 78t-60 -78v-8zM146 572q-33 0 -53.5 21 t-20.5 53t20.5 53t53.5 21q32 0 53 -21t21 -53t-21 -53t-53 -21zM330 572q-32 0 -53 21t-21 53t21 53t53 21q33 0 53.5 -21t20.5 -53t-20.5 -53t-53.5 -21z" />
<glyph unicode="&#xec;" horiz-adv-x="246" d="M171 0h-86q-28 0 -28 28v444q0 28 28 28h86q28 0 28 -28v-444q0 -28 -28 -28zM172 565h-81q-19 0 -29 15l-81 118q-8 12 -3.5 20.5t18.5 8.5h98q17 0 28 -17l67 -116q7 -13 2 -21t-19 -8z" />
<glyph unicode="&#xed;" horiz-adv-x="246" d="M166 0h-86q-28 0 -28 28v444q0 28 28 28h86q28 0 28 -28v-444q0 -28 -28 -28zM270 698l-81 -118q-11 -15 -29 -15h-81q-14 0 -19 8t2 21l67 116q11 17 28 17h98q14 0 18.5 -8.5t-3.5 -20.5z" />
<glyph unicode="&#xee;" horiz-adv-x="246" d="M170 0h-86q-28 0 -28 28v444q0 28 28 28h86q28 0 28 -28v-444q0 -28 -28 -28zM161 580l-34 50l-34 -50q-11 -15 -29 -15h-74q-15 0 -19 8.5t4 20.5l80 118q10 15 29 15h86q19 0 29 -15l80 -118q8 -12 4 -20.5t-19 -8.5h-74q-18 0 -29 15z" />
<glyph unicode="&#xef;" horiz-adv-x="246" d="M31 572q-33 0 -53.5 21t-20.5 53t20.5 53t53.5 21q32 0 53 -21t21 -53t-21 -53t-53 -21zM215 572q-32 0 -53 21t-21 53t21 53t53 21q33 0 53.5 -21t20.5 -53t-20.5 -53t-53.5 -21zM166 0h-86q-28 0 -28 28v444q0 28 28 28h86q28 0 28 -28v-444q0 -28 -28 -28z" />
<glyph unicode="&#xf0;" horiz-adv-x="486" d="M347 659l-27 -23q122 -96 122 -329v-127q0 -92 -52.5 -142t-149.5 -50t-149.5 50t-52.5 142v120q0 92 45 142t130 50q31 0 57 -14h2q-20 42 -59 68l-52 -43q-13 -10 -22 2l-10 12q-10 11 1 22l36 30q-30 10 -58 16q-29 5 -23 32l15 71q6 28 32 23q88 -17 147 -48l38 32 q13 10 22 -2l10 -12q11 -11 -2 -22zM300 188v104q0 78 -60 78t-60 -78v-104q0 -78 60 -78t60 78z" />
<glyph unicode="&#xf1;" horiz-adv-x="492" d="M151 568h-47q-24 0 -21 23q6 62 35 95t77 33q37 0 74 -30q16 -14 27 -14q15 0 21 21q6 20 24 20h47q24 0 21 -23q-6 -62 -35 -95t-77 -33q-37 0 -74 30q-16 14 -27 14q-15 0 -21 -21q-6 -20 -24 -20zM302 28v288q0 74 -56 74t-56 -74v-288q0 -28 -28 -28h-86 q-28 0 -28 28v295q0 91 51.5 140t146.5 49t146.5 -49t51.5 -140v-295q0 -28 -28 -28h-86q-28 0 -28 28z" />
<glyph unicode="&#xf2;" horiz-adv-x="480" d="M442 320v-140q0 -92 -52.5 -142t-149.5 -50t-149.5 50t-52.5 142v140q0 92 52.5 142t149.5 50t149.5 -50t52.5 -142zM300 188v124q0 78 -60 78t-60 -78v-124q0 -78 60 -78t60 78zM284 565h-81q-19 0 -29 15l-81 118q-8 12 -3.5 20.5t18.5 8.5h98q17 0 28 -17l67 -116 q7 -13 2 -21t-19 -8z" />
<glyph unicode="&#xf3;" horiz-adv-x="480" d="M442 320v-140q0 -92 -52.5 -142t-149.5 -50t-149.5 50t-52.5 142v140q0 92 52.5 142t149.5 50t149.5 -50t52.5 -142zM300 188v124q0 78 -60 78t-60 -78v-124q0 -78 60 -78t60 78zM387 698l-81 -118q-10 -15 -29 -15h-81q-14 0 -19 8t2 21l67 116q11 17 28 17h98 q14 0 18.5 -8.5t-3.5 -20.5z" />
<glyph unicode="&#xf4;" horiz-adv-x="480" d="M442 320v-140q0 -92 -52.5 -142t-149.5 -50t-149.5 50t-52.5 142v140q0 92 52.5 142t149.5 50t149.5 -50t52.5 -142zM300 188v124q0 78 -60 78t-60 -78v-124q0 -78 60 -78t60 78zM274 580l-34 50l-34 -50q-10 -15 -29 -15h-74q-15 0 -19 8.5t4 20.5l80 118q10 15 29 15 h86q19 0 29 -15l80 -118q8 -12 4 -20.5t-19 -8.5h-74q-19 0 -29 15z" />
<glyph unicode="&#xf5;" horiz-adv-x="480" d="M145 568h-47q-24 0 -21 23q6 62 35 95t77 33q37 0 74 -30q16 -14 27 -14q15 0 21 21q6 20 24 20h47q24 0 21 -23q-6 -62 -35 -95t-77 -33q-37 0 -74 30q-16 14 -27 14q-15 0 -21 -21q-6 -20 -24 -20zM442 320v-140q0 -92 -52.5 -142t-149.5 -50t-149.5 50t-52.5 142v140 q0 92 52.5 142t149.5 50t149.5 -50t52.5 -142zM300 188v124q0 78 -60 78t-60 -78v-124q0 -78 60 -78t60 78z" />
<glyph unicode="&#xf6;" horiz-adv-x="480" d="M442 320v-140q0 -92 -52.5 -142t-149.5 -50t-149.5 50t-52.5 142v140q0 92 52.5 142t149.5 50t149.5 -50t52.5 -142zM300 188v124q0 78 -60 78t-60 -78v-124q0 -78 60 -78t60 78zM148 572q-33 0 -53.5 21t-20.5 53t20.5 53t53.5 21q32 0 53 -21t21 -53t-21 -53t-53 -21z M332 572q-32 0 -53 21t-21 53t21 53t53 21q33 0 53.5 -21t20.5 -53t-20.5 -53t-53.5 -21z" />
<glyph unicode="&#xf7;" horiz-adv-x="530" d="M325 419q-23 -23 -60 -23t-60 23t-23 60t23 60t60 23t60 -23t23 -60t-23 -60zM480 213h-430q-28 0 -28 28v76q0 28 28 28h430q28 0 28 -28v-76q0 -28 -28 -28zM325 19q-23 -23 -60 -23t-60 23t-23 60t23 60t60 23t60 -23t23 -60t-23 -60z" />
<glyph unicode="&#xf8;" horiz-adv-x="480" d="M449 441l-17 -24q20 -43 20 -97v-140q0 -92 -52.5 -142t-149.5 -50q-63 0 -108 21l-7 -10q-13 -19 -32 -6l-46 34q-20 12 -6 32l17 24q-20 43 -20 97v140q0 92 52.5 142t149.5 50q63 0 108 -21l7 10q13 19 32 6l46 -34q20 -12 6 -32zM250 390q-60 0 -60 -78v-54h2l89 125 q-10 7 -31 7zM310 242h-2l-89 -125q10 -7 31 -7q60 0 60 78v54z" />
<glyph unicode="&#xf9;" horiz-adv-x="486" d="M438 472v-298q0 -90 -50.5 -138t-144.5 -48t-144.5 48t-50.5 138v298q0 28 28 28h86q28 0 28 -28v-294q0 -68 55 -68t55 68v294q0 28 28 28h82q28 0 28 -28zM287 565h-81q-18 0 -29 15l-81 118q-8 12 -3.5 20.5t18.5 8.5h98q17 0 28 -17l67 -116q7 -13 2 -21t-19 -8z" />
<glyph unicode="&#xfa;" horiz-adv-x="486" d="M438 472v-298q0 -90 -50.5 -138t-144.5 -48t-144.5 48t-50.5 138v298q0 28 28 28h86q28 0 28 -28v-294q0 -68 55 -68t55 68v294q0 28 28 28h82q28 0 28 -28zM390 698l-81 -118q-11 -15 -29 -15h-81q-14 0 -19 8t2 21l67 116q11 17 28 17h98q14 0 18.5 -8.5t-3.5 -20.5z " />
<glyph unicode="&#xfb;" horiz-adv-x="486" d="M438 472v-298q0 -90 -50.5 -138t-144.5 -48t-144.5 48t-50.5 138v298q0 28 28 28h86q28 0 28 -28v-294q0 -68 55 -68t55 68v294q0 28 28 28h82q28 0 28 -28zM277 580l-34 50l-34 -50q-11 -15 -29 -15h-74q-15 0 -19 8.5t4 20.5l80 118q10 15 29 15h86q18 0 29 -15 l80 -118q8 -12 4 -20.5t-19 -8.5h-74q-18 0 -29 15z" />
<glyph unicode="&#xfc;" horiz-adv-x="486" d="M438 472v-298q0 -90 -50.5 -138t-144.5 -48t-144.5 48t-50.5 138v298q0 28 28 28h86q28 0 28 -28v-294q0 -68 55 -68t55 68v294q0 28 28 28h82q28 0 28 -28zM151 572q-33 0 -53.5 21t-20.5 53t20.5 53t53.5 21q32 0 53 -21t21 -53t-21 -53t-53 -21zM335 572q-32 0 -53 21 t-21 53t21 53t53 21q33 0 53.5 -21t20.5 -53t-20.5 -53t-53.5 -21z" />
<glyph unicode="&#xfd;" horiz-adv-x="496" d="M330 500h86q28 0 28 -28v-456q0 -89 -54 -138.5t-151 -49.5q-99 0 -166 48q-19 16 -6 39l34 57q15 25 39 8q43 -31 90 -31q72 0 72 69v18h-2q-32 -28 -87 -28q-80 0 -122.5 49t-42.5 140v275q0 28 28 28h86q28 0 28 -28v-268q0 -74 56 -74t56 74v268q0 28 28 28zM393 698 l-81 -118q-10 -15 -29 -15h-81q-14 0 -19 8t2 21l67 116q11 17 28 17h98q14 0 18.5 -8.5t-3.5 -20.5z" />
<glyph unicode="&#xfe;" horiz-adv-x="494" d="M281 512q85 0 130 -50t45 -142v-140q0 -92 -45 -142t-130 -50q-54 0 -85 28h-2v-148q0 -28 -28 -28h-86q-28 0 -28 28v804q0 28 28 28h86q28 0 28 -28v-188h2q31 28 85 28zM314 188v124q0 78 -60 78t-60 -78v-124q0 -78 60 -78t60 78z" />
<glyph unicode="&#xff;" horiz-adv-x="496" d="M330 500h86q28 0 28 -28v-456q0 -89 -54 -138.5t-151 -49.5q-99 0 -166 48q-19 16 -6 39l34 57q15 25 39 8q43 -31 90 -31q72 0 72 69v18h-2q-32 -28 -87 -28q-80 0 -122.5 49t-42.5 140v275q0 28 28 28h86q28 0 28 -28v-268q0 -74 56 -74t56 74v268q0 28 28 28zM154 572 q-33 0 -53.5 21t-20.5 53t20.5 53t53.5 21q32 0 53 -21t21 -53t-21 -53t-53 -21zM338 572q-32 0 -53 21t-21 53t21 53t53 21q33 0 53.5 -21t20.5 -53t-20.5 -53t-53.5 -21z" />
<glyph unicode="&#x100;" horiz-adv-x="602" d="M397 641l186 -609q8 -32 -23 -32h-106q-25 0 -31 24l-22 81h-196l-22 -81q-6 -24 -31 -24h-102q-31 0 -23 32l186 609q8 23 31 23h122q23 0 31 -23zM367 235l-63 247h-2l-62 -247h127zM448 826v-64q0 -24 -24 -24h-239q-24 0 -24 24v64q0 24 24 24h239q24 0 24 -24z" />
<glyph unicode="&#x101;" horiz-adv-x="464" d="M218 512q101 0 154.5 -51.5t53.5 -151.5v-129q0 -92 -52.5 -142t-149.5 -50q-195 0 -195 163q0 74 46.5 113.5t136.5 39.5h72q0 46 -20 66t-60 20q-42 0 -79 -24q-25 -14 -38 8l-31 57q-14 23 8 38q67 43 154 43zM224 110q60 0 60 78v21h-52q-44 4 -57 -33 q-11 -32 11 -54q14 -15 38 -12zM378 668v-64q0 -24 -24 -24h-239q-24 0 -24 24v64q0 24 24 24h239q24 0 24 -24z" />
<glyph unicode="&#x102;" horiz-adv-x="602" d="M397 641l186 -609q8 -32 -23 -32h-106q-25 0 -31 24l-22 81h-196l-22 -81q-6 -24 -31 -24h-102q-31 0 -23 32l186 609q8 23 31 23h122q23 0 31 -23zM367 235l-63 247h-2l-62 -247h127zM381 878h58q24 0 22 -23q-7 -63 -48 -96.5t-108 -33.5t-108 33.5t-48 96.5 q-2 23 22 23h58q18 0 24 -19q10 -28 52 -28t52 28q6 19 24 19z" />
<glyph unicode="&#x103;" horiz-adv-x="464" d="M218 512q101 0 154.5 -51.5t53.5 -151.5v-129q0 -92 -52.5 -142t-149.5 -50q-195 0 -195 163q0 74 46.5 113.5t136.5 39.5h72q0 46 -20 66t-60 20q-42 0 -79 -24q-25 -14 -38 8l-31 57q-14 23 8 38q67 43 154 43zM224 110q60 0 60 78v21h-52q-44 4 -57 -33 q-11 -32 11 -54q14 -15 38 -12zM311 720h58q24 0 22 -23q-7 -63 -48 -96.5t-108 -33.5t-108 33.5t-48 96.5q-2 23 22 23h58q18 0 24 -19q10 -28 52 -28t52 28q6 19 24 19z" />
<glyph unicode="&#x104;" horiz-adv-x="602" d="M574 -79l24 -32q14 -19 -3 -33q-34 -28 -86 -28q-47 0 -73.5 22t-26.5 60q0 49 47 90h-2q-25 0 -31 24l-22 81h-196l-22 -81q-6 -24 -31 -24h-102q-31 0 -23 32l186 609q8 23 31 23h122q23 0 31 -23l186 -609q8 -32 -23 -32h-18q-37 -24 -37 -58q0 -10 6 -16t15 -6 q8 0 18 7q16 13 30 -6zM304 482h-2l-62 -247h127z" />
<glyph unicode="&#x105;" horiz-adv-x="464" d="M342 14q-52 -31 -52 -72q0 -15 13 -20t25 4q16 13 30 -5l24 -32q15 -19 -3 -34q-35 -27 -85 -27q-47 0 -73.5 22t-26.5 60q0 43 30 76v2q-195 0 -195 163q0 74 46.5 113.5t136.5 39.5h72q0 46 -20 66t-60 20q-42 0 -79 -24q-25 -14 -38 8l-31 57q-12 23 8 38 q67 43 154 43q101 0 154.5 -51.5t53.5 -151.5v-129q0 -116 -84 -166zM284 188v21h-52q-44 4 -57 -33q-11 -32 11 -54q14 -15 38 -12q60 0 60 78z" />
<glyph unicode="&#x106;" horiz-adv-x="521" d="M293 124q53 0 92 51q17 23 39 8l69 -49q22 -16 8 -38q-71 -108 -208 -108q-118 0 -182 62t-64 178v208q0 116 64 178t182 62q137 0 208 -108q14 -22 -8 -38l-69 -49q-22 -15 -39 8q-38 51 -92 51q-90 0 -90 -116v-184q0 -116 90 -116zM430 856l-81 -118q-11 -15 -29 -15 h-81q-14 0 -19 8t2 21l67 116q11 17 28 17h98q14 0 18.5 -8.5t-3.5 -20.5z" />
<glyph unicode="&#x107;" horiz-adv-x="395" d="M346 123l35 -53q14 -23 -5 -39q-55 -43 -131 -43q-99 0 -153 52t-54 151v119q0 98 53 150t150 52q75 0 125 -33q21 -15 6 -39l-35 -54q-15 -22 -39 -8q-21 12 -47 12q-71 0 -71 -88v-104q0 -88 76 -88q28 0 51 18q24 19 39 -5zM367 698l-81 -118q-10 -15 -29 -15h-81 q-14 0 -19 8t2 21l67 116q11 17 28 17h98q14 0 18.5 -8.5t-3.5 -20.5z" />
<glyph unicode="&#x108;" horiz-adv-x="521" d="M293 124q53 0 92 51q17 23 39 8l69 -49q22 -16 8 -38q-71 -108 -208 -108q-118 0 -182 62t-64 178v208q0 116 64 178t182 62q137 0 208 -108q14 -22 -8 -38l-69 -49q-22 -15 -39 8q-38 51 -92 51q-90 0 -90 -116v-184q0 -116 90 -116zM317 738l-34 50l-34 -50 q-11 -15 -29 -15h-74q-15 0 -19 8.5t4 20.5l80 118q11 15 29 15h86q18 0 29 -15l80 -118q8 -12 4 -20.5t-19 -8.5h-74q-18 0 -29 15z" />
<glyph unicode="&#x109;" horiz-adv-x="395" d="M346 123l35 -53q14 -23 -5 -39q-55 -43 -131 -43q-99 0 -153 52t-54 151v119q0 98 53 150t150 52q75 0 125 -33q21 -15 6 -39l-35 -54q-15 -22 -39 -8q-21 12 -47 12q-71 0 -71 -88v-104q0 -88 76 -88q28 0 51 18q24 19 39 -5zM254 580l-34 50l-34 -50q-10 -15 -29 -15 h-74q-15 0 -19 8.5t4 20.5l80 118q11 15 29 15h86q19 0 29 -15l80 -118q8 -12 4 -20.5t-19 -8.5h-74q-19 0 -29 15z" />
<glyph unicode="&#x10a;" horiz-adv-x="521" d="M293 124q53 0 92 51q17 23 39 8l69 -49q22 -16 8 -38q-71 -108 -208 -108q-118 0 -182 62t-64 178v208q0 116 64 178t182 62q137 0 208 -108q14 -22 -8 -38l-69 -49q-22 -15 -39 8q-38 51 -92 51q-90 0 -90 -116v-184q0 -116 90 -116zM340 746q-22 -22 -57 -22 q-36 0 -58 22t-22 58q0 35 22 57q23 23 58 23q34 0 57 -23t23 -57q0 -35 -23 -58z" />
<glyph unicode="&#x10b;" horiz-adv-x="395" d="M346 123l35 -53q14 -23 -5 -39q-55 -43 -131 -43q-99 0 -153 52t-54 151v119q0 98 53 150t150 52q75 0 125 -33q21 -15 6 -39l-35 -54q-15 -22 -39 -8q-21 12 -47 12q-71 0 -71 -88v-104q0 -88 76 -88q28 0 51 18q24 19 39 -5zM277 588q-22 -22 -57 -22q-36 0 -58 22 t-22 58q0 35 22 57q23 23 58 23q34 0 57 -23t23 -57q0 -35 -23 -58z" />
<glyph unicode="&#x10c;" horiz-adv-x="521" d="M293 124q53 0 92 51q17 23 39 8l69 -49q22 -16 8 -38q-71 -108 -208 -108q-118 0 -182 62t-64 178v208q0 116 64 178t182 62q137 0 208 -108q14 -22 -8 -38l-69 -49q-22 -15 -39 8q-38 51 -92 51q-90 0 -90 -116v-184q0 -116 90 -116zM435 856l-80 -118q-11 -15 -29 -15 h-86q-18 0 -29 15l-80 118q-8 12 -4 20.5t19 8.5h74q18 0 29 -15l34 -50l34 50q11 15 29 15h74q15 0 19 -8.5t-4 -20.5z" />
<glyph unicode="&#x10d;" horiz-adv-x="395" d="M346 123l35 -53q14 -23 -5 -39q-55 -43 -131 -43q-99 0 -153 52t-54 151v119q0 98 53 150t150 52q75 0 125 -33q21 -15 6 -39l-35 -54q-15 -22 -39 -8q-21 12 -47 12q-71 0 -71 -88v-104q0 -88 76 -88q28 0 51 18q24 19 39 -5zM372 698l-80 -118q-10 -15 -29 -15h-86 q-19 0 -29 15l-80 118q-8 12 -4 20.5t19 8.5h74q19 0 29 -15l34 -50l34 50q10 15 29 15h74q15 0 19 -8.5t-4 -20.5z" />
<glyph unicode="&#x10e;" horiz-adv-x="593" d="M94 664h201q251 0 251 -232v-199q0 -233 -251 -233h-201q-28 0 -28 28v608q0 28 28 28zM390 244v177q0 107 -104 107h-64v-392h64q104 0 104 108zM433 856l-80 -118q-11 -15 -29 -15h-86q-18 0 -29 15l-80 118q-8 12 -4 20.5t19 8.5h74q18 0 29 -15l34 -50l34 50 q11 15 29 15h74q15 0 19 -8.5t-4 -20.5z" />
<glyph unicode="&#x10f;" horiz-adv-x="584" d="M328 700h86q28 0 28 -28v-492q0 -92 -52.5 -142t-149.5 -50t-149.5 50t-52.5 142v140q0 92 45 142t130 50q53 0 85 -28h2v188q0 28 28 28zM300 188v124q0 78 -60 78t-60 -78v-124q0 -78 60 -78t60 78zM617 674l-32 -163q-5 -21 -26 -21h-53q-24 0 -23 25l12 162 q2 23 25 23h75q27 0 22 -26z" />
<glyph unicode="&#x110;" horiz-adv-x="608" d="M109 664h201q251 0 251 -232v-199q0 -233 -251 -233h-201q-28 0 -28 28v248h-33q-25 0 -25 25v72q0 25 25 25h33v238q0 28 28 28zM405 244v177q0 107 -104 107h-64v-130h67q25 0 25 -25v-72q0 -25 -25 -25h-67v-140h64q104 0 104 108z" />
<glyph unicode="&#x111;" horiz-adv-x="494" d="M442 672v-29h24q24 0 24 -24v-54q0 -24 -24 -24h-24v-361q0 -92 -52.5 -142t-149.5 -50t-149.5 50t-52.5 142v140q0 92 45 142t130 50q53 0 85 -28h2v57h-97q-24 0 -24 24v54q0 24 24 24h97v29q0 28 28 28h86q28 0 28 -28zM300 188v124q0 78 -60 78t-60 -78v-124 q0 -78 60 -78t60 78z" />
<glyph unicode="&#x112;" horiz-adv-x="540" d="M222 528v-125h208q28 0 28 -28v-78q0 -28 -28 -28h-208v-133h252q28 0 28 -28v-80q0 -28 -28 -28h-380q-28 0 -28 28v608q0 28 28 28h380q28 0 28 -28v-80q0 -28 -28 -28h-252zM427 826v-64q0 -24 -24 -24h-239q-24 0 -24 24v64q0 24 24 24h239q24 0 24 -24z" />
<glyph unicode="&#x113;" horiz-adv-x="463" d="M434 320v-83q0 -28 -28 -28h-226v-11q0 -48 19 -68q20 -20 62 -20q43 0 77 25q26 17 39 -6l35 -53q14 -22 -6 -39q-62 -49 -149 -49q-219 0 -219 203v129q0 92 51.5 142t146.5 50t146.5 -50t51.5 -142zM180 304h120v8q0 78 -60 78t-60 -78v-8zM381 668v-64q0 -24 -24 -24 h-239q-24 0 -24 24v64q0 24 24 24h239q24 0 24 -24z" />
<glyph unicode="&#x114;" horiz-adv-x="540" d="M222 528v-125h208q28 0 28 -28v-78q0 -28 -28 -28h-208v-133h252q28 0 28 -28v-80q0 -28 -28 -28h-380q-28 0 -28 28v608q0 28 28 28h380q28 0 28 -28v-80q0 -28 -28 -28h-252zM360 878h58q24 0 22 -23q-7 -63 -48 -96.5t-108 -33.5t-108 33.5t-48 96.5q-2 23 22 23h58 q18 0 24 -19q10 -28 52 -28t52 28q6 19 24 19z" />
<glyph unicode="&#x115;" horiz-adv-x="463" d="M434 320v-83q0 -28 -28 -28h-226v-11q0 -48 19 -68q20 -20 62 -20q43 0 77 25q26 17 39 -6l35 -53q14 -22 -6 -39q-62 -49 -149 -49q-219 0 -219 203v129q0 92 51.5 142t146.5 50t146.5 -50t51.5 -142zM180 304h120v8q0 78 -60 78t-60 -78v-8zM314 720h58q24 0 22 -23 q-7 -63 -48 -96.5t-108 -33.5t-108 33.5t-48 96.5q-2 23 22 23h58q18 0 24 -19q10 -28 52 -28t52 28q6 19 24 19z" />
<glyph unicode="&#x116;" horiz-adv-x="540" d="M222 528v-125h208q28 0 28 -28v-78q0 -28 -28 -28h-208v-133h252q28 0 28 -28v-80q0 -28 -28 -28h-380q-28 0 -28 28v608q0 28 28 28h380q28 0 28 -28v-80q0 -28 -28 -28h-252zM341 746q-22 -22 -57 -22q-36 0 -58 22t-22 58q0 35 22 57q23 23 58 23q34 0 57 -23t23 -57 q0 -35 -23 -58z" />
<glyph unicode="&#x117;" horiz-adv-x="463" d="M434 320v-83q0 -28 -28 -28h-226v-11q0 -48 19 -68q20 -20 62 -20q43 0 77 25q26 17 39 -6l35 -53q14 -22 -6 -39q-62 -49 -149 -49q-219 0 -219 203v129q0 92 51.5 142t146.5 50t146.5 -50t51.5 -142zM180 304h120v8q0 78 -60 78t-60 -78v-8zM295 588q-22 -22 -57 -22 q-36 0 -58 22t-22 58q0 35 22 57q23 23 58 23q34 0 57 -23t23 -57q0 -35 -23 -58z" />
<glyph unicode="&#x118;" horiz-adv-x="540" d="M473 -80l23 -30q14 -21 -3 -35q-35 -27 -85 -27q-47 0 -73.5 22t-26.5 60q0 55 44 88v2h-258q-28 0 -28 28v608q0 28 28 28h380q28 0 28 -28v-80q0 -28 -28 -28h-252v-125h208q28 0 28 -28v-78q0 -28 -28 -28h-208v-133h252q28 0 28 -28v-80q0 -28 -28 -28h-10 q-60 -18 -60 -58q0 -15 13 -20.5t24 4.5q17 14 32 -6z" />
<glyph unicode="&#x119;" horiz-adv-x="463" d="M434 320v-83q0 -28 -28 -28h-226v-11q0 -48 19 -68q20 -20 62 -20q43 0 77 25q26 17 39 -6l35 -53q15 -22 -6 -39q-14 -11 -36 -24q-52 -30 -52 -71q0 -15 13 -20t25 4q16 13 30 -5l24 -32q15 -19 -3 -34q-35 -27 -85 -27q-47 0 -73.5 22t-26.5 60q0 43 30 76v2 q-214 3 -214 203v129q0 92 51.5 142t146.5 50t146.5 -50t51.5 -142zM180 304h120v8q0 78 -60 78t-60 -78v-8z" />
<glyph unicode="&#x11a;" horiz-adv-x="540" d="M222 528v-125h208q28 0 28 -28v-78q0 -28 -28 -28h-208v-133h252q28 0 28 -28v-80q0 -28 -28 -28h-380q-28 0 -28 28v608q0 28 28 28h380q28 0 28 -28v-80q0 -28 -28 -28h-252zM436 856l-80 -118q-10 -15 -29 -15h-86q-19 0 -29 15l-80 118q-8 12 -4 20.5t19 8.5h74 q18 0 29 -15l34 -50l34 50q10 15 29 15h74q15 0 19 -8.5t-4 -20.5z" />
<glyph unicode="&#x11b;" horiz-adv-x="463" d="M434 320v-83q0 -28 -28 -28h-226v-11q0 -48 19 -68q20 -20 62 -20q43 0 77 25q26 17 39 -6l35 -53q14 -22 -6 -39q-62 -49 -149 -49q-219 0 -219 203v129q0 92 51.5 142t146.5 50t146.5 -50t51.5 -142zM180 304h120v8q0 78 -60 78t-60 -78v-8zM390 698l-80 -118 q-10 -15 -29 -15h-86q-19 0 -29 15l-80 118q-8 12 -4 20.5t19 8.5h74q19 0 29 -15l34 -50l34 50q10 15 29 15h74q15 0 19 -8.5t-4 -20.5z" />
<glyph unicode="&#x11c;" horiz-adv-x="573" d="M538 356v-121q0 -119 -63.5 -183t-181.5 -64t-182 62t-64 178v208q0 115 65 177.5t186 62.5q152 0 222 -108q14 -22 -8 -38l-69 -49q-22 -15 -39 8q-40 51 -107 51q-94 0 -94 -116v-184q0 -116 93 -116q92 0 92 121v5h-72q-28 0 -28 28v78q0 28 28 28h194q28 0 28 -28z M325 738l-34 50l-34 -50q-11 -15 -29 -15h-74q-15 0 -19 8.5t4 20.5l80 118q11 15 29 15h86q18 0 29 -15l80 -118q8 -12 4 -20.5t-19 -8.5h-74q-18 0 -29 15z" />
<glyph unicode="&#x11d;" horiz-adv-x="490" d="M442 320v-304q0 -89 -54 -138.5t-151 -49.5q-101 0 -165 48q-21 16 -7 39l34 57q15 25 39 8q43 -31 90 -31q72 0 72 69v19h-2q-32 -28 -85 -28q-85 0 -130 50t-45 142v119q0 92 52.5 142t149.5 50t149.5 -50t52.5 -142zM300 209v103q0 78 -60 78t-60 -78v-103 q0 -78 60 -78t60 78zM274 580l-34 50l-34 -50q-10 -15 -29 -15h-74q-15 0 -19 8.5t4 20.5l80 118q10 15 29 15h86q19 0 29 -15l80 -118q8 -12 4 -20.5t-19 -8.5h-74q-19 0 -29 15z" />
<glyph unicode="&#x11e;" horiz-adv-x="573" d="M538 356v-121q0 -119 -63.5 -183t-181.5 -64t-182 62t-64 178v208q0 115 65 177.5t186 62.5q152 0 222 -108q14 -22 -8 -38l-69 -49q-22 -15 -39 8q-40 51 -107 51q-94 0 -94 -116v-184q0 -116 93 -116q92 0 92 121v5h-72q-28 0 -28 28v78q0 28 28 28h194q28 0 28 -28z M367 878h58q24 0 22 -23q-7 -63 -48 -96.5t-108 -33.5t-108 33.5t-48 96.5q-2 23 22 23h58q18 0 24 -19q10 -28 52 -28t52 28q6 19 24 19z" />
<glyph unicode="&#x11f;" horiz-adv-x="490" d="M442 320v-304q0 -89 -54 -138.5t-151 -49.5q-101 0 -165 48q-21 16 -7 39l34 57q15 25 39 8q43 -31 90 -31q72 0 72 69v19h-2q-32 -28 -85 -28q-85 0 -130 50t-45 142v119q0 92 52.5 142t149.5 50t149.5 -50t52.5 -142zM300 209v103q0 78 -60 78t-60 -78v-103 q0 -78 60 -78t60 78zM316 720h58q24 0 22 -23q-7 -63 -48 -96.5t-108 -33.5t-108 33.5t-48 96.5q-2 23 22 23h58q18 0 24 -19q10 -28 52 -28t52 28q6 19 24 19z" />
<glyph unicode="&#x120;" horiz-adv-x="573" d="M538 356v-121q0 -119 -63.5 -183t-181.5 -64t-182 62t-64 178v208q0 115 65 177.5t186 62.5q152 0 222 -108q14 -22 -8 -38l-69 -49q-22 -15 -39 8q-40 51 -107 51q-94 0 -94 -116v-184q0 -116 93 -116q92 0 92 121v5h-72q-28 0 -28 28v78q0 28 28 28h194q28 0 28 -28z M348 746q-22 -22 -57 -22q-36 0 -58 22t-22 58q0 35 22 57q23 23 58 23q34 0 57 -23t23 -57q0 -35 -23 -58z" />
<glyph unicode="&#x121;" horiz-adv-x="490" d="M442 320v-304q0 -89 -54 -138.5t-151 -49.5q-101 0 -165 48q-21 16 -7 39l34 57q15 25 39 8q43 -31 90 -31q72 0 72 69v19h-2q-32 -28 -85 -28q-85 0 -130 50t-45 142v119q0 92 52.5 142t149.5 50t149.5 -50t52.5 -142zM300 209v103q0 78 -60 78t-60 -78v-103 q0 -78 60 -78t60 78zM297 588q-22 -22 -57 -22q-36 0 -58 22t-22 58q0 35 22 57q23 23 58 23q34 0 57 -23t23 -57q0 -35 -23 -58z" />
<glyph unicode="&#x122;" horiz-adv-x="573" d="M538 356v-121q0 -119 -63.5 -183t-181.5 -64t-182 62t-64 178v208q0 115 65 177.5t186 62.5q152 0 222 -108q14 -22 -8 -38l-69 -49q-22 -15 -39 8q-40 51 -107 51q-94 0 -94 -116v-184q0 -116 93 -116q92 0 92 121v5h-72q-28 0 -28 28v78q0 28 28 28h194q28 0 28 -28z M293 -40q32 0 53 -22.5t21 -59.5q0 -45 -24 -83t-63 -54q-17 -8 -25 8l-14 25q-9 15 7 24q19 10 23 26q-24 5 -38 23t-14 44q0 31 20.5 50t53.5 19z" />
<glyph unicode="&#x123;" horiz-adv-x="490" d="M262 693q24 -5 38 -23t14 -44q0 -31 -20.5 -50t-53.5 -19q-32 0 -53 22.5t-21 59.5q0 44 24 82.5t64 55.5q16 6 24 -9l14 -25q7 -13 -9 -25q-13 -10 -21 -25zM442 320v-304q0 -89 -54 -138.5t-151 -49.5q-101 0 -165 48q-21 16 -7 39l34 57q15 25 39 8q43 -31 90 -31 q72 0 72 69v19h-2q-32 -28 -85 -28q-85 0 -130 50t-45 142v119q0 92 52.5 142t149.5 50t149.5 -50t52.5 -142zM300 209v103q0 78 -60 78t-60 -78v-103q0 -78 60 -78t60 78z" />
<glyph unicode="&#x124;" horiz-adv-x="622" d="M556 636v-608q0 -28 -28 -28h-100q-28 0 -28 28v240h-178v-240q0 -28 -28 -28h-100q-28 0 -28 28v608q0 28 28 28h100q28 0 28 -28v-232h178v232q0 28 28 28h100q28 0 28 -28zM345 738l-34 50l-34 -50q-11 -15 -29 -15h-74q-15 0 -19 8.5t4 20.5l80 118q11 15 29 15h86 q18 0 29 -15l80 -118q8 -12 4 -20.5t-19 -8.5h-74q-18 0 -29 15z" />
<glyph unicode="&#x125;" horiz-adv-x="496" d="M287 512q80 0 122.5 -49t42.5 -140v-295q0 -28 -28 -28h-86q-28 0 -28 28v288q0 74 -56 74t-56 -74v-288q0 -28 -28 -28h-86q-28 0 -28 28v644q0 28 28 28h86q28 0 28 -28v-188h2q32 28 87 28zM161 769l-34 50l-34 -50q-10 -15 -29 -15h-74q-15 0 -19 8.5t4 20.5l80 118 q10 15 29 15h86q19 0 29 -15l80 -118q8 -12 4 -20.5t-19 -8.5h-74q-18 0 -29 15z" />
<glyph unicode="&#x126;" horiz-adv-x="636" d="M563 636v-54h30q25 0 25 -25v-64q0 -25 -25 -25h-30v-440q0 -28 -28 -28h-100q-28 0 -28 28v240h-178v-240q0 -28 -28 -28h-100q-28 0 -28 28v440h-30q-25 0 -25 25v64q0 25 25 25h30v54q0 28 28 28h100q28 0 28 -28v-54h178v54q0 28 28 28h100q28 0 28 -28zM229 404h178 v64h-178v-64z" />
<glyph unicode="&#x127;" horiz-adv-x="500" d="M287 512q80 0 122.5 -49t42.5 -140v-295q0 -28 -28 -28h-86q-28 0 -28 28v288q0 74 -56 74t-56 -74v-288q0 -28 -28 -28h-86q-28 0 -28 28v513h-28q-24 0 -24 24v54q0 24 24 24h28v29q0 28 28 28h86q28 0 28 -28v-29h83q24 0 24 -24v-54q0 -24 -24 -24h-83v-57h2 q32 28 87 28z" />
<glyph unicode="&#x128;" horiz-adv-x="288" d="M52 726h-47q-24 0 -21 23q6 62 35 95t77 33q36 0 74 -30q16 -14 27 -14q15 0 21 21q6 20 24 20h47q24 0 21 -23q-6 -62 -35 -95t-77 -33q-36 0 -74 30q-16 14 -27 14q-15 0 -21 -21q-6 -20 -24 -20zM225 636v-608q0 -28 -28 -28h-100q-28 0 -28 28v608q0 28 28 28h100 q28 0 28 -28z" />
<glyph unicode="&#x129;" horiz-adv-x="246" d="M31 568h-47q-24 0 -21 23q6 62 35 95t77 33q37 0 74 -30q16 -14 27 -14q15 0 21 21q6 20 24 20h47q24 0 21 -23q-6 -62 -35 -95t-77 -33q-37 0 -74 30q-16 14 -27 14q-15 0 -21 -21q-6 -20 -24 -20zM169 0h-86q-28 0 -28 28v444q0 28 28 28h86q28 0 28 -28v-444 q0 -28 -28 -28z" />
<glyph unicode="&#x12a;" horiz-adv-x="288" d="M222 636v-608q0 -28 -28 -28h-100q-28 0 -28 28v608q0 28 28 28h100q28 0 28 -28zM287 826v-64q0 -24 -24 -24h-239q-24 0 -24 24v64q0 24 24 24h239q24 0 24 -24z" />
<glyph unicode="&#x12b;" horiz-adv-x="246" d="M166 0h-86q-28 0 -28 28v444q0 28 28 28h86q28 0 28 -28v-444q0 -28 -28 -28zM266 668v-64q0 -24 -24 -24h-239q-24 0 -24 24v64q0 24 24 24h239q24 0 24 -24z" />
<glyph unicode="&#x12c;" horiz-adv-x="288" d="M222 878h58q24 0 22 -23q-7 -63 -48 -96.5t-108 -33.5t-108 33.5t-48 96.5q-2 23 22 23h58q18 0 24 -19q10 -28 52 -28t52 28q6 19 24 19zM224 636v-608q0 -28 -28 -28h-100q-28 0 -28 28v608q0 28 28 28h100q28 0 28 -28z" />
<glyph unicode="&#x12d;" horiz-adv-x="246" d="M201 720h58q24 0 22 -23q-7 -63 -48 -96.5t-108 -33.5t-108 33.5t-48 96.5q-2 23 22 23h58q18 0 24 -19q10 -28 52 -28t52 28q6 19 24 19zM168 0h-86q-28 0 -28 28v444q0 28 28 28h86q28 0 28 -28v-444q0 -28 -28 -28z" />
<glyph unicode="&#x12e;" horiz-adv-x="288" d="M203 -79l24 -32q13 -19 -3 -33q-34 -28 -86 -28q-47 0 -73.5 22t-26.5 60q0 51 47 89v2q-19 4 -19 27v608q0 28 28 28h100q28 0 28 -28v-608q0 -28 -28 -28h-12q-48 -22 -48 -58q0 -15 13 -20t26 5q17 13 30 -6z" />
<glyph unicode="&#x12f;" horiz-adv-x="246" d="M182 -79l24 -32q15 -18 -3 -33q-34 -28 -86 -28q-47 0 -73.5 22t-26.5 60q0 52 49 91v2q-14 5 -14 25v444q0 28 28 28h86q28 0 28 -28v-444q0 -28 -28 -28h-5q-48 -22 -48 -58q0 -10 6 -16t15 -6q10 0 17 6q18 14 31 -5zM180 588q-22 -22 -57 -22q-36 0 -58 22t-22 58 q0 35 22 57q23 23 58 23q34 0 57 -23t23 -57q0 -35 -23 -58z" />
<glyph unicode="&#x130;" horiz-adv-x="288" d="M222 636v-608q0 -28 -28 -28h-100q-28 0 -28 28v608q0 28 28 28h100q28 0 28 -28zM201 746q-22 -22 -57 -22q-36 0 -58 22t-22 58q0 35 22 57q23 23 58 23q34 0 57 -23t23 -57q0 -35 -23 -58z" />
<glyph unicode="&#x131;" horiz-adv-x="246" d="M166 0h-86q-28 0 -28 28v444q0 28 28 28h86q28 0 28 -28v-444q0 -28 -28 -28z" />
<glyph unicode="&#x132;" horiz-adv-x="807" d="M750 636v-415q0 -112 -58.5 -172.5t-168.5 -60.5q-145 0 -217 97q-15 21 6 39l63 56q21 18 39 -5q44 -51 100 -51q80 0 80 107v405q0 28 28 28h100q28 0 28 -28zM222 636v-608q0 -28 -28 -28h-100q-28 0 -28 28v608q0 28 28 28h100q28 0 28 -28z" />
<glyph unicode="&#x133;" horiz-adv-x="492" d="M180 588q-22 -22 -57 -22q-36 0 -58 22t-22 58q0 35 22 57q23 23 58 23q34 0 57 -23t23 -57q0 -35 -23 -58zM166 0h-86q-28 0 -28 28v444q0 28 28 28h86q28 0 28 -28v-444q0 -28 -28 -28zM426 588q-22 -22 -57 -22q-36 0 -58 22t-22 58q0 35 22 57q23 23 58 23 q34 0 57 -23t23 -57q0 -35 -23 -58zM252 -38q26 0 36 10.5t10 37.5v462q0 28 28 28h86q28 0 28 -28v-462q0 -170 -161 -170h-27q-28 0 -28 28v66q0 28 28 28z" />
<glyph unicode="&#x134;" horiz-adv-x="525" d="M483 636v-415q0 -112 -58.5 -172.5t-168.5 -60.5q-145 0 -217 97q-15 21 6 39l63 56q21 18 39 -5q44 -51 100 -51q80 0 80 107v405q0 28 28 28h100q28 0 28 -28zM439 738l-34 50l-34 -50q-11 -15 -29 -15h-74q-15 0 -19 8.5t4 20.5l80 118q11 15 29 15h86q18 0 29 -15 l80 -118q8 -12 4 -20.5t-19 -8.5h-74q-18 0 -29 15z" />
<glyph unicode="&#x135;" horiz-adv-x="246" d="M10 -38q26 0 36 10.5t10 37.5v462q0 28 28 28h86q28 0 28 -28v-462q0 -170 -161 -170h-27q-28 0 -28 28v66q0 28 28 28zM161 580l-34 50l-34 -50q-11 -15 -29 -15h-74q-15 0 -19 8.5t4 20.5l80 118q10 15 29 15h86q19 0 29 -15l80 -118q8 -12 4 -20.5t-19 -8.5h-74 q-18 0 -29 15z" />
<glyph unicode="&#x136;" horiz-adv-x="589" d="M549 630l-192 -290l203 -306q9 -14 3.5 -24t-22.5 -10h-126q-22 0 -34 19l-157 254h-2v-245q0 -28 -28 -28h-100q-28 0 -28 28v608q0 28 28 28h100q28 0 28 -28v-242h2l155 251q12 19 34 19h117q17 0 22.5 -10t-3.5 -24zM301 -40q32 0 53 -22.5t21 -59.5q0 -45 -24 -83 t-63 -54q-17 -8 -25 8l-14 25q-9 15 7 24q19 10 23 26q-24 5 -38 23t-14 44q0 31 20.5 50t53.5 19z" />
<glyph unicode="&#x137;" horiz-adv-x="488" d="M459 466l-137 -208l148 -224q9 -14 3.5 -24t-22.5 -10h-107q-23 0 -33 19l-115 191h-2v-182q0 -28 -28 -28h-86q-28 0 -28 28v644q0 28 28 28h86q28 0 28 -28v-379h2l112 188q10 19 33 19h99q17 0 22.5 -10t-3.5 -24zM255 -40q32 0 53 -22.5t21 -59.5q0 -45 -24 -83 t-63 -54q-17 -8 -25 8l-14 25q-9 15 7 24q19 10 23 26q-24 5 -38 23t-14 44q0 31 20.5 50t53.5 19z" />
<glyph unicode="&#x138;" horiz-adv-x="488" d="M459 466l-137 -208l148 -224q9 -14 3.5 -24t-22.5 -10h-107q-23 0 -33 19l-115 191h-2v-182q0 -28 -28 -28h-86q-28 0 -28 28v444q0 28 28 28h86q28 0 28 -28v-179h2l112 188q10 19 33 19h99q17 0 22.5 -10t-3.5 -24z" />
<glyph unicode="&#x139;" horiz-adv-x="505" d="M487 108v-80q0 -28 -28 -28h-365q-28 0 -28 28v608q0 28 28 28h100q28 0 28 -28v-500h237q28 0 28 -28zM291 856l-81 -118q-10 -15 -29 -15h-81q-14 0 -19 8t2 21l67 116q11 17 28 17h98q14 0 18.5 -8.5t-3.5 -20.5z" />
<glyph unicode="&#x13a;" horiz-adv-x="246" d="M270 887l-81 -118q-11 -15 -29 -15h-81q-14 0 -19 8t2 21l67 116q11 17 28 17h98q14 0 18.5 -8.5t-3.5 -20.5zM166 0h-86q-28 0 -28 28v644q0 28 28 28h86q28 0 28 -28v-644q0 -28 -28 -28z" />
<glyph unicode="&#x13b;" horiz-adv-x="505" d="M279 -40q32 0 53 -22.5t21 -59.5q0 -45 -24 -83t-63 -54q-17 -8 -25 8l-14 25q-9 15 7 24q19 10 23 26q-24 5 -38 23t-14 44q0 31 20.5 50t53.5 19zM487 108v-80q0 -28 -28 -28h-365q-28 0 -28 28v608q0 28 28 28h100q28 0 28 -28v-500h237q28 0 28 -28z" />
<glyph unicode="&#x13c;" horiz-adv-x="246" d="M123 -40q32 0 53 -22.5t21 -59.5q0 -45 -24 -83t-63 -54q-17 -8 -25 8l-14 25q-9 15 7 24q19 10 23 26q-24 5 -38 23t-14 44q0 31 20.5 50t53.5 19zM166 0h-86q-28 0 -28 28v644q0 28 28 28h86q28 0 28 -28v-644q0 -28 -28 -28z" />
<glyph unicode="&#x13d;" horiz-adv-x="505" d="M487 108v-80q0 -28 -28 -28h-365q-28 0 -28 28v608q0 28 28 28h100q28 0 28 -28v-500h237q28 0 28 -28zM420 674l-32 -163q-4 -21 -26 -21h-53q-24 0 -23 25l12 162q2 23 25 23h75q27 0 22 -26z" />
<glyph unicode="&#x13e;" horiz-adv-x="336" d="M166 0h-86q-28 0 -28 28v644q0 28 28 28h86q28 0 28 -28v-644q0 -28 -28 -28zM369 674l-32 -163q-5 -21 -26 -21h-53q-24 0 -23 25l12 162q2 23 25 23h75q27 0 22 -26z" />
<glyph unicode="&#x13f;" horiz-adv-x="505" d="M487 108v-80q0 -28 -28 -28h-365q-28 0 -28 28v608q0 28 28 28h100q28 0 28 -28v-500h237q28 0 28 -28zM453 269q-22 -22 -57 -22q-36 0 -58 22t-22 58q0 35 22 57q23 23 58 23q34 0 57 -23t23 -57q0 -35 -23 -58z" />
<glyph unicode="&#x140;" horiz-adv-x="356" d="M166 0h-86q-28 0 -28 28v644q0 28 28 28h86q28 0 28 -28v-644q0 -28 -28 -28zM358 269q-22 -22 -57 -22q-36 0 -58 22t-22 58q0 35 22 57q23 23 58 23q34 0 57 -23t23 -57q0 -35 -23 -58z" />
<glyph unicode="&#x141;" horiz-adv-x="520" d="M237 252v-116h237q28 0 28 -28v-80q0 -28 -28 -28h-365q-28 0 -28 28v125l-28 -18q-13 -8 -21.5 -3.5t-8.5 20.5v94q0 20 17 31l41 26v333q0 28 28 28h100q28 0 28 -28v-234l142 90q13 8 21.5 3.5t8.5 -20.5v-94q0 -20 -17 -31z" />
<glyph unicode="&#x142;" horiz-adv-x="262" d="M202 672v-211l27 19q12 8 20.5 3.5t8.5 -18.5v-81q0 -18 -15 -28l-41 -29v-299q0 -28 -28 -28h-86q-28 0 -28 28v201l-27 -19q-12 -8 -20.5 -3.5t-8.5 18.5v81q0 18 15 28l41 29v309q0 28 28 28h86q28 0 28 -28z" />
<glyph unicode="&#x143;" horiz-adv-x="622" d="M528 0h-102q-24 0 -33 21l-173 375h-2v-368q0 -28 -28 -28h-96q-28 0 -28 28v608q0 28 28 28h114q24 0 33 -21l161 -349h2v342q0 28 28 28h96q28 0 28 -28v-608q0 -28 -28 -28zM458 856l-81 -118q-11 -15 -29 -15h-81q-14 0 -19 8t2 21l67 116q11 17 28 17h98 q14 0 18.5 -8.5t-3.5 -20.5z" />
<glyph unicode="&#x144;" horiz-adv-x="492" d="M302 28v288q0 74 -56 74t-56 -74v-288q0 -28 -28 -28h-86q-28 0 -28 28v295q0 91 51.5 140t146.5 49t146.5 -49t51.5 -140v-295q0 -28 -28 -28h-86q-28 0 -28 28zM393 698l-81 -118q-10 -15 -29 -15h-81q-14 0 -19 8t2 21l67 116q11 17 28 17h98q14 0 18.5 -8.5 t-3.5 -20.5z" />
<glyph unicode="&#x145;" horiz-adv-x="622" d="M528 0h-102q-24 0 -33 21l-173 375h-2v-368q0 -28 -28 -28h-96q-28 0 -28 28v608q0 28 28 28h114q24 0 33 -21l161 -349h2v342q0 28 28 28h96q28 0 28 -28v-608q0 -28 -28 -28zM311 -40q32 0 53 -22.5t21 -59.5q0 -45 -24 -83t-63 -54q-17 -8 -25 8l-14 25q-9 15 7 24 q19 10 23 26q-24 5 -38 23t-14 44q0 31 20.5 50t53.5 19z" />
<glyph unicode="&#x146;" horiz-adv-x="492" d="M302 28v288q0 74 -56 74t-56 -74v-288q0 -28 -28 -28h-86q-28 0 -28 28v295q0 91 51.5 140t146.5 49t146.5 -49t51.5 -140v-295q0 -28 -28 -28h-86q-28 0 -28 28zM246 -40q32 0 53 -22.5t21 -59.5q0 -45 -24 -83t-63 -54q-17 -8 -25 8l-14 25q-9 15 7 24q19 10 23 26 q-24 5 -38 23t-14 44q0 31 20.5 50t53.5 19z" />
<glyph unicode="&#x147;" horiz-adv-x="622" d="M528 0h-102q-24 0 -33 21l-173 375h-2v-368q0 -28 -28 -28h-96q-28 0 -28 28v608q0 28 28 28h114q24 0 33 -21l161 -349h2v342q0 28 28 28h96q28 0 28 -28v-608q0 -28 -28 -28zM463 856l-80 -118q-11 -15 -29 -15h-86q-18 0 -29 15l-80 118q-8 12 -4 20.5t19 8.5h74 q18 0 29 -15l34 -50l34 50q11 15 29 15h74q15 0 19 -8.5t-4 -20.5z" />
<glyph unicode="&#x148;" horiz-adv-x="492" d="M302 28v288q0 74 -56 74t-56 -74v-288q0 -28 -28 -28h-86q-28 0 -28 28v295q0 91 51.5 140t146.5 49t146.5 -49t51.5 -140v-295q0 -28 -28 -28h-86q-28 0 -28 28zM398 698l-80 -118q-10 -15 -29 -15h-86q-19 0 -29 15l-80 118q-8 12 -4 20.5t19 8.5h74q19 0 29 -15 l34 -50l34 50q10 15 29 15h74q15 0 19 -8.5t-4 -20.5z" />
<glyph unicode="&#x149;" horiz-adv-x="492" d="M306 28v288q0 74 -56 74t-56 -74v-288q0 -28 -28 -28h-86q-28 0 -28 28v295q0 91 51.5 140t146.5 49t146.5 -49t51.5 -140v-295q0 -28 -28 -28h-86q-28 0 -28 28zM194 681q0 -46 -24.5 -94.5t-61.5 -79.5q-14 -9 -24 1l-24 21q-12 13 0 25q30 32 38 77q-46 15 -46 63 q0 30 20 48.5t51 18.5t51 -22t20 -58z" />
<glyph unicode="&#x14a;" horiz-adv-x="622" d="M556 636v-626q0 -83 -41 -126.5t-120 -43.5h-55q-28 0 -28 28v66q0 28 28 28h18q26 0 36 10.5t10 37.5v9l-184 380h-2v-371q0 -28 -28 -28h-96q-28 0 -28 28v608q0 28 28 28h114q22 0 33 -21l161 -332h2v325q0 28 28 28h96q28 0 28 -28z" />
<glyph unicode="&#x14b;" horiz-adv-x="492" d="M302 10v306q0 74 -56 74t-56 -74v-288q0 -28 -28 -28h-86q-28 0 -28 28v295q0 91 51.5 140t146.5 49t146.5 -49t51.5 -140v-313q0 -170 -161 -170h-27q-28 0 -28 28v66q0 28 28 28q26 0 36 10.5t10 37.5z" />
<glyph unicode="&#x14c;" horiz-adv-x="596" d="M47 228v208q0 115 65 177.5t186 62.5t186 -62.5t65 -177.5v-208q0 -115 -65 -177.5t-186 -62.5t-186 62.5t-65 177.5zM203 424v-184q0 -116 95 -116t95 116v184q0 116 -95 116t-95 -116zM441 826v-64q0 -24 -24 -24h-239q-24 0 -24 24v64q0 24 24 24h239q24 0 24 -24z " />
<glyph unicode="&#x14d;" horiz-adv-x="480" d="M442 320v-140q0 -92 -52.5 -142t-149.5 -50t-149.5 50t-52.5 142v140q0 92 52.5 142t149.5 50t149.5 -50t52.5 -142zM300 188v124q0 78 -60 78t-60 -78v-124q0 -78 60 -78t60 78zM383 668v-64q0 -24 -24 -24h-239q-24 0 -24 24v64q0 24 24 24h239q24 0 24 -24z" />
<glyph unicode="&#x14e;" horiz-adv-x="596" d="M374 878h58q24 0 22 -23q-7 -63 -48 -96.5t-108 -33.5t-108 33.5t-48 96.5q-2 23 22 23h58q18 0 24 -19q10 -28 52 -28t52 28q6 19 24 19zM47 228v208q0 115 65 177.5t186 62.5t186 -62.5t65 -177.5v-208q0 -115 -65 -177.5t-186 -62.5t-186 62.5t-65 177.5zM203 424 v-184q0 -116 95 -116t95 116v184q0 116 -95 116t-95 -116z" />
<glyph unicode="&#x14f;" horiz-adv-x="480" d="M316 720h58q24 0 22 -23q-7 -63 -48 -96.5t-108 -33.5t-108 33.5t-48 96.5q-2 23 22 23h58q18 0 24 -19q10 -28 52 -28t52 28q6 19 24 19zM442 320v-140q0 -92 -52.5 -142t-149.5 -50t-149.5 50t-52.5 142v140q0 92 52.5 142t149.5 50t149.5 -50t52.5 -142zM300 188v124 q0 78 -60 78t-60 -78v-124q0 -78 60 -78t60 78z" />
<glyph unicode="&#x150;" horiz-adv-x="596" d="M47 228v208q0 115 65 177.5t186 62.5t186 -62.5t65 -177.5v-208q0 -115 -65 -177.5t-186 -62.5t-186 62.5t-65 177.5zM203 424v-184q0 -116 95 -116t95 116v184q0 116 -95 116t-95 -116zM342 856l-78 -117q-10 -16 -29 -16h-61q-14 0 -19 8t2 21l63 116q8 17 28 17h78 q15 0 19.5 -8.5t-3.5 -20.5zM512 856l-78 -117q-10 -16 -29 -16h-61q-14 0 -19 8t2 21l63 116q8 17 28 17h78q15 0 19.5 -8.5t-3.5 -20.5z" />
<glyph unicode="&#x151;" horiz-adv-x="480" d="M442 320v-140q0 -92 -52.5 -142t-149.5 -50t-149.5 50t-52.5 142v140q0 92 52.5 142t149.5 50t149.5 -50t52.5 -142zM300 188v124q0 78 -60 78t-60 -78v-124q0 -78 60 -78t60 78zM284 698l-78 -117q-10 -16 -29 -16h-61q-14 0 -19 8t2 21l63 116q8 17 28 17h78 q15 0 19.5 -8.5t-3.5 -20.5zM454 698l-78 -117q-10 -16 -29 -16h-61q-14 0 -19 8t2 21l63 116q8 17 28 17h78q15 0 19.5 -8.5t-3.5 -20.5z" />
<glyph unicode="&#x152;" horiz-adv-x="845" d="M527 528v-125h208q28 0 28 -28v-78q0 -28 -28 -28h-208v-133h252q28 0 28 -28v-80q0 -28 -28 -28h-481q-251 0 -251 233v199q0 232 251 232h481q28 0 28 -28v-80q0 -28 -28 -28h-252zM371 136v392h-64q-104 0 -104 -107v-177q0 -108 104 -108h64z" />
<glyph unicode="&#x153;" horiz-adv-x="725" d="M518 512q82 0 130 -51.5t48 -140.5v-83q0 -28 -28 -28h-226v-11q0 -48 19 -68q20 -20 62 -20q43 0 77 25q24 18 39 -6l35 -53q14 -23 -5 -39q-61 -49 -140 -49q-109 0 -155 67h-2q-43 -67 -147 -67q-89 0 -138 50t-49 142v140q0 92 49 142t138 50q102 0 145 -64h2 q43 64 146 64zM300 188v124q0 78 -60 78t-60 -78v-124q0 -78 60 -78t60 78zM442 304h120v8q0 78 -60 78t-60 -78v-8z" />
<glyph unicode="&#x154;" horiz-adv-x="570" d="M257 238h-35v-210q0 -28 -28 -28h-100q-28 0 -28 28v608q0 28 28 28h187q248 0 248 -212q0 -150 -121 -195l123 -224q8 -14 2 -23.5t-22 -9.5h-118q-23 0 -33 21zM222 528v-158h59q90 0 90 79t-90 79h-59zM424 856l-81 -118q-11 -15 -29 -15h-81q-14 0 -19 8t2 21l67 116 q11 17 28 17h98q14 0 18.5 -8.5t-3.5 -20.5z" />
<glyph unicode="&#x155;" horiz-adv-x="369" d="M48 28v287q0 97 46.5 147t136.5 50q63 0 113 -26q25 -12 11 -38l-28 -57q-11 -25 -38 -11q-19 10 -42 10q-57 0 -57 -67v-295q0 -28 -28 -28h-86q-28 0 -28 28zM355 698l-81 -118q-10 -15 -29 -15h-81q-14 0 -19 8t2 21l67 116q11 17 28 17h98q14 0 18.5 -8.5t-3.5 -20.5 z" />
<glyph unicode="&#x156;" horiz-adv-x="570" d="M257 238h-35v-210q0 -28 -28 -28h-100q-28 0 -28 28v608q0 28 28 28h187q248 0 248 -212q0 -150 -121 -195l123 -224q8 -14 2 -23.5t-22 -9.5h-118q-23 0 -33 21zM222 528v-158h59q90 0 90 79t-90 79h-59zM293 -40q32 0 53 -22.5t21 -59.5q0 -45 -24 -83t-63 -54 q-17 -8 -25 8l-14 25q-9 15 7 24q19 10 23 26q-24 5 -38 23t-14 44q0 31 20.5 50t53.5 19z" />
<glyph unicode="&#x157;" horiz-adv-x="369" d="M48 28v287q0 97 46.5 147t136.5 50q63 0 113 -26q25 -12 11 -38l-28 -57q-11 -25 -38 -11q-19 10 -42 10q-57 0 -57 -67v-295q0 -28 -28 -28h-86q-28 0 -28 28zM119 -40q32 0 53 -22.5t21 -59.5q0 -45 -24 -83t-63 -54q-17 -8 -25 8l-14 25q-9 15 7 24q19 10 23 26 q-24 5 -38 23t-14 44q0 31 20.5 50t53.5 19z" />
<glyph unicode="&#x158;" horiz-adv-x="570" d="M257 238h-35v-210q0 -28 -28 -28h-100q-28 0 -28 28v608q0 28 28 28h187q248 0 248 -212q0 -150 -121 -195l123 -224q8 -14 2 -23.5t-22 -9.5h-118q-23 0 -33 21zM222 528v-158h59q90 0 90 79t-90 79h-59zM429 856l-80 -118q-11 -15 -29 -15h-86q-18 0 -29 15l-80 118 q-8 12 -4 20.5t19 8.5h74q18 0 29 -15l34 -50l34 50q11 15 29 15h74q15 0 19 -8.5t-4 -20.5z" />
<glyph unicode="&#x159;" horiz-adv-x="369" d="M48 28v287q0 97 46.5 147t136.5 50q63 0 113 -26q25 -12 11 -38l-28 -57q-11 -25 -38 -11q-19 10 -42 10q-57 0 -57 -67v-295q0 -28 -28 -28h-86q-28 0 -28 28zM360 698l-80 -118q-10 -15 -29 -15h-86q-19 0 -29 15l-80 118q-8 12 -4 20.5t19 8.5h74q19 0 29 -15l34 -50 l34 50q10 15 29 15h74q15 0 19 -8.5t-4 -20.5z" />
<glyph unicode="&#x15a;" horiz-adv-x="522" d="M273 676q136 0 210 -71q19 -19 0 -40l-59 -60q-18 -18 -40 -1q-42 36 -102 36q-76 0 -76 -67q0 -28 24 -43t83 -25q109 -18 156.5 -67t47.5 -142q0 -94 -61 -151q-62 -57 -162 -57q-156 0 -241 87q-18 20 1 39l59 61q19 19 40 0q59 -51 132 -51q76 0 76 67q0 28 -23 42.5 t-84 25.5q-110 19 -157 67.5t-47 141.5q0 94 61 151t162 57zM421 856l-81 -118q-10 -15 -29 -15h-81q-14 0 -19 8t2 21l67 116q11 17 28 17h98q14 0 18.5 -8.5t-3.5 -20.5z" />
<glyph unicode="&#x15b;" horiz-adv-x="418" d="M417 147q0 -73 -49.5 -116t-132.5 -43q-116 0 -183 49q-22 15 -7 38l34 57q15 23 39 8q50 -32 100 -32q60 0 60 42q0 17 -16 26.5t-57 14.5q-84 11 -122 50t-38 112q0 71 51.5 115t136.5 44q87 0 150 -36q22 -14 8 -38l-30 -56q-13 -23 -38 -10q-35 20 -74 20 q-65 0 -65 -42q0 -31 71 -38q84 -10 123 -50t39 -115zM372 698l-81 -118q-11 -15 -29 -15h-81q-14 0 -19 8t2 21l67 116q11 17 28 17h98q14 0 18.5 -8.5t-3.5 -20.5z" />
<glyph unicode="&#x15c;" horiz-adv-x="522" d="M273 676q136 0 210 -71q19 -19 0 -40l-59 -60q-18 -18 -40 -1q-42 36 -102 36q-76 0 -76 -67q0 -28 24 -43t83 -25q109 -18 156.5 -67t47.5 -142q0 -94 -61 -151q-62 -57 -162 -57q-156 0 -241 87q-18 20 1 39l59 61q19 19 40 0q59 -51 132 -51q76 0 76 67q0 28 -23 42.5 t-84 25.5q-110 19 -157 67.5t-47 141.5q0 94 61 151t162 57zM308 738l-34 50l-34 -50q-10 -15 -29 -15h-74q-15 0 -19 8.5t4 20.5l80 118q10 15 29 15h86q19 0 29 -15l80 -118q8 -12 4 -20.5t-19 -8.5h-74q-19 0 -29 15z" />
<glyph unicode="&#x15d;" horiz-adv-x="418" d="M417 147q0 -73 -49.5 -116t-132.5 -43q-116 0 -183 49q-22 15 -7 38l34 57q15 23 39 8q50 -32 100 -32q60 0 60 42q0 17 -16 26.5t-57 14.5q-84 11 -122 50t-38 112q0 71 51.5 115t136.5 44q87 0 150 -36q22 -14 8 -38l-30 -56q-13 -23 -38 -10q-35 20 -74 20 q-65 0 -65 -42q0 -31 71 -38q84 -10 123 -50t39 -115zM259 580l-34 50l-34 -50q-11 -15 -29 -15h-74q-15 0 -19 8.5t4 20.5l80 118q10 15 29 15h86q18 0 29 -15l80 -118q8 -12 4 -20.5t-19 -8.5h-74q-18 0 -29 15z" />
<glyph unicode="&#x15e;" horiz-adv-x="522" d="M53 75q-18 20 1 39l59 61q19 19 40 0q59 -51 132 -51q76 0 76 67q0 28 -23 42.5t-84 25.5q-110 19 -157 67.5t-47 141.5q0 94 61 151t162 57q136 0 210 -71q19 -19 0 -40l-59 -60q-18 -18 -40 -1q-42 36 -102 36q-76 0 -76 -67q0 -28 24 -43t83 -25q109 -18 156.5 -67 t47.5 -142q0 -92 -57 -147q-56 -57 -151 -61l-4 -21q34 -4 53 -21.5t19 -43.5q0 -74 -106 -74q-45 0 -75 13q-22 9 -12 33l10 24q9 23 32 12q24 -11 40 -11q26 0 26 19q0 17 -34 20q-13 2 -17 7.5t-2 17.5l5 27q-120 12 -191 85z" />
<glyph unicode="&#x15f;" horiz-adv-x="418" d="M52 37q-22 15 -7 38l34 57q15 23 39 8q50 -32 100 -32q60 0 60 42q0 17 -16 26.5t-57 14.5q-84 11 -122 50t-38 112q0 71 51.5 115t136.5 44q87 0 150 -36q22 -14 8 -38l-30 -56q-13 -23 -38 -10q-35 20 -74 20q-65 0 -65 -42q0 -31 71 -38q84 -10 123 -50t39 -115 q0 -69 -44.5 -111t-120.5 -47l-4 -22q34 -4 53 -21.5t19 -43.5q0 -74 -106 -74q-45 0 -75 13q-23 9 -12 33l10 24q9 23 32 12q24 -11 40 -11q26 0 26 19q0 17 -34 20q-13 2 -17 7.5t-2 17.5l5 27q-81 8 -135 47z" />
<glyph unicode="&#x160;" horiz-adv-x="522" d="M273 676q136 0 210 -71q19 -19 0 -40l-59 -60q-18 -18 -40 -1q-42 36 -102 36q-76 0 -76 -67q0 -28 24 -43t83 -25q109 -18 156.5 -67t47.5 -142q0 -94 -61 -151q-62 -57 -162 -57q-156 0 -241 87q-18 20 1 39l59 61q19 19 40 0q59 -51 132 -51q76 0 76 67q0 28 -23 42.5 t-84 25.5q-110 19 -157 67.5t-47 141.5q0 94 61 151t162 57zM426 856l-80 -118q-10 -15 -29 -15h-86q-19 0 -29 15l-80 118q-8 12 -4 20.5t19 8.5h74q19 0 29 -15l34 -50l34 50q10 15 29 15h74q15 0 19 -8.5t-4 -20.5z" />
<glyph unicode="&#x161;" horiz-adv-x="418" d="M417 147q0 -73 -49.5 -116t-132.5 -43q-116 0 -183 49q-22 15 -7 38l34 57q15 23 39 8q50 -32 100 -32q60 0 60 42q0 17 -16 26.5t-57 14.5q-84 11 -122 50t-38 112q0 71 51.5 115t136.5 44q87 0 150 -36q22 -14 8 -38l-30 -56q-13 -23 -38 -10q-35 20 -74 20 q-65 0 -65 -42q0 -31 71 -38q84 -10 123 -50t39 -115zM377 698l-80 -118q-11 -15 -29 -15h-86q-18 0 -29 15l-80 118q-8 12 -4 20.5t19 8.5h74q18 0 29 -15l34 -50l34 50q11 15 29 15h74q15 0 19 -8.5t-4 -20.5z" />
<glyph unicode="&#x162;" horiz-adv-x="516" d="M46 664h424q28 0 28 -28v-80q0 -28 -28 -28h-134v-500q0 -28 -28 -28h-19l-6 -33q34 -4 53 -21.5t19 -43.5q0 -74 -106 -74q-45 0 -75 13q-22 9 -12 33l10 24q9 23 32 12q24 -11 40 -11q26 0 26 19q0 17 -34 20q-13 2 -17 7.5t-2 17.5l7 37h-16q-28 0 -28 28v500h-134 q-28 0 -28 28v80q0 28 28 28z" />
<glyph unicode="&#x163;" horiz-adv-x="363" d="M344 96l11 -62q4 -27 -18 -34q-36 -12 -80 -12q-19 0 -24 1l-4 -22q34 -4 53 -21.5t19 -43.5q0 -74 -106 -74q-45 0 -75 13q-22 9 -12 33l10 24q9 23 32 12q24 -11 40 -11q26 0 26 19q0 17 -34 20q-13 2 -17 7.5t-2 17.5l8 38q-97 36 -97 170v207h-30q-28 0 -28 28v66 q0 28 28 28h30v99q0 28 28 28h86q28 0 28 -28v-99h100q28 0 28 -28v-66q0 -28 -28 -28h-100v-210q0 -58 59 -58q14 0 34 5q29 9 35 -19z" />
<glyph unicode="&#x164;" horiz-adv-x="516" d="M470 528h-134v-500q0 -28 -28 -28h-100q-28 0 -28 28v500h-134q-28 0 -28 28v80q0 28 28 28h424q28 0 28 -28v-80q0 -28 -28 -28zM410 856l-80 -118q-10 -15 -29 -15h-86q-19 0 -29 15l-80 118q-8 12 -4 20.5t19 8.5h74q19 0 29 -15l34 -50l34 50q10 15 29 15h74 q15 0 19 -8.5t-4 -20.5z" />
<glyph unicode="&#x165;" horiz-adv-x="363" d="M344 96l11 -62q4 -27 -18 -34q-36 -12 -80 -12q-183 0 -183 183v207h-30q-28 0 -28 28v66q0 28 28 28h30v99q0 28 28 28h86q28 0 28 -28v-99h100q28 0 28 -28v-66q0 -28 -28 -28h-100v-210q0 -58 59 -58q14 0 34 5q29 9 35 -19zM393 715l-32 -163q-5 -21 -26 -21h-53 q-24 0 -23 25l12 162q2 23 25 23h75q27 0 22 -26z" />
<glyph unicode="&#x166;" horiz-adv-x="516" d="M46 664h424q28 0 28 -28v-80q0 -28 -28 -28h-134v-125h75q25 0 25 -25v-62q0 -25 -25 -25h-75v-263q0 -28 -28 -28h-100q-28 0 -28 28v263h-76q-25 0 -25 25v62q0 25 25 25h76v125h-134q-28 0 -28 28v80q0 28 28 28z" />
<glyph unicode="&#x167;" horiz-adv-x="373" d="M349 96l11 -62q4 -27 -18 -34q-36 -12 -80 -12q-183 0 -183 183v42h-24q-24 0 -24 24v54q0 24 24 24h24v63h-30q-28 0 -28 28v66q0 28 28 28h30v99q0 28 28 28h86q28 0 28 -28v-99h100q28 0 28 -28v-66q0 -28 -28 -28h-100v-63h84q24 0 24 -24v-54q0 -24 -24 -24h-84v-45 q0 -58 59 -58q14 0 34 5q29 9 35 -19z" />
<glyph unicode="&#x168;" horiz-adv-x="588" d="M199 726h-47q-24 0 -21 23q6 62 35 95t77 33q37 0 74 -30q16 -14 27 -14q15 0 21 21q6 20 24 20h47q24 0 21 -23q-6 -62 -35 -95t-77 -33q-37 0 -74 30q-16 14 -27 14q-15 0 -21 -21q-6 -20 -24 -20zM531 636v-415q0 -112 -61.5 -172.5t-175.5 -60.5t-175.5 60.5 t-61.5 172.5v415q0 28 28 28h100q28 0 28 -28v-407q0 -105 83 -105t83 105v407q0 28 28 28h96q28 0 28 -28z" />
<glyph unicode="&#x169;" horiz-adv-x="486" d="M148 568h-47q-24 0 -21 23q6 62 35 95t77 33q36 0 74 -30q16 -14 27 -14q15 0 21 21q6 20 24 20h47q24 0 21 -23q-6 -62 -35 -95t-77 -33q-36 0 -74 30q-16 14 -27 14q-15 0 -21 -21q-6 -20 -24 -20zM438 472v-298q0 -90 -50.5 -138t-144.5 -48t-144.5 48t-50.5 138v298 q0 28 28 28h86q28 0 28 -28v-294q0 -68 55 -68t55 68v294q0 28 28 28h82q28 0 28 -28z" />
<glyph unicode="&#x16a;" horiz-adv-x="588" d="M531 636v-415q0 -112 -61.5 -172.5t-175.5 -60.5t-175.5 60.5t-61.5 172.5v415q0 28 28 28h100q28 0 28 -28v-407q0 -105 83 -105t83 105v407q0 28 28 28h96q28 0 28 -28zM437 826v-64q0 -24 -24 -24h-239q-24 0 -24 24v64q0 24 24 24h239q24 0 24 -24z" />
<glyph unicode="&#x16b;" horiz-adv-x="486" d="M438 472v-298q0 -90 -50.5 -138t-144.5 -48t-144.5 48t-50.5 138v298q0 28 28 28h86q28 0 28 -28v-294q0 -68 55 -68t55 68v294q0 28 28 28h82q28 0 28 -28zM386 668v-64q0 -24 -24 -24h-239q-24 0 -24 24v64q0 24 24 24h239q24 0 24 -24z" />
<glyph unicode="&#x16c;" horiz-adv-x="588" d="M370 878h58q24 0 22 -23q-7 -63 -48 -96.5t-108 -33.5t-108 33.5t-48 96.5q-2 23 22 23h58q18 0 24 -19q10 -28 52 -28t52 28q6 19 24 19zM531 636v-415q0 -112 -61.5 -172.5t-175.5 -60.5t-175.5 60.5t-61.5 172.5v415q0 28 28 28h100q28 0 28 -28v-407q0 -105 83 -105 t83 105v407q0 28 28 28h96q28 0 28 -28z" />
<glyph unicode="&#x16d;" horiz-adv-x="486" d="M319 720h58q24 0 22 -23q-7 -63 -48 -96.5t-108 -33.5t-108 33.5t-48 96.5q-2 23 22 23h58q18 0 24 -19q10 -28 52 -28t52 28q6 19 24 19zM438 472v-298q0 -90 -50.5 -138t-144.5 -48t-144.5 48t-50.5 138v298q0 28 28 28h86q28 0 28 -28v-294q0 -68 55 -68t55 68v294 q0 28 28 28h82q28 0 28 -28z" />
<glyph unicode="&#x16e;" horiz-adv-x="588" d="M359 737q-26 -26 -65 -26t-65 26t-26 65t26 65t65 26t65 -26t26 -65t-26 -65zM271 779q9 -9 23 -9t23 9t9 23t-9 23t-23 9t-23 -9t-9 -23t9 -23zM531 636v-415q0 -112 -61.5 -172.5t-175.5 -60.5t-175.5 60.5t-61.5 172.5v415q0 28 28 28h100q28 0 28 -28v-407 q0 -105 83 -105t83 105v407q0 28 28 28h96q28 0 28 -28z" />
<glyph unicode="&#x16f;" horiz-adv-x="486" d="M438 472v-298q0 -90 -50.5 -138t-144.5 -48t-144.5 48t-50.5 138v298q0 28 28 28h86q28 0 28 -28v-294q0 -68 55 -68t55 68v294q0 28 28 28h82q28 0 28 -28zM308 579q-26 -26 -65 -26t-65 26t-26 65t26 65t65 26t65 -26t26 -65t-26 -65zM220 621q10 -9 23 -9t22 9 q10 9 10 23t-10 23q-9 9 -22 9t-23 -9q-9 -9 -9 -23t9 -23z" />
<glyph unicode="&#x170;" horiz-adv-x="588" d="M531 636v-415q0 -112 -61.5 -172.5t-175.5 -60.5t-175.5 60.5t-61.5 172.5v415q0 28 28 28h100q28 0 28 -28v-407q0 -105 83 -105t83 105v407q0 28 28 28h96q28 0 28 -28zM338 856l-78 -117q-10 -16 -29 -16h-61q-14 0 -19 8t2 21l63 116q8 17 28 17h78q15 0 19.5 -8.5 t-3.5 -20.5zM508 856l-78 -117q-10 -16 -29 -16h-61q-14 0 -19 8t2 21l63 116q8 17 28 17h78q15 0 19.5 -8.5t-3.5 -20.5z" />
<glyph unicode="&#x171;" horiz-adv-x="486" d="M438 472v-298q0 -90 -50.5 -138t-144.5 -48t-144.5 48t-50.5 138v298q0 28 28 28h86q28 0 28 -28v-294q0 -68 55 -68t55 68v294q0 28 28 28h82q28 0 28 -28zM287 698l-78 -117q-10 -16 -29 -16h-61q-14 0 -19 8t2 21l63 116q9 17 28 17h78q15 0 19.5 -8.5t-3.5 -20.5z M457 698l-78 -117q-10 -16 -29 -16h-61q-14 0 -19 8t2 21l63 116q9 17 28 17h78q15 0 19.5 -8.5t-3.5 -20.5z" />
<glyph unicode="&#x172;" horiz-adv-x="588" d="M407 664h96q28 0 28 -28v-415q0 -149 -108 -207q-53 -29 -53 -72q0 -15 13 -20t25 4q16 13 30 -5l24 -32q15 -19 -3 -34q-35 -27 -85 -27q-47 0 -73.5 22t-26.5 60q0 44 30 76v2h-10q-114 0 -175.5 60.5t-61.5 172.5v415q0 28 28 28h100q28 0 28 -28v-407q0 -105 83 -105 t83 105v407q0 28 28 28z" />
<glyph unicode="&#x173;" horiz-adv-x="486" d="M356 13q-50 -29 -50 -71q0 -15 13 -20t25 4q16 13 30 -5l24 -32q15 -19 -3 -34q-35 -27 -85 -27q-47 0 -73.5 22t-26.5 60q0 43 30 76v2q-92 1 -142 49t-50 137v298q0 28 28 28h86q28 0 28 -28v-294q0 -68 55 -68t55 68v294q0 28 28 28h82q28 0 28 -28v-298 q0 -115 -82 -161z" />
<glyph unicode="&#x174;" horiz-adv-x="860" d="M717 664h105q31 0 24 -31l-151 -609q-6 -24 -31 -24h-108q-25 0 -31 24l-86 359h-2l-86 -359q-6 -24 -31 -24h-108q-25 0 -31 24l-151 609q-7 31 24 31h111q24 0 30 -25l81 -395h2l92 396q6 24 31 24h80q25 0 31 -24l92 -394h2l81 393q6 25 30 25zM472 738l-34 50 l-34 -50q-10 -15 -29 -15h-74q-15 0 -19 8.5t4 20.5l80 118q11 15 29 15h86q19 0 29 -15l80 -118q8 -12 4 -20.5t-19 -8.5h-74q-19 0 -29 15z" />
<glyph unicode="&#x175;" horiz-adv-x="713" d="M599 500h82q31 0 24 -31l-116 -445q-6 -24 -31 -24h-97q-25 0 -31 24l-64 254h-2l-65 -254q-6 -24 -31 -24h-97q-25 0 -31 24l-116 445q-7 31 24 31h89q24 0 30 -25l64 -293h2l76 294q6 24 31 24h57q25 0 31 -24l75 -289h2l63 288q6 25 31 25zM399 580l-34 50l-34 -50 q-11 -15 -29 -15h-74q-15 0 -19 8.5t4 20.5l80 118q11 15 29 15h86q18 0 29 -15l80 -118q8 -12 4 -20.5t-19 -8.5h-74q-18 0 -29 15z" />
<glyph unicode="&#x176;" horiz-adv-x="560" d="M423 664h114q16 0 22 -9.5t-2 -23.5l-193 -357v-246q0 -28 -28 -28h-100q-28 0 -28 28v247l-193 356q-8 14 -2 23.5t22 9.5h120q22 0 33 -20l100 -204h2l100 204q11 20 33 20zM320 738l-34 50l-34 -50q-10 -15 -29 -15h-74q-15 0 -19 8.5t4 20.5l80 118q10 15 29 15h86 q19 0 29 -15l80 -118q8 -12 4 -20.5t-19 -8.5h-74q-19 0 -29 15z" />
<glyph unicode="&#x177;" horiz-adv-x="496" d="M330 500h86q28 0 28 -28v-456q0 -89 -54 -138.5t-151 -49.5q-99 0 -166 48q-19 16 -6 39l34 57q15 25 39 8q43 -31 90 -31q72 0 72 69v18h-2q-32 -28 -87 -28q-80 0 -122.5 49t-42.5 140v275q0 28 28 28h86q28 0 28 -28v-268q0 -74 56 -74t56 74v268q0 28 28 28zM280 580 l-34 50l-34 -50q-10 -15 -29 -15h-74q-15 0 -19 8.5t4 20.5l80 118q10 15 29 15h86q19 0 29 -15l80 -118q8 -12 4 -20.5t-19 -8.5h-74q-19 0 -29 15z" />
<glyph unicode="&#x178;" horiz-adv-x="560" d="M423 664h114q16 0 22 -9.5t-2 -23.5l-193 -357v-246q0 -28 -28 -28h-100q-28 0 -28 28v247l-193 356q-8 14 -2 23.5t22 9.5h120q22 0 33 -20l100 -204h2l100 204q11 20 33 20zM194 730q-33 0 -53.5 21t-20.5 53t20.5 53t53.5 21q32 0 53 -21t21 -53t-21 -53t-53 -21z M378 730q-32 0 -53 21t-21 53t21 53t53 21q33 0 53.5 -21t20.5 -53t-20.5 -53t-53.5 -21z" />
<glyph unicode="&#x179;" horiz-adv-x="535" d="M470 0h-405q-28 0 -28 28v94q0 18 11 35l262 371h-230q-28 0 -28 28v80q0 28 28 28h385q28 0 28 -28v-94q0 -18 -11 -35l-262 -371h250q28 0 28 -28v-80q0 -28 -28 -28zM417 856l-81 -118q-10 -15 -29 -15h-81q-14 0 -19 8t2 21l67 116q11 17 28 17h98q14 0 18.5 -8.5 t-3.5 -20.5z" />
<glyph unicode="&#x17a;" horiz-adv-x="440" d="M407 94v-66q0 -28 -28 -28h-318q-28 0 -28 28v81q0 19 12 34l193 235h-162q-28 0 -28 28v66q0 28 28 28h298q28 0 28 -28v-81q0 -19 -12 -34l-193 -235h182q28 0 28 -28zM370 698l-81 -118q-11 -15 -29 -15h-81q-14 0 -19 8t2 21l67 116q11 17 28 17h98q14 0 18.5 -8.5 t-3.5 -20.5z" />
<glyph unicode="&#x17b;" horiz-adv-x="535" d="M470 0h-405q-28 0 -28 28v94q0 18 11 35l262 371h-230q-28 0 -28 28v80q0 28 28 28h385q28 0 28 -28v-94q0 -18 -11 -35l-262 -371h250q28 0 28 -28v-80q0 -28 -28 -28zM327 746q-22 -22 -57 -22q-36 0 -58 22t-22 58q0 35 22 57q23 23 58 23q34 0 57 -23t23 -57 q0 -35 -23 -58z" />
<glyph unicode="&#x17c;" horiz-adv-x="440" d="M407 94v-66q0 -28 -28 -28h-318q-28 0 -28 28v81q0 19 12 34l193 235h-162q-28 0 -28 28v66q0 28 28 28h298q28 0 28 -28v-81q0 -19 -12 -34l-193 -235h182q28 0 28 -28zM280 588q-22 -22 -57 -22q-36 0 -58 22t-22 58q0 35 22 57q23 23 58 23q34 0 57 -23t23 -57 q0 -35 -23 -58z" />
<glyph unicode="&#x17d;" horiz-adv-x="535" d="M470 0h-405q-28 0 -28 28v94q0 18 11 35l262 371h-230q-28 0 -28 28v80q0 28 28 28h385q28 0 28 -28v-94q0 -18 -11 -35l-262 -371h250q28 0 28 -28v-80q0 -28 -28 -28zM422 856l-80 -118q-10 -15 -29 -15h-86q-19 0 -29 15l-80 118q-8 12 -4 20.5t19 8.5h74q18 0 29 -15 l34 -50l34 50q10 15 29 15h74q15 0 19 -8.5t-4 -20.5z" />
<glyph unicode="&#x17e;" horiz-adv-x="440" d="M407 94v-66q0 -28 -28 -28h-318q-28 0 -28 28v81q0 19 12 34l193 235h-162q-28 0 -28 28v66q0 28 28 28h298q28 0 28 -28v-81q0 -19 -12 -34l-193 -235h182q28 0 28 -28zM375 698l-80 -118q-11 -15 -29 -15h-86q-18 0 -29 15l-80 118q-8 12 -4 20.5t19 8.5h74 q18 0 29 -15l34 -50l34 50q11 15 29 15h74q15 0 19 -8.5t-4 -20.5z" />
<glyph unicode="&#x192;" horiz-adv-x="530" d="M396 514q-60 0 -71 -65l-5 -35h109q28 0 28 -28v-66q0 -28 -28 -28h-126l-46 -336q-5 -26 -30 -26h-86q-31 0 -26 30l47 332h-65q-28 0 -28 28v66q0 28 28 28h82l4 30q27 192 199 192q61 0 102 -16q26 -9 16 -36l-24 -63q-9 -25 -34 -15q-24 8 -46 8z" />
<glyph unicode="&#x1fc;" horiz-adv-x="861" d="M549 528v-125h208q28 0 28 -28v-78q0 -28 -28 -28h-208v-133h252q28 0 28 -28v-80q0 -28 -28 -28h-380q-28 0 -28 28v77h-173l-38 -84q-9 -21 -32 -21h-114q-16 0 -22 9.5t1 23.5l299 611q11 20 33 20h454q28 0 28 -28v-80q0 -28 -28 -28h-252zM391 498l-112 -263h114 v263h-2zM586 856l-81 -118q-11 -15 -29 -15h-81q-14 0 -19 8t2 21l67 116q11 17 28 17h98q14 0 18.5 -8.5t-3.5 -20.5z" />
<glyph unicode="&#x1fd;" horiz-adv-x="709" d="M502 512q82 0 130 -51.5t48 -140.5v-83q0 -28 -28 -28h-226v-11q0 -48 19 -68q20 -20 62 -20q43 0 77 25q26 17 39 -6l35 -53q15 -23 -4 -39q-61 -49 -141 -49q-110 0 -155 68h-2q-44 -68 -152 -68q-81 0 -128 43.5t-47 119.5q0 74 46.5 113.5t136.5 39.5h72q0 46 -20 66 t-60 20q-42 0 -79 -24q-25 -14 -38 8l-31 57q-13 25 9 38q67 43 143 43q102 0 145 -66h2q43 66 147 66zM426 304h120v8q0 78 -60 78t-60 -78v-8zM284 188v21h-52q-44 4 -57 -33q-11 -32 11 -54q14 -15 38 -12q60 0 60 78zM503 698l-81 -118q-10 -15 -29 -15h-81q-14 0 -19 8 t2 21l67 116q11 17 28 17h98q14 0 18.5 -8.5t-3.5 -20.5z" />
<glyph unicode="&#x1fe;" horiz-adv-x="596" d="M556 600l-24 -37q27 -53 27 -127v-208q0 -115 -65 -177.5t-186 -62.5q-83 0 -140 30l-12 -18q-12 -20 -33 -7l-56 38q-20 12 -7 33l24 37q-27 52 -27 127v208q0 115 65 177.5t186 62.5q83 0 140 -30l12 18q12 20 33 7l56 -38q19 -13 7 -33zM308 540q-95 0 -95 -116v-128 h2l151 228q-19 16 -58 16zM403 368h-2l-151 -228q19 -16 58 -16q95 0 95 116v128zM455 856l-81 -118q-10 -15 -29 -15h-81q-14 0 -19 8t2 21l67 116q11 17 28 17h98q14 0 18.5 -8.5t-3.5 -20.5z" />
<glyph unicode="&#x1ff;" horiz-adv-x="480" d="M449 441l-17 -24q20 -43 20 -97v-140q0 -92 -52.5 -142t-149.5 -50q-63 0 -108 21l-7 -10q-13 -19 -32 -6l-46 34q-20 12 -6 32l17 24q-20 43 -20 97v140q0 92 52.5 142t149.5 50q63 0 108 -21l7 10q13 19 32 6l46 -34q20 -12 6 -32zM250 390q-60 0 -60 -78v-54h2l89 125 q-10 7 -31 7zM310 242h-2l-89 -125q10 -7 31 -7q60 0 60 78v54zM397 698l-81 -118q-10 -15 -29 -15h-81q-14 0 -19 8t2 21l67 116q11 17 28 17h98q14 0 18.5 -8.5t-3.5 -20.5z" />
<glyph unicode="&#x218;" horiz-adv-x="522" d="M273 676q136 0 210 -71q19 -19 0 -40l-59 -60q-18 -18 -40 -1q-42 36 -102 36q-76 0 -76 -67q0 -28 24 -43t83 -25q109 -18 156.5 -67t47.5 -142q0 -94 -61 -151q-62 -57 -162 -57q-156 0 -241 87q-18 20 1 39l59 61q19 19 40 0q59 -51 132 -51q76 0 76 67q0 28 -23 42.5 t-84 25.5q-110 19 -157 67.5t-47 141.5q0 94 61 151t162 57zM280 -40q32 0 53 -22.5t21 -59.5q0 -45 -24 -83t-63 -54q-17 -8 -25 8l-14 25q-9 15 7 24q19 10 23 26q-24 5 -38 23t-14 44q0 31 20.5 50t53.5 19z" />
<glyph unicode="&#x219;" horiz-adv-x="418" d="M417 147q0 -73 -49.5 -116t-132.5 -43q-116 0 -183 49q-22 15 -7 38l34 57q15 23 39 8q50 -32 100 -32q60 0 60 42q0 17 -16 26.5t-57 14.5q-84 11 -122 50t-38 112q0 71 51.5 115t136.5 44q87 0 150 -36q22 -14 8 -38l-30 -56q-13 -23 -38 -10q-35 20 -74 20 q-65 0 -65 -42q0 -31 71 -38q84 -10 123 -50t39 -115zM223 -40q32 0 53 -22.5t21 -59.5q0 -45 -24 -83t-63 -54q-17 -8 -25 8l-14 25q-9 15 7 24q19 10 23 26q-24 5 -38 23t-14 44q0 31 20.5 50t53.5 19z" />
<glyph unicode="&#x21a;" horiz-adv-x="516" d="M470 528h-134v-500q0 -28 -28 -28h-100q-28 0 -28 28v500h-134q-28 0 -28 28v80q0 28 28 28h424q28 0 28 -28v-80q0 -28 -28 -28zM258 -40q32 0 53 -22.5t21 -59.5q0 -45 -24 -83t-63 -54q-17 -8 -25 8l-14 25q-9 15 7 24q19 10 23 26q-24 5 -38 23t-14 44q0 31 20.5 50 t53.5 19z" />
<glyph unicode="&#x21b;" horiz-adv-x="363" d="M344 96l11 -62q4 -27 -18 -34q-36 -12 -80 -12q-183 0 -183 183v207h-30q-28 0 -28 28v66q0 28 28 28h30v99q0 28 28 28h86q28 0 28 -28v-99h100q28 0 28 -28v-66q0 -28 -28 -28h-100v-210q0 -58 59 -58q14 0 34 5q29 9 35 -19zM204 -40q32 0 53 -22.5t21 -59.5 q0 -45 -24 -83t-63 -54q-17 -8 -25 8l-14 25q-9 15 7 24q19 10 23 26q-24 5 -38 23t-14 44q0 31 20.5 50t53.5 19z" />
<glyph unicode="&#x237;" horiz-adv-x="246" d="M6 -38q26 0 36 10.5t10 37.5v462q0 28 28 28h86q28 0 28 -28v-462q0 -170 -161 -170h-27q-28 0 -28 28v66q0 28 28 28z" />
<glyph unicode="&#x2c6;" horiz-adv-x="500" d="M288 580l-34 50l-34 -50q-10 -15 -29 -15h-74q-15 0 -19 8.5t4 20.5l80 118q10 15 29 15h86q19 0 29 -15l80 -118q8 -12 4 -20.5t-19 -8.5h-74q-19 0 -29 15z" />
<glyph unicode="&#x2c7;" horiz-adv-x="500" d="M406 698l-80 -118q-10 -15 -29 -15h-86q-19 0 -29 15l-80 118q-8 12 -4 20.5t19 8.5h74q19 0 29 -15l34 -50l34 50q10 15 29 15h74q15 0 19 -8.5t-4 -20.5z" />
<glyph unicode="&#x2d8;" horiz-adv-x="500" d="M328 720h58q24 0 22 -23q-7 -63 -48 -96.5t-108 -33.5t-108 33.5t-48 96.5q-2 23 22 23h58q18 0 24 -19q10 -28 52 -28t52 28q6 19 24 19z" />
<glyph unicode="&#x2d9;" horiz-adv-x="500" d="M307 588q-22 -22 -57 -22q-36 0 -58 22t-22 58q0 35 22 57q23 23 58 23q34 0 57 -23t23 -57q0 -35 -23 -58z" />
<glyph unicode="&#x2da;" horiz-adv-x="500" d="M315 579q-26 -26 -65 -26t-65 26t-26 65t26 65t65 26t65 -26t26 -65t-26 -65zM227 621q9 -9 23 -9t23 9t9 23t-9 23t-23 9t-23 -9t-9 -23t9 -23z" />
<glyph unicode="&#x2db;" horiz-adv-x="500" d="M330 -79l24 -32q15 -19 -3 -34q-35 -27 -85 -27q-47 0 -73.5 22t-26.5 60q0 86 120 132l27 -28q-51 -32 -51 -72q0 -15 13 -20t25 4q16 13 30 -5z" />
<glyph unicode="&#x2dc;" horiz-adv-x="500" d="M158 568h-47q-24 0 -21 23q6 62 35 95t77 33q36 0 74 -30q16 -14 27 -14q15 0 21 21q6 20 24 20h47q24 0 21 -23q-6 -62 -35 -95t-77 -33q-36 0 -74 30q-16 14 -27 14q-15 0 -21 -21q-6 -20 -24 -20z" />
<glyph unicode="&#x2dd;" horiz-adv-x="500" d="M300 698l-78 -117q-10 -16 -29 -16h-61q-14 0 -19 8t2 21l63 116q9 17 28 17h78q15 0 19.5 -8.5t-3.5 -20.5zM470 698l-78 -117q-10 -16 -29 -16h-61q-14 0 -19 8t2 21l63 116q9 17 28 17h78q15 0 19.5 -8.5t-3.5 -20.5z" />
<glyph unicode="&#x394;" horiz-adv-x="602" d="M399 641l184 -609q8 -32 -23 -32h-510q-31 0 -23 32l184 609q8 23 31 23h126q23 0 31 -23zM393 136l-89 335h-2l-89 -335h180z" />
<glyph unicode="&#x3a9;" horiz-adv-x="596" d="M549 436v-138q0 -113 -77 -161v-2h49q28 0 28 -28v-79q0 -28 -28 -28h-160q-28 0 -28 28v91q0 19 18 34q42 36 42 117v154q0 116 -95 116t-95 -116v-154q0 -81 42 -117q18 -15 18 -34v-91q0 -28 -28 -28h-160q-28 0 -28 28v79q0 28 28 28h49v2q-77 48 -77 161v138 q0 115 65 177.5t186 62.5t186 -62.5t65 -177.5z" />
<glyph unicode="&#x3bc;" horiz-adv-x="496" d="M334 500h86q28 0 28 -28v-295q0 -91 -42.5 -140t-122.5 -49q-55 0 -87 28h-2v-148q0 -28 -28 -28h-86q-28 0 -28 28v604q0 28 28 28h86q28 0 28 -28v-288q0 -74 56 -74t56 74v288q0 28 28 28z" />
<glyph unicode="&#x3c0;" horiz-adv-x="540" d="M324 28v353h-108v-353q0 -28 -28 -28h-86q-28 0 -28 28v353h-30q-28 0 -28 28v63q0 28 28 28h452q28 0 28 -28v-63q0 -28 -28 -28h-30v-353q0 -28 -28 -28h-86q-28 0 -28 28z" />
<glyph unicode="&#x1e02;" horiz-adv-x="569" d="M438 341v-2q99 -38 99 -160q0 -94 -56.5 -136.5t-180.5 -42.5h-206q-28 0 -28 28v608q0 28 28 28h188q124 0 180.5 -42t56.5 -134q0 -108 -81 -147zM222 528v-125h61q80 0 80 63q0 62 -80 62h-61zM222 269v-133h77q80 0 80 67q0 66 -80 66h-77zM332 746q-22 -22 -57 -22 q-36 0 -58 22t-22 58q0 35 22 57q23 23 58 23q34 0 57 -23t23 -57q0 -35 -23 -58z" />
<glyph unicode="&#x1e03;" horiz-adv-x="490" d="M277 512q85 0 130 -50t45 -142v-140q0 -92 -52.5 -142t-149.5 -50t-149.5 50t-52.5 142v492q0 28 28 28h86q28 0 28 -28v-188h2q32 28 85 28zM310 188v124q0 78 -60 78t-60 -78v-124q0 -78 60 -78t60 78zM176 777q-22 -22 -57 -22q-36 0 -58 22t-22 58q0 35 22 57 q23 23 58 23q34 0 57 -23t23 -57q0 -35 -23 -58z" />
<glyph unicode="&#x1e0a;" horiz-adv-x="593" d="M94 664h201q251 0 251 -232v-199q0 -233 -251 -233h-201q-28 0 -28 28v608q0 28 28 28zM390 244v177q0 107 -104 107h-64v-392h64q104 0 104 108zM338 746q-22 -22 -57 -22q-36 0 -58 22t-22 58q0 35 22 57q23 23 58 23q34 0 57 -23t23 -57q0 -35 -23 -58z" />
<glyph unicode="&#x1e0b;" horiz-adv-x="490" d="M328 700h86q28 0 28 -28v-492q0 -92 -52.5 -142t-149.5 -50t-149.5 50t-52.5 142v140q0 92 45 142t130 50q53 0 85 -28h2v188q0 28 28 28zM300 188v124q0 78 -60 78t-60 -78v-124q0 -78 60 -78t60 78zM428 777q-22 -22 -57 -22q-36 0 -58 22t-22 58q0 35 22 57 q23 23 58 23q34 0 57 -23t23 -57q0 -35 -23 -58z" />
<glyph unicode="&#x1e1e;" horiz-adv-x="512" d="M222 528v-134h198q28 0 28 -28v-80q0 -28 -28 -28h-198v-230q0 -28 -28 -28h-100q-28 0 -28 28v608q0 28 28 28h370q28 0 28 -28v-80q0 -28 -28 -28h-242zM329 746q-22 -22 -57 -22q-36 0 -58 22t-22 58q0 35 22 57q23 23 58 23q34 0 57 -23t23 -57q0 -35 -23 -58z" />
<glyph unicode="&#x1e1f;" horiz-adv-x="349" d="M216 525v-25h100q28 0 28 -28v-66q0 -28 -28 -28h-100v-350q0 -28 -28 -28h-86q-28 0 -28 28v350h-30q-28 0 -28 28v66q0 28 28 28h30v20q0 92 48 142t137 50q61 0 102 -16q26 -9 16 -36l-24 -63q-8 -23 -36 -14q-18 7 -44 7t-41.5 -17.5t-15.5 -47.5zM271 777 q-22 -22 -57 -22q-36 0 -58 22t-22 58q0 35 22 57q23 23 58 23q34 0 57 -23t23 -57q0 -35 -23 -58z" />
<glyph unicode="&#x1e40;" horiz-adv-x="837" d="M573 664h170q28 0 28 -28v-608q0 -28 -28 -28h-100q-28 0 -28 28v421h-2l-130 -426q-8 -23 -31 -23h-70q-23 0 -31 23l-131 429h-2v-424q0 -28 -28 -28h-96q-28 0 -28 28v608q0 28 28 28h173q25 0 31 -23l121 -403h2l121 403q6 23 31 23zM476 746q-22 -22 -57 -22 q-36 0 -58 22t-22 58q0 35 22 57q23 23 58 23q34 0 57 -23t23 -57q0 -35 -23 -58z" />
<glyph unicode="&#x1e41;" horiz-adv-x="742" d="M506 512q91 0 139.5 -49t48.5 -141v-294q0 -28 -28 -28h-86q-28 0 -28 28v289q0 73 -55 73t-55 -73v-289q0 -28 -28 -28h-86q-28 0 -28 28v289q0 73 -56 73q-54 0 -54 -73v-289q0 -28 -28 -28h-86q-28 0 -28 28v294q0 91 48.5 140.5t138.5 49.5q87 0 135 -50h2 q47 50 134 50zM428 588q-22 -22 -57 -22q-36 0 -58 22t-22 58q0 35 22 57q23 23 58 23q34 0 57 -23t23 -57q0 -35 -23 -58z" />
<glyph unicode="&#x1e56;" horiz-adv-x="558" d="M94 664h189q129 0 190 -53t61 -166q0 -114 -61 -167.5t-190 -53.5h-61v-196q0 -28 -28 -28h-100q-28 0 -28 28v608q0 28 28 28zM222 528v-168h60q94 0 94 84t-94 84h-60zM336 746q-22 -22 -57 -22q-36 0 -58 22t-22 58q0 35 22 57q23 23 58 23q34 0 57 -23t23 -57 q0 -35 -23 -58z" />
<glyph unicode="&#x1e57;" horiz-adv-x="490" d="M452 320v-140q0 -92 -45 -142t-130 -50q-54 0 -85 28h-2v-148q0 -28 -28 -28h-86q-28 0 -28 28v452q0 92 52.5 142t149.5 50t149.5 -50t52.5 -142zM310 188v124q0 78 -60 78t-60 -78v-124q0 -78 60 -78t60 78zM307 588q-22 -22 -57 -22q-36 0 -58 22t-22 58q0 35 22 57 q23 23 58 23q34 0 57 -23t23 -57q0 -35 -23 -58z" />
<glyph unicode="&#x1e60;" horiz-adv-x="522" d="M273 676q136 0 210 -71q19 -19 0 -40l-59 -60q-18 -18 -40 -1q-42 36 -102 36q-76 0 -76 -67q0 -28 24 -43t83 -25q109 -18 156.5 -67t47.5 -142q0 -94 -61 -151q-62 -57 -162 -57q-156 0 -241 87q-18 20 1 39l59 61q19 19 40 0q59 -51 132 -51q76 0 76 67q0 28 -23 42.5 t-84 25.5q-110 19 -157 67.5t-47 141.5q0 94 61 151t162 57zM331 746q-22 -22 -57 -22q-36 0 -58 22t-22 58q0 35 22 57q23 23 58 23q34 0 57 -23t23 -57q0 -35 -23 -58z" />
<glyph unicode="&#x1e61;" horiz-adv-x="418" d="M417 147q0 -73 -49.5 -116t-132.5 -43q-116 0 -183 49q-22 15 -7 38l34 57q15 23 39 8q50 -32 100 -32q60 0 60 42q0 17 -16 26.5t-57 14.5q-84 11 -122 50t-38 112q0 71 51.5 115t136.5 44q87 0 150 -36q22 -14 8 -38l-30 -56q-13 -23 -38 -10q-35 20 -74 20 q-65 0 -65 -42q0 -31 71 -38q84 -10 123 -50t39 -115zM282 588q-22 -22 -57 -22q-36 0 -58 22t-22 58q0 35 22 57q23 23 58 23q34 0 57 -23t23 -57q0 -35 -23 -58z" />
<glyph unicode="&#x1e6a;" horiz-adv-x="516" d="M470 528h-134v-500q0 -28 -28 -28h-100q-28 0 -28 28v500h-134q-28 0 -28 28v80q0 28 28 28h424q28 0 28 -28v-80q0 -28 -28 -28zM315 746q-22 -22 -57 -22q-36 0 -58 22t-22 58q0 35 22 57q23 23 58 23q34 0 57 -23t23 -57q0 -35 -23 -58z" />
<glyph unicode="&#x1e6b;" horiz-adv-x="363" d="M344 96l11 -62q4 -27 -18 -34q-36 -12 -80 -12q-183 0 -183 183v207h-30q-28 0 -28 28v66q0 28 28 28h30v99q0 28 28 28h86q28 0 28 -28v-99h100q28 0 28 -28v-66q0 -28 -28 -28h-100v-210q0 -58 59 -58q14 0 34 5q29 9 35 -19zM202 709q-22 -22 -57 -22q-36 0 -58 22 t-22 58q0 35 22 57q23 23 58 23q34 0 57 -23t23 -57q0 -35 -23 -58z" />
<glyph unicode="&#x1e80;" horiz-adv-x="860" d="M717 664h105q31 0 24 -31l-151 -609q-6 -24 -31 -24h-108q-25 0 -31 24l-86 359h-2l-86 -359q-6 -24 -31 -24h-108q-25 0 -31 24l-151 609q-7 31 24 31h111q24 0 30 -25l81 -395h2l92 396q6 24 31 24h80q25 0 31 -24l92 -394h2l81 393q6 25 30 25zM482 723h-81 q-19 0 -29 15l-81 118q-8 12 -3.5 20.5t18.5 8.5h98q17 0 28 -17l67 -116q7 -13 2 -21t-19 -8z" />
<glyph unicode="&#x1e81;" horiz-adv-x="713" d="M599 500h82q31 0 24 -31l-116 -445q-6 -24 -31 -24h-97q-25 0 -31 24l-64 254h-2l-65 -254q-6 -24 -31 -24h-97q-25 0 -31 24l-116 445q-7 31 24 31h89q24 0 30 -25l64 -293h2l76 294q6 24 31 24h57q25 0 31 -24l75 -289h2l63 288q6 25 31 25zM409 565h-81q-18 0 -29 15 l-81 118q-8 12 -3.5 20.5t18.5 8.5h98q17 0 28 -17l67 -116q7 -13 2 -21t-19 -8z" />
<glyph unicode="&#x1e82;" horiz-adv-x="860" d="M717 664h105q31 0 24 -31l-151 -609q-6 -24 -31 -24h-108q-25 0 -31 24l-86 359h-2l-86 -359q-6 -24 -31 -24h-108q-25 0 -31 24l-151 609q-7 31 24 31h111q24 0 30 -25l81 -395h2l92 396q6 24 31 24h80q25 0 31 -24l92 -394h2l81 393q6 25 30 25zM585 856l-81 -118 q-10 -15 -29 -15h-81q-14 0 -19 8t2 21l67 116q11 17 28 17h98q14 0 18.5 -8.5t-3.5 -20.5z" />
<glyph unicode="&#x1e83;" horiz-adv-x="713" d="M599 500h82q31 0 24 -31l-116 -445q-6 -24 -31 -24h-97q-25 0 -31 24l-64 254h-2l-65 -254q-6 -24 -31 -24h-97q-25 0 -31 24l-116 445q-7 31 24 31h89q24 0 30 -25l64 -293h2l76 294q6 24 31 24h57q25 0 31 -24l75 -289h2l63 288q6 25 31 25zM512 698l-81 -118 q-11 -15 -29 -15h-81q-14 0 -19 8t2 21l67 116q11 17 28 17h98q14 0 18.5 -8.5t-3.5 -20.5z" />
<glyph unicode="&#x1e84;" horiz-adv-x="860" d="M717 664h105q31 0 24 -31l-151 -609q-6 -24 -31 -24h-108q-25 0 -31 24l-86 359h-2l-86 -359q-6 -24 -31 -24h-108q-25 0 -31 24l-151 609q-7 31 24 31h111q24 0 30 -25l81 -395h2l92 396q6 24 31 24h80q25 0 31 -24l92 -394h2l81 393q6 25 30 25zM346 730 q-33 0 -53.5 21t-20.5 53t20.5 53t53.5 21q32 0 53 -21t21 -53t-21 -53t-53 -21zM530 730q-32 0 -53 21t-21 53t21 53t53 21q33 0 53.5 -21t20.5 -53t-20.5 -53t-53.5 -21z" />
<glyph unicode="&#x1e85;" horiz-adv-x="713" d="M599 500h82q31 0 24 -31l-116 -445q-6 -24 -31 -24h-97q-25 0 -31 24l-64 254h-2l-65 -254q-6 -24 -31 -24h-97q-25 0 -31 24l-116 445q-7 31 24 31h89q24 0 30 -25l64 -293h2l76 294q6 24 31 24h57q25 0 31 -24l75 -289h2l63 288q6 25 31 25zM273 572q-33 0 -53.5 21 t-20.5 53t20.5 53t53.5 21q32 0 53 -21t21 -53t-21 -53t-53 -21zM457 572q-32 0 -53 21t-21 53t21 53t53 21q33 0 53.5 -21t20.5 -53t-20.5 -53t-53.5 -21z" />
<glyph unicode="&#x1ef2;" horiz-adv-x="560" d="M423 664h114q16 0 22 -9.5t-2 -23.5l-193 -357v-246q0 -28 -28 -28h-100q-28 0 -28 28v247l-193 356q-8 14 -2 23.5t22 9.5h120q22 0 33 -20l100 -204h2l100 204q11 20 33 20zM330 723h-81q-18 0 -29 15l-81 118q-8 12 -3.5 20.5t18.5 8.5h98q17 0 28 -17l67 -116 q7 -13 2 -21t-19 -8z" />
<glyph unicode="&#x1ef3;" horiz-adv-x="496" d="M330 500h86q28 0 28 -28v-456q0 -89 -54 -138.5t-151 -49.5q-99 0 -166 48q-19 16 -6 39l34 57q15 25 39 8q43 -31 90 -31q72 0 72 69v18h-2q-32 -28 -87 -28q-80 0 -122.5 49t-42.5 140v275q0 28 28 28h86q28 0 28 -28v-268q0 -74 56 -74t56 74v268q0 28 28 28zM290 565 h-81q-19 0 -29 15l-81 118q-8 12 -3.5 20.5t18.5 8.5h98q17 0 28 -17l67 -116q7 -13 2 -21t-19 -8z" />
<glyph unicode="&#x2007;" horiz-adv-x="530" />
<glyph unicode="&#x2012;" horiz-adv-x="530" d="M500 345v-66q0 -24 -24 -24h-422q-24 0 -24 24v66q0 24 24 24h422q24 0 24 -24z" />
<glyph unicode="&#x2013;" horiz-adv-x="500" d="M470 308v-66q0 -24 -24 -24h-392q-24 0 -24 24v66q0 24 24 24h392q24 0 24 -24z" />
<glyph unicode="&#x2014;" horiz-adv-x="900" d="M870 308v-66q0 -24 -24 -24h-792q-24 0 -24 24v66q0 24 24 24h792q24 0 24 -24z" />
<glyph unicode="&#x2018;" horiz-adv-x="266" d="M48 459q0 56 29 114t74 95q16 12 29 -1l28 -25q15 -15 0 -30q-36 -37 -45 -92q55 -18 55 -76q0 -36 -24 -58t-61 -22t-61 25.5t-24 69.5z" />
<glyph unicode="&#x2019;" horiz-adv-x="266" d="M223 581q0 -56 -29 -114t-74 -95q-16 -12 -29 1l-28 25q-15 15 0 30q36 37 45 92q-55 18 -55 76q0 36 24 58t61 22t61 -25.5t24 -69.5z" />
<glyph unicode="&#x201a;" horiz-adv-x="266" d="M223 63q0 -56 -29 -114t-74 -95q-16 -12 -29 1l-28 25q-15 15 0 30q36 37 45 92q-55 18 -55 76q0 36 24 58t61 22t61 -25.5t24 -69.5z" />
<glyph unicode="&#x201c;" horiz-adv-x="471" d="M48 459q0 56 29 114t74 95q16 12 29 -1l28 -25q15 -15 0 -30q-36 -37 -45 -92q55 -18 55 -76q0 -36 -24 -58t-61 -22t-61 25.5t-24 69.5zM253 459q0 56 29 114t74 95q16 12 29 -1l28 -25q15 -15 0 -30q-36 -37 -45 -92q55 -18 55 -76q0 -36 -24 -58t-61 -22t-61 25.5 t-24 69.5z" />
<glyph unicode="&#x201d;" horiz-adv-x="471" d="M223 581q0 -56 -29 -114t-74 -95q-16 -12 -29 1l-28 25q-15 15 0 30q36 37 45 92q-55 18 -55 76q0 36 24 58t61 22t61 -25.5t24 -69.5zM428 581q0 -56 -29 -114t-74 -95q-16 -12 -29 1l-28 25q-15 15 0 30q36 37 45 92q-55 18 -55 76q0 36 24 58t61 22t61 -25.5t24 -69.5 z" />
<glyph unicode="&#x201e;" horiz-adv-x="471" d="M428 63q0 -56 -29 -114t-74 -95q-16 -12 -29 1l-28 25q-15 15 0 30q36 37 45 92q-55 18 -55 76q0 36 24 58t61 22t61 -25.5t24 -69.5zM223 63q0 -56 -29 -114t-74 -95q-16 -12 -29 1l-28 25q-15 15 0 30q36 37 45 92q-55 18 -55 76q0 36 24 58t61 22t61 -25.5t24 -69.5z " />
<glyph unicode="&#x2020;" horiz-adv-x="446" d="M391 455h-113v-357q0 -23 -23 -23h-64q-23 0 -23 23v357h-113q-23 0 -23 23v58q0 23 23 23h113v118q0 23 23 23h64q23 0 23 -23v-118h113q23 0 23 -23v-58q0 -23 -23 -23z" />
<glyph unicode="&#x2021;" horiz-adv-x="446" d="M278 455v-135h113q23 0 23 -23v-58q0 -23 -23 -23h-113v-118q0 -23 -23 -23h-64q-23 0 -23 23v118h-113q-23 0 -23 23v58q0 23 23 23h113v135h-113q-23 0 -23 23v58q0 23 23 23h113v118q0 23 23 23h64q23 0 23 -23v-118h113q23 0 23 -23v-58q0 -23 -23 -23h-113z" />
<glyph unicode="&#x2022;" horiz-adv-x="500" d="M357 187q-44 -44 -107 -44q-64 0 -108 44q-43 43 -43 108q0 64 43 107q44 44 108 44q63 0 107 -44t44 -107q0 -64 -44 -108z" />
<glyph unicode="&#x2026;" horiz-adv-x="900" d="M803 12q-24 -24 -61 -24t-61 24t-24 61t24 61t61 24t61 -24t24 -61t-24 -61zM511 12q-24 -24 -61 -24t-61 24t-24 61t24 61t61 24t61 -24t24 -61t-24 -61zM219 12q-24 -24 -61 -24t-61 24t-24 61t24 61t61 24t61 -24t24 -61t-24 -61z" />
<glyph unicode="&#x2030;" horiz-adv-x="947" d="M657 114v82q0 59 34.5 92.5t96.5 33.5q61 0 95.5 -33.5t34.5 -92.5v-82q0 -60 -34 -93t-96 -33t-96.5 33t-34.5 93zM751 197v-84q0 -40 37 -40q36 0 36 40v84q0 40 -36 40q-37 0 -37 -40zM25 428v82q0 59 34.5 92.5t96.5 33.5q61 0 95.5 -33.5t34.5 -92.5v-82 q0 -60 -34 -93t-96 -33t-96.5 33t-34.5 93zM157 0h-62q-14 0 -18 8t4 20l386 581q11 15 28 15h62q14 0 18 -8t-4 -20l-386 -581q-11 -15 -28 -15zM119 511v-84q0 -40 37 -40q36 0 36 40v84q0 40 -36 40q-37 0 -37 -40zM366 114v82q0 59 34.5 92.5t96.5 33.5q61 0 95.5 -33.5 t34.5 -92.5v-82q0 -60 -34 -93t-96 -33t-96.5 33t-34.5 93zM460 197v-84q0 -40 37 -40q36 0 36 40v84q0 40 -36 40q-37 0 -37 -40z" />
<glyph unicode="&#x2039;" horiz-adv-x="286" d="M260 416l-102 -166l102 -166q7 -13 2.5 -21t-18.5 -8h-79q-19 0 -29 16l-100 162q-11 17 0 34l100 162q10 16 29 16h79q14 0 18.5 -8t-2.5 -21z" />
<glyph unicode="&#x203a;" horiz-adv-x="286" d="M40 84l102 166l-102 166q-7 13 -2.5 21t18.5 8h79q19 0 29 -16l100 -162q11 -17 0 -34l-100 -162q-10 -16 -29 -16h-79q-14 0 -18.5 8t2.5 21z" />
<glyph unicode="&#x2044;" horiz-adv-x="144" d="M-169 28l386 581q11 15 28 15h62q14 0 18 -8t-4 -20l-386 -581q-11 -15 -28 -15h-62q-14 0 -18 8t4 20z" />
<glyph unicode="&#x2070;" d="M28 488v136q0 62 36 97t101 35t101 -35t36 -97v-136q0 -62 -36 -97t-101 -35t-101 35t-36 97zM127 625v-138q0 -42 38 -42t38 42v138q0 42 -38 42t-38 -42z" />
<glyph unicode="&#x2074;" d="M273 726v-200h20q23 0 23 -23v-43q0 -23 -23 -23h-20v-51q0 -23 -23 -23h-53q-23 0 -23 23v51h-132q-23 0 -23 23v54q0 16 9 29l134 192q11 14 28 14h60q23 0 23 -23zM174 526v99h-2l-69 -99h71z" />
<glyph unicode="&#x2075;" d="M203 617q55 0 88 -35.5t33 -94.5t-39.5 -95t-104.5 -36q-78 0 -125 41q-17 14 -2 32l27 35q14 18 33 2q27 -21 61 -21q38 -4 48 27q9 30 -12 48q-13 12 -33 9q-15 0 -31 -8q-14 -9 -29 -6l-36 6q-22 3 -21 25l12 181q1 22 23 22h183q23 0 23 -23v-43q0 -23 -23 -23h-126 l-3 -54h2q25 11 52 11z" />
<glyph unicode="&#x2076;" d="M200 623q50 0 79 -35t29 -96q0 -63 -36.5 -99.5t-100.5 -36.5q-65 0 -101 35t-36 98v127q0 67 35.5 103.5t100.5 36.5q59 0 103 -23q20 -11 7 -31l-21 -39q-10 -19 -31 -7q-24 11 -47 11q-48 0 -48 -51v-19h2q23 26 65 26zM209 489q0 45 -38 45t-38 -45q0 -44 38 -44 t38 44z" />
<glyph unicode="&#x2077;" d="M310 726v-54q0 -14 -6 -29l-114 -262q-8 -18 -27 -18h-60q-13 0 -18 7.5t0 19.5l124 271h-91v-44q0 -23 -23 -23h-43q-23 0 -23 23v109q0 23 23 23h235q23 0 23 -23z" />
<glyph unicode="&#x2078;" d="M254 561v-2q55 -27 55 -87q0 -55 -38 -85.5t-106 -30.5t-106 30.5t-38 85.5q0 60 55 87v2q-45 25 -45 80q0 54 35.5 84.5t98.5 30.5q64 0 98 -31q36 -30 36 -84q0 -55 -45 -80zM201 634q0 33 -36 33t-36 -33t36 -33t36 33zM210 479q0 37 -45 37t-45 -37q0 -34 45 -34 t45 34z" />
<glyph unicode="&#x2079;" d="M159 756q65 0 101 -35t36 -98v-127q0 -67 -35.5 -103.5t-100.5 -36.5q-62 0 -103 23q-20 11 -7 31l21 39q10 19 31 7q24 -11 47 -11q48 0 48 51v19h-2q-23 -26 -65 -26q-50 0 -79 35t-29 96q0 63 36.5 99.5t100.5 36.5zM197 623q0 44 -38 44t-38 -44q0 -45 38 -45t38 45z " />
<glyph unicode="&#x2080;" d="M28 -35v136q0 62 36 97t101 35t101 -35t36 -97v-136q0 -62 -36 -97t-101 -35t-101 35t-36 97zM127 102v-138q0 -42 38 -42t38 42v138q0 42 -38 42t-38 -42z" />
<glyph unicode="&#x2081;" d="M278 203v-340q0 -23 -23 -23h-53q-23 0 -23 23v235l-39 -29q-19 -13 -32 5l-25 36q-12 20 6 33l97 73q13 10 29 10h40q23 0 23 -23z" />
<glyph unicode="&#x2082;" d="M180 -68v-2h103q23 0 23 -23v-43q0 -23 -23 -23h-212q-23 0 -23 23v45q0 17 12 29l129 130q23 25 23 42q0 34 -39 34q-28 0 -49 -25q-15 -18 -32 -4l-34 30q-18 14 -2 33q49 55 121 55q63 0 98.5 -32.5t35.5 -90.5q0 -55 -53 -105z" />
<glyph unicode="&#x2083;" d="M264 38v-2q55 -22 55 -87q0 -55 -37 -85.5t-103 -30.5q-80 0 -127 46q-15 15 -1 32l28 35q15 19 32 2q32 -26 62 -26q47 0 47 34q0 21 -14.5 29t-51.5 8h-2q-23 0 -23 23v39q0 23 23 23q34 0 46.5 7t12.5 26q0 33 -41 33q-27 0 -55 -25q-19 -16 -32 1l-28 34q-14 18 1 33 q52 46 120 46q63 0 98.5 -30.5t35.5 -84.5q0 -58 -46 -80z" />
<glyph unicode="&#x2084;" d="M273 203v-200h20q23 0 23 -23v-43q0 -23 -23 -23h-20v-51q0 -23 -23 -23h-53q-23 0 -23 23v51h-132q-23 0 -23 23v54q0 16 9 29l134 192q11 14 28 14h60q23 0 23 -23zM174 3v99h-2l-69 -99h71z" />
<glyph unicode="&#x2085;" d="M203 94q55 0 88 -35.5t33 -94.5t-39.5 -95t-104.5 -36q-78 0 -125 41q-17 14 -2 32l27 35q14 18 33 2q27 -21 61 -21q38 -4 48 27q9 30 -12 48q-13 12 -33 9q-15 0 -31 -8q-14 -9 -29 -6l-36 6q-22 3 -21 25l12 181q1 22 23 22h183q23 0 23 -23v-43q0 -23 -23 -23h-126 l-3 -54h2q25 11 52 11z" />
<glyph unicode="&#x2086;" d="M200 100q50 0 79 -35t29 -96q0 -63 -36.5 -99.5t-100.5 -36.5q-65 0 -101 35t-36 98v127q0 67 35.5 103.5t100.5 36.5q59 0 103 -23q20 -11 7 -31l-21 -39q-10 -19 -31 -7q-24 11 -47 11q-48 0 -48 -51v-19h2q23 26 65 26zM209 -34q0 45 -38 45t-38 -45q0 -44 38 -44 t38 44z" />
<glyph unicode="&#x2087;" d="M310 203v-54q0 -14 -6 -29l-114 -262q-8 -18 -27 -18h-60q-13 0 -18 7.5t0 19.5l124 271h-91v-44q0 -23 -23 -23h-43q-23 0 -23 23v109q0 23 23 23h235q23 0 23 -23z" />
<glyph unicode="&#x2088;" d="M254 38v-2q55 -27 55 -87q0 -55 -38 -85.5t-106 -30.5t-106 30.5t-38 85.5q0 60 55 87v2q-45 26 -45 80t35.5 84.5t98.5 30.5q64 0 98 -31q36 -30 36 -84t-45 -80zM201 111q0 33 -36 33t-36 -33t36 -33t36 33zM210 -44q0 37 -45 37t-45 -37q0 -34 45 -34t45 34z" />
<glyph unicode="&#x2089;" d="M159 233q65 0 101 -35t36 -98v-127q0 -67 -35.5 -103.5t-100.5 -36.5q-62 0 -103 23q-20 11 -7 31l21 39q10 19 31 7q24 -11 47 -11q48 0 48 51v19h-2q-23 -26 -65 -26q-50 0 -79 35t-29 96q0 63 36.5 99.5t100.5 36.5zM197 100q0 44 -38 44t-38 -44q0 -45 38 -45t38 45z " />
<glyph unicode="&#x20ac;" horiz-adv-x="530" d="M303 118q51 0 84 34q19 19 39 5l64 -45q23 -17 7 -39q-64 -85 -197 -85q-103 0 -162.5 56t-59.5 157v1h-25q-22 0 -22 22v42q0 22 22 22h25v49h-25q-22 0 -22 22v41q0 22 22 22h25v1q0 101 59.5 157t162.5 56q133 0 197 -85q16 -22 -7 -39l-64 -45q-20 -14 -39 5 q-33 34 -84 34q-77 0 -77 -84h128q24 0 20 -24l-9 -42q-4 -19 -24 -19h-115v-49h100q24 0 20 -24l-9 -42q-5 -20 -24 -20h-87q0 -84 77 -84z" />
<glyph unicode="&#x20b9;" horiz-adv-x="530" d="M446 462h52q24 0 20 -24l-8 -38q-4 -19 -24 -19h-39q-9 -69 -55.5 -106.5t-138.5 -47.5v-2l190 -191q13 -13 8.5 -23.5t-23.5 -10.5h-129q-21 0 -34 15l-212 225q-13 15 -9 33l9 42q4 22 28 22h95q91 0 115 42v2h-226q-25 0 -20 24l8 38q4 19 24 19h214v2q-23 42 -115 42 h-108q-28 0 -22 27l14 69q4 22 28 22h410q24 0 20 -24l-8 -38q-4 -19 -24 -19h-75v-2q28 -31 35 -79z" />
<glyph unicode="&#x2113;" horiz-adv-x="480" d="M418 133l32 -64q11 -25 -7 -38q-55 -43 -133 -43q-158 0 -194 127l-9 -5q-26 -14 -38 12l-32 65q-12 24 12 38l58 33v204q0 80 49 127t133 47q79 0 125 -44t46 -120q0 -73 -47 -138q-45 -62 -158 -137q0 -79 63 -79q31 0 62 22q25 18 38 -7zM290 517q-35 0 -35 -57v-99h2 q64 55 64 111q0 45 -31 45z" />
<glyph unicode="&#x2117;" horiz-adv-x="752" d="M130 577q99 99 246 99q148 0 245 -99q99 -97 99 -245q0 -147 -99 -246q-98 -98 -245 -98q-146 0 -246 98q-98 100 -98 246q0 147 98 245zM192 141q76 -78 184 -78t183 78q76 79 76 191q0 113 -76 190q-75 79 -183 79t-184 -79q-75 -78 -75 -190t75 -191zM289 516h100 q72 0 106.5 -29.5t34.5 -93.5q0 -65 -34.5 -95t-106.5 -30h-27v-98q0 -22 -22 -22h-51q-22 0 -22 22v324q0 22 22 22zM362 433v-82h26q45 0 45 41t-45 41h-26z" />
<glyph unicode="&#x2122;" horiz-adv-x="785" d="M35 664h229q21 0 21 -21v-41q0 -21 -21 -21h-67v-250q0 -21 -21 -21h-54q-21 0 -21 21v250h-66q-21 0 -21 21v41q0 21 21 21zM622 664h98q21 0 21 -21v-312q0 -21 -21 -21h-54q-21 0 -21 21v213h-2l-68 -217q-5 -17 -23 -17h-29q-19 0 -24 17l-68 218h-2v-214 q0 -21 -21 -21h-50q-21 0 -21 21v312q0 21 21 21h99q18 0 23 -17l58 -191h2l59 191q5 17 23 17z" />
<glyph unicode="&#x2126;" horiz-adv-x="590" d="M546 436v-138q0 -113 -77 -161v-2h49q28 0 28 -28v-79q0 -28 -28 -28h-160q-28 0 -28 28v91q0 19 18 34q42 36 42 117v154q0 116 -95 116t-95 -116v-154q0 -81 42 -117q18 -15 18 -34v-91q0 -28 -28 -28h-160q-28 0 -28 28v79q0 28 28 28h49v2q-77 48 -77 161v138 q0 115 65 177.5t186 62.5t186 -62.5t65 -177.5z" />
<glyph unicode="&#x212e;" horiz-adv-x="820" d="M189 111q88 -103 223 -103q139 0 233 115h54q-52 -64 -128 -99.5t-161 -35.5q-150 0 -256 100t-106 244q0 143 106 243q107 101 256 101t256 -101q106 -100 106 -243v-8h-587q-4 0 -4 -4v-189q0 -7 8 -20zM185 342h450q6 0 6 6v189q0 12 -10 22q-91 97 -219 97 q-130 0 -223 -101q-8 -13 -8 -22v-185q0 -6 4 -6z" />
<glyph unicode="&#x2153;" horiz-adv-x="804" d="M736 198v-2q55 -22 55 -87q0 -55 -37 -85.5t-103 -30.5q-80 0 -127 46q-15 15 -1 32l28 35q15 19 32 2q32 -26 62 -26q47 0 47 34q0 21 -14.5 29t-51.5 8h-2q-23 0 -23 23v39q0 23 23 23q34 0 46.5 7t12.5 26q0 33 -41 33q-27 0 -55 -25q-19 -16 -32 1l-28 34 q-14 18 1 33q52 46 120 46q63 0 98.5 -30.5t35.5 -84.5q0 -58 -46 -80zM169 28l386 581q11 15 28 15h62q14 0 18 -8t-4 -20l-386 -581q-11 -15 -28 -15h-62q-14 0 -18 8t4 20zM278 601v-340q0 -23 -23 -23h-53q-23 0 -23 23v235l-39 -29q-19 -13 -32 5l-25 36q-12 20 6 33 l97 73q13 10 29 10h40q23 0 23 -23z" />
<glyph unicode="&#x2154;" horiz-adv-x="804" d="M732 198v-2q55 -22 55 -87q0 -55 -37 -85.5t-103 -30.5q-80 0 -127 46q-15 15 -1 32l28 35q15 19 32 2q32 -26 62 -26q47 0 47 34q0 21 -14.5 29t-51.5 8h-2q-23 0 -23 23v39q0 23 23 23q34 0 46.5 7t12.5 26q0 33 -41 33q-27 0 -55 -25q-19 -16 -32 1l-28 34 q-14 18 1 33q52 46 120 46q63 0 98.5 -30.5t35.5 -84.5q0 -58 -46 -80zM180 330v-2h103q23 0 23 -23v-43q0 -23 -23 -23h-212q-23 0 -23 23v45q0 17 12 29l129 130q23 25 23 42q0 34 -39 34q-28 0 -49 -25q-15 -18 -32 -4l-34 30q-18 14 -2 33q49 55 121 55q63 0 98.5 -32.5 t35.5 -90.5q0 -55 -53 -105zM175 28l386 581q11 15 28 15h62q14 0 18 -8t-4 -20l-386 -581q-11 -15 -28 -15h-62q-14 0 -18 8t4 20z" />
<glyph unicode="&#x215b;" horiz-adv-x="804" d="M740 198v-2q55 -27 55 -87q0 -55 -38 -85.5t-106 -30.5t-106 30.5t-38 85.5q0 60 55 87v2q-45 25 -45 80q0 54 35.5 84.5t98.5 30.5q64 0 98 -31q36 -30 36 -84t-45 -80zM687 271q0 33 -36 33t-36 -33t36 -33t36 33zM696 116q0 37 -45 37t-45 -37q0 -34 45 -34t45 34z M169 28l386 581q11 15 28 15h62q14 0 18 -8t-4 -20l-386 -581q-11 -15 -28 -15h-62q-14 0 -18 8t4 20zM278 601v-340q0 -23 -23 -23h-53q-23 0 -23 23v235l-39 -29q-19 -13 -32 5l-25 36q-12 20 6 33l97 73q13 10 29 10h40q23 0 23 -23z" />
<glyph unicode="&#x215c;" horiz-adv-x="804" d="M264 436v-2q55 -22 55 -87q0 -55 -37 -85.5t-103 -30.5q-80 0 -127 46q-15 15 -1 32l28 35q15 19 32 2q32 -26 62 -26q47 0 47 34q0 21 -14.5 29t-51.5 8h-2q-23 0 -23 23v39q0 23 23 23q34 0 46.5 7t12.5 26q0 33 -41 33q-27 0 -55 -25q-19 -16 -32 1l-28 34 q-14 18 1 33q52 46 120 46q63 0 98.5 -30.5t35.5 -84.5q0 -58 -46 -80zM742 198v-2q55 -27 55 -87q0 -55 -38 -85.5t-106 -30.5t-106 30.5t-38 85.5q0 60 55 87v2q-45 25 -45 80q0 54 35.5 84.5t98.5 30.5q64 0 98 -31q36 -30 36 -84t-45 -80zM689 271q0 33 -36 33t-36 -33 t36 -33t36 33zM698 116q0 37 -45 37t-45 -37q0 -34 45 -34t45 34zM176 28l386 581q10 15 28 15h62q14 0 18 -8t-4 -20l-386 -581q-10 -15 -28 -15h-62q-14 0 -18 8t4 20z" />
<glyph unicode="&#x215d;" horiz-adv-x="804" d="M743 198v-2q55 -27 55 -87q0 -55 -38 -85.5t-106 -30.5t-106 30.5t-38 85.5q0 60 55 87v2q-45 25 -45 80q0 54 35.5 84.5t98.5 30.5q64 0 98 -31q36 -30 36 -84t-45 -80zM690 271q0 33 -36 33t-36 -33t36 -33t36 33zM699 116q0 37 -45 37t-45 -37q0 -34 45 -34t45 34z M203 492q55 0 88 -35.5t33 -94.5t-39.5 -95t-104.5 -36q-78 0 -125 41q-17 14 -2 32l27 35q14 18 33 2q27 -21 61 -21q38 -4 48 27q9 30 -12 48q-13 12 -33 9q-15 0 -31 -8q-14 -9 -29 -6l-36 6q-22 3 -21 25l12 181q1 22 23 22h183q23 0 23 -23v-43q0 -23 -23 -23h-126 l-3 -54h2q25 11 52 11zM177 28l386 581q11 15 28 15h62q14 0 18 -8t-4 -20l-386 -581q-11 -15 -28 -15h-62q-14 0 -18 8t4 20z" />
<glyph unicode="&#x215e;" horiz-adv-x="804" d="M728 198v-2q55 -27 55 -87q0 -55 -38 -85.5t-106 -30.5t-106 30.5t-38 85.5q0 60 55 87v2q-45 25 -45 80q0 54 35.5 84.5t98.5 30.5q64 0 98 -31q36 -30 36 -84t-45 -80zM675 271q0 33 -36 33t-36 -33t36 -33t36 33zM684 116q0 37 -45 37t-45 -37q0 -34 45 -34t45 34z M310 601v-54q0 -14 -6 -29l-114 -262q-8 -18 -27 -18h-60q-13 0 -18 7.5t0 19.5l124 271h-91v-44q0 -23 -23 -23h-43q-23 0 -23 23v109q0 23 23 23h235q23 0 23 -23zM127 28l386 581q11 15 28 15h62q14 0 18 -8t-4 -20l-386 -581q-11 -15 -28 -15h-62q-14 0 -18 8t4 20z" />
<glyph unicode="&#x2202;" horiz-adv-x="540" d="M271 676q107 0 169 -80q63 -80 63 -216q0 -180 -71 -287q-70 -105 -193 -105q-94 0 -149 56t-55 151q0 110 58 180q59 71 146 71q73 0 114 -45h2q-3 68 -30 106.5t-73 38.5q-42 0 -77 -20q-27 -17 -38 10l-32 68q-11 26 9 36q69 36 157 36zM240 118q71 0 101 132 q0 29 -17 47.5t-43 18.5q-44 0 -71 -34.5t-27 -89.5q0 -35 15 -54.5t42 -19.5z" />
<glyph unicode="&#x2206;" horiz-adv-x="596" d="M396 641l184 -609q8 -32 -23 -32h-510q-31 0 -23 32l184 609q8 23 31 23h126q23 0 31 -23zM390 136l-89 335h-2l-89 -335h180z" />
<glyph unicode="&#x220f;" horiz-adv-x="606" d="M558 636v-688q0 -28 -28 -28h-100q-28 0 -28 28v580h-198v-580q0 -28 -28 -28h-100q-28 0 -28 28v688q0 28 28 28h454q28 0 28 -28z" />
<glyph unicode="&#x2211;" horiz-adv-x="501" d="M463 528h-258l171 -216q17 -20 0 -40l-171 -216h258q28 0 28 -28v-80q0 -28 -28 -28h-415q-28 0 -28 28v94q0 19 12 34l169 216l-169 216q-12 15 -12 34v94q0 28 28 28h415q28 0 28 -28v-80q0 -28 -28 -28z" />
<glyph unicode="&#x2212;" horiz-adv-x="530" d="M508 317v-76q0 -28 -28 -28h-430q-28 0 -28 28v76q0 28 28 28h430q28 0 28 -28z" />
<glyph unicode="&#x2219;" horiz-adv-x="266" d="M194 251q-24 -24 -61 -24t-61 24t-24 61t24 61t61 24t61 -24t24 -61t-24 -61z" />
<glyph unicode="&#x221a;" horiz-adv-x="536" d="M437 664h79q32 0 25 -31l-167 -689q-6 -24 -31 -24h-103q-24 0 -32 23l-73 205l-47 -13q-26 -8 -34 20l-15 53q-8 26 20 34l136 38q27 8 34 -19l52 -163h2l123 541q6 25 31 25z" />
<glyph unicode="&#x221e;" horiz-adv-x="611" d="M436 470q69 0 107 -41.5t38 -116.5t-39 -116.5t-109 -41.5q-89 0 -138 73q-52 -73 -120 -73q-69 0 -107 41.5t-38 116.5t39 116.5t109 41.5q86 0 138 -73q52 73 120 73zM183 252q42 0 73 46q-20 41 -38 57.5t-41 16.5q-21 0 -33 -16t-12 -44t13.5 -44t37.5 -16zM428 372 q-40 0 -72 -44q21 -41 40 -60q17 -16 38 -16t33 16q12 17 12 44q0 28 -13.5 44t-37.5 16z" />
<glyph unicode="&#x222b;" horiz-adv-x="346" d="M87 490q0 207 200 221q29 2 29 -27v-68q0 -23 -26 -29q-61 -15 -61 -92q0 -56 15 -215q15 -144 15 -230q0 -207 -200 -221q-29 -2 -29 27v68q0 23 26 29q61 15 61 92q0 56 -15 215q-15 144 -15 230z" />
<glyph unicode="&#x2248;" horiz-adv-x="530" d="M193 359q-32 0 -58 -42q-14 -24 -38 -12l-61 32q-24 14 -12 38q32 61 70.5 88.5t90.5 27.5q50 0 114 -38q39 -24 62 -24q33 0 58 42q14 24 38 12l61 -32q24 -14 12 -38q-32 -61 -70.5 -88.5t-90.5 -27.5q-50 0 -114 38q-39 24 -62 24zM193 129q-32 0 -58 -42 q-14 -24 -38 -12l-61 32q-24 14 -12 38q32 61 70.5 88.5t90.5 27.5q50 0 114 -38q39 -24 62 -24q33 0 58 42q14 24 38 12l61 -32q24 -14 12 -38q-32 -61 -70.5 -88.5t-90.5 -27.5q-50 0 -114 38q-39 24 -62 24z" />
<glyph unicode="&#x2260;" horiz-adv-x="530" d="M358 328l-53 -98h165q28 0 28 -28v-76q0 -28 -28 -28h-237l-43 -78q-11 -20 -33 -20h-73q-16 0 -22 9.5t2 23.5l36 65h-40q-28 0 -28 28v76q0 28 28 28h112l53 98h-165q-28 0 -28 28v76q0 28 28 28h237l43 78q11 20 33 20h73q16 0 22 -9.5t-2 -23.5l-36 -65h40 q28 0 28 -28v-76q0 -28 -28 -28h-112z" />
<glyph unicode="&#x2264;" horiz-adv-x="530" d="M260 370v-2l211 -57q24 -6 24 -32v-83q0 -31 -32 -23l-406 128q-23 8 -23 31v74q0 23 23 31l406 128q32 8 32 -23v-83q0 -26 -24 -32zM62 132h405q28 0 28 -28v-76q0 -28 -28 -28h-405q-28 0 -28 28v76q0 28 28 28z" />
<glyph unicode="&#x2265;" horiz-adv-x="530" d="M66 565l406 -128q23 -8 23 -31v-74q0 -23 -23 -31l-406 -128q-32 -8 -32 23v83q0 26 24 32l211 57v2l-211 57q-24 6 -24 32v83q0 31 32 23zM62 132h405q28 0 28 -28v-76q0 -28 -28 -28h-405q-28 0 -28 28v76q0 28 28 28z" />
<glyph unicode="&#x25ca;" horiz-adv-x="514" d="M336 654l159 -303q10 -19 0 -38l-159 -303q-11 -20 -34 -20h-70q-23 0 -34 20l-159 303q-10 19 0 38l159 303q11 20 34 20h70q23 0 34 -20zM354 332l-86 178h-2l-86 -178l86 -178h2z" />
<glyph unicode="&#x25fc;" horiz-adv-x="500" d="M0 500h500v-500h-500v500z" />
<glyph unicode="&#xe069;" horiz-adv-x="246" d="M180 588q-22 -22 -57 -22q-36 0 -58 22t-22 58q0 35 22 57q23 23 58 23q34 0 57 -23t23 -57q0 -35 -23 -58zM166 0h-86q-28 0 -28 28v444q0 28 28 28h86q28 0 28 -28v-444q0 -28 -28 -28z" />
<glyph unicode="&#xef01;" horiz-adv-x="500" d="M250 -40q32 0 53 -22.5t21 -59.5q0 -45 -24 -83t-63 -54q-17 -8 -25 8l-14 25q-9 15 7 24q19 10 23 26q-24 5 -38 23t-14 44q0 31 20.5 50t53.5 19z" />
<glyph unicode="&#xef02;" horiz-adv-x="500" d="M318 674l-32 -163q-4 -21 -26 -21h-53q-24 0 -23 25l12 162q2 23 25 23h75q27 0 22 -26z" />
<glyph unicode="&#xf8ff;" horiz-adv-x="1000" d="M455 210h-16v52h-1l-17 -78h-23l28 126h27v-66h1l28 66h31l-28 -126h-24l17 78h-1zM140 285l-17 -77q-7 -24 -25 -24h-46l28 126h43q18 0 18 -15q0 -6 -1 -10zM315 285l-22 -101h-24l6 26h-17l-7 -26h-24l23 103q5 23 26 23h22q18 0 18 -15q0 -6 -1 -10zM592 285 l-22 -101h-24l6 26h-17l-7 -26h-24l23 103q5 23 26 23h22q18 0 18 -15q0 -6 -1 -10zM401 285l-11 -52q-5 -17 -13 -20l6 -29h-23l-4 26h-13l-6 -26h-24l28 126h43q18 0 18 -15q0 -6 -1 -10zM845 285l-12 -53q-4 -22 -24 -22h-22l-6 -26h-24l28 126h43q18 0 18 -15 q0 -6 -1 -10zM209 310h24l-28 -126h-24l6 26h-18l-6 -26h-24l28 126h24l-18 -81h18zM686 235l17 75h24l-17 -75q-2 -6 4 -6h7q5 0 6 4l17 77h24l-17 -78q-4 -22 -24 -22l-14 -26h-24l14 26q-18 0 -18 15q0 7 1 10zM876 242h25l-4 -19h-26l-4 -20h33l-5 -19h-56l28 126h57 l-5 -19h-32zM689 291h-18l-24 -107h-24l24 107h-19l4 19h61zM113 291h-13l-20 -88h13q4 0 6 5l17 77q2 6 -3 6zM810 233l11 52q1 6 -4 6h-12l-14 -62h13q5 0 6 4zM366 233l11 52q1 6 -4 6h-12l-14 -62h13q5 0 6 4zM564 291h-7q-4 0 -6 -5l-13 -57h18l12 56q2 6 -4 6z M287 291h-7q-4 0 -6 -5l-13 -57h18l12 56q1 6 -4 6zM977 333h10v-30h-6v25h-1l-7 -20h-4l-7 20h-1v-25h-5v30h10l5 -16h1zM929 333h23v-5h-9v-25h-6v25h-8v5z" />
<glyph horiz-adv-x="0" />
<glyph horiz-adv-x="333" />
<glyph d="M28 363v136q0 62 36 97t101 35t101 -35t36 -97v-136q0 -62 -36 -97t-101 -35t-101 35t-36 97zM127 500v-138q0 -42 38 -42t38 42v138q0 42 -38 42t-38 -42z" />
<glyph d="M278 601v-340q0 -23 -23 -23h-53q-23 0 -23 23v235l-39 -29q-19 -13 -32 5l-25 36q-12 20 6 33l97 73q13 10 29 10h40q23 0 23 -23z" />
<glyph d="M180 330v-2h103q23 0 23 -23v-43q0 -23 -23 -23h-212q-23 0 -23 23v45q0 17 12 29l129 130q23 25 23 42q0 34 -39 34q-28 0 -49 -25q-15 -18 -32 -4l-34 30q-18 14 -2 33q49 55 121 55q63 0 98.5 -32.5t35.5 -90.5q0 -55 -53 -105z" />
<glyph d="M264 436v-2q55 -22 55 -87q0 -55 -37 -85.5t-103 -30.5q-80 0 -127 46q-15 15 -1 32l28 35q15 19 32 2q32 -26 62 -26q47 0 47 34q0 21 -14.5 29t-51.5 8h-2q-23 0 -23 23v39q0 23 23 23q34 0 46.5 7t12.5 26q0 33 -41 33q-27 0 -55 -25q-19 -16 -32 1l-28 34 q-14 18 1 33q52 46 120 46q63 0 98.5 -30.5t35.5 -84.5q0 -58 -46 -80z" />
<glyph d="M273 601v-200h20q23 0 23 -23v-43q0 -23 -23 -23h-20v-51q0 -23 -23 -23h-53q-23 0 -23 23v51h-132q-23 0 -23 23v54q0 16 9 29l134 192q11 14 28 14h60q23 0 23 -23zM174 401v99h-2l-69 -99h71z" />
<glyph d="M203 492q55 0 88 -35.5t33 -94.5t-39.5 -95t-104.5 -36q-78 0 -125 41q-17 14 -2 32l27 35q14 18 33 2q27 -21 61 -21q38 -4 48 27q9 30 -12 48q-13 12 -33 9q-15 0 -31 -8q-14 -9 -29 -6l-36 6q-22 3 -21 25l12 181q1 22 23 22h183q23 0 23 -23v-43q0 -23 -23 -23h-126 l-3 -54h2q25 11 52 11z" />
<glyph d="M200 498q50 0 79 -35t29 -96q0 -63 -36.5 -99.5t-100.5 -36.5q-65 0 -101 35t-36 98v127q0 67 35.5 103.5t100.5 36.5q59 0 103 -23q20 -11 7 -31l-21 -39q-10 -19 -31 -7q-24 11 -47 11q-48 0 -48 -51v-19h2q23 26 65 26zM209 364q0 45 -38 45t-38 -45q0 -44 38 -44 t38 44z" />
<glyph d="M310 601v-54q0 -14 -6 -29l-114 -262q-8 -18 -27 -18h-60q-13 0 -18 7.5t0 19.5l124 271h-91v-44q0 -23 -23 -23h-43q-23 0 -23 23v109q0 23 23 23h235q23 0 23 -23z" />
<glyph d="M254 436v-2q55 -27 55 -87q0 -55 -38 -85.5t-106 -30.5t-106 30.5t-38 85.5q0 60 55 87v2q-45 25 -45 80q0 54 35.5 84.5t98.5 30.5q64 0 98 -31q36 -30 36 -84q0 -55 -45 -80zM201 509q0 33 -36 33t-36 -33t36 -33t36 33zM210 354q0 37 -45 37t-45 -37q0 -34 45 -34 t45 34z" />
<glyph d="M159 631q65 0 101 -35t36 -98v-127q0 -67 -35.5 -103.5t-100.5 -36.5q-62 0 -103 23q-20 11 -7 31l21 39q10 19 31 7q24 -11 47 -11q48 0 48 51v19h-2q-23 -26 -65 -26q-50 0 -79 35t-29 96q0 63 36.5 99.5t100.5 36.5zM197 498q0 44 -38 44t-38 -44q0 -45 38 -45t38 45z " />
<glyph d="M28 125v136q0 62 36 97t101 35t101 -35t36 -97v-136q0 -62 -36 -97t-101 -35t-101 35t-36 97zM127 262v-138q0 -42 38 -42t38 42v138q0 42 -38 42t-38 -42z" />
<glyph d="M278 363v-340q0 -23 -23 -23h-53q-23 0 -23 23v235l-39 -29q-19 -13 -32 5l-25 36q-12 20 6 33l97 73q13 10 29 10h40q23 0 23 -23z" />
<glyph d="M180 92v-2h103q23 0 23 -23v-43q0 -23 -23 -23h-212q-23 0 -23 23v45q0 17 12 29l129 130q23 25 23 42q0 34 -39 34q-28 0 -49 -25q-15 -18 -32 -4l-34 30q-18 14 -2 33q49 55 121 55q63 0 98.5 -32.5t35.5 -90.5q0 -55 -53 -105z" />
<glyph d="M264 198v-2q55 -22 55 -87q0 -55 -37 -85.5t-103 -30.5q-80 0 -127 46q-15 15 -1 32l28 35q15 19 32 2q32 -26 62 -26q47 0 47 34q0 21 -14.5 29t-51.5 8h-2q-23 0 -23 23v39q0 23 23 23q34 0 46.5 7t12.5 26q0 33 -41 33q-27 0 -55 -25q-19 -16 -32 1l-28 34 q-14 18 1 33q52 46 120 46q63 0 98.5 -30.5t35.5 -84.5q0 -58 -46 -80z" />
<glyph d="M273 363v-200h20q23 0 23 -23v-43q0 -23 -23 -23h-20v-51q0 -23 -23 -23h-53q-23 0 -23 23v51h-132q-23 0 -23 23v54q0 15 9 29l134 192q11 14 28 14h60q23 0 23 -23zM174 163v99h-2l-69 -99h71z" />
<glyph d="M203 254q55 0 88 -35.5t33 -94.5t-39.5 -95t-104.5 -36q-78 0 -125 41q-17 14 -2 32l27 35q14 18 33 2q27 -21 61 -21q38 -4 48 27q9 30 -12 48q-13 12 -33 9q-15 0 -31 -8q-14 -9 -29 -6l-36 6q-22 3 -21 25l12 181q1 22 23 22h183q23 0 23 -23v-43q0 -23 -23 -23h-126 l-3 -54h2q25 11 52 11z" />
<glyph d="M200 260q50 0 79 -35t29 -96q0 -63 -36.5 -99.5t-100.5 -36.5q-65 0 -101 35t-36 98v127q0 67 35.5 103.5t100.5 36.5q59 0 103 -23q20 -11 7 -31l-21 -39q-10 -19 -31 -7q-24 11 -47 11q-48 0 -48 -51v-19h2q23 26 65 26zM209 126q0 45 -38 45t-38 -45q0 -44 38 -44 t38 44z" />
<glyph d="M310 363v-54q0 -14 -6 -29l-114 -262q-8 -18 -27 -18h-60q-13 0 -18 7.5t0 19.5l124 271h-91v-44q0 -23 -23 -23h-43q-23 0 -23 23v109q0 23 23 23h235q23 0 23 -23z" />
<glyph d="M254 198v-2q55 -27 55 -87q0 -55 -38 -85.5t-106 -30.5t-106 30.5t-38 85.5q0 60 55 87v2q-45 26 -45 80t35.5 84.5t98.5 30.5q64 0 98 -31q36 -30 36 -84t-45 -80zM201 271q0 33 -36 33t-36 -33t36 -33t36 33zM210 116q0 37 -45 37t-45 -37q0 -34 45 -34t45 34z" />
<glyph d="M159 393q65 0 101 -35t36 -98v-127q0 -67 -35.5 -103.5t-100.5 -36.5q-62 0 -103 23q-20 11 -7 31l21 39q10 19 31 7q24 -11 47 -11q48 0 48 51v19h-2q-23 -26 -65 -26q-50 0 -79 35t-29 96q0 63 36.5 99.5t100.5 36.5zM197 260q0 44 -38 44t-38 -44q0 -45 38 -45t38 45z " />
</font>
</defs>
</svg>
