<?xml version="1.0" standalone="no"?>
<!DOCTYPE svg PUBLIC "-//W3C//DTD SVG 1.1//EN" "http://www.w3.org/Graphics/SVG/1.1/DTD/svg11.dtd" >
<svg xmlns="http://www.w3.org/2000/svg">
<metadata></metadata>
<defs>
<font id="kirolight" horiz-adv-x="330" >
<font-face units-per-em="1000" ascent="805" descent="-195" />
<missing-glyph horiz-adv-x="215" />
<glyph unicode="ff" horiz-adv-x="604" d="M627 689q12 -6 6 -20l-10 -21q-7 -14 -20 -7q-33 18 -70 18q-96 0 -96 -116v-50h151q15 0 15 -15v-23q0 -15 -15 -15h-151v-425q0 -15 -15 -15h-31q-15 0 -15 15v425h-221v-425q0 -15 -15 -15h-31q-15 0 -15 15v425h-60q-15 0 -15 15v23q0 15 15 15h60v36q0 81 45 127 t125 46q84 0 140 -47q40 57 125 57q55 0 98 -23zM155 493h221v53q0 30 6 55q-44 48 -115 48q-53 0 -82.5 -32.5t-29.5 -90.5v-33z" />
<glyph unicode="fi" horiz-adv-x="507" d="M155 543v-50h265q15 0 15 -15v-463q0 -15 -15 -15h-31q-15 0 -15 15v425h-219v-425q0 -15 -15 -15h-31q-15 0 -15 15v425h-60q-15 0 -15 15v23q0 15 15 15h60v53q0 79 43 122.5t123 43.5q77 0 126 -37q10 -11 3 -21l-14 -20q-9 -12 -22 -2q-37 27 -90 27 q-108 0 -108 -116z" />
<glyph unicode="fl" horiz-adv-x="517" d="M399 700h31q15 0 15 -15v-670q0 -15 -15 -15h-31q-15 0 -15 15v597q-44 47 -117 47q-53 0 -82.5 -32.5t-29.5 -90.5v-43h138q15 0 15 -15v-23q0 -15 -15 -15h-138v-425q0 -15 -15 -15h-31q-15 0 -15 15v425h-60q-15 0 -15 15v23q0 15 15 15h60v46q0 81 45 127t125 46 q71 0 120 -31v4q0 15 15 15z" />
<glyph unicode="ffi" horiz-adv-x="788" d="M437 543v-50h265q15 0 15 -15v-463q0 -15 -15 -15h-31q-15 0 -15 15v425h-219v-425q0 -15 -15 -15h-31q-15 0 -15 15v425h-221v-425q0 -15 -15 -15h-31q-15 0 -15 15v425h-60q-15 0 -15 15v23q0 15 15 15h60v36q0 81 45 127t125 46q85 0 142 -48q43 58 136 58 q77 0 126 -37q10 -11 3 -21l-14 -20q-9 -12 -22 -2q-37 27 -90 27q-108 0 -108 -116zM155 493h221v53q0 30 6 54q-43 49 -115 49q-53 0 -82.5 -32.5t-29.5 -90.5v-33z" />
<glyph unicode="ffl" horiz-adv-x="798" d="M681 700h31q15 0 15 -15v-670q0 -15 -15 -15h-31q-15 0 -15 15v597q-44 47 -117 47q-53 0 -82.5 -32.5t-29.5 -90.5v-43h138q15 0 15 -15v-23q0 -15 -15 -15h-138v-425q0 -15 -15 -15h-31q-15 0 -15 15v425h-221v-425q0 -15 -15 -15h-31q-15 0 -15 15v425h-60 q-15 0 -15 15v23q0 15 15 15h60v36q0 81 45 127t125 46q86 0 144 -50q45 60 138 60q71 0 120 -31v4q0 15 15 15zM155 493h221v46q0 35 7 60q-45 50 -116 50q-53 0 -82.5 -32.5t-29.5 -90.5v-33z" />
<glyph unicode="fb" horiz-adv-x="804" d="M384 176v436q-44 47 -117 47q-53 0 -82.5 -32.5t-29.5 -90.5v-43h138q15 0 15 -15v-23q0 -15 -15 -15h-138v-425q0 -15 -15 -15h-31q-15 0 -15 15v425h-60q-15 0 -15 15v23q0 15 15 15h60v46q0 81 45 127t125 46q71 0 120 -31v4q0 15 15 15h31q15 0 15 -15v-243h1 q39 63 130 63q86 0 130.5 -48t44.5 -139v-142q0 -92 -47 -140t-136 -48q-90 0 -137 48t-47 140zM690 185v124q0 74 -29.5 108.5t-92.5 34.5q-123 0 -123 -143v-124q0 -74 30 -109t93 -35t92.5 35t29.5 109z" />
<glyph unicode="ffb" horiz-adv-x="1086" d="M666 681v4q0 15 15 15h31q15 0 15 -15v-243h1q39 63 130 63q86 0 130.5 -48t44.5 -139v-142q0 -92 -47 -140t-136 -48q-90 0 -137 48t-47 140v436q-44 47 -117 47q-53 0 -82.5 -32.5t-29.5 -90.5v-43h138q15 0 15 -15v-23q0 -15 -15 -15h-138v-425q0 -15 -15 -15h-31 q-15 0 -15 15v425h-221v-425q0 -15 -15 -15h-31q-15 0 -15 15v425h-60q-15 0 -15 15v23q0 15 15 15h60v36q0 81 45 127t125 46q86 0 144 -50q45 60 138 60q71 0 120 -31zM155 493h221v46q0 35 7 60q-45 50 -116 50q-53 0 -82.5 -32.5t-29.5 -90.5v-33zM972 185v124 q0 74 -29.5 108.5t-92.5 34.5q-123 0 -123 -143v-124q0 -74 30 -109t93 -35t92.5 35t29.5 109z" />
<glyph unicode="fh" horiz-adv-x="811" d="M399 700h31q15 0 15 -15v-241h1q37 61 128 61q83 0 126.5 -46.5t43.5 -136.5v-307q0 -15 -15 -15h-31q-15 0 -15 15v298q0 71 -29 105t-90 34q-119 0 -119 -139v-298q0 -15 -15 -15h-31q-15 0 -15 15v597q-44 47 -117 47q-53 0 -82.5 -32.5t-29.5 -90.5v-43h138 q15 0 15 -15v-23q0 -15 -15 -15h-138v-425q0 -15 -15 -15h-31q-15 0 -15 15v425h-60q-15 0 -15 15v23q0 15 15 15h60v46q0 81 45 127t125 46q71 0 120 -31v4q0 15 15 15z" />
<glyph unicode="ffh" horiz-adv-x="1093" d="M155 493h221v46q0 35 7 60q-45 50 -116 50q-53 0 -82.5 -32.5t-29.5 -90.5v-33zM666 15v597q-44 47 -117 47q-53 0 -82.5 -32.5t-29.5 -90.5v-43h138q15 0 15 -15v-23q0 -15 -15 -15h-138v-425q0 -15 -15 -15h-31q-15 0 -15 15v425h-221v-425q0 -15 -15 -15h-31 q-15 0 -15 15v425h-60q-15 0 -15 15v23q0 15 15 15h60v36q0 81 45 127t125 46q86 0 144 -50q45 60 138 60q71 0 120 -31v4q0 15 15 15h31q15 0 15 -15v-241h1q37 61 128 61q83 0 126.5 -46.5t43.5 -136.5v-307q0 -15 -15 -15h-31q-15 0 -15 15v298q0 71 -29 105t-90 34 q-119 0 -119 -139v-298q0 -15 -15 -15h-31q-15 0 -15 15z" />
<glyph unicode="fj" horiz-adv-x="507" d="M155 543v-50h265q15 0 15 -15v-500q0 -138 -130 -138h-9q-15 0 -15 15v23q0 15 15 15q78 0 78 85v462h-219v-425q0 -15 -15 -15h-31q-15 0 -15 15v425h-60q-15 0 -15 15v23q0 15 15 15h60v53q0 79 43 122.5t123 43.5q77 0 126 -37q11 -9 2 -21l-14 -20q-9 -11 -21 -2 q-37 27 -90 27q-108 0 -108 -116z" />
<glyph unicode="ffj" horiz-adv-x="788" d="M155 493h221v53q0 30 6 54q-43 49 -115 49q-53 0 -82.5 -32.5t-29.5 -90.5v-33zM717 478v-500q0 -138 -130 -138h-9q-15 0 -15 15v23q0 15 15 15q78 0 78 85v462h-219v-425q0 -15 -15 -15h-31q-15 0 -15 15v425h-221v-425q0 -15 -15 -15h-31q-15 0 -15 15v425h-60 q-15 0 -15 15v23q0 15 15 15h60v36q0 81 45 127t125 46q85 0 142 -48q43 58 136 58q77 0 126 -37q11 -9 2 -21l-14 -20q-9 -11 -21 -2q-37 27 -90 27q-108 0 -108 -116v-50h265q15 0 15 -15z" />
<glyph unicode="fk" horiz-adv-x="747" d="M399 700h31q15 0 15 -15v-416l200 216q8 8 18 8h42q10 0 12.5 -5.5t-4.5 -12.5l-210 -223l221 -234q7 -7 4.5 -12.5t-12.5 -5.5h-44q-10 0 -18 8l-209 226v-219q0 -15 -15 -15h-31q-15 0 -15 15v597q-44 47 -117 47q-53 0 -82.5 -32.5t-29.5 -90.5v-43h138q15 0 15 -15 v-23q0 -15 -15 -15h-138v-425q0 -15 -15 -15h-31q-15 0 -15 15v425h-60q-15 0 -15 15v23q0 15 15 15h60v46q0 81 45 127t125 46q71 0 120 -31v4q0 15 15 15z" />
<glyph unicode="ffk" horiz-adv-x="1029" d="M666 681v4q0 15 15 15h31q15 0 15 -15v-416l200 216q8 8 18 8h42q10 0 12.5 -5.5t-4.5 -12.5l-210 -223l221 -234q7 -7 4.5 -12.5t-12.5 -5.5h-44q-10 0 -18 8l-209 226v-219q0 -15 -15 -15h-31q-15 0 -15 15v597q-44 47 -117 47q-53 0 -82.5 -32.5t-29.5 -90.5v-43h138 q15 0 15 -15v-23q0 -15 -15 -15h-138v-425q0 -15 -15 -15h-31q-15 0 -15 15v425h-221v-425q0 -15 -15 -15h-31q-15 0 -15 15v425h-60q-15 0 -15 15v23q0 15 15 15h60v36q0 81 45 127t125 46q86 0 144 -50q45 60 138 60q71 0 120 -31zM155 493h221v46q0 35 7 60 q-45 50 -116 50q-53 0 -82.5 -32.5t-29.5 -90.5v-33z" />
<glyph unicode="ft" horiz-adv-x="633" d="M606 52l9 -22q4 -13 -6 -20q-34 -22 -90 -22q-70 0 -107 38t-37 111v303h-220v-425q0 -15 -15 -15h-31q-15 0 -15 15v425h-60q-15 0 -15 15v23q0 15 15 15h60v53q0 79 42.5 122.5t119.5 43.5q68 0 117 -32q12 -9 5 -21l-13 -21q-7 -14 -21 -3q-38 24 -84 24 q-51 0 -78 -30t-27 -86v-50h220v89q0 15 15 15h31q15 0 15 -15v-89h151q15 0 15 -15v-23q0 -15 -15 -15h-151v-300q0 -99 89 -99q31 0 60 17q15 8 21 -6z" />
<glyph unicode="fft" horiz-adv-x="915" d="M888 52l9 -22q4 -13 -6 -20q-34 -22 -90 -22q-70 0 -107 38t-37 111v303h-220v-425q0 -15 -15 -15h-31q-15 0 -15 15v425h-221v-425q0 -15 -15 -15h-31q-15 0 -15 15v425h-60q-15 0 -15 15v23q0 15 15 15h60v36q0 81 45 127t125 46q85 0 142 -48q40 58 132 58 q68 0 117 -32q12 -9 5 -21l-13 -21q-7 -14 -21 -3q-38 24 -84 24q-51 0 -78 -30t-27 -86v-50h220v89q0 15 15 15h31q15 0 15 -15v-89h151q15 0 15 -15v-23q0 -15 -15 -15h-151v-300q0 -99 89 -99q31 0 60 17q15 8 21 -6zM155 493h221v53q0 30 6 54q-43 49 -115 49 q-53 0 -82.5 -32.5t-29.5 -90.5v-33z" />
<glyph unicode=" "  horiz-adv-x="215" />
<glyph unicode="&#x09;" horiz-adv-x="215" />
<glyph unicode="&#xa0;" horiz-adv-x="215" />
<glyph unicode="!" horiz-adv-x="222" d="M142 649v-280l-12 -192q-1 -10 -11 -10h-15q-10 0 -11 10l-12 192v280q0 15 15 15h31q15 0 15 -15zM156 32q2 -27 -21.5 -38t-46.5 0t-21 38q0 19 12.5 32t31.5 13t32 -12.5t13 -32.5z" />
<glyph unicode="&#x22;" horiz-adv-x="354" d="M130 649l-8 -188q-2 -12 -13 -12h-17q-12 0 -13 12l-9 188q-2 15 14 15h32q16 0 14 -15zM285 649l-8 -188q-1 -12 -13 -12h-17q-11 0 -13 12l-9 188q-1 15 14 15h32q15 0 14 -15z" />
<glyph unicode="#" horiz-adv-x="529" d="M401 400l-28 -156h88q15 0 12 -15l-4 -22q-1 -13 -15 -13h-90l-32 -181q-1 -13 -15 -13h-23q-15 0 -12 15l31 179h-135l-32 -181q-1 -13 -15 -13h-24q-15 0 -12 15l31 179h-89q-15 0 -12 15l4 22q1 13 15 13h91l27 156h-89q-15 0 -12 15l4 22q1 13 15 13h91l28 161 q1 13 15 13h24q15 0 12 -15l-27 -159h135l28 161q1 13 15 13h24q15 0 12 -15l-28 -159h88q15 0 12 -15l-4 -22q-1 -13 -15 -13h-89zM349 400h-135l-27 -156h135z" />
<glyph unicode="$" horiz-adv-x="529" d="M486 178q0 -71 -49.5 -117.5t-130.5 -51.5v-66q0 -13 -13 -13h-29q-13 0 -13 13v66q-124 11 -185 93q-9 12 2 21l21 19q11 10 21 -3q51 -66 141 -75v221q-96 11 -138 48.5t-42 112.5q0 70 49.5 116.5t130.5 52.5v60q0 13 13 13h29q13 0 13 -13v-61q104 -9 156 -79 q9 -12 -2 -21l-21 -18q-11 -10 -21 3q-40 51 -112 60v-222q96 -11 138 -48.5t42 -110.5zM134 447q0 -44 27.5 -68.5t89.5 -34.5v216q-54 -6 -85.5 -36.5t-31.5 -76.5zM306 278v-214q54 6 85.5 36.5t31.5 76.5q0 44 -27 67.5t-90 33.5z" />
<glyph unicode="%" horiz-adv-x="626" d="M33 436v77q0 59 30 91t88 32q57 0 87.5 -32t30.5 -91v-77q0 -60 -30.5 -91.5t-87.5 -31.5q-58 0 -88 31.5t-30 91.5zM89 16l395 600q6 8 16 8h28q18 0 9 -16l-396 -600q-6 -8 -16 -8h-27q-18 0 -9 16zM81 511v-72q0 -43 16.5 -62t53.5 -19t53.5 19t16.5 62v72 q0 42 -16.5 61t-53.5 19t-53.5 -19t-16.5 -61zM358 111v77q0 59 30 91t88 32q57 0 87.5 -32t30.5 -91v-77q0 -60 -30.5 -91.5t-87.5 -31.5q-58 0 -88 31.5t-30 91.5zM406 186v-72q0 -43 16.5 -62t53.5 -19t53.5 19t16.5 62v72q0 42 -16.5 61t-53.5 19t-53.5 -19t-16.5 -61z " />
<glyph unicode="&#x26;" horiz-adv-x="583" d="M496 8l-59 63q-74 -83 -190 -83q-98 0 -154.5 51.5t-56.5 138.5q0 118 114 201q-52 67 -52 132q0 78 46 121.5t127 43.5q88 0 140 -43q12 -9 3 -22l-16 -22q-10 -13 -22 -2q-41 34 -100 34q-55 0 -85 -29t-30 -81q0 -60 66 -132l203 -217q33 58 58 149q4 15 18 12l28 -7 q15 -3 11 -19q-31 -110 -74 -179l94 -100q7 -7 4.5 -12.5t-12.5 -5.5h-42q-11 0 -19 8zM251 43q85 0 145 71l-209 222q-88 -64 -88 -156q0 -62 41 -99.5t111 -37.5z" />
<glyph unicode="'" horiz-adv-x="199" d="M130 649l-8 -188q-2 -12 -13 -12h-17q-12 0 -13 12l-9 188q-2 15 14 15h32q16 0 14 -15z" />
<glyph unicode="(" horiz-adv-x="320" d="M224 664h27q20 0 8 -17q-113 -161 -113 -360t113 -360q12 -17 -8 -17h-27q-10 0 -18 8q-122 160 -122 369t122 369q8 8 18 8z" />
<glyph unicode=")" horiz-adv-x="320" d="M108 -90h-27q-20 0 -8 17q113 161 113 360t-113 360q-12 17 8 17h27q10 0 18 -8q122 -160 122 -369t-122 -369q-8 -8 -18 -8z" />
<glyph unicode="*" horiz-adv-x="475" d="M438 522l-170 -45l112 -136q9 -12 -3 -21l-20 -15q-14 -9 -21 4l-94 150l-95 -150q-7 -13 -21 -4l-21 15q-12 9 -3 21l113 136l-170 45q-14 5 -10 19l7 23q5 15 19 9l164 -63l-11 175q-2 15 14 15h27q15 0 14 -15l-11 -175l164 63q14 6 19 -9l7 -23q4 -14 -10 -19z" />
<glyph unicode="+" horiz-adv-x="529" d="M492 251h-200v-200q0 -15 -15 -15h-26q-15 0 -15 15v200h-200q-15 0 -15 15v26q0 15 15 15h200v200q0 15 15 15h26q15 0 15 -15v-200h200q15 0 15 -15v-26q0 -15 -15 -15z" />
<glyph unicode="," horiz-adv-x="220" d="M114 77q20 0 32.5 -13.5t12.5 -37.5q0 -74 -63 -127q-7 -7 -15 1l-9 10q-6 7 1 14q29 26 35 70q-38 5 -38 41q0 19 12.5 30.5t31.5 11.5z" />
<glyph unicode="-" d="M285 242h-240q-15 0 -15 15v29q0 15 15 15h240q15 0 15 -15v-29q0 -15 -15 -15z" />
<glyph unicode="." horiz-adv-x="220" d="M110 77q20 0 32.5 -12.5t12.5 -32.5q0 -29 -28 -40.5t-49 8.5q-20 21 -8.5 49t40.5 28z" />
<glyph unicode="/" horiz-adv-x="351" d="M35 16l238 637q5 11 16 11h28q17 0 11 -16l-238 -637q-5 -11 -16 -11h-28q-17 0 -11 16z" />
<glyph unicode="0" horiz-adv-x="529" d="M55 204v217q0 105 53.5 160t155.5 55q103 0 156.5 -55t53.5 -160v-217q0 -106 -53.5 -161t-156.5 -55q-102 0 -155.5 55t-53.5 161zM118 414v-203q0 -168 146 -168q75 0 111 41t36 127v203q0 85 -36 126t-111 41q-146 0 -146 -167z" />
<glyph unicode="1" horiz-adv-x="529" d="M380 609v-594q0 -15 -15 -15h-33q-15 0 -15 15v529l-151 -112q-12 -9 -21 3l-15 21q-8 12 4 21l190 141q9 6 18 6h23q15 0 15 -15z" />
<glyph unicode="2" horiz-adv-x="529" d="M476 40v-25q0 -15 -15 -15h-372q-15 0 -15 15v27q0 11 8 19l249 247q47 46 63 78q18 33 18 75q0 56 -37 88t-102 32q-98 0 -149 -87q-9 -14 -21 -5l-22 14q-12 8 -5 21q64 112 199 112q92 0 146 -47t54 -128q0 -54 -22.5 -96.5t-76.5 -94.5l-219 -215h304q15 0 15 -15z " />
<glyph unicode="3" horiz-adv-x="529" d="M380 329v-1q118 -34 118 -158q0 -85 -57.5 -133.5t-158.5 -48.5q-141 0 -210 90q-9 10 2 21l20 18q12 10 21 -2q57 -72 164 -72q74 0 115 34.5t41 96.5q0 124 -168 124h-50q-15 0 -15 15v25q0 15 15 15h45q156 0 156 111q0 56 -37.5 86.5t-106.5 30.5q-98 0 -154 -72 q-9 -12 -21 -2l-20 18q-9 10 -1 21q72 90 199 90q96 0 150 -44.5t54 -124.5q0 -105 -101 -138z" />
<glyph unicode="4" horiz-adv-x="529" d="M490 147h-62v-132q0 -15 -15 -15h-33q-15 0 -15 15v132h-310q-15 0 -15 15v34q0 10 6 18l311 401q7 9 18 9h38q15 0 15 -15v-407h62q15 0 15 -15v-25q0 -15 -15 -15zM365 202v331h-1l-255 -331h256z" />
<glyph unicode="5" horiz-adv-x="529" d="M289 398q92 0 148 -56t56 -148q0 -95 -58 -150.5t-156 -55.5q-141 0 -212 90q-8 11 2 21l20 19q12 10 21 -2q58 -73 166 -73q72 0 113 40.5t41 110.5q0 68 -41.5 108.5t-111.5 40.5q-88 0 -141 -52q-9 -8 -20 -6l-18 2q-16 1 -14 17l20 306q2 14 16 14h324q15 0 15 -15 v-25q0 -15 -15 -15h-285l-14 -217h1q56 46 143 46z" />
<glyph unicode="6" horiz-adv-x="529" d="M284 399q91 0 145.5 -55.5t54.5 -148.5q0 -94 -58 -151q-58 -56 -152 -56q-96 0 -153 56t-57 150v232q0 98 56 154t154 56q114 0 179 -69q11 -11 0 -21l-20 -21q-11 -11 -22 0q-51 56 -132 56q-74 0 -113 -41.5t-39 -120.5v-91h1q50 71 156 71zM421 194q0 69 -39.5 109.5 t-107.5 40.5q-67 0 -107 -41t-40 -109q0 -70 39.5 -110.5t107.5 -40.5t107.5 40.5t39.5 110.5z" />
<glyph unicode="7" horiz-adv-x="529" d="M498 609v-34q0 -11 -4 -19l-279 -545q-5 -11 -18 -11h-37q-18 0 -11 18l284 551h-318v-96q0 -15 -15 -15h-30q-15 0 -15 15v136q0 15 15 15h413q15 0 15 -15z" />
<glyph unicode="8" horiz-adv-x="529" d="M371 328v-1q116 -39 116 -157q0 -86 -59 -134t-164 -48t-163.5 48t-58.5 134q0 57 30 97.5t85 58.5v1q-99 39 -99 140q0 79 54.5 124t151.5 45t151.5 -44.5t54.5 -124.5q0 -103 -99 -139zM121 464q0 -52 37.5 -81.5t105.5 -29.5q67 0 105 29.5t38 81.5q0 56 -37.5 86.5 t-105.5 30.5t-105.5 -30.5t-37.5 -86.5zM264 43q76 0 118 34.5t42 96.5q0 59 -42 91.5t-118 32.5q-75 0 -117 -33t-42 -91q0 -62 42 -96.5t117 -34.5z" />
<glyph unicode="9" horiz-adv-x="529" d="M255 636q96 0 152.5 -55.5t56.5 -150.5v-232q0 -98 -56 -154t-154 -56q-114 0 -178 69q-9 11 0 21l20 21q11 11 22 0q50 -56 131 -56q74 0 113 41.5t39 120.5v91h-1q-50 -71 -155 -71q-92 0 -146 55.5t-54 148.5q0 95 57 150q58 57 153 57zM255 280q66 0 106 41t40 109 q0 70 -39.5 110.5t-106.5 40.5q-68 0 -107.5 -40.5t-39.5 -110.5q0 -69 39.5 -109.5t107.5 -40.5z" />
<glyph unicode=":" horiz-adv-x="220" d="M110 77q20 0 32.5 -12.5t12.5 -32.5q0 -29 -28 -40.5t-49 8.5q-20 21 -8.5 49t40.5 28zM110 467q20 0 32.5 -12.5t12.5 -32.5q0 -29 -28 -40.5t-49 8.5q-20 21 -8.5 49t40.5 28z" />
<glyph unicode=";" horiz-adv-x="220" d="M114 77q20 0 32.5 -13.5t12.5 -37.5q0 -74 -63 -127q-7 -7 -15 1l-9 10q-6 7 1 14q29 26 35 70q-38 5 -38 41q0 19 12.5 30.5t31.5 11.5zM114 467q20 0 32.5 -12.5t12.5 -32.5q0 -29 -28 -40.5t-49 8.5q-20 21 -8.5 49t40.5 28z" />
<glyph unicode="&#x3c;" horiz-adv-x="529" d="M476 449l-365 -170l365 -170q11 -5 11 -17v-30q0 -18 -18 -11l-418 197q-11 5 -11 17v28q0 12 11 17l418 197q18 7 18 -12v-29q0 -12 -11 -17z" />
<glyph unicode="=" horiz-adv-x="529" d="M475 363h-422q-15 0 -15 15v26q0 15 15 15h422q15 0 15 -15v-26q0 -15 -15 -15zM475 139h-422q-15 0 -15 15v26q0 15 15 15h422q15 0 15 -15v-26q0 -15 -15 -15z" />
<glyph unicode="&#x3e;" horiz-adv-x="529" d="M52 109l365 170l-365 170q-11 5 -11 17v30q0 18 18 11l418 -197q11 -5 11 -17v-28q0 -12 -11 -17l-418 -197q-18 -7 -18 12v29q0 12 11 17z" />
<glyph unicode="?" horiz-adv-x="450" d="M234 676q92 0 145.5 -47.5t53.5 -128.5q0 -58 -25 -97.5t-85 -74.5q-50 -30 -69.5 -57.5t-19.5 -67.5v-21q0 -15 -15 -15h-27q-15 0 -15 15v25q0 52 22.5 88t78.5 69q51 32 71.5 62.5t20.5 73.5q0 56 -36.5 88.5t-100.5 32.5q-98 0 -150 -88q-9 -14 -21 -5l-23 15 q-12 8 -5 21q67 112 200 112zM251 32q2 -27 -21.5 -38t-46.5 0t-21 38q0 19 12.5 32t31.5 13t32 -12.5t13 -32.5z" />
<glyph unicode="@" horiz-adv-x="728" d="M388 633q-139 0 -216 -92.5t-77 -259.5q0 -149 75.5 -231.5t212.5 -82.5q104 0 174 49q11 8 17 -5l8 -16q5 -11 -5 -18q-77 -53 -196 -53q-159 0 -247 94t-88 262q0 187 91 291q91 105 253 105q140 0 216 -93q76 -91 76 -244q0 -235 -129 -235q-69 0 -87 62h-1 q-34 -61 -115 -61q-60 0 -93.5 30t-33.5 84q0 53 35.5 83t99.5 30h89v9q0 57 -23 84t-71 27q-47 0 -82 -32q-11 -10 -18 0l-11 13q-8 11 1 19q43 43 114 43q139 0 139 -146v-125q0 -36 15 -56.5t42 -20.5q80 0 80 194q0 133 -64 212q-63 80 -181 80zM356 148q42 0 66.5 26.5 t24.5 78.5v36h-84q-43 0 -67 -18t-24 -52q0 -71 84 -71z" />
<glyph unicode="A" horiz-adv-x="581" d="M444 151h-295l-47 -139q-4 -12 -17 -12h-36q-20 0 -12 17l222 635q5 12 17 12h43q13 0 17 -12l222 -635q8 -17 -12 -17h-38q-12 0 -17 12zM296 584l-127 -376h256l-128 376h-1z" />
<glyph unicode="B" horiz-adv-x="563" d="M397 340v-1q124 -28 124 -163q0 -91 -53.5 -133.5t-168.5 -42.5h-200q-15 0 -15 15v634q0 15 15 15h182q115 0 168.5 -41.5t53.5 -129.5q0 -122 -106 -153zM149 607v-241h132q82 0 119.5 29t37.5 91q0 63 -37.5 92t-119.5 29h-132zM149 309v-252h149q82 0 120 30.5 t38 95.5t-38 95.5t-120 30.5h-149z" />
<glyph unicode="C" horiz-adv-x="531" d="M287 45q110 0 158 92q6 13 20 7l25 -14q13 -7 7 -20q-60 -122 -210 -122q-112 0 -170 61t-58 179v208q0 118 58 179t170 61q150 0 210 -122q6 -13 -7 -20l-25 -14q-14 -6 -20 7q-48 92 -158 92q-163 0 -163 -194v-186q0 -194 163 -194z" />
<glyph unicode="D" horiz-adv-x="590" d="M99 664h199q233 0 233 -227v-210q0 -227 -233 -227h-199q-15 0 -15 15v634q0 15 15 15zM466 238v188q0 92 -42 136.5t-129 44.5h-146v-550h146q87 0 129 44.5t42 136.5z" />
<glyph unicode="E" horiz-adv-x="538" d="M149 607v-243h284q15 0 15 -15v-27q0 -15 -15 -15h-284v-250h328q15 0 15 -15v-27q0 -15 -15 -15h-378q-15 0 -15 15v634q0 15 15 15h378q15 0 15 -15v-27q0 -15 -15 -15h-328z" />
<glyph unicode="F" horiz-adv-x="502" d="M149 607v-247h274q15 0 15 -15v-27q0 -15 -15 -15h-274v-288q0 -15 -15 -15h-35q-15 0 -15 15v634q0 15 15 15h368q15 0 15 -15v-27q0 -15 -15 -15h-318z" />
<glyph unicode="G" horiz-adv-x="569" d="M520 331v-101q0 -119 -58.5 -180.5t-171.5 -61.5t-172 61t-59 179v208q0 118 59.5 179t173.5 61q153 0 215 -122q6 -13 -7 -20l-25 -14q-14 -6 -21 7q-48 92 -162 92q-168 0 -168 -194v-186q0 -194 167 -194t167 196v48h-145q-15 0 -15 15v27q0 15 15 15h192q15 0 15 -15 z" />
<glyph unicode="H" horiz-adv-x="623" d="M539 649v-634q0 -15 -15 -15h-35q-15 0 -15 15v293h-325v-293q0 -15 -15 -15h-35q-15 0 -15 15v634q0 15 15 15h35q15 0 15 -15v-284h325v284q0 15 15 15h35q15 0 15 -15z" />
<glyph unicode="I" horiz-adv-x="233" d="M149 649v-634q0 -15 -15 -15h-35q-15 0 -15 15v634q0 15 15 15h35q15 0 15 -15z" />
<glyph unicode="J" horiz-adv-x="518" d="M453 649v-429q0 -114 -55 -173t-161 -59q-139 0 -204 110q-7 12 4 20l24 18q13 10 21 -5q51 -86 152 -86q154 0 154 185v419q0 15 15 15h35q15 0 15 -15z" />
<glyph unicode="K" horiz-adv-x="550" d="M436 9l-287 307v-301q0 -15 -15 -15h-35q-15 0 -15 15v634q0 15 15 15h35q15 0 15 -15v-295l280 302q8 8 18 8h47q10 0 12.5 -5.5t-4.5 -12.5l-291 -308l302 -320q6 -7 4 -12.5t-12 -5.5h-50q-11 0 -19 9z" />
<glyph unicode="L" horiz-adv-x="496" d="M477 42v-27q0 -15 -15 -15h-363q-15 0 -15 15v634q0 15 15 15h35q15 0 15 -15v-592h313q15 0 15 -15z" />
<glyph unicode="M" horiz-adv-x="814" d="M730 649v-634q0 -15 -15 -15h-35q-15 0 -15 15v558h-1l-223 -561q-5 -12 -18 -12h-33q-14 0 -18 12l-224 564h-1v-561q0 -15 -15 -15h-33q-15 0 -15 15v634q0 15 15 15h68q13 0 18 -12l222 -558l221 558q4 12 18 12h69q15 0 15 -15z" />
<glyph unicode="N" horiz-adv-x="623" d="M539 649v-634q0 -15 -15 -15h-37q-12 0 -18 10l-321 548h-1v-543q0 -15 -15 -15h-33q-15 0 -15 15v634q0 15 15 15h44q12 0 18 -10l314 -538h1v533q0 15 15 15h33q15 0 15 -15z" />
<glyph unicode="O" horiz-adv-x="585" d="M59 228v208q0 118 59.5 179t173.5 61q115 0 174.5 -61t59.5 -179v-208q0 -118 -59.5 -179t-174.5 -61q-114 0 -173.5 61t-59.5 179zM124 425v-186q0 -194 168 -194q169 0 169 194v186q0 194 -169 194q-168 0 -168 -194z" />
<glyph unicode="P" horiz-adv-x="541" d="M99 664h185q119 0 175 -48t56 -150t-56 -150t-175 -48h-135v-253q0 -15 -15 -15h-35q-15 0 -15 15v634q0 15 15 15zM149 607v-282h134q86 0 126 34t40 107t-40 107t-126 34h-134z" />
<glyph unicode="Q" horiz-adv-x="585" d="M537 -79l13 -25q6 -13 -5 -21q-46 -32 -103 -32q-70 0 -109.5 37t-43.5 108q-113 1 -171.5 62t-58.5 178v208q0 118 59.5 179t173.5 61q115 0 174.5 -61t59.5 -179v-208q0 -204 -171 -235q5 -93 86 -93q41 0 75 25q14 9 21 -4zM124 425v-186q0 -194 168 -194 q169 0 169 194v186q0 194 -169 194q-168 0 -168 -194z" />
<glyph unicode="R" horiz-adv-x="567" d="M447 10l-159 262h-139v-257q0 -15 -15 -15h-35q-15 0 -15 15v634q0 15 15 15h179q119 0 175.5 -47.5t56.5 -147.5q0 -162 -155 -191l164 -260q11 -18 -10 -18h-44q-12 0 -18 10zM149 607v-278h129q86 0 126 33.5t40 105.5q0 71 -40 105t-126 34h-129z" />
<glyph unicode="S" horiz-adv-x="507" d="M264 676q133 0 200 -85q8 -11 -3 -21l-24 -19q-11 -11 -21 3q-50 65 -149 65q-67 0 -107 -35.5t-40 -94.5q0 -55 37 -84t128 -44q110 -18 156 -60.5t46 -124.5q0 -85 -57.5 -136.5t-151.5 -51.5q-154 0 -230 100q-8 10 3 21l21 19q12 11 22 -2q62 -81 181 -81 q67 0 107 35.5t40 94.5q0 54 -35.5 82t-127.5 44q-111 19 -157.5 62t-46.5 125q0 85 57.5 136.5t151.5 51.5z" />
<glyph unicode="T" horiz-adv-x="484" d="M450 607h-175v-592q0 -15 -15 -15h-35q-15 0 -15 15v592h-176q-15 0 -15 15v27q0 15 15 15h416q15 0 15 -15v-27q0 -15 -15 -15z" />
<glyph unicode="U" horiz-adv-x="588" d="M516 649v-429q0 -114 -57 -173t-165 -59t-165 59t-57 173v429q0 15 15 15h35q15 0 15 -15v-420q0 -94 39 -139t119 -45t119 45t39 139v420q0 15 15 15h33q15 0 15 -15z" />
<glyph unicode="V" horiz-adv-x="563" d="M306 0h-39q-14 0 -19 14l-213 633q-5 17 12 17h38q13 0 17 -12l185 -559h1l186 559q4 12 17 12h35q17 0 12 -17l-213 -633q-5 -14 -19 -14z" />
<glyph unicode="W" horiz-adv-x="850" d="M824 647l-173 -632q-3 -15 -18 -15h-44q-15 0 -18 15l-140 518h-1l-141 -518q-3 -15 -18 -15h-45q-15 0 -18 15l-172 632q-5 17 12 17h40q13 0 16 -13l145 -548h1l148 547q3 14 18 14h30q15 0 18 -14l148 -547h1l145 548q3 13 16 13h38q17 0 12 -17z" />
<glyph unicode="X" horiz-adv-x="557" d="M447 10l-167 282l-167 -282q-6 -10 -18 -10h-40q-21 0 -10 18l195 321l-186 307q-11 18 10 18h43q12 0 18 -10l158 -266l157 266q6 10 18 10h40q21 0 10 -18l-186 -306l196 -322q11 -18 -10 -18h-43q-12 0 -18 10z" />
<glyph unicode="Y" horiz-adv-x="519" d="M509 646l-214 -353v-278q0 -15 -15 -15h-35q-15 0 -15 15v278l-214 353q-11 18 10 18h43q12 0 18 -10l177 -299l177 299q6 10 18 10h40q21 0 10 -18z" />
<glyph unicode="Z" horiz-adv-x="518" d="M478 42v-27q0 -15 -15 -15h-408q-15 0 -15 15v35q0 9 6 18l352 539h-328q-15 0 -15 15v27q0 15 15 15h388q15 0 15 -15v-35q0 -9 -6 -18l-354 -539h350q15 0 15 -15z" />
<glyph unicode="[" horiz-adv-x="320" d="M154 614v-654h109q14 0 14 -14v-22q0 -14 -14 -14h-156q-14 0 -14 14v726q0 14 14 14h156q14 0 14 -14v-22q0 -14 -14 -14h-109z" />
<glyph unicode="\" horiz-adv-x="351" d="M46 664h28q11 0 16 -11l238 -637q6 -16 -11 -16h-28q-11 0 -16 11l-238 637q-6 16 11 16z" />
<glyph unicode="]" horiz-adv-x="320" d="M166 -40v654h-109q-14 0 -14 14v22q0 14 14 14h156q14 0 14 -14v-726q0 -14 -14 -14h-156q-14 0 -14 14v22q0 14 14 14h109z" />
<glyph unicode="^" horiz-adv-x="529" d="M445 268l-178 294l-177 -294q-6 -10 -18 -10h-32q-21 0 -10 18l206 337q6 11 19 11h25q13 0 19 -11l205 -337q11 -18 -10 -18h-31q-12 0 -18 10z" />
<glyph unicode="_" horiz-adv-x="500" d="M500 -99h-500v38h500v-38z" />
<glyph unicode="`" horiz-adv-x="500" d="M273 567h-29q-11 0 -16 8l-87 123q-5 7 -2.5 12t11.5 5h35q11 0 17 -9l80 -123q9 -16 -9 -16z" />
<glyph unicode="a" horiz-adv-x="454" d="M217 505q90 0 136.5 -48t46.5 -142v-139q0 -92 -47 -140t-138 -48q-83 0 -128.5 39.5t-45.5 110.5q0 70 46 109t130 39h122v19q0 76 -31 111.5t-96 35.5q-63 0 -110 -47q-11 -11 -20 1l-17 22q-9 11 1 21q62 56 151 56zM215 41q64 0 94 35t30 109v50h-115q-58 0 -90 -25 t-32 -72t29.5 -72t83.5 -25z" />
<glyph unicode="b" horiz-adv-x="487" d="M259 505q86 0 130.5 -48t44.5 -139v-142q0 -92 -47 -140t-136 -48q-90 0 -137 48t-47 140v509q0 15 15 15h31q15 0 15 -15v-243h1q39 63 130 63zM373 185v124q0 74 -29.5 108.5t-92.5 34.5q-123 0 -123 -143v-124q0 -74 30 -109t93 -35t92.5 35t29.5 109z" />
<glyph unicode="c" horiz-adv-x="409" d="M365 84l15 -17q10 -11 -1 -22q-55 -57 -141 -57q-90 0 -137.5 49t-47.5 142v136q0 92 47 141q46 49 135 49q88 0 136 -48q11 -9 1 -21l-15 -18q-10 -13 -22 -1q-37 35 -96 35q-64 0 -94.5 -35.5t-30.5 -111.5v-117q0 -76 31.5 -111.5t97.5 -35.5q58 0 100 43q11 14 22 0z " />
<glyph unicode="d" horiz-adv-x="487" d="M420 685v-509q0 -92 -47 -140t-136 -48q-90 0 -137 48t-47 140v142q0 91 44.5 139t130.5 48q91 0 130 -61h1v241q0 15 15 15h31q15 0 15 -15zM359 185v124q0 143 -122 143q-64 0 -93.5 -34.5t-29.5 -108.5v-124q0 -74 29.5 -109t93.5 -35q63 0 92.5 35t29.5 109z" />
<glyph unicode="e" horiz-adv-x="454" d="M413 318v-76q0 -15 -15 -15h-284v-39q0 -77 32.5 -112t103.5 -35q62 0 110 51q10 14 21 0l17 -19q9 -11 0 -22q-60 -63 -151 -63q-194 0 -194 191v139q0 91 46 139t134 48t134 -47.5t46 -139.5zM114 278h241v31q0 74 -29.5 108.5t-91.5 34.5t-91 -35t-29 -108v-31z" />
<glyph unicode="f" horiz-adv-x="323" d="M251 659q-96 0 -96 -116v-50h151q15 0 15 -15v-23q0 -15 -15 -15h-151v-425q0 -15 -15 -15h-31q-15 0 -15 15v425h-60q-15 0 -15 15v23q0 15 15 15h60v53q0 80 39.5 123t113.5 43q55 0 98 -23q12 -6 6 -20l-10 -21q-7 -14 -20 -7q-33 18 -70 18z" />
<glyph unicode="g" horiz-adv-x="487" d="M237 505q89 0 136 -48t47 -139v-317q0 -81 -48.5 -127t-133.5 -46q-99 0 -162 57q-10 10 -2 21l15 20q10 13 21 2q52 -47 125 -47q60 0 92 33t32 95v54h-1q-39 -61 -130 -61q-86 0 -130.5 48t-44.5 139v129q0 91 47 139t137 48zM237 55q122 0 122 144v110 q0 74 -29.5 108.5t-92.5 34.5q-64 0 -93.5 -34.5t-29.5 -108.5v-110q0 -74 29.5 -109t93.5 -35z" />
<glyph unicode="h" horiz-adv-x="500" d="M263 505q83 0 126.5 -46.5t43.5 -136.5v-307q0 -15 -15 -15h-31q-15 0 -15 15v298q0 71 -29 105t-90 34q-119 0 -119 -139v-298q0 -15 -15 -15h-31q-15 0 -15 15v670q0 15 15 15h31q15 0 15 -15v-241h1q37 61 128 61z" />
<glyph unicode="i" horiz-adv-x="207" d="M133 605q-12 -12 -30 -12t-30 12t-12 30t12 30t30 12t30 -12t12 -30t-12 -30zM119 0h-31q-15 0 -15 15v463q0 15 15 15h31q15 0 15 -15v-463q0 -15 -15 -15z" />
<glyph unicode="j" horiz-adv-x="207" d="M-5 -107q78 0 78 85v500q0 15 15 15h31q15 0 15 -15v-500q0 -138 -130 -138h-9q-15 0 -15 15v23q0 15 15 15zM133 605q-12 -12 -30 -12t-30 12t-12 30t12 30t30 12t30 -12t12 -30t-12 -30z" />
<glyph unicode="k" horiz-adv-x="436" d="M343 8l-209 226v-219q0 -15 -15 -15h-31q-15 0 -15 15v670q0 15 15 15h31q15 0 15 -15v-416l200 216q8 8 18 8h42q10 0 12.5 -5.5t-4.5 -12.5l-210 -223l221 -234q7 -7 4.5 -12.5t-12.5 -5.5h-44q-10 0 -18 8z" />
<glyph unicode="l" horiz-adv-x="207" d="M134 685v-670q0 -15 -15 -15h-31q-15 0 -15 15v670q0 15 15 15h31q15 0 15 -15z" />
<glyph unicode="m" horiz-adv-x="758" d="M522 505q83 0 126 -46.5t43 -135.5v-308q0 -15 -15 -15h-31q-15 0 -15 15v299q0 71 -27 104.5t-84 33.5q-56 0 -82.5 -33.5t-26.5 -104.5v-299q0 -15 -15 -15h-31q-15 0 -15 15v299q0 71 -27 104.5t-85 33.5q-56 0 -82.5 -33.5t-26.5 -104.5v-299q0 -15 -15 -15h-31 q-15 0 -15 15v308q0 89 42.5 135.5t124.5 46.5q106 0 145 -75h1q36 75 142 75z" />
<glyph unicode="n" horiz-adv-x="494" d="M366 15v298q0 71 -29 105t-90 34t-90 -34t-29 -105v-298q0 -15 -15 -15h-31q-15 0 -15 15v307q0 90 46 136.5t134 46.5q180 0 180 -183v-307q0 -15 -15 -15h-31q-15 0 -15 15z" />
<glyph unicode="o" horiz-adv-x="473" d="M237 505q89 0 136 -48t47 -139v-143q0 -91 -47 -139t-136 -48q-90 0 -137 48t-47 139v143q0 91 47 139t137 48zM359 185v124q0 74 -29.5 108.5t-92.5 34.5q-64 0 -93.5 -34.5t-29.5 -108.5v-124q0 -74 29.5 -109t93.5 -35q63 0 92.5 35t29.5 109z" />
<glyph unicode="p" horiz-adv-x="487" d="M251 505q89 0 136 -48t47 -139v-143q0 -91 -44.5 -139t-130.5 -48q-91 0 -130 63h-1v-196q0 -15 -15 -15h-31q-15 0 -15 15v463q0 91 47 139t137 48zM373 185v124q0 74 -29.5 108.5t-92.5 34.5t-93 -35t-30 -108v-124q0 -144 123 -144q63 0 92.5 35t29.5 109z" />
<glyph unicode="q" horiz-adv-x="487" d="M237 505q89 0 136 -48t47 -139v-463q0 -15 -15 -15h-31q-15 0 -15 15v194h-1q-39 -61 -130 -61q-86 0 -130.5 48t-44.5 139v143q0 91 47 139t137 48zM237 41q122 0 122 144v124q0 74 -29.5 108.5t-92.5 34.5q-64 0 -93.5 -34.5t-29.5 -108.5v-124q0 -74 29.5 -109 t93.5 -35z" />
<glyph unicode="r" horiz-adv-x="363" d="M67 15v315q0 175 161 175q63 0 110 -32q12 -9 5 -21l-13 -20q-9 -13 -21 -4q-34 24 -76 24q-55 0 -80 -30.5t-25 -95.5v-311q0 -15 -15 -15h-31q-15 0 -15 15z" />
<glyph unicode="s" horiz-adv-x="412" d="M392 133q0 -67 -45 -106t-121 -39q-114 0 -178 61q-10 10 -1 21l16 20q10 12 22 0q49 -49 135 -49q53 0 82 24t29 68q0 40 -27 60t-96 30q-86 13 -121 44t-35 94q0 66 47 105t126 39q89 0 143 -45q10 -10 3 -21l-14 -19q-9 -12 -21 -3q-44 35 -106 35q-57 0 -87 -24 t-30 -68q0 -36 26 -54.5t91 -27.5q89 -12 125.5 -45.5t36.5 -99.5z" />
<glyph unicode="t" horiz-adv-x="352" d="M325 52l9 -22q4 -13 -6 -20q-34 -22 -90 -22q-70 0 -107 38t-37 111v303h-60q-15 0 -15 15v23q0 15 15 15h60v119q0 15 15 15h31q15 0 15 -15v-119h151q15 0 15 -15v-23q0 -15 -15 -15h-151v-300q0 -99 89 -99q34 0 59 16q16 10 22 -5z" />
<glyph unicode="u" horiz-adv-x="488" d="M421 478v-310q0 -88 -45 -134t-132 -46q-86 0 -131.5 46t-45.5 134v310q0 15 15 15h31q15 0 15 -15v-301q0 -70 28.5 -103t88.5 -33t88.5 33t28.5 103v301q0 15 15 15h29q15 0 15 -15z" />
<glyph unicode="v" horiz-adv-x="447" d="M432 476l-165 -462q-6 -14 -19 -14h-35q-13 0 -19 14l-165 462q-8 17 12 17h36q13 0 17 -12l137 -403h1l138 403q4 12 17 12h33q20 0 12 -17z" />
<glyph unicode="w" horiz-adv-x="683" d="M665 476l-141 -461q-4 -15 -18 -15h-34q-14 0 -18 15l-107 362h-1l-108 -362q-4 -15 -18 -15h-34q-14 0 -18 15l-140 461q-5 17 13 17h35q13 0 17 -13l110 -384h1l113 382q5 15 18 15h25q14 0 18 -15l112 -378h1l111 380q4 13 17 13h33q18 0 13 -17z" />
<glyph unicode="x" horiz-adv-x="455" d="M356 10l-128 205l-128 -205q-6 -10 -18 -10h-34q-21 0 -10 18l154 237l-143 220q-5 7 -2.5 12.5t12.5 5.5h38q12 0 18 -10l117 -188l117 188q6 10 18 10h33q10 0 12.5 -5.5t-2.5 -12.5l-142 -221l153 -236q11 -18 -10 -18h-37q-12 0 -18 10z" />
<glyph unicode="y" horiz-adv-x="500" d="M427 478v-477q0 -81 -48.5 -127t-133.5 -46q-98 0 -161 57q-10 10 -2 21l15 20q10 13 21 2q52 -47 124 -47q60 0 92 33t32 95v54h-1q-37 -61 -128 -61q-83 0 -126.5 47t-43.5 136v293q0 15 15 15h31q15 0 15 -15v-283q0 -72 29 -106t90 -34q119 0 119 140v283q0 15 15 15 h31q15 0 15 -15z" />
<glyph unicode="z" horiz-adv-x="422" d="M385 38v-23q0 -15 -15 -15h-318q-15 0 -15 15v31q0 9 6 18l264 376h-240q-15 0 -15 15v23q0 15 15 15h298q15 0 15 -15v-31q0 -9 -6 -18l-265 -376h261q15 0 15 -15z" />
<glyph unicode="{" d="M43 276v22q0 14 14 14q30 0 47.5 21t17.5 60v136q0 71 34 103t109 32h8q14 0 14 -14v-22q0 -14 -14 -14q-49 0 -69.5 -21t-20.5 -73v-121q0 -95 -69 -111v-1q69 -18 69 -112v-121q0 -52 20.5 -73t69.5 -21q14 0 14 -14v-22q0 -14 -14 -14h-8q-75 0 -109 32t-34 103v136 q0 39 -17.5 60t-47.5 21q-14 0 -14 14z" />
<glyph unicode="|" horiz-adv-x="264" d="M144 -160h-24q-14 0 -14 14v832q0 14 14 14h24q14 0 14 -14v-832q0 -14 -14 -14z" />
<glyph unicode="}" d="M287 298v-22q0 -14 -14 -14q-30 0 -47.5 -21t-17.5 -60v-136q0 -71 -34 -103t-109 -32h-8q-14 0 -14 14v22q0 14 14 14q49 0 69.5 21t20.5 73v121q0 95 69 111v1q-69 18 -69 112v121q0 52 -20.5 73t-69.5 21q-14 0 -14 14v22q0 14 14 14h8q75 0 109 -32t34 -103v-136 q0 -39 17.5 -60t47.5 -21q14 0 14 -14z" />
<glyph unicode="~" horiz-adv-x="529" d="M168 288q-53 0 -95 -66q-8 -12 -21 -5l-20 12q-12 8 -5 21q55 94 139 94q56 0 120 -42q52 -34 88 -34q56 0 95 66q7 13 21 5l20 -12q15 -8 5 -21q-55 -94 -138 -94q-53 0 -120 41q-58 35 -89 35z" />
<glyph unicode="&#xa1;" horiz-adv-x="222" d="M80 15v280l12 192q1 10 11 10h15q10 0 11 -10l12 -192v-280q0 -15 -15 -15h-31q-15 0 -15 15zM66 632q-2 27 21.5 38t46.5 0t21 -38q0 -19 -12.5 -32t-31.5 -13t-32 12.5t-13 32.5z" />
<glyph unicode="&#xa2;" horiz-adv-x="529" d="M438 107l16 -17q11 -11 0 -22q-50 -50 -125 -58v-67q0 -13 -13 -13h-29q-13 0 -13 13v66q-181 10 -181 199v118q0 188 181 198v59q0 13 13 13h29q13 0 13 -13v-61q73 -8 116 -48q11 -11 0 -22l-15 -17q-10 -12 -22 0q-29 29 -79 34v-406q50 5 88 43q10 12 21 1zM154 315 v-99q0 -74 29 -111t91 -43v408q-62 -5 -91 -42.5t-29 -112.5z" />
<glyph unicode="&#xa3;" horiz-adv-x="529" d="M211 221q0 -98 -64 -165v-1h305q15 0 15 -15v-25q0 -15 -15 -15h-355q-15 0 -15 15v27q0 11 8 19q35 37 49.5 71.5t14.5 81.5q0 23 -5 48h-68q-15 0 -15 15v24q0 15 15 15h51l-11 23q-34 69 -34 124q0 79 54.5 126t145.5 47q125 0 188 -81q9 -12 -2 -21l-21 -18 q-12 -10 -21 2q-47 63 -141 63q-65 0 -102.5 -33.5t-37.5 -91.5q0 -47 28 -102q14 -29 16 -38h193q15 0 15 -15v-24q0 -15 -15 -15h-179q3 -20 3 -41z" />
<glyph unicode="&#xa4;" horiz-adv-x="529" d="M452 309q0 -62 -34 -106l70 -70q10 -10 0 -20l-17 -17q-10 -10 -20 0l-70 70q-47 -33 -107 -33t-107 33l-70 -70q-10 -10 -20 0l-17 17q-10 10 0 20l70 70q-33 47 -33 106q0 61 33 107l-70 70q-10 10 0 20l17 17q10 10 20 0l70 -70q47 35 107 35q59 0 108 -34l69 69 q10 10 20 0l17 -17q10 -10 0 -20l-70 -70q34 -44 34 -107zM403 309q0 56 -37 93q-36 37 -91 37t-92 -37q-36 -38 -36 -93t36.5 -91.5t91.5 -36.5t91.5 36.5t36.5 91.5z" />
<glyph unicode="&#xa5;" horiz-adv-x="529" d="M491 606l-187 -288h148q13 0 13 -13v-24q0 -13 -13 -13h-154v-86h153q13 0 13 -13v-24q0 -13 -13 -13h-153v-117q0 -15 -15 -15h-33q-15 0 -15 15v117h-157q-13 0 -13 13v24q0 13 13 13h157v86h-156q-13 0 -13 13v24q0 13 13 13h150l-186 288q-11 18 10 18h39 q12 0 18 -10l158 -254l158 254q6 10 18 10h37q21 0 10 -18z" />
<glyph unicode="&#xa6;" horiz-adv-x="264" d="M144 350h-24q-14 0 -14 14v322q0 14 14 14h24q14 0 14 -14v-322q0 -14 -14 -14zM144 -160h-24q-14 0 -14 14v322q0 14 14 14h24q14 0 14 -14v-322q0 -14 -14 -14z" />
<glyph unicode="&#xa7;" horiz-adv-x="556" d="M397 129v-1q89 -33 89 -131q0 -77 -55 -123t-148 -46q-149 0 -218 88q-9 10 2 21l19 17q12 9 21 -3q57 -71 175 -71q67 0 106.5 31t39.5 84q0 46 -36 69t-126 33q-114 12 -162.5 50.5t-48.5 114.5q0 105 100 148v1q-85 33 -85 132q0 77 55 123t148 46q128 0 191 -76 q9 -10 -2 -21l-18 -16q-12 -9 -21 2q-46 58 -149 58q-66 0 -105.5 -31t-39.5 -83q0 -48 36 -71.5t128 -33.5q113 -12 160.5 -49.5t47.5 -112.5q0 -107 -104 -149zM114 269q0 -58 43 -83q44 -26 157 -39q59 8 94 41.5t35 82.5q0 57 -47 83q-46 27 -161 37q-56 -9 -88.5 -41.5 t-32.5 -80.5z" />
<glyph unicode="&#xa8;" horiz-adv-x="500" d="M170 595q-25 0 -35 20t0 40t35 20q24 2 34.5 -19t0 -42t-34.5 -19zM330 595q-24 -2 -34.5 19t0 42t34.5 19q25 0 35 -20t0 -40t-35 -20z" />
<glyph unicode="&#xa9;" horiz-adv-x="771" d="M140 577q99 99 246 99q148 0 245 -99q99 -97 99 -245q0 -147 -99 -246q-98 -98 -245 -98q-146 0 -246 98q-98 100 -98 246q0 147 98 245zM386 29q126 0 212 87q86 88 86 216t-86 216q-86 87 -212 87q-128 0 -213 -87q-85 -86 -85 -216t85 -216q85 -87 213 -87zM386 482 q-83 0 -83 -98v-104q0 -98 83 -98q53 0 78 43q6 11 17 5l15 -9q10 -5 5 -16q-36 -64 -115 -64q-63 0 -96 34t-33 99v116q0 65 33 99t96 34q79 0 115 -65q5 -11 -5 -16l-15 -9q-11 -6 -17 5q-26 44 -78 44z" />
<glyph unicode="&#xaa;" horiz-adv-x="348" d="M164 636q144 0 144 -148v-106q0 -144 -144 -144q-65 0 -100.5 30t-35.5 86q0 54 35.5 84.5t100.5 30.5h90v12q0 56 -23 82t-71 26q-45 0 -80 -32q-10 -9 -20 1l-12 16q-8 11 2 20q46 42 114 42zM164 285q47 0 68.5 25t21.5 79v34h-83q-89 0 -89 -68q0 -70 82 -70z" />
<glyph unicode="&#xab;" horiz-adv-x="415" d="M200 418l-109 -171l109 -172q11 -17 -9 -17h-28q-11 0 -17 9l-108 170q-6 10 0 20l108 169q6 9 17 9h28q20 0 9 -17zM376 418l-109 -171l109 -172q11 -17 -9 -17h-28q-11 0 -17 9l-108 170q-6 10 0 20l108 169q6 9 17 9h28q20 0 9 -17z" />
<glyph unicode="&#xac;" horiz-adv-x="529" d="M507 356v-241q0 -15 -15 -15h-26q-15 0 -15 15v200h-415q-15 0 -15 15v26q0 15 15 15h456q15 0 15 -15z" />
<glyph unicode="&#xad;" d="M285 242h-240q-15 0 -15 15v29q0 15 15 15h240q15 0 15 -15v-29q0 -15 -15 -15z" />
<glyph unicode="&#xae;" horiz-adv-x="771" d="M140 577q99 99 246 99q148 0 245 -99q99 -97 99 -245q0 -147 -99 -246q-98 -98 -245 -98q-146 0 -246 98q-98 100 -98 246q0 147 98 245zM386 29q126 0 212 87q86 88 86 216t-86 216q-86 87 -212 87q-128 0 -213 -87q-85 -86 -85 -216t85 -216q85 -87 213 -87zM519 406 q0 -89 -84 -107l86 -137q9 -14 -8 -14h-28q-9 0 -14 8l-83 139h-66v-135q0 -12 -12 -12h-22q-12 0 -12 12v344q0 12 12 12h100q131 0 131 -110zM322 475v-139h66q84 0 84 69q0 70 -84 70h-66z" />
<glyph unicode="&#xaf;" horiz-adv-x="500" d="M378 641v-22q0 -14 -14 -14h-227q-14 0 -14 14v22q0 14 14 14h227q14 0 14 -14z" />
<glyph unicode="&#xb0;" horiz-adv-x="353" d="M176 345q-61 0 -104 41q-41 43 -41 105t41 103q42 42 104 42q64 0 104 -42q42 -40 42 -103t-42 -105q-41 -41 -104 -41zM176 396q41 0 67 26.5t26 68.5q0 41 -26 67.5t-67 26.5q-40 0 -66 -26.5t-26 -67.5q0 -42 26 -68.5t66 -26.5z" />
<glyph unicode="&#xb1;" horiz-adv-x="529" d="M499 328v-26q0 -15 -15 -15h-192v-177q0 -15 -15 -15h-26q-15 0 -15 15v177h-191q-15 0 -15 15v26q0 15 15 15h191v177q0 15 15 15h26q15 0 15 -15v-177h192q15 0 15 -15zM45 56h439q15 0 15 -15v-26q0 -15 -15 -15h-439q-15 0 -15 15v26q0 15 15 15z" />
<glyph unicode="&#xb2;" d="M238 530l-124 -124h167q13 0 13 -13v-17q0 -13 -13 -13h-218q-13 0 -13 13v18q0 9 7 16l147 149q44 46 44 86q0 68 -77 68q-52 0 -82 -46q-7 -12 -18 -4l-15 10q-10 7 -4 18q42 65 121 65q57 0 89.5 -29.5t32.5 -81.5q0 -57 -57 -115z" />
<glyph unicode="&#xb3;" d="M240 566v-1q70 -22 70 -96q0 -53 -35 -83t-97 -30q-83 0 -126 52q-7 10 1 19l12 12q10 10 19 -1q35 -39 92 -39q41 0 64 19t23 53q0 71 -97 71h-23q-13 0 -13 13v17q0 13 13 13h20q90 0 90 63q0 65 -80 65q-53 0 -84 -39q-10 -11 -19 -1l-13 12q-8 9 -1 19q46 52 119 52 q58 0 91.5 -28t33.5 -78q0 -63 -60 -84z" />
<glyph unicode="&#xb4;" horiz-adv-x="500" d="M363 698l-87 -123q-5 -8 -16 -8h-29q-18 0 -9 16l80 123q6 9 17 9h35q9 0 11.5 -5t-2.5 -12z" />
<glyph unicode="&#xb5;" horiz-adv-x="500" d="M433 478v-307q0 -89 -43.5 -136t-126.5 -47q-91 0 -128 61h-1v-194q0 -15 -15 -15h-31q-15 0 -15 15v623q0 15 15 15h31q15 0 15 -15v-297q0 -140 119 -140q61 0 90 34t29 106v297q0 15 15 15h31q15 0 15 -15z" />
<glyph unicode="&#xb6;" horiz-adv-x="565" d="M472 -160h-25q-13 0 -13 13v796h-136v-796q0 -13 -13 -13h-25q-13 0 -13 13v451q-114 2 -168.5 50t-54.5 148q0 102 56 150t175 48h217q13 0 13 -13v-834q0 -13 -13 -13z" />
<glyph unicode="&#xb7;" horiz-adv-x="220" d="M110 357q20 0 32.5 -12.5t12.5 -32.5q0 -29 -28 -40.5t-49 8.5q-20 21 -8.5 49t40.5 28z" />
<glyph unicode="&#xb8;" horiz-adv-x="500" d="M236 7h39l-12 -57q34 -1 53 -16t19 -41q0 -31 -23 -48t-64 -17q-44 0 -75 19q-8 6 -4 16l8 16q6 10 16 4q26 -14 51 -14q21 0 33 7.5t12 19.5q0 27 -58 27q-13 0 -10 13z" />
<glyph unicode="&#xb9;" d="M253 736v-360q0 -13 -13 -13h-21q-13 0 -13 13v311l-81 -62q-12 -7 -18 3l-10 15q-7 11 3 18l109 83q8 5 16 5h15q13 0 13 -13z" />
<glyph unicode="&#xba;" horiz-adv-x="366" d="M326 491v-109q0 -70 -36.5 -107t-106.5 -37t-106.5 37t-36.5 107v109q0 71 36.5 108t106.5 37t106.5 -37t36.5 -108zM272 389v95q0 54 -21.5 79.5t-67.5 25.5t-67.5 -25.5t-21.5 -79.5v-95q0 -104 89 -104t89 104z" />
<glyph unicode="&#xbb;" horiz-adv-x="415" d="M230 75l109 171l-109 172q-11 17 9 17h28q11 0 17 -9l108 -170q6 -10 0 -20l-108 -169q-6 -9 -17 -9h-28q-20 0 -9 17zM54 75l109 171l-109 172q-11 17 9 17h28q11 0 17 -9l108 -170q6 -10 0 -20l-108 -169q-6 -9 -17 -9h-28q-20 0 -9 17z" />
<glyph unicode="&#xbc;" horiz-adv-x="793" d="M770 88h-33v-75q0 -13 -13 -13h-21q-13 0 -13 13v75h-177q-13 0 -13 13v24q0 8 5 16l178 237q8 8 16 8h25q13 0 13 -13v-242h33q13 0 13 -13v-17q0 -13 -13 -13zM690 317h-1l-138 -186h139v186zM253 611v-360q0 -13 -13 -13h-21q-13 0 -13 13v311l-81 -62q-12 -8 -18 3 l-10 15q-7 10 3 18l109 83q8 5 16 5h15q13 0 13 -13zM223 16l395 600q6 8 16 8h25q18 0 9 -16l-395 -600q-6 -8 -16 -8h-25q-18 0 -9 16z" />
<glyph unicode="&#xbd;" horiz-adv-x="793" d="M705 167l-124 -124h167q13 0 13 -13v-17q0 -13 -13 -13h-218q-13 0 -13 13v18q0 9 7 16l147 149q44 46 44 86q0 68 -77 68q-52 0 -82 -46q-7 -12 -18 -4l-15 10q-10 7 -4 18q42 65 121 65q57 0 89.5 -29.5t32.5 -81.5q0 -56 -57 -115zM253 611v-360q0 -13 -13 -13h-21 q-13 0 -13 13v311l-81 -62q-12 -8 -18 3l-10 15q-7 10 3 18l109 83q8 5 16 5h15q13 0 13 -13zM183 16l395 600q6 8 16 8h25q18 0 9 -16l-395 -600q-6 -8 -16 -8h-25q-18 0 -9 16z" />
<glyph unicode="&#xbe;" horiz-adv-x="793" d="M769 88h-33v-75q0 -13 -13 -13h-21q-13 0 -13 13v75h-177q-13 0 -13 13v24q0 8 5 16l178 237q8 8 16 8h25q13 0 13 -13v-242h33q13 0 13 -13v-17q0 -13 -13 -13zM689 317h-1l-138 -186h139v186zM240 441v-1q70 -22 70 -96q0 -53 -35 -83t-97 -30q-83 0 -126 52 q-7 10 1 19l12 12q10 10 19 -1q34 -39 92 -39q41 0 64 19t23 53q0 71 -97 71h-23q-13 0 -13 13v17q0 13 13 13h20q90 0 90 63q0 65 -80 65q-53 0 -84 -39q-10 -11 -19 -1l-13 12q-9 8 -1 19q46 52 119 52q58 0 91.5 -28t33.5 -78q0 -63 -60 -84zM227 16l395 600q6 8 16 8h25 q18 0 9 -16l-395 -600q-6 -8 -16 -8h-25q-18 0 -9 16z" />
<glyph unicode="&#xbf;" horiz-adv-x="450" d="M223 -12q-92 0 -145.5 47.5t-53.5 128.5q0 58 25 97.5t85 74.5q50 30 69.5 57.5t19.5 67.5v21q0 15 15 15h27q15 0 15 -15v-25q0 -52 -22.5 -88t-78.5 -69q-51 -32 -71.5 -62.5t-20.5 -73.5q0 -56 36.5 -88.5t100.5 -32.5q98 0 150 88q9 14 21 5l23 -15q12 -8 5 -21 q-67 -112 -200 -112zM206 632q-2 27 21.5 38t46.5 0t21 -38q0 -19 -12.5 -32t-31.5 -13t-32 12.5t-13 32.5z" />
<glyph unicode="&#xc0;" horiz-adv-x="581" d="M444 151h-295l-47 -139q-4 -12 -17 -12h-36q-20 0 -12 17l222 635q5 12 17 12h43q13 0 17 -12l222 -635q8 -17 -12 -17h-38q-12 0 -17 12zM296 584l-127 -376h256l-128 376h-1zM319 732h-29q-11 0 -16 8l-87 123q-5 7 -2.5 12t11.5 5h35q11 0 17 -9l80 -123q9 -16 -9 -16 z" />
<glyph unicode="&#xc1;" horiz-adv-x="581" d="M444 151h-295l-47 -139q-4 -12 -17 -12h-36q-20 0 -12 17l222 635q5 12 17 12h43q13 0 17 -12l222 -635q8 -17 -12 -17h-38q-12 0 -17 12zM296 584l-127 -376h256l-128 376h-1zM409 863l-87 -123q-5 -8 -16 -8h-29q-18 0 -9 16l80 123q6 9 17 9h35q9 0 11.5 -5t-2.5 -12z " />
<glyph unicode="&#xc2;" horiz-adv-x="581" d="M444 151h-295l-47 -139q-4 -12 -17 -12h-36q-20 0 -12 17l222 635q5 12 17 12h43q13 0 17 -12l222 -635q8 -17 -12 -17h-38q-12 0 -17 12zM296 584l-127 -376h256l-128 376h-1zM364 740l-67 95l-67 -95q-5 -8 -16 -8h-27q-8 0 -10.5 4.5t2.5 11.5l86 123q6 9 17 9h31 q11 0 17 -9l85 -123q5 -7 2.5 -11.5t-10.5 -4.5h-27q-11 0 -16 8z" />
<glyph unicode="&#xc3;" horiz-adv-x="581" d="M444 151h-295l-47 -139q-4 -12 -17 -12h-36q-20 0 -12 17l222 635q5 12 17 12h43q13 0 17 -12l222 -635q8 -17 -12 -17h-38q-12 0 -17 12zM296 584l-127 -376h256l-128 376h-1zM189 746h-17q-15 0 -13 14q7 44 29 67.5t56 23.5q32 0 68 -33q26 -23 42 -23q30 0 39 43 q3 12 14 12h17q15 0 13 -14q-7 -44 -29 -67.5t-56 -23.5q-32 0 -68 33q-26 23 -42 23q-30 0 -39 -43q-3 -12 -14 -12z" />
<glyph unicode="&#xc4;" horiz-adv-x="581" d="M444 151h-295l-47 -139q-4 -12 -17 -12h-36q-20 0 -12 17l222 635q5 12 17 12h43q13 0 17 -12l222 -635q8 -17 -12 -17h-38q-12 0 -17 12zM296 584l-127 -376h256l-128 376h-1zM218 760q-25 0 -35 20t0 40t35 20q24 2 34.5 -19t0 -42t-34.5 -19zM378 760q-24 -2 -34.5 19 t0 42t34.5 19q25 0 35 -20t0 -40t-35 -20z" />
<glyph unicode="&#xc5;" horiz-adv-x="581" d="M444 151h-295l-47 -139q-4 -12 -17 -12h-36q-20 0 -12 17l222 635q5 12 17 12h43q13 0 17 -12l222 -635q8 -17 -12 -17h-38q-12 0 -17 12zM296 584l-127 -376h256l-128 376h-1zM354 749q-22 -22 -56 -22t-57 22q-22 23 -22 57t22 56q23 23 57 23t56 -23q23 -22 23 -56 t-23 -57zM273 780q10 -10 25 -10t25 10q10 11 10 26t-10 25q-15 16 -34.5 9t-24.5 -25t9 -35z" />
<glyph unicode="&#xc6;" horiz-adv-x="880" d="M494 607v-243h285q15 0 15 -15v-27q0 -15 -15 -15h-285v-250h329q15 0 15 -15v-27q0 -15 -15 -15h-379q-15 0 -15 15v129h-264l-79 -134q-6 -10 -18 -10h-40q-21 0 -10 18l381 636q6 10 18 10h406q15 0 15 -15v-27q0 -15 -15 -15h-329zM429 593h-1l-230 -392h231v392z " />
<glyph unicode="&#xc7;" horiz-adv-x="531" d="M465 144l25 -14q13 -7 7 -20q-57 -115 -193 -122l-8 -38q34 -1 53 -16t19 -41q0 -31 -23 -48t-64 -17q-44 0 -75 19q-8 6 -4 16l8 16q6 10 16 4q26 -14 51 -14q21 0 33 7.5t12 19.5q0 27 -58 27q-13 0 -10 13l11 53q-101 6 -153.5 66.5t-52.5 172.5v208q0 118 58 179 t170 61q150 0 210 -122q6 -13 -7 -20l-25 -14q-14 -6 -20 7q-48 92 -158 92q-163 0 -163 -194v-186q0 -194 163 -194q110 0 158 92q6 13 20 7z" />
<glyph unicode="&#xc8;" horiz-adv-x="538" d="M149 607v-243h284q15 0 15 -15v-27q0 -15 -15 -15h-284v-250h328q15 0 15 -15v-27q0 -15 -15 -15h-378q-15 0 -15 15v634q0 15 15 15h378q15 0 15 -15v-27q0 -15 -15 -15h-328zM309 732h-29q-11 0 -16 8l-87 123q-5 7 -2.5 12t11.5 5h35q11 0 17 -9l80 -123q9 -16 -9 -16 z" />
<glyph unicode="&#xc9;" horiz-adv-x="538" d="M149 607v-243h284q15 0 15 -15v-27q0 -15 -15 -15h-284v-250h328q15 0 15 -15v-27q0 -15 -15 -15h-378q-15 0 -15 15v634q0 15 15 15h378q15 0 15 -15v-27q0 -15 -15 -15h-328zM399 863l-87 -123q-5 -8 -16 -8h-29q-18 0 -9 16l80 123q6 9 17 9h35q9 0 11.5 -5t-2.5 -12z " />
<glyph unicode="&#xca;" horiz-adv-x="538" d="M354 740l-67 95l-67 -95q-5 -8 -16 -8h-27q-8 0 -10.5 4.5t2.5 11.5l86 123q6 9 17 9h31q11 0 17 -9l85 -123q5 -7 2.5 -11.5t-10.5 -4.5h-27q-11 0 -16 8zM149 607v-243h284q15 0 15 -15v-27q0 -15 -15 -15h-284v-250h328q15 0 15 -15v-27q0 -15 -15 -15h-378 q-15 0 -15 15v634q0 15 15 15h378q15 0 15 -15v-27q0 -15 -15 -15h-328z" />
<glyph unicode="&#xcb;" horiz-adv-x="538" d="M149 607v-243h284q15 0 15 -15v-27q0 -15 -15 -15h-284v-250h328q15 0 15 -15v-27q0 -15 -15 -15h-378q-15 0 -15 15v634q0 15 15 15h378q15 0 15 -15v-27q0 -15 -15 -15h-328zM208 760q-25 0 -35 20t0 40t35 20q24 2 34.5 -19t0 -42t-34.5 -19zM368 760q-24 -2 -34.5 19 t0 42t34.5 19q25 0 35 -20t0 -40t-35 -20z" />
<glyph unicode="&#xcc;" horiz-adv-x="233" d="M139 732h-29q-11 0 -16 8l-87 123q-5 7 -2.5 12t11.5 5h35q11 0 17 -9l80 -123q9 -16 -9 -16zM151 649v-634q0 -15 -15 -15h-35q-15 0 -15 15v634q0 15 15 15h35q15 0 15 -15z" />
<glyph unicode="&#xcd;" horiz-adv-x="233" d="M229 863l-87 -123q-5 -8 -16 -8h-29q-18 0 -9 16l80 123q6 9 17 9h35q9 0 11.5 -5t-2.5 -12zM151 649v-634q0 -15 -15 -15h-35q-15 0 -15 15v634q0 15 15 15h35q15 0 15 -15z" />
<glyph unicode="&#xce;" horiz-adv-x="233" d="M185 740l-67 95l-67 -95q-5 -8 -16 -8h-27q-8 0 -10.5 4.5t2.5 11.5l86 123q6 9 17 9h31q11 0 17 -9l85 -123q5 -7 2.5 -11.5t-10.5 -4.5h-27q-11 0 -16 8zM152 649v-634q0 -15 -15 -15h-35q-15 0 -15 15v634q0 15 15 15h35q15 0 15 -15z" />
<glyph unicode="&#xcf;" horiz-adv-x="233" d="M36 760q-25 0 -35 20t0 40t35 20q24 2 34.5 -19t0 -42t-34.5 -19zM196 760q-24 -2 -34.5 19t0 42t34.5 19q25 0 35 -20t0 -40t-35 -20zM149 649v-634q0 -15 -15 -15h-35q-15 0 -15 15v634q0 15 15 15h35q15 0 15 -15z" />
<glyph unicode="&#xd0;" horiz-adv-x="600" d="M109 664h199q233 0 233 -227v-210q0 -227 -233 -227h-199q-15 0 -15 15v293h-55q-15 0 -15 15v27q0 15 15 15h55v284q0 15 15 15zM476 238v188q0 92 -42 136.5t-129 44.5h-146v-242h139q15 0 15 -15v-27q0 -15 -15 -15h-139v-251h146q87 0 129 44.5t42 136.5z" />
<glyph unicode="&#xd1;" horiz-adv-x="623" d="M539 649v-634q0 -15 -15 -15h-37q-12 0 -18 10l-321 548h-1v-543q0 -15 -15 -15h-33q-15 0 -15 15v634q0 15 15 15h44q12 0 18 -10l314 -538h1v533q0 15 15 15h33q15 0 15 -15zM203 746h-17q-15 0 -13 14q7 44 29 67.5t56 23.5q32 0 68 -33q26 -23 42 -23q30 0 39 43 q3 12 14 12h17q15 0 13 -14q-7 -44 -29 -67.5t-56 -23.5q-32 0 -68 33q-26 23 -42 23q-30 0 -39 -43q-3 -12 -14 -12z" />
<glyph unicode="&#xd2;" horiz-adv-x="585" d="M313 732h-29q-11 0 -16 8l-87 123q-5 7 -2.5 12t11.5 5h35q11 0 17 -9l80 -123q9 -16 -9 -16zM59 228v208q0 118 59.5 179t173.5 61q115 0 174.5 -61t59.5 -179v-208q0 -118 -59.5 -179t-174.5 -61q-114 0 -173.5 61t-59.5 179zM124 425v-186q0 -194 168 -194 q169 0 169 194v186q0 194 -169 194q-168 0 -168 -194z" />
<glyph unicode="&#xd3;" horiz-adv-x="585" d="M403 863l-87 -123q-5 -8 -16 -8h-29q-18 0 -9 16l80 123q6 9 17 9h35q9 0 11.5 -5t-2.5 -12zM59 228v208q0 118 59.5 179t173.5 61q115 0 174.5 -61t59.5 -179v-208q0 -118 -59.5 -179t-174.5 -61q-114 0 -173.5 61t-59.5 179zM124 425v-186q0 -194 168 -194 q169 0 169 194v186q0 194 -169 194q-168 0 -168 -194z" />
<glyph unicode="&#xd4;" horiz-adv-x="585" d="M358 740l-67 95l-67 -95q-5 -8 -16 -8h-27q-8 0 -10.5 4.5t2.5 11.5l86 123q6 9 17 9h31q11 0 17 -9l85 -123q5 -7 2.5 -11.5t-10.5 -4.5h-27q-11 0 -16 8zM59 228v208q0 118 59.5 179t173.5 61q115 0 174.5 -61t59.5 -179v-208q0 -118 -59.5 -179t-174.5 -61 q-114 0 -173.5 61t-59.5 179zM124 425v-186q0 -194 168 -194q169 0 169 194v186q0 194 -169 194q-168 0 -168 -194z" />
<glyph unicode="&#xd5;" horiz-adv-x="585" d="M183 746h-17q-15 0 -13 14q7 44 29 67.5t56 23.5q32 0 68 -33q26 -23 42 -23q30 0 39 43q3 12 14 12h17q15 0 13 -14q-7 -44 -29 -67.5t-56 -23.5q-32 0 -68 33q-26 23 -42 23q-30 0 -39 -43q-3 -12 -14 -12zM59 228v208q0 118 59.5 179t173.5 61q115 0 174.5 -61 t59.5 -179v-208q0 -118 -59.5 -179t-174.5 -61q-114 0 -173.5 61t-59.5 179zM124 425v-186q0 -194 168 -194q169 0 169 194v186q0 194 -169 194q-168 0 -168 -194z" />
<glyph unicode="&#xd6;" horiz-adv-x="585" d="M59 228v208q0 118 59.5 179t173.5 61q115 0 174.5 -61t59.5 -179v-208q0 -118 -59.5 -179t-174.5 -61q-114 0 -173.5 61t-59.5 179zM124 425v-186q0 -194 168 -194q169 0 169 194v186q0 194 -169 194q-168 0 -168 -194zM212 760q-25 0 -35 20t0 40t35 20q24 2 34.5 -19 t0 -42t-34.5 -19zM372 760q-24 -2 -34.5 19t0 42t34.5 19q25 0 35 -20t0 -40t-35 -20z" />
<glyph unicode="&#xd7;" horiz-adv-x="529" d="M493 456l-177 -177l177 -177q11 -11 0 -22l-18 -18q-11 -11 -22 0l-177 177l-177 -177q-11 -11 -22 0l-18 18q-11 10 1 22l177 177l-177 177q-12 12 -1 22l18 18q11 11 22 0l177 -177l177 177q11 11 22 0l18 -18q11 -11 0 -22z" />
<glyph unicode="&#xd8;" horiz-adv-x="585" d="M523 634l-31 -49q36 -57 36 -149v-208q0 -118 -59.5 -179t-174.5 -61q-100 0 -159 48l-24 -37q-7 -11 -20 -4l-22 15q-10 7 -4 20l32 49q-36 57 -36 149v208q0 118 59.5 179t173.5 61q102 0 160 -48l24 37q7 11 20 4l22 -15q11 -8 3 -20zM126 425v-186q0 -56 13 -94h1 l279 429q-42 45 -125 45q-168 0 -168 -194zM463 239v186q0 57 -13 95h-1l-279 -430q42 -45 124 -45q169 0 169 194z" />
<glyph unicode="&#xd9;" horiz-adv-x="588" d="M315 732h-29q-11 0 -16 8l-87 123q-5 7 -2.5 12t11.5 5h35q11 0 17 -9l80 -123q9 -16 -9 -16zM516 649v-429q0 -114 -57 -173t-165 -59t-165 59t-57 173v429q0 15 15 15h35q15 0 15 -15v-420q0 -94 39 -139t119 -45t119 45t39 139v420q0 15 15 15h33q15 0 15 -15z" />
<glyph unicode="&#xda;" horiz-adv-x="588" d="M405 863l-87 -123q-5 -8 -16 -8h-29q-18 0 -9 16l80 123q6 9 17 9h35q9 0 11.5 -5t-2.5 -12zM516 649v-429q0 -114 -57 -173t-165 -59t-165 59t-57 173v429q0 15 15 15h35q15 0 15 -15v-420q0 -94 39 -139t119 -45t119 45t39 139v420q0 15 15 15h33q15 0 15 -15z" />
<glyph unicode="&#xdb;" horiz-adv-x="588" d="M360 740l-67 95l-67 -95q-5 -8 -16 -8h-27q-8 0 -10.5 4.5t2.5 11.5l86 123q6 9 17 9h31q11 0 17 -9l85 -123q5 -7 2.5 -11.5t-10.5 -4.5h-27q-11 0 -16 8zM516 649v-429q0 -114 -57 -173t-165 -59t-165 59t-57 173v429q0 15 15 15h35q15 0 15 -15v-420q0 -94 39 -139 t119 -45t119 45t39 139v420q0 15 15 15h33q15 0 15 -15z" />
<glyph unicode="&#xdc;" horiz-adv-x="588" d="M516 649v-429q0 -114 -57 -173t-165 -59t-165 59t-57 173v429q0 15 15 15h35q15 0 15 -15v-420q0 -94 39 -139t119 -45t119 45t39 139v420q0 15 15 15h33q15 0 15 -15zM214 760q-25 0 -35 20t0 40t35 20q24 2 34.5 -19t0 -42t-34.5 -19zM374 760q-24 -2 -34.5 19t0 42 t34.5 19q25 0 35 -20t0 -40t-35 -20z" />
<glyph unicode="&#xdd;" horiz-adv-x="519" d="M509 646l-214 -353v-278q0 -15 -15 -15h-35q-15 0 -15 15v278l-214 353q-11 18 10 18h43q12 0 18 -10l177 -299l177 299q6 10 18 10h40q21 0 10 -18zM373 863l-87 -123q-5 -8 -16 -8h-29q-18 0 -9 16l80 123q6 9 17 9h35q9 0 11.5 -5t-2.5 -12z" />
<glyph unicode="&#xde;" horiz-adv-x="541" d="M149 649v-109h135q119 0 175 -48t56 -150t-56 -150t-175 -48h-135v-129q0 -15 -15 -15h-35q-15 0 -15 15v634q0 15 15 15h35q15 0 15 -15zM149 483v-282h134q86 0 126 34t40 107t-40 107t-126 34h-134z" />
<glyph unicode="&#xdf;" horiz-adv-x="550" d="M73 15v524q0 81 50.5 127t139.5 46q88 0 138 -40.5t50 -112.5q0 -43 -18.5 -72.5t-63.5 -56.5q-35 -21 -48 -38.5t-13 -41.5q0 -28 18 -43.5t66 -27.5q69 -17 98.5 -51t29.5 -95q0 -67 -45 -106t-122 -39q-101 0 -160 50q-11 10 -3 21l14 20q8 13 22 2q46 -40 122 -40 q52 0 81.5 24t29.5 68q0 37 -22.5 59t-76.5 37q-62 17 -87.5 45t-25.5 77q0 37 17 63t60 53q38 24 52.5 43.5t14.5 46.5q0 49 -33 75.5t-94 26.5q-63 0 -96.5 -32t-33.5 -91v-521q0 -15 -15 -15h-31q-15 0 -15 15z" />
<glyph unicode="&#xe0;" horiz-adv-x="454" d="M217 505q90 0 136.5 -48t46.5 -142v-139q0 -92 -47 -140t-138 -48q-83 0 -128.5 39.5t-45.5 110.5q0 70 46 109t130 39h122v19q0 76 -31 111.5t-96 35.5q-63 0 -110 -47q-11 -11 -20 1l-17 22q-9 11 1 21q62 56 151 56zM215 41q64 0 94 35t30 109v50h-115q-58 0 -90 -25 t-32 -72t29.5 -72t83.5 -25zM252 567h-29q-11 0 -16 8l-87 123q-5 7 -2.5 12t11.5 5h35q11 0 17 -9l80 -123q9 -16 -9 -16z" />
<glyph unicode="&#xe1;" horiz-adv-x="454" d="M217 505q90 0 136.5 -48t46.5 -142v-139q0 -92 -47 -140t-138 -48q-83 0 -128.5 39.5t-45.5 110.5q0 70 46 109t130 39h122v19q0 76 -31 111.5t-96 35.5q-63 0 -110 -47q-11 -11 -20 1l-17 22q-9 11 1 21q62 56 151 56zM215 41q64 0 94 35t30 109v50h-115q-58 0 -90 -25 t-32 -72t29.5 -72t83.5 -25zM342 698l-87 -123q-5 -8 -16 -8h-29q-18 0 -9 16l80 123q6 9 17 9h35q9 0 11.5 -5t-2.5 -12z" />
<glyph unicode="&#xe2;" horiz-adv-x="454" d="M217 505q90 0 136.5 -48t46.5 -142v-139q0 -92 -47 -140t-138 -48q-83 0 -128.5 39.5t-45.5 110.5q0 70 46 109t130 39h122v19q0 76 -31 111.5t-96 35.5q-63 0 -110 -47q-11 -11 -20 1l-17 22q-9 11 1 21q62 56 151 56zM215 41q64 0 94 35t30 109v50h-115q-58 0 -90 -25 t-32 -72t29.5 -72t83.5 -25zM297 575l-67 95l-67 -95q-5 -8 -16 -8h-27q-8 0 -10.5 4.5t2.5 11.5l86 123q6 9 17 9h31q11 0 17 -9l85 -123q5 -7 2.5 -11.5t-10.5 -4.5h-27q-11 0 -16 8z" />
<glyph unicode="&#xe3;" horiz-adv-x="454" d="M217 505q90 0 136.5 -48t46.5 -142v-139q0 -92 -47 -140t-138 -48q-83 0 -128.5 39.5t-45.5 110.5q0 70 46 109t130 39h122v19q0 76 -31 111.5t-96 35.5q-63 0 -110 -47q-11 -11 -20 1l-17 22q-9 11 1 21q62 56 151 56zM215 41q64 0 94 35t30 109v50h-115q-58 0 -90 -25 t-32 -72t29.5 -72t83.5 -25zM122 581h-17q-15 0 -13 14q7 44 29 67.5t56 23.5q32 0 68 -33q26 -23 42 -23q30 0 39 43q3 12 14 12h17q15 0 13 -14q-7 -44 -29 -67.5t-56 -23.5q-32 0 -68 33q-26 23 -42 23q-30 0 -39 -43q-3 -12 -14 -12z" />
<glyph unicode="&#xe4;" horiz-adv-x="454" d="M217 505q90 0 136.5 -48t46.5 -142v-139q0 -92 -47 -140t-138 -48q-83 0 -128.5 39.5t-45.5 110.5q0 70 46 109t130 39h122v19q0 76 -31 111.5t-96 35.5q-63 0 -110 -47q-11 -11 -20 1l-17 22q-9 11 1 21q62 56 151 56zM215 41q64 0 94 35t30 109v50h-115q-58 0 -90 -25 t-32 -72t29.5 -72t83.5 -25zM151 595q-25 0 -35 20t0 40t35 20q24 2 34.5 -19t0 -42t-34.5 -19zM311 595q-24 -2 -34.5 19t0 42t34.5 19q25 0 35 -20t0 -40t-35 -20z" />
<glyph unicode="&#xe5;" horiz-adv-x="454" d="M217 505q90 0 136.5 -48t46.5 -142v-139q0 -92 -47 -140t-138 -48q-83 0 -128.5 39.5t-45.5 110.5q0 70 46 109t130 39h122v19q0 76 -31 111.5t-96 35.5q-63 0 -110 -47q-11 -11 -20 1l-17 22q-9 11 1 21q62 56 151 56zM215 41q64 0 94 35t30 109v50h-115q-58 0 -90 -25 t-32 -72t29.5 -72t83.5 -25zM287 584q-22 -22 -56 -22t-57 22q-22 23 -22 57t22 56q23 23 57 23t56 -23q23 -22 23 -56t-23 -57zM206 615q10 -10 25 -10t25 10q10 11 10 26t-10 25q-15 16 -34.5 9t-24.5 -25t9 -35z" />
<glyph unicode="&#xe6;" horiz-adv-x="741" d="M526 505q84 0 129 -48t45 -139v-71q0 -15 -15 -15h-285v-44q0 -77 33 -112t104 -35q61 0 109 51q10 10 21 0l17 -19q9 -11 0 -22q-60 -63 -147 -63q-127 0 -166 94h-1q-34 -94 -161 -94q-79 0 -123.5 39.5t-44.5 109.5t45.5 108t130.5 38h122v22q0 76 -31 111.5t-96 35.5 q-63 0 -110 -47q-11 -11 -20 1l-17 22q-9 11 1 21q65 56 148 56q118 0 156 -92h1q33 92 155 92zM400 283h242v26q0 74 -29.5 108.5t-91.5 34.5t-91.5 -34.5t-29.5 -108.5v-26zM215 41q64 0 94 35t30 109v47h-115q-58 0 -90 -24t-32 -71t29.5 -71.5t83.5 -24.5z" />
<glyph unicode="&#xe7;" horiz-adv-x="409" d="M365 84l15 -17q10 -11 -1 -22q-51 -53 -130 -57l-8 -38q34 -1 53 -16t19 -41q0 -31 -23 -48t-64 -17q-44 0 -75 19q-8 6 -4 16l8 16q6 10 16 4q26 -14 51 -14q21 0 33 7.5t12 19.5q0 27 -58 27q-13 0 -10 13l11 53q-76 8 -116.5 56t-40.5 134v136q0 92 47 141 q46 49 135 49q88 0 136 -48q11 -9 1 -21l-15 -18q-10 -13 -22 -1q-37 35 -96 35q-64 0 -94.5 -35.5t-30.5 -111.5v-117q0 -76 31.5 -111.5t97.5 -35.5q58 0 100 43q11 14 22 0z" />
<glyph unicode="&#xe8;" horiz-adv-x="454" d="M413 318v-76q0 -15 -15 -15h-284v-39q0 -77 32.5 -112t103.5 -35q62 0 110 51q10 14 21 0l17 -19q9 -11 0 -22q-60 -63 -151 -63q-194 0 -194 191v139q0 91 46 139t134 48t134 -47.5t46 -139.5zM114 278h241v31q0 74 -29.5 108.5t-91.5 34.5t-91 -35t-29 -108v-31z M256 567h-29q-11 0 -16 8l-87 123q-5 7 -2.5 12t11.5 5h35q11 0 17 -9l80 -123q9 -16 -9 -16z" />
<glyph unicode="&#xe9;" horiz-adv-x="454" d="M413 318v-76q0 -15 -15 -15h-284v-39q0 -77 32.5 -112t103.5 -35q62 0 110 51q10 14 21 0l17 -19q9 -11 0 -22q-60 -63 -151 -63q-194 0 -194 191v139q0 91 46 139t134 48t134 -47.5t46 -139.5zM114 278h241v31q0 74 -29.5 108.5t-91.5 34.5t-91 -35t-29 -108v-31z M346 698l-87 -123q-5 -8 -16 -8h-29q-18 0 -9 16l80 123q6 9 17 9h35q9 0 11.5 -5t-2.5 -12z" />
<glyph unicode="&#xea;" horiz-adv-x="454" d="M413 318v-76q0 -15 -15 -15h-284v-39q0 -77 32.5 -112t103.5 -35q62 0 110 51q10 14 21 0l17 -19q9 -11 0 -22q-60 -63 -151 -63q-194 0 -194 191v139q0 91 46 139t134 48t134 -47.5t46 -139.5zM114 278h241v31q0 74 -29.5 108.5t-91.5 34.5t-91 -35t-29 -108v-31z M301 575l-67 95l-67 -95q-5 -8 -16 -8h-27q-8 0 -10.5 4.5t2.5 11.5l86 123q6 9 17 9h31q11 0 17 -9l85 -123q5 -7 2.5 -11.5t-10.5 -4.5h-27q-11 0 -16 8z" />
<glyph unicode="&#xeb;" horiz-adv-x="454" d="M413 318v-76q0 -15 -15 -15h-284v-39q0 -77 32.5 -112t103.5 -35q62 0 110 51q10 14 21 0l17 -19q9 -11 0 -22q-60 -63 -151 -63q-194 0 -194 191v139q0 91 46 139t134 48t134 -47.5t46 -139.5zM114 278h241v31q0 74 -29.5 108.5t-91.5 34.5t-91 -35t-29 -108v-31z M155 595q-25 0 -35 20t0 40t35 20q24 2 34.5 -19t0 -42t-34.5 -19zM315 595q-24 -2 -34.5 19t0 42t34.5 19q25 0 35 -20t0 -40t-35 -20z" />
<glyph unicode="&#xec;" horiz-adv-x="207" d="M127 567h-29q-11 0 -16 8l-87 123q-5 7 -2.5 12t11.5 5h35q11 0 17 -9l80 -123q9 -16 -9 -16zM137 478v-463q0 -15 -15 -15h-31q-15 0 -15 15v463q0 15 15 15h31q15 0 15 -15z" />
<glyph unicode="&#xed;" horiz-adv-x="207" d="M216 698l-87 -123q-5 -8 -16 -8h-29q-18 0 -9 16l80 123q6 9 17 9h35q9 0 11.5 -5t-2.5 -12zM136 478v-463q0 -15 -15 -15h-31q-15 0 -15 15v463q0 15 15 15h31q15 0 15 -15z" />
<glyph unicode="&#xee;" horiz-adv-x="207" d="M172 575l-67 95l-67 -95q-5 -8 -16 -8h-27q-8 0 -10.5 4.5t2.5 11.5l86 123q6 9 17 9h31q11 0 17 -9l85 -123q5 -7 2.5 -11.5t-10.5 -4.5h-27q-11 0 -16 8zM137 478v-463q0 -15 -15 -15h-31q-15 0 -15 15v463q0 15 15 15h31q15 0 15 -15z" />
<glyph unicode="&#xef;" horiz-adv-x="207" d="M23 595q-25 0 -35 20t0 40t35 20q24 2 34.5 -19t0 -42t-34.5 -19zM183 595q-24 -2 -34.5 19t0 42t34.5 19q25 0 35 -20t0 -40t-35 -20zM134 478v-463q0 -15 -15 -15h-31q-15 0 -15 15v463q0 15 15 15h31q15 0 15 -15z" />
<glyph unicode="&#xf0;" horiz-adv-x="482" d="M354 670l-37 -31q103 -88 103 -314v-149q0 -92 -47 -140t-136 -48q-90 0 -137 48t-47 140v136q0 91 44.5 139t130.5 48q80 0 121 -53h1q-18 105 -78 156l-58 -49q-11 -9 -20 2l-14 17q-8 10 2 20l45 38q-46 21 -111 28q-14 2 -13 16l3 24q1 16 17 14q88 -9 151 -43l48 40 q11 9 20 -2l14 -17q8 -10 -2 -20zM359 185v117q0 144 -122 144q-64 0 -93.5 -35t-29.5 -109v-117q0 -74 29.5 -109t93.5 -35q63 0 92.5 35t29.5 109z" />
<glyph unicode="&#xf1;" horiz-adv-x="494" d="M138 581h-17q-15 0 -13 14q7 44 29 67.5t56 23.5q32 0 68 -33q26 -23 42 -23q30 0 39 43q3 12 14 12h17q15 0 13 -14q-7 -44 -29 -67.5t-56 -23.5q-32 0 -68 33q-26 23 -42 23q-30 0 -39 -43q-3 -12 -14 -12zM366 15v298q0 71 -29 105t-90 34t-90 -34t-29 -105v-298 q0 -15 -15 -15h-31q-15 0 -15 15v307q0 90 46 136.5t134 46.5q180 0 180 -183v-307q0 -15 -15 -15h-31q-15 0 -15 15z" />
<glyph unicode="&#xf2;" horiz-adv-x="473" d="M237 505q89 0 136 -48t47 -139v-143q0 -91 -47 -139t-136 -48q-90 0 -137 48t-47 139v143q0 91 47 139t137 48zM359 185v124q0 74 -29.5 108.5t-92.5 34.5q-64 0 -93.5 -34.5t-29.5 -108.5v-124q0 -74 29.5 -109t93.5 -35q63 0 92.5 35t29.5 109zM258 567h-29 q-11 0 -16 8l-87 123q-5 7 -2.5 12t11.5 5h35q11 0 17 -9l80 -123q9 -16 -9 -16z" />
<glyph unicode="&#xf3;" horiz-adv-x="473" d="M237 505q89 0 136 -48t47 -139v-143q0 -91 -47 -139t-136 -48q-90 0 -137 48t-47 139v143q0 91 47 139t137 48zM359 185v124q0 74 -29.5 108.5t-92.5 34.5q-64 0 -93.5 -34.5t-29.5 -108.5v-124q0 -74 29.5 -109t93.5 -35q63 0 92.5 35t29.5 109zM348 698l-87 -123 q-5 -8 -16 -8h-29q-18 0 -9 16l80 123q6 9 17 9h35q9 0 11.5 -5t-2.5 -12z" />
<glyph unicode="&#xf4;" horiz-adv-x="473" d="M303 575l-67 95l-67 -95q-5 -8 -16 -8h-27q-8 0 -10.5 4.5t2.5 11.5l86 123q6 9 17 9h31q11 0 17 -9l85 -123q5 -7 2.5 -11.5t-10.5 -4.5h-27q-11 0 -16 8zM237 505q89 0 136 -48t47 -139v-143q0 -91 -47 -139t-136 -48q-90 0 -137 48t-47 139v143q0 91 47 139t137 48z M359 185v124q0 74 -29.5 108.5t-92.5 34.5q-64 0 -93.5 -34.5t-29.5 -108.5v-124q0 -74 29.5 -109t93.5 -35q63 0 92.5 35t29.5 109z" />
<glyph unicode="&#xf5;" horiz-adv-x="473" d="M128 581h-17q-15 0 -13 14q7 44 29 67.5t56 23.5q32 0 68 -33q26 -23 42 -23q30 0 39 43q3 12 14 12h17q15 0 13 -14q-7 -44 -29 -67.5t-56 -23.5q-32 0 -68 33q-26 23 -42 23q-30 0 -39 -43q-3 -12 -14 -12zM237 505q89 0 136 -48t47 -139v-143q0 -91 -47 -139t-136 -48 q-90 0 -137 48t-47 139v143q0 91 47 139t137 48zM359 185v124q0 74 -29.5 108.5t-92.5 34.5q-64 0 -93.5 -34.5t-29.5 -108.5v-124q0 -74 29.5 -109t93.5 -35q63 0 92.5 35t29.5 109z" />
<glyph unicode="&#xf6;" horiz-adv-x="473" d="M237 505q89 0 136 -48t47 -139v-143q0 -91 -47 -139t-136 -48q-90 0 -137 48t-47 139v143q0 91 47 139t137 48zM359 185v124q0 74 -29.5 108.5t-92.5 34.5q-64 0 -93.5 -34.5t-29.5 -108.5v-124q0 -74 29.5 -109t93.5 -35q63 0 92.5 35t29.5 109zM157 595q-25 0 -35 20 t0 40t35 20q24 2 34.5 -19t0 -42t-34.5 -19zM317 595q-24 -2 -34.5 19t0 42t34.5 19q25 0 35 -20t0 -40t-35 -20z" />
<glyph unicode="&#xf7;" horiz-adv-x="529" d="M221 478q0 18 12 30.5t31 12.5t31 -12.5t12 -30.5q2 -26 -20.5 -37t-45 0t-20.5 37zM492 251h-456q-15 0 -15 15v26q0 15 15 15h456q15 0 15 -15v-26q0 -15 -15 -15zM221 80q-2 26 20.5 37t45 0t20.5 -37q0 -18 -12 -30.5t-31 -12.5t-31 12.5t-12 30.5z" />
<glyph unicode="&#xf8;" horiz-adv-x="473" d="M418 465l-22 -33q27 -44 27 -114v-143q0 -91 -47 -139t-136 -48q-75 0 -122 35l-16 -24q-7 -11 -20 -4l-18 14q-11 8 -3 19l22 33q-27 43 -27 114v143q0 91 47 139t137 48q75 0 121 -34l16 23q7 11 20 4l18 -14q11 -8 3 -19zM117 309v-124q0 -39 7 -63h1l203 300 q-30 30 -88 30q-64 0 -93.5 -34.5t-29.5 -108.5zM362 185v124q0 38 -7 62h-1l-203 -300q30 -30 89 -30q63 0 92.5 35t29.5 109z" />
<glyph unicode="&#xf9;" horiz-adv-x="488" d="M421 478v-310q0 -88 -45 -134t-132 -46q-86 0 -131.5 46t-45.5 134v310q0 15 15 15h31q15 0 15 -15v-301q0 -70 28.5 -103t88.5 -33t88.5 33t28.5 103v301q0 15 15 15h29q15 0 15 -15zM265 567h-29q-11 0 -16 8l-87 123q-5 7 -2.5 12t11.5 5h35q11 0 17 -9l80 -123 q9 -16 -9 -16z" />
<glyph unicode="&#xfa;" horiz-adv-x="488" d="M421 478v-310q0 -88 -45 -134t-132 -46q-86 0 -131.5 46t-45.5 134v310q0 15 15 15h31q15 0 15 -15v-301q0 -70 28.5 -103t88.5 -33t88.5 33t28.5 103v301q0 15 15 15h29q15 0 15 -15zM355 698l-87 -123q-5 -8 -16 -8h-29q-18 0 -9 16l80 123q6 9 17 9h35q9 0 11.5 -5 t-2.5 -12z" />
<glyph unicode="&#xfb;" horiz-adv-x="488" d="M310 575l-67 95l-67 -95q-5 -8 -16 -8h-27q-8 0 -10.5 4.5t2.5 11.5l86 123q6 9 17 9h31q11 0 17 -9l85 -123q5 -7 2.5 -11.5t-10.5 -4.5h-27q-11 0 -16 8zM421 478v-310q0 -88 -45 -134t-132 -46q-86 0 -131.5 46t-45.5 134v310q0 15 15 15h31q15 0 15 -15v-301 q0 -70 28.5 -103t88.5 -33t88.5 33t28.5 103v301q0 15 15 15h29q15 0 15 -15z" />
<glyph unicode="&#xfc;" horiz-adv-x="488" d="M421 478v-310q0 -88 -45 -134t-132 -46q-86 0 -131.5 46t-45.5 134v310q0 15 15 15h31q15 0 15 -15v-301q0 -70 28.5 -103t88.5 -33t88.5 33t28.5 103v301q0 15 15 15h29q15 0 15 -15zM164 595q-25 0 -35 20t0 40t35 20q24 2 34.5 -19t0 -42t-34.5 -19zM324 595 q-24 -2 -34.5 19t0 42t34.5 19q25 0 35 -20t0 -40t-35 -20z" />
<glyph unicode="&#xfd;" horiz-adv-x="500" d="M427 478v-477q0 -81 -48.5 -127t-133.5 -46q-98 0 -161 57q-10 10 -2 21l15 20q10 13 21 2q52 -47 124 -47q60 0 92 33t32 95v54h-1q-37 -61 -128 -61q-83 0 -126.5 47t-43.5 136v293q0 15 15 15h31q15 0 15 -15v-283q0 -72 29 -106t90 -34q119 0 119 140v283q0 15 15 15 h31q15 0 15 -15zM358 698l-87 -123q-5 -8 -16 -8h-29q-18 0 -9 16l80 123q6 9 17 9h35q9 0 11.5 -5t-2.5 -12z" />
<glyph unicode="&#xfe;" horiz-adv-x="493" d="M264 505q175 0 175 -187v-143q0 -187 -175 -187q-90 0 -129 63h-1v-196q0 -15 -15 -15h-31q-15 0 -15 15v830q0 15 15 15h31q15 0 15 -15v-243h1q39 63 129 63zM378 185v124q0 143 -122 143t-122 -143v-124q0 -144 122 -144t122 144z" />
<glyph unicode="&#xff;" horiz-adv-x="500" d="M427 478v-477q0 -81 -48.5 -127t-133.5 -46q-98 0 -161 57q-10 10 -2 21l15 20q10 13 21 2q52 -47 124 -47q60 0 92 33t32 95v54h-1q-37 -61 -128 -61q-83 0 -126.5 47t-43.5 136v293q0 15 15 15h31q15 0 15 -15v-283q0 -72 29 -106t90 -34q119 0 119 140v283q0 15 15 15 h31q15 0 15 -15zM167 595q-25 0 -35 20t0 40t35 20q24 2 34.5 -19t0 -42t-34.5 -19zM327 595q-24 -2 -34.5 19t0 42t34.5 19q25 0 35 -20t0 -40t-35 -20z" />
<glyph unicode="&#x100;" horiz-adv-x="581" d="M444 151h-295l-47 -139q-4 -12 -17 -12h-36q-20 0 -12 17l222 635q5 12 17 12h43q13 0 17 -12l222 -635q8 -17 -12 -17h-38q-12 0 -17 12zM296 584l-127 -376h256l-128 376h-1zM425 806v-22q0 -14 -14 -14h-227q-14 0 -14 14v22q0 14 14 14h227q14 0 14 -14z" />
<glyph unicode="&#x101;" horiz-adv-x="454" d="M217 505q90 0 136.5 -48t46.5 -142v-139q0 -92 -47 -140t-138 -48q-83 0 -128.5 39.5t-45.5 110.5q0 70 46 109t130 39h122v19q0 76 -31 111.5t-96 35.5q-63 0 -110 -47q-11 -11 -20 1l-17 22q-9 11 1 21q62 56 151 56zM215 41q64 0 94 35t30 109v50h-115q-58 0 -90 -25 t-32 -72t29.5 -72t83.5 -25zM358 641v-22q0 -14 -14 -14h-227q-14 0 -14 14v22q0 14 14 14h227q14 0 14 -14z" />
<glyph unicode="&#x102;" horiz-adv-x="581" d="M444 151h-295l-47 -139q-4 -12 -17 -12h-36q-20 0 -12 17l222 635q5 12 17 12h43q13 0 17 -12l222 -635q8 -17 -12 -17h-38q-12 0 -17 12zM296 584l-127 -376h256l-128 376h-1zM390 859h19q14 0 12 -14q-7 -46 -40 -72t-83 -26t-83 26t-40 72q-2 14 12 14h19q11 0 14 -12 q13 -52 78 -52t78 52q3 12 14 12z" />
<glyph unicode="&#x103;" horiz-adv-x="454" d="M217 505q90 0 136.5 -48t46.5 -142v-139q0 -92 -47 -140t-138 -48q-83 0 -128.5 39.5t-45.5 110.5q0 70 46 109t130 39h122v19q0 76 -31 111.5t-96 35.5q-63 0 -110 -47q-11 -11 -20 1l-17 22q-9 11 1 21q62 56 151 56zM215 41q64 0 94 35t30 109v50h-115q-58 0 -90 -25 t-32 -72t29.5 -72t83.5 -25zM323 694h19q14 0 12 -14q-7 -46 -40 -72t-83 -26t-83 26t-40 72q-2 14 12 14h19q11 0 14 -12q13 -52 78 -52t78 52q3 12 14 12z" />
<glyph unicode="&#x104;" horiz-adv-x="581" d="M564 -112l12 -14q7 -9 -1 -17q-32 -29 -75 -29q-37 0 -59.5 20t-22.5 54q0 68 73 111l-47 138h-295l-47 -139q-4 -12 -17 -12h-36q-20 0 -12 17l222 635q5 12 17 12h43q13 0 17 -12l222 -635q8 -17 -12 -17h-9q-74 -35 -74 -88q0 -17 12 -29t30 -12q24 0 42 18q9 9 17 -1 zM297 584h-1l-127 -376h256z" />
<glyph unicode="&#x105;" horiz-adv-x="454" d="M400 315v-139q0 -120 -81 -166q-73 -40 -73 -98q0 -18 11.5 -29.5t32.5 -11.5q22 0 39 17q9 9 18 -1l10 -12q7 -10 -1 -19q-29 -28 -70 -28q-40 0 -63 21t-23 56q0 46 34 83v1q-5 -1 -19 -1q-83 0 -128.5 39.5t-45.5 110.5q0 70 46 109t130 39h122v19q0 76 -31 111.5 t-96 35.5q-63 0 -110 -47q-11 -11 -20 1l-17 22q-9 11 1 21q62 56 151 56q90 0 136.5 -48t46.5 -142zM339 185v50h-115q-58 0 -90 -25t-32 -72t29.5 -72t83.5 -25q64 0 94 35t30 109z" />
<glyph unicode="&#x106;" horiz-adv-x="531" d="M287 45q110 0 158 92q6 13 20 7l25 -14q13 -7 7 -20q-60 -122 -210 -122q-112 0 -170 61t-58 179v208q0 118 58 179t170 61q150 0 210 -122q6 -13 -7 -20l-25 -14q-14 -6 -20 7q-48 92 -158 92q-163 0 -163 -194v-186q0 -194 163 -194zM394 863l-87 -123q-5 -8 -16 -8 h-29q-18 0 -9 16l80 123q6 9 17 9h35q9 0 11.5 -5t-2.5 -12z" />
<glyph unicode="&#x107;" horiz-adv-x="409" d="M365 84l15 -17q10 -11 -1 -22q-55 -57 -141 -57q-90 0 -137.5 49t-47.5 142v136q0 92 47 141q46 49 135 49q88 0 136 -48q11 -9 1 -21l-15 -18q-10 -13 -22 -1q-37 35 -96 35q-64 0 -94.5 -35.5t-30.5 -111.5v-117q0 -76 31.5 -111.5t97.5 -35.5q58 0 100 43q11 14 22 0z M335 698l-87 -123q-5 -8 -16 -8h-29q-18 0 -9 16l80 123q6 9 17 9h35q9 0 11.5 -5t-2.5 -12z" />
<glyph unicode="&#x108;" horiz-adv-x="531" d="M349 740l-67 95l-67 -95q-5 -8 -16 -8h-27q-8 0 -10.5 4.5t2.5 11.5l86 123q6 9 17 9h31q11 0 17 -9l85 -123q5 -7 2.5 -11.5t-10.5 -4.5h-27q-11 0 -16 8zM287 45q110 0 158 92q6 13 20 7l25 -14q13 -7 7 -20q-60 -122 -210 -122q-112 0 -170 61t-58 179v208 q0 118 58 179t170 61q150 0 210 -122q6 -13 -7 -20l-25 -14q-14 -6 -20 7q-48 92 -158 92q-163 0 -163 -194v-186q0 -194 163 -194z" />
<glyph unicode="&#x109;" horiz-adv-x="409" d="M290 575l-67 95l-67 -95q-5 -8 -16 -8h-27q-8 0 -10.5 4.5t2.5 11.5l86 123q6 9 17 9h31q11 0 17 -9l85 -123q5 -7 2.5 -11.5t-10.5 -4.5h-27q-11 0 -16 8zM365 84l15 -17q10 -11 -1 -22q-55 -57 -141 -57q-90 0 -137.5 49t-47.5 142v136q0 92 47 141q46 49 135 49 q88 0 136 -48q11 -9 1 -21l-15 -18q-10 -13 -22 -1q-37 35 -96 35q-64 0 -94.5 -35.5t-30.5 -111.5v-117q0 -76 31.5 -111.5t97.5 -35.5q58 0 100 43q11 14 22 0z" />
<glyph unicode="&#x10a;" horiz-adv-x="531" d="M287 45q110 0 158 92q6 13 20 7l25 -14q13 -7 7 -20q-60 -122 -210 -122q-112 0 -170 61t-58 179v208q0 118 58 179t170 61q150 0 210 -122q6 -13 -7 -20l-25 -14q-14 -6 -20 7q-48 92 -158 92q-163 0 -163 -194v-186q0 -194 163 -194zM313 770q-12 -12 -30 -12t-30 12 t-12 30t12 30t30 12t30 -12t12 -30t-12 -30z" />
<glyph unicode="&#x10b;" horiz-adv-x="409" d="M365 84l15 -17q10 -11 -1 -22q-55 -57 -141 -57q-90 0 -137.5 49t-47.5 142v136q0 92 47 141q46 49 135 49q88 0 136 -48q11 -9 1 -21l-15 -18q-10 -13 -22 -1q-37 35 -96 35q-64 0 -94.5 -35.5t-30.5 -111.5v-117q0 -76 31.5 -111.5t97.5 -35.5q58 0 100 43q11 14 22 0z M254 605q-12 -12 -30 -12t-30 12t-12 30t12 30t30 12t30 -12t12 -30t-12 -30z" />
<glyph unicode="&#x10c;" horiz-adv-x="531" d="M400 864l-85 -123q-6 -9 -17 -9h-31q-11 0 -17 9l-86 123q-5 7 -2.5 11.5t10.5 4.5h27q11 0 16 -8l67 -95l67 95q5 8 16 8h27q8 0 10.5 -4.5t-2.5 -11.5zM287 45q110 0 158 92q6 13 20 7l25 -14q13 -7 7 -20q-60 -122 -210 -122q-112 0 -170 61t-58 179v208q0 118 58 179 t170 61q150 0 210 -122q6 -13 -7 -20l-25 -14q-14 -6 -20 7q-48 92 -158 92q-163 0 -163 -194v-186q0 -194 163 -194z" />
<glyph unicode="&#x10d;" horiz-adv-x="409" d="M341 699l-85 -123q-6 -9 -17 -9h-31q-11 0 -17 9l-86 123q-5 7 -2.5 11.5t10.5 4.5h27q11 0 16 -8l67 -95l67 95q5 8 16 8h27q8 0 10.5 -4.5t-2.5 -11.5zM365 84l15 -17q10 -11 -1 -22q-55 -57 -141 -57q-90 0 -137.5 49t-47.5 142v136q0 92 47 141q46 49 135 49 q88 0 136 -48q11 -9 1 -21l-15 -18q-10 -13 -22 -1q-37 35 -96 35q-64 0 -94.5 -35.5t-30.5 -111.5v-117q0 -76 31.5 -111.5t97.5 -35.5q58 0 100 43q11 14 22 0z" />
<glyph unicode="&#x10e;" horiz-adv-x="590" d="M398 864l-85 -123q-6 -9 -17 -9h-31q-11 0 -17 9l-86 123q-5 7 -2.5 11.5t10.5 4.5h27q11 0 16 -8l67 -95l67 95q5 8 16 8h27q8 0 10.5 -4.5t-2.5 -11.5zM99 664h199q233 0 233 -227v-210q0 -227 -233 -227h-199q-15 0 -15 15v634q0 15 15 15zM466 238v188 q0 92 -42 136.5t-129 44.5h-146v-550h146q87 0 129 44.5t42 136.5z" />
<glyph unicode="&#x10f;" horiz-adv-x="487" d="M420 685v-509q0 -92 -47 -140t-136 -48q-90 0 -137 48t-47 140v142q0 91 44.5 139t130.5 48q91 0 130 -61h1v241q0 15 15 15h31q15 0 15 -15zM359 185v124q0 143 -122 143q-64 0 -93.5 -34.5t-29.5 -108.5v-124q0 -74 29.5 -109t93.5 -35q63 0 92.5 35t29.5 109zM543 685 l-27 -162q-2 -12 -14 -12h-19q-14 0 -12 14l18 162q1 13 15 13h27q15 0 12 -15z" />
<glyph unicode="&#x110;" horiz-adv-x="600" d="M109 664h199q233 0 233 -227v-210q0 -227 -233 -227h-199q-15 0 -15 15v293h-55q-15 0 -15 15v27q0 15 15 15h55v284q0 15 15 15zM476 238v188q0 92 -42 136.5t-129 44.5h-146v-242h139q15 0 15 -15v-27q0 -15 -15 -15h-139v-251h146q87 0 129 44.5t42 136.5z" />
<glyph unicode="&#x111;" horiz-adv-x="490" d="M420 685v-72h51q14 0 14 -14v-23q0 -14 -14 -14h-51v-386q0 -92 -47 -140t-136 -48q-90 0 -137 48t-47 140v142q0 91 44.5 139t130.5 48q91 0 130 -61h1v118h-138q-14 0 -14 14v23q0 14 14 14h138v72q0 15 15 15h31q15 0 15 -15zM359 185v124q0 143 -122 143 q-64 0 -93.5 -34.5t-29.5 -108.5v-124q0 -74 29.5 -109t93.5 -35q63 0 92.5 35t29.5 109z" />
<glyph unicode="&#x112;" horiz-adv-x="538" d="M149 607v-243h284q15 0 15 -15v-27q0 -15 -15 -15h-284v-250h328q15 0 15 -15v-27q0 -15 -15 -15h-378q-15 0 -15 15v634q0 15 15 15h378q15 0 15 -15v-27q0 -15 -15 -15h-328zM415 806v-22q0 -14 -14 -14h-227q-14 0 -14 14v22q0 14 14 14h227q14 0 14 -14z" />
<glyph unicode="&#x113;" horiz-adv-x="454" d="M413 318v-76q0 -15 -15 -15h-284v-39q0 -77 32.5 -112t103.5 -35q62 0 110 51q10 14 21 0l17 -19q9 -11 0 -22q-60 -63 -151 -63q-194 0 -194 191v139q0 91 46 139t134 48t134 -47.5t46 -139.5zM114 278h241v31q0 74 -29.5 108.5t-91.5 34.5t-91 -35t-29 -108v-31z M362 641v-22q0 -14 -14 -14h-227q-14 0 -14 14v22q0 14 14 14h227q14 0 14 -14z" />
<glyph unicode="&#x114;" horiz-adv-x="538" d="M149 607v-243h284q15 0 15 -15v-27q0 -15 -15 -15h-284v-250h328q15 0 15 -15v-27q0 -15 -15 -15h-378q-15 0 -15 15v634q0 15 15 15h378q15 0 15 -15v-27q0 -15 -15 -15h-328zM380 859h19q14 0 12 -14q-7 -46 -40 -72t-83 -26t-83 26t-40 72q-2 14 12 14h19q11 0 14 -12 q13 -52 78 -52t78 52q3 12 14 12z" />
<glyph unicode="&#x115;" horiz-adv-x="454" d="M413 318v-76q0 -15 -15 -15h-284v-39q0 -77 32.5 -112t103.5 -35q62 0 110 51q10 14 21 0l17 -19q9 -11 0 -22q-60 -63 -151 -63q-194 0 -194 191v139q0 91 46 139t134 48t134 -47.5t46 -139.5zM114 278h241v31q0 74 -29.5 108.5t-91.5 34.5t-91 -35t-29 -108v-31z M327 694h19q14 0 12 -14q-7 -46 -40 -72t-83 -26t-83 26t-40 72q-2 14 12 14h19q11 0 14 -12q13 -52 78 -52t78 52q3 12 14 12z" />
<glyph unicode="&#x116;" horiz-adv-x="538" d="M149 607v-243h284q15 0 15 -15v-27q0 -15 -15 -15h-284v-250h328q15 0 15 -15v-27q0 -15 -15 -15h-378q-15 0 -15 15v634q0 15 15 15h378q15 0 15 -15v-27q0 -15 -15 -15h-328zM318 770q-12 -12 -30 -12t-30 12t-12 30t12 30t30 12t30 -12t12 -30t-12 -30z" />
<glyph unicode="&#x117;" horiz-adv-x="454" d="M413 318v-76q0 -15 -15 -15h-284v-39q0 -77 32.5 -112t103.5 -35q62 0 110 51q10 14 21 0l17 -19q9 -11 0 -22q-60 -63 -151 -63q-194 0 -194 191v139q0 91 46 139t134 48t134 -47.5t46 -139.5zM114 278h241v31q0 74 -29.5 108.5t-91.5 34.5t-91 -35t-29 -108v-31z M265 605q-12 -12 -30 -12t-30 12t-12 30t12 30t30 12t30 -12t12 -30t-12 -30z" />
<glyph unicode="&#x118;" horiz-adv-x="538" d="M479 -112l12 -14q7 -9 -1 -17q-32 -29 -75 -29q-38 0 -60 19t-22 53q0 62 57 99v1h-291q-15 0 -15 15v634q0 15 15 15h378q15 0 15 -15v-27q0 -15 -15 -15h-328v-243h284q15 0 15 -15v-27q0 -15 -15 -15h-284v-250h328q15 0 15 -15v-27q0 -15 -15 -15h-10 q-89 -32 -89 -89q0 -17 12 -28.5t30 -11.5q25 0 42 17q9 9 17 0z" />
<glyph unicode="&#x119;" horiz-adv-x="454" d="M413 318v-76q0 -15 -15 -15h-284v-39q0 -77 32.5 -112t103.5 -35q62 0 110 51q10 14 21 0l17 -19q9 -11 0 -22q-23 -25 -57 -43q-70 -39 -70 -96q0 -18 11.5 -29.5t32.5 -11.5q22 0 39 17q9 9 18 -1l10 -12q7 -11 -1 -19q-29 -28 -70 -28q-40 0 -63 21t-23 56q0 45 34 82 v1h-12q-194 0 -194 191v139q0 91 46 139t134 48t134 -47.5t46 -139.5zM114 278h241v31q0 74 -29.5 108.5t-91.5 34.5t-91 -35t-29 -108v-31z" />
<glyph unicode="&#x11a;" horiz-adv-x="538" d="M405 864l-85 -123q-6 -9 -17 -9h-31q-11 0 -17 9l-86 123q-5 7 -2.5 11.5t10.5 4.5h27q11 0 16 -8l67 -95l67 95q5 8 16 8h27q8 0 10.5 -4.5t-2.5 -11.5zM149 607v-243h284q15 0 15 -15v-27q0 -15 -15 -15h-284v-250h328q15 0 15 -15v-27q0 -15 -15 -15h-378 q-15 0 -15 15v634q0 15 15 15h378q15 0 15 -15v-27q0 -15 -15 -15h-328z" />
<glyph unicode="&#x11b;" horiz-adv-x="454" d="M413 318v-76q0 -15 -15 -15h-284v-39q0 -77 32.5 -112t103.5 -35q62 0 110 51q10 14 21 0l17 -19q9 -11 0 -22q-60 -63 -151 -63q-194 0 -194 191v139q0 91 46 139t134 48t134 -47.5t46 -139.5zM114 278h241v31q0 74 -29.5 108.5t-91.5 34.5t-91 -35t-29 -108v-31z M352 699l-85 -123q-6 -9 -17 -9h-31q-11 0 -17 9l-86 123q-5 7 -2.5 11.5t10.5 4.5h27q11 0 16 -8l67 -95l67 95q5 8 16 8h27q8 0 10.5 -4.5t-2.5 -11.5z" />
<glyph unicode="&#x11c;" horiz-adv-x="569" d="M520 331v-101q0 -119 -58.5 -180.5t-171.5 -61.5t-172 61t-59 179v208q0 118 59.5 179t173.5 61q153 0 215 -122q6 -13 -7 -20l-25 -14q-14 -6 -21 7q-48 92 -162 92q-168 0 -168 -194v-186q0 -194 167 -194t167 196v48h-145q-15 0 -15 15v27q0 15 15 15h192q15 0 15 -15 zM353 740l-67 95l-67 -95q-5 -8 -16 -8h-27q-8 0 -10.5 4.5t2.5 11.5l86 123q6 9 17 9h31q11 0 17 -9l85 -123q5 -7 2.5 -11.5t-10.5 -4.5h-27q-11 0 -16 8z" />
<glyph unicode="&#x11d;" horiz-adv-x="487" d="M237 505q89 0 136 -48t47 -139v-317q0 -81 -48.5 -127t-133.5 -46q-99 0 -162 57q-10 10 -2 21l15 20q10 13 21 2q52 -47 125 -47q60 0 92 33t32 95v54h-1q-39 -61 -130 -61q-86 0 -130.5 48t-44.5 139v129q0 91 47 139t137 48zM237 55q122 0 122 144v110 q0 74 -29.5 108.5t-92.5 34.5q-64 0 -93.5 -34.5t-29.5 -108.5v-110q0 -74 29.5 -109t93.5 -35zM303 575l-67 95l-67 -95q-5 -8 -16 -8h-27q-8 0 -10.5 4.5t2.5 11.5l86 123q6 9 17 9h31q11 0 17 -9l85 -123q5 -7 2.5 -11.5t-10.5 -4.5h-27q-11 0 -16 8z" />
<glyph unicode="&#x11e;" horiz-adv-x="569" d="M520 331v-101q0 -119 -58.5 -180.5t-171.5 -61.5t-172 61t-59 179v208q0 118 59.5 179t173.5 61q153 0 215 -122q6 -13 -7 -20l-25 -14q-14 -6 -21 7q-48 92 -162 92q-168 0 -168 -194v-186q0 -194 167 -194t167 196v48h-145q-15 0 -15 15v27q0 15 15 15h192q15 0 15 -15 zM379 859h19q14 0 12 -14q-7 -46 -40 -72t-83 -26t-83 26t-40 72q-2 14 12 14h19q11 0 14 -12q13 -52 78 -52t78 52q3 12 14 12z" />
<glyph unicode="&#x11f;" horiz-adv-x="487" d="M237 505q89 0 136 -48t47 -139v-317q0 -81 -48.5 -127t-133.5 -46q-99 0 -162 57q-10 10 -2 21l15 20q10 13 21 2q52 -47 125 -47q60 0 92 33t32 95v54h-1q-39 -61 -130 -61q-86 0 -130.5 48t-44.5 139v129q0 91 47 139t137 48zM237 55q122 0 122 144v110 q0 74 -29.5 108.5t-92.5 34.5q-64 0 -93.5 -34.5t-29.5 -108.5v-110q0 -74 29.5 -109t93.5 -35zM329 694h19q14 0 12 -14q-7 -46 -40 -72t-83 -26t-83 26t-40 72q-2 14 12 14h19q11 0 14 -12q13 -52 78 -52t78 52q3 12 14 12z" />
<glyph unicode="&#x120;" horiz-adv-x="569" d="M520 331v-101q0 -119 -58.5 -180.5t-171.5 -61.5t-172 61t-59 179v208q0 118 59.5 179t173.5 61q153 0 215 -122q6 -13 -7 -20l-25 -14q-14 -6 -21 7q-48 92 -162 92q-168 0 -168 -194v-186q0 -194 167 -194t167 196v48h-145q-15 0 -15 15v27q0 15 15 15h192q15 0 15 -15 zM317 770q-12 -12 -30 -12t-30 12t-12 30t12 30t30 12t30 -12t12 -30t-12 -30z" />
<glyph unicode="&#x121;" horiz-adv-x="487" d="M237 505q89 0 136 -48t47 -139v-317q0 -81 -48.5 -127t-133.5 -46q-99 0 -162 57q-10 10 -2 21l15 20q10 13 21 2q52 -47 125 -47q60 0 92 33t32 95v54h-1q-39 -61 -130 -61q-86 0 -130.5 48t-44.5 139v129q0 91 47 139t137 48zM237 55q122 0 122 144v110 q0 74 -29.5 108.5t-92.5 34.5q-64 0 -93.5 -34.5t-29.5 -108.5v-110q0 -74 29.5 -109t93.5 -35zM267 605q-12 -12 -30 -12t-30 12t-12 30t12 30t30 12t30 -12t12 -30t-12 -30z" />
<glyph unicode="&#x122;" horiz-adv-x="569" d="M520 331v-101q0 -119 -58.5 -180.5t-171.5 -61.5t-172 61t-59 179v208q0 118 59.5 179t173.5 61q153 0 215 -122q6 -13 -7 -20l-25 -14q-14 -6 -21 7q-48 92 -162 92q-168 0 -168 -194v-186q0 -194 167 -194t167 196v48h-145q-15 0 -15 15v27q0 15 15 15h192q15 0 15 -15 zM331 -96q0 -63 -52 -85q-8 -5 -13 5l-4 8q-4 10 4 14q15 8 20 27q-25 0 -34.5 24.5t8.5 42.5q20 18 45.5 6.5t25.5 -42.5z" />
<glyph unicode="&#x123;" horiz-adv-x="487" d="M240 663q16 -1 26.5 -11.5t10.5 -26.5q3 -28 -25 -36q-29 -8 -47 13q-10 12 -9 31q0 29 14 51.5t38 32.5q8 3 12 -4l5 -9q5 -8 -5 -14q-15 -8 -20 -27zM237 505q89 0 136 -48t47 -139v-317q0 -81 -48.5 -127t-133.5 -46q-99 0 -162 57q-10 10 -2 21l15 20q10 13 21 2 q52 -47 125 -47q60 0 92 33t32 95v54h-1q-39 -61 -130 -61q-86 0 -130.5 48t-44.5 139v129q0 91 47 139t137 48zM237 55q122 0 122 144v110q0 74 -29.5 108.5t-92.5 34.5q-64 0 -93.5 -34.5t-29.5 -108.5v-110q0 -74 29.5 -109t93.5 -35z" />
<glyph unicode="&#x124;" horiz-adv-x="623" d="M378 740l-67 95l-67 -95q-5 -8 -16 -8h-27q-8 0 -10.5 4.5t2.5 11.5l86 123q6 9 17 9h31q11 0 17 -9l85 -123q5 -7 2.5 -11.5t-10.5 -4.5h-27q-11 0 -16 8zM539 649v-634q0 -15 -15 -15h-35q-15 0 -15 15v293h-325v-293q0 -15 -15 -15h-35q-15 0 -15 15v634q0 15 15 15 h35q15 0 15 -15v-284h325v284q0 15 15 15h35q15 0 15 -15z" />
<glyph unicode="&#x125;" horiz-adv-x="500" d="M172 771l-67 95l-67 -95q-5 -8 -16 -8h-27q-8 0 -10.5 4.5t2.5 11.5l86 123q6 9 17 9h31q11 0 17 -9l85 -123q5 -7 2.5 -11.5t-10.5 -4.5h-27q-11 0 -16 8zM266 505q83 0 126.5 -46.5t43.5 -136.5v-307q0 -15 -15 -15h-31q-15 0 -15 15v298q0 71 -29 105t-90 34 q-119 0 -119 -139v-298q0 -15 -15 -15h-31q-15 0 -15 15v670q0 15 15 15h31q15 0 15 -15v-241h1q37 61 128 61z" />
<glyph unicode="&#x126;" horiz-adv-x="633" d="M544 649v-125h53q14 0 14 -14v-23q0 -14 -14 -14h-53v-458q0 -15 -15 -15h-35q-15 0 -15 15v293h-325v-293q0 -15 -15 -15h-35q-15 0 -15 15v458h-53q-14 0 -14 14v23q0 14 14 14h53v125q0 15 15 15h35q15 0 15 -15v-125h325v125q0 15 15 15h35q15 0 15 -15zM154 473 v-108h325v108h-325z" />
<glyph unicode="&#x127;" horiz-adv-x="503" d="M266 505q83 0 126.5 -46.5t43.5 -136.5v-307q0 -15 -15 -15h-31q-15 0 -15 15v298q0 71 -29 105t-90 34q-119 0 -119 -139v-298q0 -15 -15 -15h-31q-15 0 -15 15v547h-58q-14 0 -14 14v23q0 14 14 14h58v72q0 15 15 15h31q15 0 15 -15v-72h124q14 0 14 -14v-23 q0 -14 -14 -14h-124v-118h1q37 61 128 61z" />
<glyph unicode="&#x128;" horiz-adv-x="233" d="M9 746h-17q-15 0 -13 14q7 44 29 67.5t56 23.5q32 0 68 -33q26 -23 42 -23q30 0 39 43q3 12 14 12h17q15 0 13 -14q-7 -44 -29 -67.5t-56 -23.5q-32 0 -68 33q-26 23 -42 23q-30 0 -39 -43q-3 -12 -14 -12zM151 649v-634q0 -15 -15 -15h-35q-15 0 -15 15v634q0 15 15 15 h35q15 0 15 -15z" />
<glyph unicode="&#x129;" horiz-adv-x="207" d="M-4 581h-17q-15 0 -13 14q7 44 29 67.5t56 23.5q32 0 68 -33q26 -23 42 -23q30 0 39 43q3 12 14 12h17q15 0 13 -14q-7 -44 -29 -67.5t-56 -23.5q-32 0 -68 33q-26 23 -42 23q-30 0 -39 -43q-3 -12 -14 -12zM136 478v-463q0 -15 -15 -15h-31q-15 0 -15 15v463q0 15 15 15 h31q15 0 15 -15z" />
<glyph unicode="&#x12a;" horiz-adv-x="233" d="M149 649v-634q0 -15 -15 -15h-35q-15 0 -15 15v634q0 15 15 15h35q15 0 15 -15zM243 806v-22q0 -14 -14 -14h-227q-14 0 -14 14v22q0 14 14 14h227q14 0 14 -14z" />
<glyph unicode="&#x12b;" horiz-adv-x="207" d="M134 478v-463q0 -15 -15 -15h-31q-15 0 -15 15v463q0 15 15 15h31q15 0 15 -15zM230 641v-22q0 -14 -14 -14h-227q-14 0 -14 14v22q0 14 14 14h227q14 0 14 -14z" />
<glyph unicode="&#x12c;" horiz-adv-x="233" d="M210 859h19q14 0 12 -14q-7 -46 -40 -72t-83 -26t-83 26t-40 72q-2 14 12 14h19q11 0 14 -12q13 -52 78 -52t78 52q3 12 14 12zM151 649v-634q0 -15 -15 -15h-35q-15 0 -15 15v634q0 15 15 15h35q15 0 15 -15z" />
<glyph unicode="&#x12d;" horiz-adv-x="207" d="M197 694h19q14 0 12 -14q-7 -46 -40 -72t-83 -26t-83 26t-40 72q-2 14 12 14h19q11 0 14 -12q13 -52 78 -52t78 52q3 12 14 12zM136 478v-463q0 -15 -15 -15h-31q-15 0 -15 15v463q0 15 15 15h31q15 0 15 -15z" />
<glyph unicode="&#x12e;" horiz-adv-x="233" d="M169 -112l12 -14q7 -9 -1 -17q-32 -29 -75 -29q-37 0 -59.5 20t-22.5 54q0 63 61 106v641q0 15 15 15h35q15 0 15 -15v-634q0 -15 -14 -15q-67 -36 -67 -87q0 -17 12 -29.5t30 -12.5q25 0 42 17q9 9 17 0z" />
<glyph unicode="&#x12f;" horiz-adv-x="206" d="M162 -112l12 -14q7 -9 -1 -17q-32 -29 -75 -29q-37 0 -59.5 20t-22.5 54q0 64 58 106q-1 1 -1 7v463q0 15 15 15h31q15 0 15 -15v-463q0 -10 -10 -16q-63 -35 -63 -86q0 -17 12 -29.5t30 -12.5q22 0 42 17q9 9 17 0zM133 605q-12 -12 -30 -12t-30 12t-12 30t12 30t30 12 t30 -12t12 -30t-12 -30z" />
<glyph unicode="&#x130;" horiz-adv-x="233" d="M146 770q-12 -12 -30 -12t-30 12t-12 30t12 30t30 12t30 -12t12 -30t-12 -30zM149 649v-634q0 -15 -15 -15h-35q-15 0 -15 15v634q0 15 15 15h35q15 0 15 -15z" />
<glyph unicode="&#x131;" horiz-adv-x="207" d="M134 478v-463q0 -15 -15 -15h-31q-15 0 -15 15v463q0 15 15 15h31q15 0 15 -15z" />
<glyph unicode="&#x132;" horiz-adv-x="745" d="M673 649v-429q0 -114 -55 -173t-161 -59q-139 0 -204 110q-7 12 4 20l24 18q13 10 21 -5q51 -86 152 -86q154 0 154 185v419q0 15 15 15h35q15 0 15 -15zM149 649v-634q0 -15 -15 -15h-35q-15 0 -15 15v634q0 15 15 15h35q15 0 15 -15z" />
<glyph unicode="&#x133;" horiz-adv-x="414" d="M133 605q-12 -12 -30 -12t-30 12t-12 30t12 30t30 12t30 -12t12 -30t-12 -30zM119 0h-31q-15 0 -15 15v463q0 15 15 15h31q15 0 15 -15v-463q0 -15 -15 -15zM340 605q-12 -12 -30 -12t-30 12t-12 30t12 30t30 12t30 -12t12 -30t-12 -30zM202 -107q78 0 78 85v500 q0 15 15 15h31q15 0 15 -15v-500q0 -138 -130 -138h-9q-15 0 -15 15v23q0 15 15 15z" />
<glyph unicode="&#x134;" horiz-adv-x="518" d="M486 740l-67 95l-67 -95q-5 -8 -16 -8h-27q-8 0 -10.5 4.5t2.5 11.5l86 123q6 9 17 9h31q11 0 17 -9l85 -123q5 -7 2.5 -11.5t-10.5 -4.5h-27q-11 0 -16 8zM453 649v-429q0 -114 -55 -173t-161 -59q-139 0 -204 110q-7 12 4 20l24 18q13 10 21 -5q51 -86 152 -86 q154 0 154 185v419q0 15 15 15h35q15 0 15 -15z" />
<glyph unicode="&#x135;" horiz-adv-x="207" d="M170 575l-67 95l-67 -95q-5 -8 -16 -8h-27q-8 0 -10.5 4.5t2.5 11.5l86 123q6 9 17 9h31q11 0 17 -9l85 -123q5 -7 2.5 -11.5t-10.5 -4.5h-27q-11 0 -16 8zM-4 -107q78 0 78 85v500q0 15 15 15h31q15 0 15 -15v-500q0 -138 -130 -138h-9q-15 0 -15 15v23q0 15 15 15z" />
<glyph unicode="&#x136;" horiz-adv-x="550" d="M436 9l-287 307v-301q0 -15 -15 -15h-35q-15 0 -15 15v634q0 15 15 15h35q15 0 15 -15v-295l280 302q8 8 18 8h47q10 0 12.5 -5.5t-4.5 -12.5l-291 -308l302 -320q6 -7 4 -12.5t-12 -5.5h-50q-11 0 -19 9zM332 -96q0 -63 -52 -85q-8 -5 -13 5l-4 8q-4 10 4 14q15 8 20 27 q-25 0 -34.5 24.5t8.5 42.5q20 18 45.5 6.5t25.5 -42.5z" />
<glyph unicode="&#x137;" horiz-adv-x="436" d="M343 8l-209 226v-219q0 -15 -15 -15h-31q-15 0 -15 15v670q0 15 15 15h31q15 0 15 -15v-416l200 216q8 8 18 8h42q10 0 12.5 -5.5t-4.5 -12.5l-210 -223l221 -234q7 -7 4.5 -12.5t-12.5 -5.5h-44q-10 0 -18 8zM281 -96q0 -63 -52 -85q-8 -5 -13 5l-4 8q-4 10 4 14 q15 8 20 27q-25 0 -34.5 24.5t8.5 42.5q20 18 45.5 6.5t25.5 -42.5z" />
<glyph unicode="&#x138;" horiz-adv-x="436" d="M343 8l-209 226v-219q0 -15 -15 -15h-31q-15 0 -15 15v463q0 15 15 15h31q15 0 15 -15v-209l200 216q8 8 18 8h42q10 0 12.5 -5.5t-4.5 -12.5l-210 -223l221 -234q7 -7 4.5 -12.5t-12.5 -5.5h-44q-10 0 -18 8z" />
<glyph unicode="&#x139;" horiz-adv-x="496" d="M229 863l-87 -123q-5 -8 -16 -8h-29q-18 0 -9 16l80 123q6 9 17 9h35q9 0 11.5 -5t-2.5 -12zM479 42v-27q0 -15 -15 -15h-363q-15 0 -15 15v634q0 15 15 15h35q15 0 15 -15v-592h313q15 0 15 -15z" />
<glyph unicode="&#x13a;" horiz-adv-x="207" d="M216 894l-87 -123q-5 -8 -16 -8h-29q-18 0 -9 16l80 123q6 9 17 9h35q9 0 11.5 -5t-2.5 -12zM136 685v-670q0 -15 -15 -15h-31q-15 0 -15 15v670q0 15 15 15h31q15 0 15 -15z" />
<glyph unicode="&#x13b;" horiz-adv-x="496" d="M319 -96q0 -63 -52 -85q-8 -5 -13 5l-4 8q-4 10 4 14q15 8 20 27q-25 0 -34.5 24.5t8.5 42.5q20 18 45.5 6.5t25.5 -42.5zM477 42v-27q0 -15 -15 -15h-363q-15 0 -15 15v634q0 15 15 15h35q15 0 15 -15v-592h313q15 0 15 -15z" />
<glyph unicode="&#x13c;" horiz-adv-x="207" d="M144 -96q0 -63 -52 -85q-8 -5 -13 5l-4 8q-4 10 4 14q15 8 20 27q-25 0 -34.5 24.5t8.5 42.5q20 18 45.5 6.5t25.5 -42.5zM134 685v-670q0 -15 -15 -15h-31q-15 0 -15 15v670q0 15 15 15h31q15 0 15 -15z" />
<glyph unicode="&#x13d;" horiz-adv-x="496" d="M477 42v-27q0 -15 -15 -15h-363q-15 0 -15 15v634q0 15 15 15h35q15 0 15 -15v-592h313q15 0 15 -15zM307 685l-27 -162q-2 -12 -14 -12h-19q-14 0 -12 14l18 162q1 13 15 13h27q15 0 12 -15z" />
<glyph unicode="&#x13e;" horiz-adv-x="207" d="M256 685l-27 -162q-1 -12 -14 -12h-19q-14 0 -12 14l18 162q1 13 15 13h27q15 0 12 -15zM134 685v-670q0 -15 -15 -15h-31q-15 0 -15 15v670q0 15 15 15h31q15 0 15 -15z" />
<glyph unicode="&#x13f;" horiz-adv-x="497" d="M477 42v-27q0 -15 -15 -15h-363q-15 0 -15 15v634q0 15 15 15h35q15 0 15 -15v-592h313q15 0 15 -15zM395 302q-12 -12 -30 -12t-30 12t-12 30t12 30t30 12t30 -12t12 -30t-12 -30z" />
<glyph unicode="&#x140;" horiz-adv-x="240" d="M134 685v-670q0 -15 -15 -15h-31q-15 0 -15 15v670q0 15 15 15h31q15 0 15 -15zM253 302q-12 -12 -30 -12t-30 12t-12 30t12 30t30 12t30 -12t12 -30t-12 -30z" />
<glyph unicode="&#x141;" horiz-adv-x="507" d="M159 244v-187h313q15 0 15 -15v-27q0 -15 -15 -15h-363q-15 0 -15 15v185l-52 -36q-18 -11 -18 10v33q0 12 10 19l60 41v382q0 15 15 15h35q15 0 15 -15v-337l208 143q8 5 13.5 2.5t5.5 -11.5v-34q0 -12 -10 -19z" />
<glyph unicode="&#x142;" horiz-adv-x="225" d="M143 685v-250l60 45q7 5 12 2.5t5 -10.5v-30q0 -10 -9 -18l-68 -51v-358q0 -15 -15 -15h-31q-15 0 -15 15v313l-60 -45q-7 -5 -12 -2.5t-5 10.5v30q0 11 9 18l68 51v295q0 15 15 15h31q15 0 15 -15z" />
<glyph unicode="&#x143;" horiz-adv-x="623" d="M539 649v-634q0 -15 -15 -15h-37q-12 0 -18 10l-321 548h-1v-543q0 -15 -15 -15h-33q-15 0 -15 15v634q0 15 15 15h44q12 0 18 -10l314 -538h1v533q0 15 15 15h33q15 0 15 -15zM423 863l-87 -123q-5 -8 -16 -8h-29q-18 0 -9 16l80 123q6 9 17 9h35q9 0 11.5 -5t-2.5 -12z " />
<glyph unicode="&#x144;" horiz-adv-x="494" d="M366 15v298q0 71 -29 105t-90 34t-90 -34t-29 -105v-298q0 -15 -15 -15h-31q-15 0 -15 15v307q0 90 46 136.5t134 46.5q180 0 180 -183v-307q0 -15 -15 -15h-31q-15 0 -15 15zM358 698l-87 -123q-5 -8 -16 -8h-29q-18 0 -9 16l80 123q6 9 17 9h35q9 0 11.5 -5t-2.5 -12z " />
<glyph unicode="&#x145;" horiz-adv-x="623" d="M539 649v-634q0 -15 -15 -15h-37q-12 0 -18 10l-321 548h-1v-543q0 -15 -15 -15h-33q-15 0 -15 15v634q0 15 15 15h44q12 0 18 -10l314 -538h1v533q0 15 15 15h33q15 0 15 -15zM353 -96q0 -63 -52 -85q-8 -5 -13 5l-4 8q-4 10 4 14q15 8 20 27q-25 0 -34.5 24.5t8.5 42.5 q20 18 45.5 6.5t25.5 -42.5z" />
<glyph unicode="&#x146;" horiz-adv-x="494" d="M366 15v298q0 71 -29 105t-90 34t-90 -34t-29 -105v-298q0 -15 -15 -15h-31q-15 0 -15 15v307q0 90 46 136.5t134 46.5q180 0 180 -183v-307q0 -15 -15 -15h-31q-15 0 -15 15zM288 -96q0 -63 -52 -85q-8 -5 -13 5l-4 8q-4 10 4 14q15 8 20 27q-25 0 -34.5 24.5t8.5 42.5 q20 18 45.5 6.5t25.5 -42.5z" />
<glyph unicode="&#x147;" horiz-adv-x="623" d="M539 649v-634q0 -15 -15 -15h-37q-12 0 -18 10l-321 548h-1v-543q0 -15 -15 -15h-33q-15 0 -15 15v634q0 15 15 15h44q12 0 18 -10l314 -538h1v533q0 15 15 15h33q15 0 15 -15zM429 864l-85 -123q-6 -9 -17 -9h-31q-11 0 -17 9l-86 123q-5 7 -2.5 11.5t10.5 4.5h27 q11 0 16 -8l67 -95l67 95q5 8 16 8h27q8 0 10.5 -4.5t-2.5 -11.5z" />
<glyph unicode="&#x148;" horiz-adv-x="494" d="M364 699l-85 -123q-6 -9 -17 -9h-31q-11 0 -17 9l-86 123q-5 7 -2.5 11.5t10.5 4.5h27q11 0 16 -8l67 -95l67 95q5 8 16 8h27q8 0 10.5 -4.5t-2.5 -11.5zM366 15v298q0 71 -29 105t-90 34t-90 -34t-29 -105v-298q0 -15 -15 -15h-31q-15 0 -15 15v307q0 90 46 136.5 t134 46.5q180 0 180 -183v-307q0 -15 -15 -15h-31q-15 0 -15 15z" />
<glyph unicode="&#x149;" horiz-adv-x="494" d="M370 15v298q0 71 -29 105t-90 34t-90 -34t-29 -105v-298q0 -15 -15 -15h-31q-15 0 -15 15v307q0 90 46 136.5t134 46.5q180 0 180 -183v-307q0 -15 -15 -15h-31q-15 0 -15 15zM105 703q19 0 31 -13t12 -35q0 -70 -60 -121q-7 -6 -14 1l-9 10q-5 6 1 13q28 25 34 66 q-36 4 -36 39q0 18 11.5 29t29.5 11z" />
<glyph unicode="&#x14a;" horiz-adv-x="623" d="M491 664h33q15 0 15 -15v-671q0 -138 -130 -138h-27q-15 0 -15 15v27q0 15 15 15h16q78 0 78 81v21l-328 559h-1v-543q0 -15 -15 -15h-33q-15 0 -15 15v634q0 15 15 15h44q12 0 18 -10l314 -538h1v533q0 15 15 15z" />
<glyph unicode="&#x14b;" horiz-adv-x="494" d="M366 -22v335q0 71 -29 105t-90 34t-90 -34t-29 -105v-313h-61v322q0 90 46 136.5t134 46.5q180 0 180 -183v-344q0 -138 -130 -138h-9q-15 0 -15 15v23q0 15 15 15q78 0 78 85z" />
<glyph unicode="&#x14c;" horiz-adv-x="585" d="M59 228v208q0 118 59.5 179t173.5 61q115 0 174.5 -61t59.5 -179v-208q0 -118 -59.5 -179t-174.5 -61q-114 0 -173.5 61t-59.5 179zM124 425v-186q0 -194 168 -194q169 0 169 194v186q0 194 -169 194q-168 0 -168 -194zM419 806v-22q0 -14 -14 -14h-227q-14 0 -14 14v22 q0 14 14 14h227q14 0 14 -14z" />
<glyph unicode="&#x14d;" horiz-adv-x="473" d="M237 505q89 0 136 -48t47 -139v-143q0 -91 -47 -139t-136 -48q-90 0 -137 48t-47 139v143q0 91 47 139t137 48zM359 185v124q0 74 -29.5 108.5t-92.5 34.5q-64 0 -93.5 -34.5t-29.5 -108.5v-124q0 -74 29.5 -109t93.5 -35q63 0 92.5 35t29.5 109zM364 641v-22 q0 -14 -14 -14h-227q-14 0 -14 14v22q0 14 14 14h227q14 0 14 -14z" />
<glyph unicode="&#x14e;" horiz-adv-x="585" d="M59 228v208q0 118 59.5 179t173.5 61q115 0 174.5 -61t59.5 -179v-208q0 -118 -59.5 -179t-174.5 -61q-114 0 -173.5 61t-59.5 179zM124 425v-186q0 -194 168 -194q169 0 169 194v186q0 194 -169 194q-168 0 -168 -194zM384 859h19q14 0 12 -14q-7 -46 -40 -72t-83 -26 t-83 26t-40 72q-2 14 12 14h19q11 0 14 -12q13 -52 78 -52t78 52q3 12 14 12z" />
<glyph unicode="&#x14f;" horiz-adv-x="473" d="M237 505q89 0 136 -48t47 -139v-143q0 -91 -47 -139t-136 -48q-90 0 -137 48t-47 139v143q0 91 47 139t137 48zM359 185v124q0 74 -29.5 108.5t-92.5 34.5q-64 0 -93.5 -34.5t-29.5 -108.5v-124q0 -74 29.5 -109t93.5 -35q63 0 92.5 35t29.5 109zM329 694h19q14 0 12 -14 q-7 -46 -40 -72t-83 -26t-83 26t-40 72q-2 14 12 14h19q11 0 14 -12q13 -52 78 -52t78 52q3 12 14 12z" />
<glyph unicode="&#x150;" horiz-adv-x="585" d="M323 863l-80 -123q-6 -8 -16 -8h-23q-18 0 -9 16l72 122q6 10 17 10h30q20 0 9 -17zM465 863l-79 -123q-6 -8 -16 -8h-24q-18 0 -9 16l72 122q6 10 17 10h30q20 0 9 -17zM59 228v208q0 118 59.5 179t173.5 61q115 0 174.5 -61t59.5 -179v-208q0 -118 -59.5 -179 t-174.5 -61q-114 0 -173.5 61t-59.5 179zM124 425v-186q0 -194 168 -194q169 0 169 194v186q0 194 -169 194q-168 0 -168 -194z" />
<glyph unicode="&#x151;" horiz-adv-x="473" d="M268 698l-80 -123q-6 -8 -16 -8h-23q-18 0 -9 16l72 122q6 10 17 10h30q20 0 9 -17zM410 698l-79 -123q-6 -8 -16 -8h-24q-18 0 -9 16l72 122q6 10 17 10h30q20 0 9 -17zM237 505q89 0 136 -48t47 -139v-143q0 -91 -47 -139t-136 -48q-90 0 -137 48t-47 139v143 q0 91 47 139t137 48zM359 185v124q0 74 -29.5 108.5t-92.5 34.5q-64 0 -93.5 -34.5t-29.5 -108.5v-124q0 -74 29.5 -109t93.5 -35q63 0 92.5 35t29.5 109z" />
<glyph unicode="&#x152;" horiz-adv-x="895" d="M506 607v-243h285q15 0 15 -15v-27q0 -15 -15 -15h-285v-250h329q15 0 15 -15v-27q0 -15 -15 -15h-543q-233 0 -233 227v210q0 227 233 227h543q15 0 15 -15v-27q0 -15 -15 -15h-329zM441 57v550h-146q-87 0 -129 -44.5t-42 -136.5v-188q0 -92 42 -136.5t129 -44.5h146z " />
<glyph unicode="&#x153;" horiz-adv-x="760" d="M546 505q84 0 128.5 -48t44.5 -139v-76q0 -15 -15 -15h-284v-39q0 -77 32.5 -112t103.5 -35q62 0 110 51q10 14 21 0l17 -19q9 -11 0 -22q-62 -63 -147 -63q-127 0 -166 94h-1q-34 -94 -158 -94q-87 0 -133 48t-46 139v143q0 91 46 139t133 48q120 0 158 -92h1 q33 92 155 92zM359 185v124q0 74 -29.5 108.5t-92.5 34.5q-64 0 -93.5 -34.5t-29.5 -108.5v-124q0 -74 29.5 -109t93.5 -35q63 0 92.5 35t29.5 109zM420 278h241v31q0 73 -29 108t-91 35t-91.5 -34.5t-29.5 -108.5v-31z" />
<glyph unicode="&#x154;" horiz-adv-x="567" d="M447 10l-159 262h-139v-257q0 -15 -15 -15h-35q-15 0 -15 15v634q0 15 15 15h179q119 0 175.5 -47.5t56.5 -147.5q0 -162 -155 -191l164 -260q11 -18 -10 -18h-44q-12 0 -18 10zM149 607v-278h129q86 0 126 33.5t40 105.5q0 71 -40 105t-126 34h-129zM388 863l-87 -123 q-5 -8 -16 -8h-29q-18 0 -9 16l80 123q6 9 17 9h35q9 0 11.5 -5t-2.5 -12z" />
<glyph unicode="&#x155;" horiz-adv-x="363" d="M318 698l-87 -123q-5 -8 -16 -8h-29q-18 0 -9 16l80 123q6 9 17 9h35q9 0 11.5 -5t-2.5 -12zM67 15v315q0 175 161 175q63 0 110 -32q12 -9 5 -21l-13 -20q-9 -13 -21 -4q-34 24 -76 24q-55 0 -80 -30.5t-25 -95.5v-311q0 -15 -15 -15h-31q-15 0 -15 15z" />
<glyph unicode="&#x156;" horiz-adv-x="567" d="M447 10l-159 262h-139v-257q0 -15 -15 -15h-35q-15 0 -15 15v634q0 15 15 15h179q119 0 175.5 -47.5t56.5 -147.5q0 -162 -155 -191l164 -260q11 -18 -10 -18h-44q-12 0 -18 10zM149 607v-278h129q86 0 126 33.5t40 105.5q0 71 -40 105t-126 34h-129zM337 -96 q0 -63 -52 -85q-8 -5 -13 5l-4 8q-4 10 4 14q15 8 20 27q-25 0 -34.5 24.5t8.5 42.5q20 18 45.5 6.5t25.5 -42.5z" />
<glyph unicode="&#x157;" horiz-adv-x="363" d="M67 15v315q0 175 161 175q63 0 110 -32q12 -9 5 -21l-13 -20q-9 -13 -21 -4q-34 24 -76 24q-55 0 -80 -30.5t-25 -95.5v-311q0 -15 -15 -15h-31q-15 0 -15 15zM139 -96q0 -63 -52 -85q-8 -5 -13 5l-4 8q-4 10 4 14q15 8 20 27q-25 0 -34.5 24.5t8.5 42.5q20 18 45.5 6.5 t25.5 -42.5z" />
<glyph unicode="&#x158;" horiz-adv-x="567" d="M447 10l-159 262h-139v-257q0 -15 -15 -15h-35q-15 0 -15 15v634q0 15 15 15h179q119 0 175.5 -47.5t56.5 -147.5q0 -162 -155 -191l164 -260q11 -18 -10 -18h-44q-12 0 -18 10zM149 607v-278h129q86 0 126 33.5t40 105.5q0 71 -40 105t-126 34h-129zM394 864l-85 -123 q-6 -9 -17 -9h-31q-11 0 -17 9l-86 123q-5 7 -2.5 11.5t10.5 4.5h27q11 0 16 -8l67 -95l67 95q5 8 16 8h27q8 0 10.5 -4.5t-2.5 -11.5z" />
<glyph unicode="&#x159;" horiz-adv-x="363" d="M324 699l-85 -123q-6 -9 -17 -9h-31q-11 0 -17 9l-86 123q-5 7 -2.5 11.5t10.5 4.5h27q11 0 16 -8l67 -95l67 95q5 8 16 8h27q8 0 10.5 -4.5t-2.5 -11.5zM67 15v315q0 175 161 175q63 0 110 -32q12 -9 5 -21l-13 -20q-9 -13 -21 -4q-34 24 -76 24q-55 0 -80 -30.5 t-25 -95.5v-311q0 -15 -15 -15h-31q-15 0 -15 15z" />
<glyph unicode="&#x15a;" horiz-adv-x="507" d="M264 676q133 0 200 -85q8 -11 -3 -21l-24 -19q-11 -11 -21 3q-50 65 -149 65q-67 0 -107 -35.5t-40 -94.5q0 -55 37 -84t128 -44q110 -18 156 -60.5t46 -124.5q0 -85 -57.5 -136.5t-151.5 -51.5q-154 0 -230 100q-8 10 3 21l21 19q12 11 22 -2q62 -81 181 -81 q67 0 107 35.5t40 94.5q0 54 -35.5 82t-127.5 44q-111 19 -157.5 62t-46.5 125q0 85 57.5 136.5t151.5 51.5zM375 863l-87 -123q-5 -8 -16 -8h-29q-18 0 -9 16l80 123q6 9 17 9h35q9 0 11.5 -5t-2.5 -12z" />
<glyph unicode="&#x15b;" horiz-adv-x="412" d="M392 133q0 -67 -45 -106t-121 -39q-114 0 -178 61q-10 10 -1 21l16 20q10 12 22 0q49 -49 135 -49q53 0 82 24t29 68q0 40 -27 60t-96 30q-86 13 -121 44t-35 94q0 66 47 105t126 39q89 0 143 -45q10 -10 3 -21l-14 -19q-9 -12 -21 -3q-44 35 -106 35q-57 0 -87 -24 t-30 -68q0 -36 26 -54.5t91 -27.5q89 -12 125.5 -45.5t36.5 -99.5zM327 698l-87 -123q-5 -8 -16 -8h-29q-18 0 -9 16l80 123q6 9 17 9h35q9 0 11.5 -5t-2.5 -12z" />
<glyph unicode="&#x15c;" horiz-adv-x="507" d="M264 676q133 0 200 -85q8 -11 -3 -21l-24 -19q-11 -11 -21 3q-50 65 -149 65q-67 0 -107 -35.5t-40 -94.5q0 -55 37 -84t128 -44q110 -18 156 -60.5t46 -124.5q0 -85 -57.5 -136.5t-151.5 -51.5q-154 0 -230 100q-8 10 3 21l21 19q12 11 22 -2q62 -81 181 -81 q67 0 107 35.5t40 94.5q0 54 -35.5 82t-127.5 44q-111 19 -157.5 62t-46.5 125q0 85 57.5 136.5t151.5 51.5zM330 740l-67 95l-67 -95q-5 -8 -16 -8h-27q-8 0 -10.5 4.5t2.5 11.5l86 123q6 9 17 9h31q11 0 17 -9l85 -123q5 -7 2.5 -11.5t-10.5 -4.5h-27q-11 0 -16 8z" />
<glyph unicode="&#x15d;" horiz-adv-x="412" d="M392 133q0 -67 -45 -106t-121 -39q-114 0 -178 61q-10 10 -1 21l16 20q10 12 22 0q49 -49 135 -49q53 0 82 24t29 68q0 40 -27 60t-96 30q-86 13 -121 44t-35 94q0 66 47 105t126 39q89 0 143 -45q10 -10 3 -21l-14 -19q-9 -12 -21 -3q-44 35 -106 35q-57 0 -87 -24 t-30 -68q0 -36 26 -54.5t91 -27.5q89 -12 125.5 -45.5t36.5 -99.5zM282 575l-67 95l-67 -95q-5 -8 -16 -8h-27q-8 0 -10.5 4.5t2.5 11.5l86 123q6 9 17 9h31q11 0 17 -9l85 -123q5 -7 2.5 -11.5t-10.5 -4.5h-27q-11 0 -16 8z" />
<glyph unicode="&#x15e;" horiz-adv-x="507" d="M48 88q-8 10 3 21l21 19q12 11 22 -2q62 -81 181 -81q67 0 107 35.5t40 94.5q0 54 -35.5 82t-127.5 44q-111 19 -157.5 62t-46.5 125q0 85 57.5 136.5t151.5 51.5q133 0 200 -85q8 -11 -3 -21l-24 -19q-11 -11 -21 3q-50 65 -149 65q-67 0 -107 -35.5t-40 -94.5 q0 -55 37 -84t128 -44q110 -18 156 -60.5t46 -124.5t-54.5 -133.5t-145.5 -54.5l-8 -38q34 -1 53 -16t19 -41q0 -31 -23 -48t-64 -17q-44 0 -75 19q-8 6 -4 16l8 16q6 10 16 4q26 -14 51 -14q21 0 33 7.5t12 19.5q0 27 -58 27q-13 0 -10 13l11 53q-129 9 -200 99z" />
<glyph unicode="&#x15f;" horiz-adv-x="412" d="M48 49q-10 10 -1 21l16 20q10 12 22 0q49 -49 135 -49q53 0 82 24t29 68q0 40 -27 60t-96 30q-86 13 -121 44t-35 94q0 66 47 105t126 39q89 0 143 -45q10 -10 3 -21l-14 -19q-9 -12 -21 -3q-44 35 -106 35q-57 0 -87 -24t-30 -68q0 -36 26 -54.5t91 -27.5 q89 -12 125.5 -45.5t36.5 -99.5q0 -65 -41.5 -103.5t-113.5 -41.5l-8 -38q34 -1 53 -16t19 -41q0 -31 -23 -48t-64 -17q-44 0 -75 19q-8 6 -4 16l8 16q6 10 16 4q26 -14 51 -14q21 0 33 7.5t12 19.5q0 27 -58 27q-13 0 -10 13l11 53q-93 6 -150 60z" />
<glyph unicode="&#x160;" horiz-adv-x="507" d="M264 676q133 0 200 -85q8 -11 -3 -21l-24 -19q-11 -11 -21 3q-50 65 -149 65q-67 0 -107 -35.5t-40 -94.5q0 -55 37 -84t128 -44q110 -18 156 -60.5t46 -124.5q0 -85 -57.5 -136.5t-151.5 -51.5q-154 0 -230 100q-8 10 3 21l21 19q12 11 22 -2q62 -81 181 -81 q67 0 107 35.5t40 94.5q0 54 -35.5 82t-127.5 44q-111 19 -157.5 62t-46.5 125q0 85 57.5 136.5t151.5 51.5zM381 864l-85 -123q-6 -9 -17 -9h-31q-11 0 -17 9l-86 123q-5 7 -2.5 11.5t10.5 4.5h27q11 0 16 -8l67 -95l67 95q5 8 16 8h27q8 0 10.5 -4.5t-2.5 -11.5z" />
<glyph unicode="&#x161;" horiz-adv-x="412" d="M392 133q0 -67 -45 -106t-121 -39q-114 0 -178 61q-10 10 -1 21l16 20q10 12 22 0q49 -49 135 -49q53 0 82 24t29 68q0 40 -27 60t-96 30q-86 13 -121 44t-35 94q0 66 47 105t126 39q89 0 143 -45q10 -10 3 -21l-14 -19q-9 -12 -21 -3q-44 35 -106 35q-57 0 -87 -24 t-30 -68q0 -36 26 -54.5t91 -27.5q89 -12 125.5 -45.5t36.5 -99.5zM333 699l-85 -123q-6 -9 -17 -9h-31q-11 0 -17 9l-86 123q-5 7 -2.5 11.5t10.5 4.5h27q11 0 16 -8l67 -95l67 95q5 8 16 8h27q8 0 10.5 -4.5t-2.5 -11.5z" />
<glyph unicode="&#x162;" horiz-adv-x="484" d="M34 664h416q15 0 15 -15v-27q0 -15 -15 -15h-175v-592q0 -14 -13 -15l-11 -50q34 -1 53 -16t19 -41q0 -31 -23 -48t-64 -17q-44 0 -75 19q-8 6 -4 16l8 16q6 10 16 4q26 -14 51 -14q21 0 33 7.5t12 19.5q0 27 -58 27q-13 0 -10 13l14 64q-13 1 -13 15v592h-176 q-15 0 -15 15v27q0 15 15 15z" />
<glyph unicode="&#x163;" horiz-adv-x="352" d="M325 52l9 -22q4 -13 -6 -20q-34 -22 -90 -22q-15 0 -20 1l-8 -39q34 -1 53 -16t19 -41q0 -31 -23 -48t-64 -17q-44 0 -75 19q-8 6 -4 16l8 16q6 10 16 4q26 -14 51 -14q21 0 33 7.5t12 19.5q0 27 -58 27q-13 0 -10 13l13 60q-87 27 -87 141v303h-60q-15 0 -15 15v23 q0 15 15 15h60v119q0 15 15 15h31q15 0 15 -15v-119h151q15 0 15 -15v-23q0 -15 -15 -15h-151v-300q0 -99 89 -99q34 0 59 16q16 10 22 -5z" />
<glyph unicode="&#x164;" horiz-adv-x="484" d="M359 864l-85 -123q-6 -9 -17 -9h-31q-11 0 -17 9l-86 123q-5 7 -2.5 11.5t10.5 4.5h27q11 0 16 -8l67 -95l67 95q5 8 16 8h27q8 0 10.5 -4.5t-2.5 -11.5zM450 607h-175v-592q0 -15 -15 -15h-35q-15 0 -15 15v592h-176q-15 0 -15 15v27q0 15 15 15h416q15 0 15 -15v-27 q0 -15 -15 -15z" />
<glyph unicode="&#x165;" horiz-adv-x="352" d="M325 52l9 -22q4 -13 -6 -20q-34 -22 -90 -22q-70 0 -107 38t-37 111v303h-60q-15 0 -15 15v23q0 15 15 15h60v119q0 15 15 15h31q15 0 15 -15v-119h151q15 0 15 -15v-23q0 -15 -15 -15h-151v-300q0 -99 89 -99q34 0 59 16q16 10 22 -5zM331 719l-27 -162q-2 -12 -14 -12 h-19q-14 0 -12 14l18 162q1 13 15 13h27q15 0 12 -15z" />
<glyph unicode="&#x166;" horiz-adv-x="484" d="M34 664h416q15 0 15 -15v-27q0 -15 -15 -15h-175v-218h112q14 0 14 -14v-23q0 -14 -14 -14h-112v-323q0 -15 -15 -15h-35q-15 0 -15 15v323h-114q-14 0 -14 14v23q0 14 14 14h114v218h-176q-15 0 -15 15v27q0 15 15 15z" />
<glyph unicode="&#x167;" horiz-adv-x="364" d="M331 52l9 -22q4 -13 -6 -20q-34 -22 -90 -22q-70 0 -107 38t-37 111v115h-51q-14 0 -14 14v23q0 14 14 14h51v137h-60q-15 0 -15 15v23q0 15 15 15h60v119q0 15 15 15h31q15 0 15 -15v-119h151q15 0 15 -15v-23q0 -15 -15 -15h-151v-137h133q14 0 14 -14v-23 q0 -14 -14 -14h-133v-112q0 -99 89 -99q34 0 59 16q16 10 22 -5z" />
<glyph unicode="&#x168;" horiz-adv-x="588" d="M185 746h-17q-15 0 -13 14q7 44 29 67.5t56 23.5q32 0 68 -33q26 -23 42 -23q30 0 39 43q3 12 14 12h17q15 0 13 -14q-7 -44 -29 -67.5t-56 -23.5q-32 0 -68 33q-26 23 -42 23q-30 0 -39 -43q-3 -12 -14 -12zM516 649v-429q0 -114 -57 -173t-165 -59t-165 59t-57 173v429 q0 15 15 15h35q15 0 15 -15v-420q0 -94 39 -139t119 -45t119 45t39 139v420q0 15 15 15h33q15 0 15 -15z" />
<glyph unicode="&#x169;" horiz-adv-x="488" d="M135 581h-17q-15 0 -13 14q7 44 29 67.5t56 23.5q32 0 68 -33q26 -23 42 -23q30 0 39 43q3 12 14 12h17q15 0 13 -14q-7 -44 -29 -67.5t-56 -23.5q-32 0 -68 33q-26 23 -42 23q-30 0 -39 -43q-3 -12 -14 -12zM421 478v-310q0 -88 -45 -134t-132 -46q-86 0 -131.5 46 t-45.5 134v310q0 15 15 15h31q15 0 15 -15v-301q0 -70 28.5 -103t88.5 -33t88.5 33t28.5 103v301q0 15 15 15h29q15 0 15 -15z" />
<glyph unicode="&#x16a;" horiz-adv-x="588" d="M516 649v-429q0 -114 -57 -173t-165 -59t-165 59t-57 173v429q0 15 15 15h35q15 0 15 -15v-420q0 -94 39 -139t119 -45t119 45t39 139v420q0 15 15 15h33q15 0 15 -15zM421 806v-22q0 -14 -14 -14h-227q-14 0 -14 14v22q0 14 14 14h227q14 0 14 -14z" />
<glyph unicode="&#x16b;" horiz-adv-x="488" d="M421 478v-310q0 -88 -45 -134t-132 -46q-86 0 -131.5 46t-45.5 134v310q0 15 15 15h31q15 0 15 -15v-301q0 -70 28.5 -103t88.5 -33t88.5 33t28.5 103v301q0 15 15 15h29q15 0 15 -15zM371 641v-22q0 -14 -14 -14h-227q-14 0 -14 14v22q0 14 14 14h227q14 0 14 -14z" />
<glyph unicode="&#x16c;" horiz-adv-x="588" d="M516 649v-429q0 -114 -57 -173t-165 -59t-165 59t-57 173v429q0 15 15 15h35q15 0 15 -15v-420q0 -94 39 -139t119 -45t119 45t39 139v420q0 15 15 15h33q15 0 15 -15zM386 859h19q14 0 12 -14q-7 -46 -40 -72t-83 -26t-83 26t-40 72q-2 14 12 14h19q11 0 14 -12 q13 -52 78 -52t78 52q3 12 14 12z" />
<glyph unicode="&#x16d;" horiz-adv-x="488" d="M421 478v-310q0 -88 -45 -134t-132 -46q-86 0 -131.5 46t-45.5 134v310q0 15 15 15h31q15 0 15 -15v-301q0 -70 28.5 -103t88.5 -33t88.5 33t28.5 103v301q0 15 15 15h29q15 0 15 -15zM336 694h19q14 0 12 -14q-7 -46 -40 -72t-83 -26t-83 26t-40 72q-2 14 12 14h19 q11 0 14 -12q13 -52 78 -52t78 52q3 12 14 12z" />
<glyph unicode="&#x16e;" horiz-adv-x="588" d="M350 749q-22 -22 -56 -22t-57 22q-22 23 -22 57t22 56q23 23 57 23t56 -23q23 -22 23 -56t-23 -57zM269 780q10 -10 25 -10t25 10q10 11 10 26t-10 25q-15 16 -34.5 9t-24.5 -25t9 -35zM516 649v-429q0 -114 -57 -173t-165 -59t-165 59t-57 173v429q0 15 15 15h35 q15 0 15 -15v-420q0 -94 39 -139t119 -45t119 45t39 139v420q0 15 15 15h33q15 0 15 -15z" />
<glyph unicode="&#x16f;" horiz-adv-x="488" d="M300 584q-22 -22 -56 -22t-57 22q-22 23 -22 57t22 56q23 23 57 23t56 -23q23 -22 23 -56t-23 -57zM219 615q10 -10 25 -10t25 10q10 11 10 26t-10 25q-15 16 -34.5 9t-24.5 -25t9 -35zM421 478v-310q0 -88 -45 -134t-132 -46q-86 0 -131.5 46t-45.5 134v310q0 15 15 15 h31q15 0 15 -15v-301q0 -70 28.5 -103t88.5 -33t88.5 33t28.5 103v301q0 15 15 15h29q15 0 15 -15z" />
<glyph unicode="&#x170;" horiz-adv-x="588" d="M325 863l-80 -123q-6 -8 -16 -8h-23q-18 0 -9 16l72 122q6 10 17 10h30q20 0 9 -17zM467 863l-79 -123q-6 -8 -16 -8h-24q-18 0 -9 16l72 122q6 10 17 10h30q20 0 9 -17zM516 649v-429q0 -114 -57 -173t-165 -59t-165 59t-57 173v429q0 15 15 15h35q15 0 15 -15v-420 q0 -94 39 -139t119 -45t119 45t39 139v420q0 15 15 15h33q15 0 15 -15z" />
<glyph unicode="&#x171;" horiz-adv-x="488" d="M275 698l-80 -123q-6 -8 -16 -8h-23q-18 0 -9 16l72 122q6 10 17 10h30q20 0 9 -17zM417 698l-79 -123q-6 -8 -16 -8h-24q-18 0 -9 16l72 122q6 10 17 10h30q20 0 9 -17zM421 478v-310q0 -88 -45 -134t-132 -46q-86 0 -131.5 46t-45.5 134v310q0 15 15 15h31q15 0 15 -15 v-301q0 -70 28.5 -103t88.5 -33t88.5 33t28.5 103v301q0 15 15 15h29q15 0 15 -15z" />
<glyph unicode="&#x172;" horiz-adv-x="588" d="M468 664h33q15 0 15 -15v-429q0 -154 -107 -210q-74 -38 -74 -98q0 -18 11.5 -29.5t32.5 -11.5q22 0 39 17q9 9 18 -1l10 -12q7 -11 -1 -19q-29 -28 -70 -28q-40 0 -63 21t-23 56q0 48 35 83v1q-7 -1 -30 -1q-108 0 -165 59t-57 173v429q0 15 15 15h35q15 0 15 -15v-420 q0 -94 39 -139t119 -45t119 45t39 139v420q0 15 15 15z" />
<glyph unicode="&#x173;" horiz-adv-x="488" d="M421 478v-310q0 -114 -77 -158q-72 -41 -72 -98q0 -18 11.5 -29.5t32.5 -11.5q22 0 39 17q9 9 18 -1l10 -12q7 -10 -1 -19q-29 -28 -70 -28q-40 0 -63 21t-23 56q0 45 34 82v1h-16q-86 0 -131.5 46t-45.5 134v310q0 15 15 15h31q15 0 15 -15v-301q0 -70 28.5 -103 t88.5 -33t88.5 33t28.5 103v301q0 15 15 15h29q15 0 15 -15z" />
<glyph unicode="&#x174;" horiz-adv-x="850" d="M824 647l-173 -632q-3 -15 -18 -15h-44q-15 0 -18 15l-140 518h-1l-141 -518q-3 -15 -18 -15h-45q-15 0 -18 15l-172 632q-5 17 12 17h40q13 0 16 -13l145 -548h1l148 547q3 14 18 14h30q15 0 18 -14l148 -547h1l145 548q3 13 16 13h38q17 0 12 -17zM496 740l-67 95 l-67 -95q-5 -8 -16 -8h-27q-8 0 -10.5 4.5t2.5 11.5l86 123q6 9 17 9h31q11 0 17 -9l85 -123q5 -7 2.5 -11.5t-10.5 -4.5h-27q-11 0 -16 8z" />
<glyph unicode="&#x175;" horiz-adv-x="683" d="M665 476l-141 -461q-4 -15 -18 -15h-34q-14 0 -18 15l-107 362h-1l-108 -362q-4 -15 -18 -15h-34q-14 0 -18 15l-140 461q-5 17 13 17h35q13 0 17 -13l110 -384h1l113 382q5 15 18 15h25q14 0 18 -15l112 -378h1l111 380q4 13 17 13h33q18 0 13 -17zM413 575l-67 95 l-67 -95q-5 -8 -16 -8h-27q-8 0 -10.5 4.5t2.5 11.5l86 123q6 9 17 9h31q11 0 17 -9l85 -123q5 -7 2.5 -11.5t-10.5 -4.5h-27q-11 0 -16 8z" />
<glyph unicode="&#x176;" horiz-adv-x="519" d="M509 646l-214 -353v-278q0 -15 -15 -15h-35q-15 0 -15 15v278l-214 353q-11 18 10 18h43q12 0 18 -10l177 -299l177 299q6 10 18 10h40q21 0 10 -18zM328 740l-67 95l-67 -95q-5 -8 -16 -8h-27q-8 0 -10.5 4.5t2.5 11.5l86 123q6 9 17 9h31q11 0 17 -9l85 -123 q5 -7 2.5 -11.5t-10.5 -4.5h-27q-11 0 -16 8z" />
<glyph unicode="&#x177;" horiz-adv-x="500" d="M427 478v-477q0 -81 -48.5 -127t-133.5 -46q-98 0 -161 57q-10 10 -2 21l15 20q10 13 21 2q52 -47 124 -47q60 0 92 33t32 95v54h-1q-37 -61 -128 -61q-83 0 -126.5 47t-43.5 136v293q0 15 15 15h31q15 0 15 -15v-283q0 -72 29 -106t90 -34q119 0 119 140v283q0 15 15 15 h31q15 0 15 -15zM313 575l-67 95l-67 -95q-5 -8 -16 -8h-27q-8 0 -10.5 4.5t2.5 11.5l86 123q6 9 17 9h31q11 0 17 -9l85 -123q5 -7 2.5 -11.5t-10.5 -4.5h-27q-11 0 -16 8z" />
<glyph unicode="&#x178;" horiz-adv-x="519" d="M509 646l-214 -353v-278q0 -15 -15 -15h-35q-15 0 -15 15v278l-214 353q-11 18 10 18h43q12 0 18 -10l177 -299l177 299q6 10 18 10h40q21 0 10 -18zM182 760q-25 0 -35 20t0 40t35 20q24 2 34.5 -19t0 -42t-34.5 -19zM342 760q-24 -2 -34.5 19t0 42t34.5 19q25 0 35 -20 t0 -40t-35 -20z" />
<glyph unicode="&#x179;" horiz-adv-x="518" d="M478 42v-27q0 -15 -15 -15h-408q-15 0 -15 15v35q0 9 6 18l352 539h-328q-15 0 -15 15v27q0 15 15 15h388q15 0 15 -15v-35q0 -9 -6 -18l-354 -539h350q15 0 15 -15zM373 863l-87 -123q-5 -8 -16 -8h-29q-18 0 -9 16l80 123q6 9 17 9h35q9 0 11.5 -5t-2.5 -12z" />
<glyph unicode="&#x17a;" horiz-adv-x="422" d="M385 38v-23q0 -15 -15 -15h-318q-15 0 -15 15v31q0 9 6 18l264 376h-240q-15 0 -15 15v23q0 15 15 15h298q15 0 15 -15v-31q0 -9 -6 -18l-265 -376h261q15 0 15 -15zM325 698l-87 -123q-5 -8 -16 -8h-29q-18 0 -9 16l80 123q6 9 17 9h35q9 0 11.5 -5t-2.5 -12z" />
<glyph unicode="&#x17b;" horiz-adv-x="518" d="M478 42v-27q0 -15 -15 -15h-408q-15 0 -15 15v35q0 9 6 18l352 539h-328q-15 0 -15 15v27q0 15 15 15h388q15 0 15 -15v-35q0 -9 -6 -18l-354 -539h350q15 0 15 -15zM292 770q-12 -12 -30 -12t-30 12t-12 30t12 30t30 12t30 -12t12 -30t-12 -30z" />
<glyph unicode="&#x17c;" horiz-adv-x="422" d="M385 38v-23q0 -15 -15 -15h-318q-15 0 -15 15v31q0 9 6 18l264 376h-240q-15 0 -15 15v23q0 15 15 15h298q15 0 15 -15v-31q0 -9 -6 -18l-265 -376h261q15 0 15 -15zM244 605q-12 -12 -30 -12t-30 12t-12 30t12 30t30 12t30 -12t12 -30t-12 -30z" />
<glyph unicode="&#x17d;" horiz-adv-x="518" d="M379 864l-85 -123q-6 -9 -17 -9h-31q-11 0 -17 9l-86 123q-5 7 -2.5 11.5t10.5 4.5h27q11 0 16 -8l67 -95l67 95q5 8 16 8h27q8 0 10.5 -4.5t-2.5 -11.5zM478 42v-27q0 -15 -15 -15h-408q-15 0 -15 15v35q0 9 6 18l352 539h-328q-15 0 -15 15v27q0 15 15 15h388 q15 0 15 -15v-35q0 -9 -6 -18l-354 -539h350q15 0 15 -15z" />
<glyph unicode="&#x17e;" horiz-adv-x="422" d="M331 699l-85 -123q-6 -9 -17 -9h-31q-11 0 -17 9l-86 123q-5 7 -2.5 11.5t10.5 4.5h27q11 0 16 -8l67 -95l67 95q5 8 16 8h27q8 0 10.5 -4.5t-2.5 -11.5zM385 38v-23q0 -15 -15 -15h-318q-15 0 -15 15v31q0 9 6 18l264 376h-240q-15 0 -15 15v23q0 15 15 15h298 q15 0 15 -15v-31q0 -9 -6 -18l-265 -376h261q15 0 15 -15z" />
<glyph unicode="&#x192;" horiz-adv-x="529" d="M388 583q-92 0 -109 -116l-8 -60h163q15 0 15 -15v-23q0 -15 -15 -15h-171l-57 -410q-2 -14 -16 -14h-31q-15 0 -14 16l58 408h-109q-15 0 -15 15v23q0 15 15 15h117l9 63q24 166 164 166q56 0 99 -23q13 -6 5 -20l-10 -20q-6 -14 -18 -7q-32 17 -72 17z" />
<glyph unicode="&#x1fc;" horiz-adv-x="880" d="M494 607v-243h285q15 0 15 -15v-27q0 -15 -15 -15h-285v-250h329q15 0 15 -15v-27q0 -15 -15 -15h-379q-15 0 -15 15v129h-264l-79 -134q-6 -10 -18 -10h-40q-21 0 -10 18l381 636q6 10 18 10h406q15 0 15 -15v-27q0 -15 -15 -15h-329zM429 593h-1l-230 -392h231v392z M561 863l-87 -123q-5 -8 -16 -8h-29q-18 0 -9 16l80 123q6 9 17 9h35q9 0 11.5 -5t-2.5 -12z" />
<glyph unicode="&#x1fd;" horiz-adv-x="741" d="M526 505q84 0 129 -48t45 -139v-71q0 -15 -15 -15h-285v-44q0 -77 33 -112t104 -35q61 0 109 51q10 10 21 0l17 -19q9 -11 0 -22q-60 -63 -147 -63q-127 0 -166 94h-1q-34 -94 -161 -94q-79 0 -123.5 39.5t-44.5 109.5t45.5 108t130.5 38h122v22q0 76 -31 111.5t-96 35.5 q-63 0 -110 -47q-11 -11 -20 1l-17 22q-9 11 1 21q65 56 148 56q118 0 156 -92h1q33 92 155 92zM400 283h242v26q0 74 -29.5 108.5t-91.5 34.5t-91.5 -34.5t-29.5 -108.5v-26zM215 41q64 0 94 35t30 109v47h-115q-58 0 -90 -24t-32 -71t29.5 -71.5t83.5 -24.5zM481 698 l-87 -123q-5 -8 -16 -8h-29q-18 0 -9 16l80 123q6 9 17 9h35q9 0 11.5 -5t-2.5 -12z" />
<glyph unicode="&#x1fe;" horiz-adv-x="585" d="M523 634l-31 -49q36 -57 36 -149v-208q0 -118 -59.5 -179t-174.5 -61q-100 0 -159 48l-24 -37q-7 -11 -20 -4l-22 15q-10 7 -4 20l32 49q-36 57 -36 149v208q0 118 59.5 179t173.5 61q102 0 160 -48l24 37q7 11 20 4l22 -15q11 -8 3 -20zM126 425v-186q0 -56 13 -94h1 l279 429q-42 45 -125 45q-168 0 -168 -194zM463 239v186q0 57 -13 95h-1l-279 -430q42 -45 124 -45q169 0 169 194zM405 863l-87 -123q-5 -8 -16 -8h-29q-18 0 -9 16l80 123q6 9 17 9h35q9 0 11.5 -5t-2.5 -12z" />
<glyph unicode="&#x1ff;" horiz-adv-x="473" d="M418 465l-22 -33q27 -44 27 -114v-143q0 -91 -47 -139t-136 -48q-75 0 -122 35l-16 -24q-7 -11 -20 -4l-18 14q-11 8 -3 19l22 33q-27 43 -27 114v143q0 91 47 139t137 48q75 0 121 -34l16 23q7 11 20 4l18 -14q11 -8 3 -19zM117 309v-124q0 -39 7 -63h1l203 300 q-30 30 -88 30q-64 0 -93.5 -34.5t-29.5 -108.5zM362 185v124q0 38 -7 62h-1l-203 -300q30 -30 89 -30q63 0 92.5 35t29.5 109zM351 698l-87 -123q-5 -8 -16 -8h-29q-18 0 -9 16l80 123q6 9 17 9h35q9 0 11.5 -5t-2.5 -12z" />
<glyph unicode="&#x218;" horiz-adv-x="507" d="M264 676q133 0 200 -85q8 -11 -3 -21l-24 -19q-11 -11 -21 3q-50 65 -149 65q-67 0 -107 -35.5t-40 -94.5q0 -55 37 -84t128 -44q110 -18 156 -60.5t46 -124.5q0 -85 -57.5 -136.5t-151.5 -51.5q-154 0 -230 100q-8 10 3 21l21 19q12 11 22 -2q62 -81 181 -81 q67 0 107 35.5t40 94.5q0 54 -35.5 82t-127.5 44q-111 19 -157.5 62t-46.5 125q0 85 57.5 136.5t151.5 51.5zM311 -96q0 -63 -52 -85q-8 -5 -13 5l-4 8q-4 10 4 14q15 8 20 27q-25 0 -34.5 24.5t8.5 42.5q20 18 45.5 6.5t25.5 -42.5z" />
<glyph unicode="&#x219;" horiz-adv-x="412" d="M392 133q0 -67 -45 -106t-121 -39q-114 0 -178 61q-10 10 -1 21l16 20q10 12 22 0q49 -49 135 -49q53 0 82 24t29 68q0 40 -27 60t-96 30q-86 13 -121 44t-35 94q0 66 47 105t126 39q89 0 143 -45q10 -10 3 -21l-14 -19q-9 -12 -21 -3q-44 35 -106 35q-57 0 -87 -24 t-30 -68q0 -36 26 -54.5t91 -27.5q89 -12 125.5 -45.5t36.5 -99.5zM261 -96q0 -63 -52 -85q-8 -5 -13 5l-4 8q-4 10 4 14q15 8 20 27q-25 0 -34.5 24.5t8.5 42.5q20 18 45.5 6.5t25.5 -42.5z" />
<glyph unicode="&#x21a;" horiz-adv-x="484" d="M450 607h-175v-592q0 -15 -15 -15h-35q-15 0 -15 15v592h-176q-15 0 -15 15v27q0 15 15 15h416q15 0 15 -15v-27q0 -15 -15 -15zM283 -96q0 -63 -52 -85q-8 -5 -13 5l-4 8q-4 10 4 14q15 8 20 27q-25 0 -34.5 24.5t8.5 42.5q20 18 45.5 6.5t25.5 -42.5z" />
<glyph unicode="&#x21b;" horiz-adv-x="352" d="M325 52l9 -22q4 -13 -6 -20q-34 -22 -90 -22q-70 0 -107 38t-37 111v303h-60q-15 0 -15 15v23q0 15 15 15h60v119q0 15 15 15h31q15 0 15 -15v-119h151q15 0 15 -15v-23q0 -15 -15 -15h-151v-300q0 -99 89 -99q34 0 59 16q16 10 22 -5zM242 -96q0 -63 -52 -85 q-8 -5 -13 5l-4 8q-4 10 4 14q15 8 20 27q-25 0 -34.5 24.5t8.5 42.5q20 18 45.5 6.5t25.5 -42.5z" />
<glyph unicode="&#x237;" horiz-adv-x="207" d="M-5 -107q78 0 78 85v500q0 15 15 15h31q15 0 15 -15v-500q0 -138 -130 -138h-9q-15 0 -15 15v23q0 15 15 15z" />
<glyph unicode="&#x2c6;" horiz-adv-x="500" d="M319 575l-67 95l-67 -95q-5 -8 -16 -8h-27q-8 0 -10.5 4.5t2.5 11.5l86 123q6 9 17 9h31q11 0 17 -9l85 -123q5 -7 2.5 -11.5t-10.5 -4.5h-27q-11 0 -16 8z" />
<glyph unicode="&#x2c7;" horiz-adv-x="500" d="M370 699l-85 -123q-6 -9 -17 -9h-31q-11 0 -17 9l-86 123q-5 7 -2.5 11.5t10.5 4.5h27q11 0 16 -8l67 -95l67 95q5 8 16 8h27q8 0 10.5 -4.5t-2.5 -11.5z" />
<glyph unicode="&#x2d8;" horiz-adv-x="500" d="M344 694h19q14 0 12 -14q-7 -46 -40 -72t-83 -26t-83 26t-40 72q-2 14 12 14h19q11 0 14 -12q13 -52 78 -52t78 52q3 12 14 12z" />
<glyph unicode="&#x2d9;" horiz-adv-x="500" d="M280 605q-12 -12 -30 -12t-30 12t-12 30t12 30t30 12t30 -12t12 -30t-12 -30z" />
<glyph unicode="&#x2da;" horiz-adv-x="500" d="M306 584q-22 -22 -56 -22t-57 22q-22 23 -22 57t22 56q23 23 57 23t56 -23q23 -22 23 -56t-23 -57zM225 615q10 -10 25 -10t25 10q10 11 10 26t-10 25q-15 16 -34.5 9t-24.5 -25t9 -35z" />
<glyph unicode="&#x2db;" horiz-adv-x="500" d="M331 -113l10 -12q7 -11 -1 -19q-29 -28 -70 -28q-40 0 -63 21t-23 56q0 75 92 126l26 -21q-72 -42 -72 -98q0 -18 11.5 -29.5t32.5 -11.5q22 0 39 17q9 9 18 -1z" />
<glyph unicode="&#x2dc;" horiz-adv-x="500" d="M143 581h-17q-15 0 -13 14q7 44 29 67.5t56 23.5q32 0 68 -33q26 -23 42 -23q30 0 39 43q3 12 14 12h17q15 0 13 -14q-7 -44 -29 -67.5t-56 -23.5q-32 0 -68 33q-26 23 -42 23q-30 0 -39 -43q-3 -12 -14 -12z" />
<glyph unicode="&#x2dd;" horiz-adv-x="500" d="M283 698l-80 -123q-6 -8 -16 -8h-23q-18 0 -9 16l72 122q6 10 17 10h30q20 0 9 -17zM425 698l-79 -123q-6 -8 -16 -8h-24q-18 0 -9 16l72 122q6 10 17 10h30q20 0 9 -17z" />
<glyph unicode="&#x394;" horiz-adv-x="581" d="M546 0h-497q-20 0 -12 17l222 634q4 13 18 13h41q14 0 18 -13l222 -634q8 -17 -12 -17zM297 584h-1l-179 -527h359z" />
<glyph unicode="&#x3a9;" horiz-adv-x="585" d="M526 436v-169q0 -154 -110 -207v-1h95q15 0 15 -15v-29q0 -15 -15 -15h-155q-15 0 -15 15v34q0 12 12 18q108 45 108 197v161q0 194 -169 194q-168 0 -168 -194v-161q0 -152 108 -197q12 -6 12 -18v-34q0 -15 -15 -15h-155q-15 0 -15 15v29q0 15 15 15h95v1 q-110 53 -110 207v169q0 118 59.5 179t173.5 61q115 0 174.5 -61t59.5 -179z" />
<glyph unicode="&#x3bc;" horiz-adv-x="500" d="M433 478v-307q0 -89 -43.5 -136t-126.5 -47q-91 0 -128 61h-1v-194q0 -15 -15 -15h-31q-15 0 -15 15v623q0 15 15 15h31q15 0 15 -15v-297q0 -140 119 -140q61 0 90 34t29 106v297q0 15 15 15h31q15 0 15 -15z" />
<glyph unicode="&#x3c0;" horiz-adv-x="520" d="M365 15v425h-210v-425q0 -15 -15 -15h-31q-15 0 -15 15v425h-60q-15 0 -15 15v23q0 15 15 15h452q15 0 15 -15v-23q0 -15 -15 -15h-60v-425q0 -15 -15 -15h-31q-15 0 -15 15z" />
<glyph unicode="&#x1e02;" horiz-adv-x="563" d="M397 340v-1q124 -28 124 -163q0 -91 -53.5 -133.5t-168.5 -42.5h-200q-15 0 -15 15v634q0 15 15 15h182q115 0 168.5 -41.5t53.5 -129.5q0 -122 -106 -153zM149 607v-241h132q82 0 119.5 29t37.5 91q0 63 -37.5 92t-119.5 29h-132zM149 309v-252h149q82 0 120 30.5 t38 95.5t-38 95.5t-120 30.5h-149zM305 770q-12 -12 -30 -12t-30 12t-12 30t12 30t30 12t30 -12t12 -30t-12 -30z" />
<glyph unicode="&#x1e03;" horiz-adv-x="487" d="M259 505q86 0 130.5 -48t44.5 -139v-142q0 -92 -47 -140t-136 -48q-90 0 -137 48t-47 140v509q0 15 15 15h31q15 0 15 -15v-243h1q39 63 130 63zM373 185v124q0 74 -29.5 108.5t-92.5 34.5q-123 0 -123 -143v-124q0 -74 30 -109t93 -35t92.5 35t29.5 109zM128 801 q-12 -12 -30 -12t-30 12t-12 30t12 30t30 12t30 -12t12 -30t-12 -30z" />
<glyph unicode="&#x1e0a;" horiz-adv-x="590" d="M99 664h199q233 0 233 -227v-210q0 -227 -233 -227h-199q-15 0 -15 15v634q0 15 15 15zM466 238v188q0 92 -42 136.5t-129 44.5h-146v-550h146q87 0 129 44.5t42 136.5zM311 770q-12 -12 -30 -12t-30 12t-12 30t12 30t30 12t30 -12t12 -30t-12 -30z" />
<glyph unicode="&#x1e0b;" horiz-adv-x="487" d="M420 685v-509q0 -92 -47 -140t-136 -48q-90 0 -137 48t-47 140v142q0 91 44.5 139t130.5 48q91 0 130 -61h1v241q0 15 15 15h31q15 0 15 -15zM359 185v124q0 143 -122 143q-64 0 -93.5 -34.5t-29.5 -108.5v-124q0 -74 29.5 -109t93.5 -35q63 0 92.5 35t29.5 109zM420 801 q-12 -12 -30 -12t-30 12t-12 30t12 30t30 12t30 -12t12 -30t-12 -30z" />
<glyph unicode="&#x1e1e;" horiz-adv-x="502" d="M149 607v-247h274q15 0 15 -15v-27q0 -15 -15 -15h-274v-288q0 -15 -15 -15h-35q-15 0 -15 15v634q0 15 15 15h368q15 0 15 -15v-27q0 -15 -15 -15h-318zM301 770q-12 -12 -30 -12t-30 12t-12 30t12 30t30 12t30 -12t12 -30t-12 -30z" />
<glyph unicode="&#x1e1f;" horiz-adv-x="323" d="M251 659q-96 0 -96 -116v-50h151q15 0 15 -15v-23q0 -15 -15 -15h-151v-425q0 -15 -15 -15h-31q-15 0 -15 15v425h-60q-15 0 -15 15v23q0 15 15 15h60v53q0 80 39.5 123t113.5 43q55 0 98 -23q12 -6 6 -20l-10 -21q-7 -14 -20 -7q-33 18 -70 18zM234 801q-12 -12 -30 -12 t-30 12t-12 30t12 30t30 12t30 -12t12 -30t-12 -30z" />
<glyph unicode="&#x1e40;" horiz-adv-x="814" d="M730 649v-634q0 -15 -15 -15h-35q-15 0 -15 15v558h-1l-223 -561q-5 -12 -18 -12h-33q-14 0 -18 12l-224 564h-1v-561q0 -15 -15 -15h-33q-15 0 -15 15v634q0 15 15 15h68q13 0 18 -12l222 -558l221 558q4 12 18 12h69q15 0 15 -15zM437 770q-12 -12 -30 -12t-30 12 t-12 30t12 30t30 12t30 -12t12 -30t-12 -30z" />
<glyph unicode="&#x1e41;" horiz-adv-x="758" d="M522 505q83 0 126 -46.5t43 -135.5v-308q0 -15 -15 -15h-31q-15 0 -15 15v299q0 71 -27 104.5t-84 33.5q-56 0 -82.5 -33.5t-26.5 -104.5v-299q0 -15 -15 -15h-31q-15 0 -15 15v299q0 71 -27 104.5t-85 33.5q-56 0 -82.5 -33.5t-26.5 -104.5v-299q0 -15 -15 -15h-31 q-15 0 -15 15v308q0 89 42.5 135.5t124.5 46.5q106 0 145 -75h1q36 75 142 75zM409 605q-12 -12 -30 -12t-30 12t-12 30t12 30t30 12t30 -12t12 -30t-12 -30z" />
<glyph unicode="&#x1e56;" horiz-adv-x="541" d="M99 664h185q119 0 175 -48t56 -150t-56 -150t-175 -48h-135v-253q0 -15 -15 -15h-35q-15 0 -15 15v634q0 15 15 15zM149 607v-282h134q86 0 126 34t40 107t-40 107t-126 34h-134zM309 770q-12 -12 -30 -12t-30 12t-12 30t12 30t30 12t30 -12t12 -30t-12 -30z" />
<glyph unicode="&#x1e57;" horiz-adv-x="487" d="M251 505q89 0 136 -48t47 -139v-143q0 -91 -44.5 -139t-130.5 -48q-91 0 -130 63h-1v-196q0 -15 -15 -15h-31q-15 0 -15 15v463q0 91 47 139t137 48zM373 185v124q0 74 -29.5 108.5t-92.5 34.5t-93 -35t-30 -108v-124q0 -144 123 -144q63 0 92.5 35t29.5 109zM281 605 q-12 -12 -30 -12t-30 12t-12 30t12 30t30 12t30 -12t12 -30t-12 -30z" />
<glyph unicode="&#x1e60;" horiz-adv-x="507" d="M264 676q133 0 200 -85q8 -11 -3 -21l-24 -19q-11 -11 -21 3q-50 65 -149 65q-67 0 -107 -35.5t-40 -94.5q0 -55 37 -84t128 -44q110 -18 156 -60.5t46 -124.5q0 -85 -57.5 -136.5t-151.5 -51.5q-154 0 -230 100q-8 10 3 21l21 19q12 11 22 -2q62 -81 181 -81 q67 0 107 35.5t40 94.5q0 54 -35.5 82t-127.5 44q-111 19 -157.5 62t-46.5 125q0 85 57.5 136.5t151.5 51.5zM294 770q-12 -12 -30 -12t-30 12t-12 30t12 30t30 12t30 -12t12 -30t-12 -30z" />
<glyph unicode="&#x1e61;" horiz-adv-x="412" d="M392 133q0 -67 -45 -106t-121 -39q-114 0 -178 61q-10 10 -1 21l16 20q10 12 22 0q49 -49 135 -49q53 0 82 24t29 68q0 40 -27 60t-96 30q-86 13 -121 44t-35 94q0 66 47 105t126 39q89 0 143 -45q10 -10 3 -21l-14 -19q-9 -12 -21 -3q-44 35 -106 35q-57 0 -87 -24 t-30 -68q0 -36 26 -54.5t91 -27.5q89 -12 125.5 -45.5t36.5 -99.5zM246 605q-12 -12 -30 -12t-30 12t-12 30t12 30t30 12t30 -12t12 -30t-12 -30z" />
<glyph unicode="&#x1e6a;" horiz-adv-x="484" d="M450 607h-175v-592q0 -15 -15 -15h-35q-15 0 -15 15v592h-176q-15 0 -15 15v27q0 15 15 15h416q15 0 15 -15v-27q0 -15 -15 -15zM272 770q-12 -12 -30 -12t-30 12t-12 30t12 30t30 12t30 -12t12 -30t-12 -30z" />
<glyph unicode="&#x1e6b;" horiz-adv-x="352" d="M325 52l9 -22q4 -13 -6 -20q-34 -22 -90 -22q-70 0 -107 38t-37 111v303h-60q-15 0 -15 15v23q0 15 15 15h60v119q0 15 15 15h31q15 0 15 -15v-119h151q15 0 15 -15v-23q0 -15 -15 -15h-151v-300q0 -99 89 -99q34 0 59 16q16 10 22 -5zM154 733q-12 -12 -30 -12t-30 12 t-12 30t12 30t30 12t30 -12t12 -30t-12 -30z" />
<glyph unicode="&#x1e80;" horiz-adv-x="850" d="M824 647l-173 -632q-3 -15 -18 -15h-44q-15 0 -18 15l-140 518h-1l-141 -518q-3 -15 -18 -15h-45q-15 0 -18 15l-172 632q-5 17 12 17h40q13 0 16 -13l145 -548h1l148 547q3 14 18 14h30q15 0 18 -14l148 -547h1l145 548q3 13 16 13h38q17 0 12 -17zM451 732h-29 q-11 0 -16 8l-87 123q-5 7 -2.5 12t11.5 5h35q11 0 17 -9l80 -123q9 -16 -9 -16z" />
<glyph unicode="&#x1e81;" horiz-adv-x="683" d="M665 476l-141 -461q-4 -15 -18 -15h-34q-14 0 -18 15l-107 362h-1l-108 -362q-4 -15 -18 -15h-34q-14 0 -18 15l-140 461q-5 17 13 17h35q13 0 17 -13l110 -384h1l113 382q5 15 18 15h25q14 0 18 -15l112 -378h1l111 380q4 13 17 13h33q18 0 13 -17zM368 567h-29 q-11 0 -16 8l-87 123q-5 7 -2.5 12t11.5 5h35q11 0 17 -9l80 -123q9 -16 -9 -16z" />
<glyph unicode="&#x1e82;" horiz-adv-x="850" d="M824 647l-173 -632q-3 -15 -18 -15h-44q-15 0 -18 15l-140 518h-1l-141 -518q-3 -15 -18 -15h-45q-15 0 -18 15l-172 632q-5 17 12 17h40q13 0 16 -13l145 -548h1l148 547q3 14 18 14h30q15 0 18 -14l148 -547h1l145 548q3 13 16 13h38q17 0 12 -17zM541 863l-87 -123 q-5 -8 -16 -8h-29q-18 0 -9 16l80 123q6 9 17 9h35q9 0 11.5 -5t-2.5 -12z" />
<glyph unicode="&#x1e83;" horiz-adv-x="683" d="M665 476l-141 -461q-4 -15 -18 -15h-34q-14 0 -18 15l-107 362h-1l-108 -362q-4 -15 -18 -15h-34q-14 0 -18 15l-140 461q-5 17 13 17h35q13 0 17 -13l110 -384h1l113 382q5 15 18 15h25q14 0 18 -15l112 -378h1l111 380q4 13 17 13h33q18 0 13 -17zM458 698l-87 -123 q-5 -8 -16 -8h-29q-18 0 -9 16l80 123q6 9 17 9h35q9 0 11.5 -5t-2.5 -12z" />
<glyph unicode="&#x1e84;" horiz-adv-x="850" d="M824 647l-173 -632q-3 -15 -18 -15h-44q-15 0 -18 15l-140 518h-1l-141 -518q-3 -15 -18 -15h-45q-15 0 -18 15l-172 632q-5 17 12 17h40q13 0 16 -13l145 -548h1l148 547q3 14 18 14h30q15 0 18 -14l148 -547h1l145 548q3 13 16 13h38q17 0 12 -17zM350 760 q-25 0 -35 20t0 40t35 20q24 2 34.5 -19t0 -42t-34.5 -19zM510 760q-24 -2 -34.5 19t0 42t34.5 19q25 0 35 -20t0 -40t-35 -20z" />
<glyph unicode="&#x1e85;" horiz-adv-x="683" d="M665 476l-141 -461q-4 -15 -18 -15h-34q-14 0 -18 15l-107 362h-1l-108 -362q-4 -15 -18 -15h-34q-14 0 -18 15l-140 461q-5 17 13 17h35q13 0 17 -13l110 -384h1l113 382q5 15 18 15h25q14 0 18 -15l112 -378h1l111 380q4 13 17 13h33q18 0 13 -17zM267 595 q-25 0 -35 20t0 40t35 20q24 2 34.5 -19t0 -42t-34.5 -19zM427 595q-24 -2 -34.5 19t0 42t34.5 19q25 0 35 -20t0 -40t-35 -20z" />
<glyph unicode="&#x1ef2;" horiz-adv-x="519" d="M509 646l-214 -353v-278q0 -15 -15 -15h-35q-15 0 -15 15v278l-214 353q-11 18 10 18h43q12 0 18 -10l177 -299l177 299q6 10 18 10h40q21 0 10 -18zM283 732h-29q-11 0 -16 8l-87 123q-5 7 -2.5 12t11.5 5h35q11 0 17 -9l80 -123q9 -16 -9 -16z" />
<glyph unicode="&#x1ef3;" horiz-adv-x="500" d="M427 478v-477q0 -81 -48.5 -127t-133.5 -46q-98 0 -161 57q-10 10 -2 21l15 20q10 13 21 2q52 -47 124 -47q60 0 92 33t32 95v54h-1q-37 -61 -128 -61q-83 0 -126.5 47t-43.5 136v293q0 15 15 15h31q15 0 15 -15v-283q0 -72 29 -106t90 -34q119 0 119 140v283q0 15 15 15 h31q15 0 15 -15zM268 567h-29q-11 0 -16 8l-87 123q-5 7 -2.5 12t11.5 5h35q11 0 17 -9l80 -123q9 -16 -9 -16z" />
<glyph unicode="&#x2007;" horiz-adv-x="529" />
<glyph unicode="&#x2012;" horiz-adv-x="529" d="M485 288h-441q-14 0 -14 14v21q0 14 14 14h441q14 0 14 -14v-21q0 -14 -14 -14z" />
<glyph unicode="&#x2013;" horiz-adv-x="500" d="M456 247h-412q-14 0 -14 14v21q0 14 14 14h412q14 0 14 -14v-21q0 -14 -14 -14z" />
<glyph unicode="&#x2014;" horiz-adv-x="900" d="M856 247h-812q-14 0 -14 14v21q0 14 14 14h812q14 0 14 -14v-21q0 -14 -14 -14z" />
<glyph unicode="&#x2018;" horiz-adv-x="220" d="M110 495q-20 0 -32.5 13.5t-12.5 37.5q0 74 63 127q7 7 15 -1l9 -10q6 -7 -1 -14q-29 -26 -35 -70q38 -5 38 -41q0 -19 -12.5 -30.5t-31.5 -11.5z" />
<glyph unicode="&#x2019;" horiz-adv-x="220" d="M114 676q20 0 32.5 -13.5t12.5 -37.5q0 -75 -63 -127q-7 -7 -15 1l-9 10q-6 7 1 14q29 26 35 70q-38 5 -38 41q0 19 12.5 30.5t31.5 11.5z" />
<glyph unicode="&#x201a;" horiz-adv-x="220" d="M114 77q20 0 32.5 -13.5t12.5 -37.5q0 -74 -63 -127q-7 -7 -15 1l-9 10q-6 7 1 14q29 26 35 70q-38 5 -38 41q0 19 12.5 30.5t31.5 11.5z" />
<glyph unicode="&#x201c;" horiz-adv-x="386" d="M110 495q-20 0 -32.5 13.5t-12.5 37.5q0 74 63 127q7 7 15 -1l9 -10q6 -7 -1 -14q-29 -26 -35 -70q38 -5 38 -41q0 -19 -12.5 -30.5t-31.5 -11.5zM275 495q-20 0 -32.5 13.5t-12.5 37.5q0 74 63 127q9 7 15 -1l9 -10q6 -7 -1 -14q-29 -26 -35 -70q38 -5 38 -41 q0 -19 -12.5 -30.5t-31.5 -11.5z" />
<glyph unicode="&#x201d;" horiz-adv-x="386" d="M114 676q20 0 32.5 -13.5t12.5 -37.5q0 -75 -63 -127q-7 -7 -15 1l-9 10q-6 7 1 14q29 26 35 70q-38 5 -38 41q0 19 12.5 30.5t31.5 11.5zM279 676q20 0 32.5 -13.5t12.5 -37.5q0 -75 -63 -127q-9 -7 -15 1l-9 10q-6 7 1 14q29 26 35 70q-38 5 -38 41q0 19 12.5 30.5 t31.5 11.5z" />
<glyph unicode="&#x201e;" horiz-adv-x="386" d="M279 77q20 0 32.5 -13.5t12.5 -37.5q0 -74 -63 -127q-9 -7 -15 1l-9 10q-6 7 1 14q29 26 35 70q-38 5 -38 41q0 19 12.5 30.5t31.5 11.5zM114 77q20 0 32.5 -13.5t12.5 -37.5q0 -74 -63 -127q-7 -7 -15 1l-9 10q-6 7 1 14q29 26 35 70q-38 5 -38 41q0 19 12.5 30.5 t31.5 11.5z" />
<glyph unicode="&#x2020;" horiz-adv-x="435" d="M379 492h-136v-393q0 -14 -14 -14h-23q-14 0 -14 14v393h-136q-14 0 -14 14v19q0 14 14 14h136v147q0 14 14 14h23q14 0 14 -14v-147h136q14 0 14 -14v-19q0 -14 -14 -14z" />
<glyph unicode="&#x2021;" horiz-adv-x="435" d="M243 492v-198h136q14 0 14 -14v-20q0 -14 -14 -14h-136v-147q0 -14 -14 -14h-23q-14 0 -14 14v147h-136q-14 0 -14 14v20q0 14 14 14h136v198h-136q-14 0 -14 14v19q0 14 14 14h136v147q0 14 14 14h23q14 0 14 -14v-147h136q14 0 14 -14v-19q0 -14 -14 -14h-136z" />
<glyph unicode="&#x2022;" horiz-adv-x="500" d="M131 292q0 49 34 83q35 35 85 35q49 0 84 -35t35 -83q0 -50 -35 -85q-34 -34 -84 -34q-51 0 -85 34t-34 85z" />
<glyph unicode="&#x2026;" horiz-adv-x="900" d="M730 77q20 0 32.5 -12.5t12.5 -32.5q0 -29 -28 -40.5t-49 8.5q-20 21 -8.5 49t40.5 28zM450 77q20 0 32.5 -12.5t12.5 -32.5q0 -29 -28 -40.5t-49 8.5q-20 21 -8.5 49t40.5 28zM170 77q20 0 32.5 -12.5t12.5 -32.5q0 -29 -28 -40.5t-49 8.5q-20 21 -8.5 49t40.5 28z" />
<glyph unicode="&#x2030;" horiz-adv-x="910" d="M642 111v77q0 59 30 91t88 32q57 0 87.5 -32t30.5 -91v-77q0 -60 -30.5 -91.5t-87.5 -31.5q-58 0 -88 31.5t-30 91.5zM690 186v-72q0 -43 16.5 -62t53.5 -19t53.5 19t16.5 62v72q0 42 -16.5 61t-53.5 19t-53.5 -19t-16.5 -61zM33 436v77q0 59 30 91t88 32q57 0 87.5 -32 t30.5 -91v-77q0 -60 -30.5 -91.5t-87.5 -31.5q-58 0 -88 31.5t-30 91.5zM89 16l395 600q6 8 16 8h28q18 0 9 -16l-396 -600q-6 -8 -16 -8h-27q-18 0 -9 16zM81 511v-72q0 -43 16.5 -62t53.5 -19t53.5 19t16.5 62v72q0 42 -16.5 61t-53.5 19t-53.5 -19t-16.5 -61zM358 111v77 q0 59 30 91t88 32q57 0 87.5 -32t30.5 -91v-77q0 -60 -30.5 -91.5t-87.5 -31.5q-58 0 -88 31.5t-30 91.5zM406 186v-72q0 -43 16.5 -62t53.5 -19t53.5 19t16.5 62v72q0 42 -16.5 61t-53.5 19t-53.5 -19t-16.5 -61z" />
<glyph unicode="&#x2039;" horiz-adv-x="238" d="M200 418l-109 -171l109 -172q11 -17 -9 -17h-28q-11 0 -17 9l-108 170q-6 10 0 20l108 169q6 9 17 9h28q20 0 9 -17z" />
<glyph unicode="&#x203a;" horiz-adv-x="238" d="M54 75l109 171l-109 172q-11 17 9 17h28q11 0 17 -9l108 -170q6 -10 0 -20l-108 -169q-6 -9 -17 -9h-28q-20 0 -9 17z" />
<glyph unicode="&#x2044;" horiz-adv-x="133" d="M-152 16l395 600q6 8 16 8h25q18 0 9 -16l-395 -600q-6 -8 -16 -8h-25q-18 0 -9 16z" />
<glyph unicode="&#x2070;" d="M37 489v134q0 65 33 99t95 34t95 -34t33 -99v-134q0 -65 -33 -99t-95 -34t-95 34t-33 99zM84 620v-127q0 -94 81 -94t81 94v127q0 93 -81 93t-81 -93z" />
<glyph unicode="&#x2074;" d="M299 451h-33v-75q0 -13 -13 -13h-21q-13 0 -13 13v75h-177q-13 0 -13 13v24q0 8 5 16l178 237q8 8 16 8h25q13 0 13 -13v-242h33q13 0 13 -13v-17q0 -13 -13 -13zM219 680h-1l-138 -186h139v186z" />
<glyph unicode="&#x2075;" d="M186 611q55 0 89 -35t34 -92q0 -59 -36.5 -93.5t-98.5 -34.5q-78 0 -124 51q-8 9 1 18l12 13q9 10 18 0q36 -39 91 -39q43 0 66.5 22.5t23.5 62.5q0 38 -23 61t-63 23q-48 0 -76 -27q-7 -7 -17 -6l-12 2q-13 1 -11 14l11 185q1 13 14 13h189q13 0 13 -13v-17 q0 -13 -13 -13h-163l-8 -121h1q35 26 82 26z" />
<glyph unicode="&#x2076;" d="M180 612q55 0 87 -35q33 -35 33 -92t-35 -94q-35 -35 -93 -35t-93 35t-35 93v141q0 61 34 96t94 35q64 0 105 -38q7 -9 0 -18l-13 -15q-9 -10 -19 -1q-29 29 -69 29q-85 0 -85 -92v-47h1q30 38 88 38zM253 484q0 40 -21.5 62.5t-59.5 22.5q-36 0 -59 -23q-22 -22 -22 -62 t22 -62q23 -23 59 -23q37 0 59 23t22 62z" />
<glyph unicode="&#x2077;" d="M308 736v-25q0 -9 -4 -16l-158 -322q-6 -10 -16 -10h-24q-16 0 -9 15l163 328h-174v-55q0 -13 -13 -13h-20q-13 0 -13 13v85q0 13 13 13h242q13 0 13 -13z" />
<glyph unicode="&#x2078;" d="M233 566v-1q68 -26 68 -96q0 -54 -36 -83.5t-100 -29.5t-100 29.5t-36 83.5q0 69 68 95v1q-58 24 -58 85q0 50 33.5 78t92.5 28t92.5 -28t33.5 -78q0 -60 -58 -84zM86 648q0 -63 79 -63t79 63q0 65 -79 65t-79 -65zM254 471q0 71 -89 71q-42 0 -65.5 -18.5t-23.5 -52.5 q0 -72 89 -72t89 72z" />
<glyph unicode="&#x2079;" d="M286 628v-141q0 -61 -34 -96t-94 -35q-64 0 -105 38q-9 9 -1 18l13 16q9 10 17 2q31 -31 72 -31q85 0 85 92v47h-1q-29 -38 -88 -38q-55 0 -88 34q-32 35 -32 93t35 93q35 36 93 36t93 -35t35 -93zM158 543q36 0 59 23q22 22 22 62t-22 62q-23 23 -59 23q-37 0 -59 -23 t-22 -62q0 -40 21.5 -62.5t59.5 -22.5z" />
<glyph unicode="&#x2080;" d="M37 -34v134q0 65 33 99t95 34t95 -34t33 -99v-134q0 -65 -33 -99t-95 -34t-95 34t-33 99zM84 97v-127q0 -94 81 -94t81 94v127q0 93 -81 93t-81 -93z" />
<glyph unicode="&#x2081;" d="M253 213v-360q0 -13 -13 -13h-21q-13 0 -13 13v311l-81 -62q-12 -8 -18 3l-10 15q-7 10 3 18l109 83q8 5 16 5h15q13 0 13 -13z" />
<glyph unicode="&#x2082;" d="M238 7l-124 -124h167q13 0 13 -13v-17q0 -13 -13 -13h-218q-13 0 -13 13v18q0 9 7 16l147 149q44 46 44 86q0 68 -77 68q-52 0 -82 -46q-7 -12 -18 -4l-15 10q-10 7 -4 18q42 65 121 65q57 0 89.5 -29.5t32.5 -81.5q0 -56 -57 -115z" />
<glyph unicode="&#x2083;" d="M240 43v-1q70 -22 70 -96q0 -53 -35 -83t-97 -30q-83 0 -126 52q-7 10 1 19l12 12q10 10 19 -1q34 -39 92 -39q41 0 64 19t23 53q0 71 -97 71h-23q-13 0 -13 13v17q0 13 13 13h20q90 0 90 63q0 65 -80 65q-53 0 -84 -39q-10 -11 -19 -1l-13 12q-9 8 -1 19q46 52 119 52 q58 0 91.5 -28t33.5 -78q0 -63 -60 -84z" />
<glyph unicode="&#x2084;" d="M299 -72h-33v-75q0 -13 -13 -13h-21q-13 0 -13 13v75h-177q-13 0 -13 13v24q0 8 5 16l178 237q8 8 16 8h25q13 0 13 -13v-242h33q13 0 13 -13v-17q0 -13 -13 -13zM219 157h-1l-138 -186h139v186z" />
<glyph unicode="&#x2085;" d="M186 88q55 0 89 -35t34 -92q0 -59 -36.5 -93.5t-98.5 -34.5q-78 0 -124 51q-8 9 1 18l12 13q9 11 18 0q36 -39 91 -39q43 0 66.5 22.5t23.5 62.5q0 38 -23 61t-63 23q-48 0 -76 -27q-7 -7 -17 -6l-12 2q-13 1 -11 14l11 185q1 13 14 13h189q13 0 13 -13v-17 q0 -13 -13 -13h-163l-8 -121h1q35 26 82 26z" />
<glyph unicode="&#x2086;" d="M180 89q55 0 87 -35q33 -35 33 -92q0 -58 -35 -93q-35 -36 -93 -36t-93 34.5t-35 93.5v141q0 61 34 96t94 35q64 0 105 -38q7 -9 0 -18l-13 -15q-9 -10 -19 -1q-29 29 -69 29q-85 0 -85 -92v-47h1q30 38 88 38zM253 -39q0 40 -21.5 62.5t-59.5 22.5q-36 0 -59 -23 q-22 -22 -22 -62t22 -62q23 -23 59 -23q37 0 59 23t22 62z" />
<glyph unicode="&#x2087;" d="M308 213v-25q0 -9 -4 -16l-158 -322q-6 -10 -16 -10h-24q-16 0 -9 15l163 328h-174v-55q0 -13 -13 -13h-20q-13 0 -13 13v85q0 13 13 13h242q13 0 13 -13z" />
<glyph unicode="&#x2088;" d="M233 43v-1q68 -26 68 -96q0 -54 -36 -83.5t-100 -29.5t-100 29.5t-36 83.5q0 69 68 95v1q-58 24 -58 85q0 50 33.5 78t92.5 28t92.5 -28t33.5 -78q0 -60 -58 -84zM86 125q0 -63 79 -63t79 63q0 65 -79 65t-79 -65zM254 -52q0 71 -89 71q-42 0 -65.5 -18.5t-23.5 -52.5 q0 -72 89 -72t89 72z" />
<glyph unicode="&#x2089;" d="M286 105v-141q0 -61 -34 -96t-94 -35q-64 0 -105 38q-9 9 -1 18l13 16q9 10 17 2q31 -31 72 -31q85 0 85 92v47h-1q-29 -38 -88 -38q-55 0 -88 34q-32 35 -32 93t35 93q35 36 93 36t93 -34.5t35 -93.5zM158 20q36 0 59 23q22 22 22 62t-22 62q-23 23 -59 23 q-37 0 -59 -23t-22 -62q0 -40 21.5 -62.5t59.5 -22.5z" />
<glyph unicode="&#x20ac;" horiz-adv-x="529" d="M294 43q98 0 141 76q8 14 20 6l24 -14q14 -8 6 -20q-55 -103 -192 -103q-99 0 -153 56t-54 159v16h-38q-13 0 -13 13v24q0 13 13 13h38v93h-38q-13 0 -13 13v24q0 13 13 13h38v9q0 103 54 159t153 56q137 0 192 -103q7 -13 -6 -20l-23 -13q-12 -6 -20 5q-45 76 -142 76 q-145 0 -145 -167v-2h221q15 0 12 -14l-5 -25q-2 -11 -15 -11h-213v-93h191q15 0 12 -14l-5 -25q-2 -11 -15 -11h-183v-9q0 -167 145 -167z" />
<glyph unicode="&#x20b9;" horiz-adv-x="529" d="M484 572h-96v-1q49 -36 56 -106h48q15 0 12 -15l-4 -24q-1 -13 -15 -13h-41q-7 -81 -65.5 -119.5t-178.5 -38.5h-43v-1l275 -236q8 -7 5.5 -12.5t-12.5 -5.5h-48q-12 0 -19 7l-289 253q-8 8 -7 20l3 16q3 13 17 13h118q87 0 130 25t50 79h-307q-16 0 -13 15l5 24 q1 13 15 13h301q-7 56 -49 80t-132 24h-126q-17 0 -14 16l5 25q2 14 16 14h410q16 0 13 -15l-5 -24q-1 -13 -15 -13z" />
<glyph unicode="&#x2113;" horiz-adv-x="419" d="M360 68l14 -21q8 -11 -2 -21q-44 -38 -106 -38q-71 0 -109.5 42t-38.5 119q-2 -1 -9.5 -6t-17 -10.5t-13.5 -8.5q-14 -8 -20 6l-12 22q-8 14 6 21q33 20 66 43v278q0 67 34 104.5t96 37.5q58 0 90 -36t32 -100q0 -159 -189 -306v-40q0 -111 87 -111q38 0 71 27 q12 10 21 -2zM181 490v-224h1q129 114 129 234q0 81 -62 81q-68 0 -68 -91z" />
<glyph unicode="&#x2117;" horiz-adv-x="771" d="M140 577q99 99 246 99q148 0 245 -99q99 -97 99 -245q0 -147 -99 -246q-98 -98 -245 -98q-146 0 -246 98q-98 100 -98 246q0 147 98 245zM386 29q126 0 212 87q86 88 86 216t-86 216q-86 87 -212 87q-128 0 -213 -87q-85 -86 -85 -216t85 -216q85 -87 213 -87zM298 516 h101q67 0 98.5 -27t31.5 -84q0 -58 -31.5 -85.5t-98.5 -27.5h-67v-132q0 -12 -12 -12h-22q-12 0 -12 12v344q0 12 12 12zM332 475v-142h66q84 0 84 71t-84 71h-66z" />
<glyph unicode="&#x2122;" horiz-adv-x="763" d="M255 623h-90v-300q0 -13 -13 -13h-21q-13 0 -13 13v300h-90q-13 0 -13 13v15q0 13 13 13h227q13 0 13 -13v-15q0 -13 -13 -13zM694 310h-21q-13 0 -13 13v284h-1l-118 -287q-4 -10 -15 -10h-14q-11 0 -15 10l-118 285h-1v-282q0 -13 -13 -13h-18q-13 0 -13 13v328 q0 13 13 13h43q11 0 15 -10l115 -278l115 278q4 10 15 10h44q13 0 13 -13v-328q0 -13 -13 -13z" />
<glyph unicode="&#x2126;" horiz-adv-x="579" d="M523 436v-169q0 -154 -110 -207v-1h95q15 0 15 -15v-29q0 -15 -15 -15h-155q-15 0 -15 15v34q0 12 12 18q108 45 108 197v161q0 194 -169 194q-168 0 -168 -194v-161q0 -152 108 -197q12 -6 12 -18v-34q0 -15 -15 -15h-155q-15 0 -15 15v29q0 15 15 15h95v1 q-110 53 -110 207v169q0 118 59.5 179t173.5 61q115 0 174.5 -61t59.5 -179z" />
<glyph unicode="&#x212e;" horiz-adv-x="820" d="M189 111q88 -103 223 -103q139 0 233 115h54q-52 -64 -128 -99.5t-161 -35.5q-150 0 -256 100t-106 244q0 143 106 243q107 101 256 101t256 -101q106 -100 106 -243v-8h-587q-4 0 -4 -4v-189q0 -7 8 -20zM185 342h450q6 0 6 6v189q0 12 -10 22q-91 97 -219 97 q-130 0 -223 -101q-8 -13 -8 -22v-185q0 -6 4 -6z" />
<glyph unicode="&#x2153;" horiz-adv-x="793" d="M182 16l395 600q6 8 16 8h25q18 0 9 -16l-395 -600q-6 -8 -16 -8h-25q-18 0 -9 16zM704 203v-1q70 -22 70 -96q0 -53 -35 -83t-97 -30q-83 0 -126 52q-7 10 1 19l12 12q10 10 19 -1q34 -39 92 -39q41 0 64 19t23 53q0 71 -97 71h-23q-13 0 -13 13v17q0 13 13 13h20 q90 0 90 63q0 65 -80 65q-51 0 -84 -39q-10 -11 -19 -1l-13 12q-9 8 -1 19q46 52 119 52q58 0 91.5 -28t33.5 -78q0 -63 -60 -84zM253 611v-360q0 -13 -13 -13h-21q-13 0 -13 13v311l-81 -62q-12 -8 -18 3l-10 15q-7 10 3 18l109 83q8 5 16 5h15q13 0 13 -13z" />
<glyph unicode="&#x2154;" horiz-adv-x="793" d="M202 16l395 600q6 8 16 8h25q18 0 9 -16l-395 -600q-6 -8 -16 -8h-25q-18 0 -9 16zM700 203v-1q70 -22 70 -96q0 -53 -35 -83t-97 -30q-83 0 -126 52q-7 10 1 19l12 12q10 10 19 -1q34 -39 92 -39q41 0 64 19t23 53q0 71 -97 71h-23q-13 0 -13 13v17q0 13 13 13h20 q90 0 90 63q0 65 -80 65q-51 0 -84 -39q-10 -11 -19 -1l-13 12q-9 8 -1 19q46 52 119 52q58 0 91.5 -28t33.5 -78q0 -63 -60 -84zM238 405l-124 -124h167q13 0 13 -13v-17q0 -13 -13 -13h-218q-13 0 -13 13v18q0 9 7 16l147 149q44 46 44 86q0 68 -77 68q-52 0 -82 -46 q-7 -12 -18 -4l-15 10q-10 7 -4 18q42 65 121 65q57 0 89.5 -29.5t32.5 -81.5q0 -56 -57 -115z" />
<glyph unicode="&#x215b;" horiz-adv-x="793" d="M704 203v-1q68 -26 68 -96q0 -54 -36 -83.5t-100 -29.5t-100 29.5t-36 83.5q0 69 68 95v1q-58 24 -58 85q0 50 33.5 78t92.5 28t92.5 -28t33.5 -78q0 -60 -58 -84zM557 285q0 -63 79 -63t79 63q0 65 -79 65t-79 -65zM725 108q0 71 -89 71q-42 0 -65.5 -18.5t-23.5 -52.5 q0 -72 89 -72t89 72zM253 611v-360q0 -13 -13 -13h-21q-13 0 -13 13v311l-81 -62q-12 -8 -18 3l-10 15q-7 10 3 18l109 83q8 5 16 5h15q13 0 13 -13zM183 16l395 600q6 8 16 8h25q18 0 9 -16l-395 -600q-6 -8 -16 -8h-25q-18 0 -9 16z" />
<glyph unicode="&#x215c;" horiz-adv-x="793" d="M703 203v-1q68 -26 68 -96q0 -54 -36 -83.5t-100 -29.5t-100 29.5t-36 83.5q0 69 68 95v1q-58 24 -58 85q0 50 33.5 78t92.5 28t92.5 -28t33.5 -78q0 -60 -58 -84zM556 285q0 -63 79 -63t79 63q0 65 -79 65t-79 -65zM724 108q0 71 -89 71q-42 0 -65.5 -18.5t-23.5 -52.5 q0 -72 89 -72t89 72zM240 441v-1q70 -22 70 -96q0 -53 -35 -83t-97 -30q-83 0 -126 52q-7 10 1 19l12 12q10 10 19 -1q34 -39 92 -39q41 0 64 19t23 53q0 71 -97 71h-23q-13 0 -13 13v17q0 13 13 13h20q90 0 90 63q0 65 -80 65q-53 0 -84 -39q-10 -11 -19 -1l-13 12 q-9 8 -1 19q46 52 119 52q58 0 91.5 -28t33.5 -78q0 -63 -60 -84zM187 16l395 600q6 8 16 8h25q18 0 9 -16l-395 -600q-6 -8 -16 -8h-25q-18 0 -9 16z" />
<glyph unicode="&#x215d;" horiz-adv-x="793" d="M186 486q55 0 89 -35t34 -92q0 -59 -36.5 -93.5t-98.5 -34.5q-78 0 -124 51q-8 9 1 18l12 13q9 11 18 0q36 -39 91 -39q43 0 66.5 22.5t23.5 62.5q0 38 -23 61t-63 23q-48 0 -76 -27q-7 -7 -17 -6l-12 2q-13 1 -11 14l11 185q1 13 14 13h189q13 0 13 -13v-17 q0 -13 -13 -13h-163l-8 -121h1q35 26 82 26zM704 203v-1q68 -26 68 -96q0 -54 -36 -83.5t-100 -29.5t-100 29.5t-36 83.5q0 69 68 95v1q-58 24 -58 85q0 50 33.5 78t92.5 28t92.5 -28t33.5 -78q0 -60 -58 -84zM557 285q0 -63 79 -63t79 63q0 65 -79 65t-79 -65zM725 108 q0 71 -89 71q-42 0 -65.5 -18.5t-23.5 -52.5q0 -72 89 -72t89 72zM188 16l395 600q6 8 16 8h25q18 0 9 -16l-395 -600q-6 -8 -16 -8h-25q-18 0 -9 16z" />
<glyph unicode="&#x215e;" horiz-adv-x="793" d="M696 203v-1q68 -26 68 -96q0 -54 -36 -83.5t-100 -29.5t-100 29.5t-36 83.5q0 69 68 95v1q-58 24 -58 85q0 50 33.5 78t92.5 28t92.5 -28t33.5 -78q0 -60 -58 -84zM549 285q0 -63 79 -63t79 63q0 65 -79 65t-79 -65zM717 108q0 71 -89 71q-42 0 -65.5 -18.5t-23.5 -52.5 q0 -72 89 -72t89 72zM308 611v-25q0 -9 -4 -16l-158 -322q-6 -10 -16 -10h-24q-16 0 -9 15l163 328h-174v-55q0 -13 -13 -13h-20q-13 0 -13 13v85q0 13 13 13h242q13 0 13 -13zM138 16l395 600q6 8 16 8h25q18 0 9 -16l-395 -600q-6 -8 -16 -8h-25q-18 0 -9 16z" />
<glyph unicode="&#x2202;" horiz-adv-x="539" d="M279 676q101 0 155.5 -70.5t54.5 -202.5q0 -196 -68 -305.5t-189 -109.5q-83 0 -134 53q-51 52 -51 140q0 110 63 179q64 69 166 69q104 0 148 -71h1q1 11 1 50q0 104 -39.5 158.5t-115.5 54.5q-69 0 -118 -45q-12 -10 -21 2l-16 21q-8 14 2 21q70 56 161 56zM234 43 q66 0 112 53t66 153q-1 57 -36 91t-94 34q-74 0 -124 -53q-48 -53 -48 -136q0 -66 33.5 -104t90.5 -38z" />
<glyph unicode="&#x2206;" horiz-adv-x="575" d="M543 0h-497q-20 0 -12 17l222 634q4 13 18 13h41q14 0 18 -13l222 -634q8 -17 -12 -17zM294 584h-1l-179 -527h359z" />
<glyph unicode="&#x220f;" horiz-adv-x="606" d="M541 649v-714q0 -15 -15 -15h-35q-15 0 -15 15v672h-346v-672q0 -15 -15 -15h-35q-15 0 -15 15v714q0 15 15 15h446q15 0 15 -15z" />
<glyph unicode="&#x2211;" horiz-adv-x="481" d="M455 607h-358l219 -305q7 -10 0 -20l-219 -305h358q15 0 15 -15v-27q0 -15 -15 -15h-419q-15 0 -15 15v35q0 9 6 18l218 304l-218 304q-6 9 -6 18v35q0 15 15 15h419q15 0 15 -15v-27q0 -15 -15 -15z" />
<glyph unicode="&#x2212;" horiz-adv-x="529" d="M492 251h-456q-15 0 -15 15v26q0 15 15 15h456q15 0 15 -15v-26q0 -15 -15 -15z" />
<glyph unicode="&#x2219;" horiz-adv-x="220" d="M110 357q20 0 32.5 -12.5t12.5 -32.5q0 -29 -28 -40.5t-49 8.5q-20 21 -8.5 49t40.5 28z" />
<glyph unicode="&#x221a;" horiz-adv-x="508" d="M502 647l-186 -714q-3 -13 -16 -13h-42q-12 0 -17 12l-104 277l-79 -22q-14 -5 -19 11l-5 20q-4 13 10 18l116 32q15 5 19 -10l95 -272h1l170 665q3 13 16 13h28q16 0 13 -17z" />
<glyph unicode="&#x221e;" horiz-adv-x="634" d="M464 455q61 0 96.5 -39t35.5 -104t-36.5 -104t-98.5 -39q-87 0 -148 99q-60 -99 -142 -99q-61 0 -97 39t-36 104t36.5 104t98.5 39q83 0 148 -98q34 52 67.5 75t75.5 23zM177 220q58 0 112 86q-30 53 -58.5 75.5t-61.5 22.5q-78 0 -78 -92q0 -44 22.5 -68t63.5 -24z M465 220q78 0 78 92q0 44 -22 68t-63 24q-32 0 -57.5 -20t-55.5 -66q34 -55 60.5 -76.5t59.5 -21.5z" />
<glyph unicode="&#x222b;" horiz-adv-x="318" d="M114 522q0 87 41 136t117 54q15 0 15 -15v-23q0 -14 -15 -16q-47 -5 -72.5 -40t-25.5 -98q0 -64 15 -243q15 -161 15 -259q0 -87 -41 -136t-117 -54q-15 0 -15 15v23q0 14 15 16q47 5 72.5 40t25.5 98q0 64 -15 243q-15 160 -15 259z" />
<glyph unicode="&#x2248;" horiz-adv-x="529" d="M167 399q-53 0 -95 -66q-8 -12 -21 -5l-20 12q-12 8 -5 21q55 94 139 94q55 0 120 -42q52 -34 88 -34q56 0 95 66q7 13 21 5l20 -12q13 -7 5 -21q-58 -94 -138 -94q-53 0 -120 41q-58 35 -89 35zM167 177q-53 0 -95 -66q-8 -12 -21 -5l-20 12q-12 8 -5 21q55 94 139 94 q55 0 120 -42q52 -34 88 -34q56 0 95 66q7 13 21 5l20 -12q13 -7 5 -21q-58 -94 -138 -94q-53 0 -120 41q-58 35 -89 35z" />
<glyph unicode="&#x2260;" horiz-adv-x="529" d="M339 363l-98 -168h234q15 0 15 -15v-26q0 -15 -15 -15h-267l-68 -115q-6 -10 -18 -10h-25q-21 0 -10 18l63 107h-97q-15 0 -15 15v26q0 15 15 15h130l98 168h-228q-15 0 -15 15v26q0 15 15 15h261l68 115q6 10 18 10h25q21 0 10 -18l-63 -107h103q15 0 15 -15v-26 q0 -15 -15 -15h-136z" />
<glyph unicode="&#x2264;" horiz-adv-x="529" d="M475 486l-361 -151l361 -152q12 -5 12 -18v-28q0 -20 -17 -12l-419 179q-11 5 -11 17v27q0 12 11 17l419 179q17 8 17 -12v-28q0 -14 -12 -18zM55 56h417q15 0 15 -15v-26q0 -15 -15 -15h-417q-15 0 -15 15v26q0 15 15 15z" />
<glyph unicode="&#x2265;" horiz-adv-x="529" d="M487 348v-27q0 -12 -11 -17l-419 -179q-17 -8 -17 12v28q0 13 12 18l362 152l-362 151q-12 4 -12 18v28q0 20 17 12l419 -179q11 -5 11 -17zM55 56h417q15 0 15 -15v-26q0 -15 -15 -15h-417q-15 0 -15 15v26q0 15 15 15z" />
<glyph unicode="&#x25ca;" horiz-adv-x="515" d="M478 322l-183 -321q-6 -11 -18 -11h-26q-12 0 -18 11l-183 321q-6 10 0 20l183 321q6 11 18 11h26q12 0 18 -11l183 -321q6 -10 0 -20zM264 608h-1l-155 -276l156 -277h1l154 277z" />
<glyph unicode="&#x25fc;" horiz-adv-x="495" d="M0 495h495v-495h-495v495z" />
<glyph unicode="&#xe069;" horiz-adv-x="207" d="M133 605q-12 -12 -30 -12t-30 12t-12 30t12 30t30 12t30 -12t12 -30t-12 -30zM119 0h-31q-15 0 -15 15v463q0 15 15 15h31q15 0 15 -15v-463q0 -15 -15 -15z" />
<glyph unicode="&#xef01;" horiz-adv-x="500" d="M291 -96q0 -63 -52 -85q-8 -5 -13 5l-4 8q-4 10 4 14q15 8 20 27q-25 0 -34.5 24.5t8.5 42.5q20 18 45.5 6.5t25.5 -42.5z" />
<glyph unicode="&#xef02;" horiz-adv-x="500" d="M288 685l-27 -162q-1 -12 -14 -12h-19q-14 0 -12 14l18 162q1 13 15 13h27q15 0 12 -15z" />
<glyph unicode="&#xf8ff;" horiz-adv-x="1000" d="M455 210h-16v52h-1l-17 -78h-23l28 126h27v-66h1l28 66h31l-28 -126h-24l17 78h-1zM140 285l-17 -77q-7 -24 -25 -24h-46l28 126h43q18 0 18 -15q0 -6 -1 -10zM315 285l-22 -101h-24l6 26h-17l-7 -26h-24l23 103q5 23 26 23h22q18 0 18 -15q0 -6 -1 -10zM592 285 l-22 -101h-24l6 26h-17l-7 -26h-24l23 103q5 23 26 23h22q18 0 18 -15q0 -6 -1 -10zM401 285l-11 -52q-5 -17 -13 -20l6 -29h-23l-4 26h-13l-6 -26h-24l28 126h43q18 0 18 -15q0 -6 -1 -10zM845 285l-12 -53q-4 -22 -24 -22h-22l-6 -26h-24l28 126h43q18 0 18 -15 q0 -6 -1 -10zM209 310h24l-28 -126h-24l6 26h-18l-6 -26h-24l28 126h24l-18 -81h18zM686 235l17 75h24l-17 -75q-2 -6 4 -6h7q5 0 6 4l17 77h24l-17 -78q-4 -22 -24 -22l-14 -26h-24l14 26q-18 0 -18 15q0 7 1 10zM876 242h25l-4 -19h-26l-4 -20h33l-5 -19h-56l28 126h57 l-5 -19h-32zM689 291h-18l-24 -107h-24l24 107h-19l4 19h61zM113 291h-13l-20 -88h13q4 0 6 5l17 77q2 6 -3 6zM810 233l11 52q1 6 -4 6h-12l-14 -62h13q5 0 6 4zM366 233l11 52q1 6 -4 6h-12l-14 -62h13q5 0 6 4zM564 291h-7q-4 0 -6 -5l-13 -57h18l12 56q2 6 -4 6z M287 291h-7q-4 0 -6 -5l-13 -57h18l12 56q1 6 -4 6zM977 333h10v-30h-6v25h-1l-7 -20h-4l-7 20h-1v-25h-5v30h10l5 -16h1zM929 333h23v-5h-9v-25h-6v25h-8v5z" />
<glyph horiz-adv-x="0" />
<glyph horiz-adv-x="333" />
<glyph d="M37 364v134q0 65 33 99t95 34t95 -34t33 -99v-134q0 -65 -33 -99t-95 -34t-95 34t-33 99zM84 495v-127q0 -94 81 -94t81 94v127q0 93 -81 93t-81 -93z" />
<glyph d="M253 611v-360q0 -13 -13 -13h-21q-13 0 -13 13v311l-81 -62q-12 -8 -18 3l-10 15q-7 10 3 18l109 83q8 5 16 5h15q13 0 13 -13z" />
<glyph d="M238 405l-124 -124h167q13 0 13 -13v-17q0 -13 -13 -13h-218q-13 0 -13 13v18q0 9 7 16l147 149q44 46 44 86q0 68 -77 68q-52 0 -82 -46q-7 -12 -18 -4l-15 10q-10 7 -4 18q42 65 121 65q57 0 89.5 -29.5t32.5 -81.5q0 -56 -57 -115z" />
<glyph d="M240 441v-1q70 -22 70 -96q0 -53 -35 -83t-97 -30q-83 0 -126 52q-7 10 1 19l12 12q10 10 19 -1q34 -39 92 -39q41 0 64 19t23 53q0 71 -97 71h-23q-13 0 -13 13v17q0 13 13 13h20q90 0 90 63q0 65 -80 65q-53 0 -84 -39q-10 -11 -19 -1l-13 12q-9 8 -1 19q46 52 119 52 q58 0 91.5 -28t33.5 -78q0 -63 -60 -84z" />
<glyph d="M299 326h-33v-75q0 -13 -13 -13h-21q-13 0 -13 13v75h-177q-13 0 -13 13v24q0 8 5 16l178 237q8 8 16 8h25q13 0 13 -13v-242h33q13 0 13 -13v-17q0 -13 -13 -13zM219 555h-1l-138 -186h139v186z" />
<glyph d="M186 486q55 0 89 -35t34 -92q0 -59 -36.5 -93.5t-98.5 -34.5q-78 0 -124 51q-8 9 1 18l12 13q9 11 18 0q36 -39 91 -39q43 0 66.5 22.5t23.5 62.5q0 38 -23 61t-63 23q-48 0 -76 -27q-7 -7 -17 -6l-12 2q-13 1 -11 14l11 185q1 13 14 13h189q13 0 13 -13v-17 q0 -13 -13 -13h-163l-8 -121h1q35 26 82 26z" />
<glyph d="M180 487q55 0 87 -35q33 -34 33 -92q0 -57 -35 -94q-35 -35 -93 -35t-93 34.5t-35 93.5v141q0 61 34 96t94 35q64 0 105 -38q7 -9 0 -18l-13 -15q-9 -10 -19 -1q-29 29 -69 29q-85 0 -85 -92v-47h1q30 38 88 38zM253 359q0 40 -21.5 62.5t-59.5 22.5q-36 0 -59 -23 q-22 -22 -22 -62t22 -62q23 -23 59 -23q37 0 59 23t22 62z" />
<glyph d="M308 611v-25q0 -9 -4 -16l-158 -322q-6 -10 -16 -10h-24q-16 0 -9 15l163 328h-174v-55q0 -13 -13 -13h-20q-13 0 -13 13v85q0 13 13 13h242q13 0 13 -13z" />
<glyph d="M233 441v-1q68 -26 68 -96q0 -54 -36 -83.5t-100 -29.5t-100 29.5t-36 83.5q0 69 68 95v1q-58 24 -58 85q0 50 33.5 78t92.5 28t92.5 -28t33.5 -78q0 -60 -58 -84zM86 523q0 -63 79 -63t79 63q0 65 -79 65t-79 -65zM254 346q0 71 -89 71q-42 0 -65.5 -18.5t-23.5 -52.5 q0 -72 89 -72t89 72z" />
<glyph d="M286 503v-141q0 -61 -34 -96t-94 -35q-64 0 -105 38q-9 9 -1 18l13 16q9 10 17 2q31 -31 72 -31q85 0 85 92v47h-1q-29 -38 -88 -38q-55 0 -88 34q-32 35 -32 93t35 93q35 36 93 36t93 -34.5t35 -93.5zM158 418q36 0 59 23q22 22 22 62t-22 62q-23 23 -59 23 q-37 0 -59 -23t-22 -62q0 -40 21.5 -62.5t59.5 -22.5z" />
<glyph d="M37 126v134q0 65 33 99t95 34t95 -34t33 -99v-134q0 -65 -33 -99t-95 -34t-95 34t-33 99zM84 257v-127q0 -94 81 -94t81 94v127q0 93 -81 93t-81 -93z" />
<glyph d="M253 373v-360q0 -13 -13 -13h-21q-13 0 -13 13v311l-81 -62q-12 -8 -18 3l-10 15q-7 10 3 18l109 83q8 5 16 5h15q13 0 13 -13z" />
<glyph d="M238 167l-124 -124h167q13 0 13 -13v-17q0 -13 -13 -13h-218q-13 0 -13 13v18q0 9 7 16l147 149q44 46 44 86q0 68 -77 68q-52 0 -82 -46q-7 -12 -18 -4l-15 10q-10 7 -4 18q42 65 121 65q57 0 89.5 -29.5t32.5 -81.5q0 -56 -57 -115z" />
<glyph d="M240 203v-1q70 -22 70 -96q0 -53 -35 -83t-97 -30q-83 0 -126 52q-7 10 1 19l12 12q10 10 19 -1q34 -39 92 -39q41 0 64 19t23 53q0 71 -97 71h-23q-13 0 -13 13v17q0 13 13 13h20q90 0 90 63q0 65 -80 65q-53 0 -84 -39q-10 -11 -19 -1l-13 12q-9 8 -1 19q46 52 119 52 q58 0 91.5 -28t33.5 -78q0 -63 -60 -84z" />
<glyph d="M299 88h-33v-75q0 -13 -13 -13h-21q-13 0 -13 13v75h-177q-13 0 -13 13v24q0 8 5 16l178 237q8 8 16 8h25q13 0 13 -13v-242h33q13 0 13 -13v-17q0 -13 -13 -13zM219 317h-1l-138 -186h139v186z" />
<glyph d="M186 248q55 0 89 -35t34 -92q0 -59 -36.5 -93.5t-98.5 -34.5q-78 0 -124 51q-8 9 1 18l12 13q9 11 18 0q36 -39 91 -39q43 0 66.5 22.5t23.5 62.5q0 38 -23 61t-63 23q-48 0 -76 -27q-7 -7 -17 -6l-12 2q-13 1 -11 14l11 185q1 13 14 13h189q13 0 13 -13v-17 q0 -13 -13 -13h-163l-8 -121h1q35 26 82 26z" />
<glyph d="M180 249q55 0 87 -35q33 -34 33 -92q0 -57 -35 -94q-35 -35 -93 -35t-93 34.5t-35 93.5v141q0 61 34 96t94 35q64 0 105 -38q7 -9 0 -18l-13 -15q-9 -10 -19 -1q-29 29 -69 29q-85 0 -85 -92v-47h1q30 38 88 38zM253 121q0 40 -21.5 62.5t-59.5 22.5q-36 0 -59 -23 q-22 -22 -22 -62t22 -62q23 -23 59 -23q37 0 59 23t22 62z" />
<glyph d="M308 373v-25q0 -9 -4 -16l-158 -322q-6 -10 -16 -10h-24q-16 0 -9 15l163 328h-174v-55q0 -13 -13 -13h-20q-13 0 -13 13v85q0 13 13 13h242q13 0 13 -13z" />
<glyph d="M233 203v-1q68 -26 68 -96q0 -54 -36 -83.5t-100 -29.5t-100 29.5t-36 83.5q0 69 68 95v1q-58 24 -58 85q0 50 33.5 78t92.5 28t92.5 -28t33.5 -78q0 -60 -58 -84zM86 285q0 -63 79 -63t79 63q0 65 -79 65t-79 -65zM254 108q0 71 -89 71q-42 0 -65.5 -18.5t-23.5 -52.5 q0 -72 89 -72t89 72z" />
<glyph d="M286 265v-141q0 -61 -34 -96t-94 -35q-64 0 -105 38q-9 9 -1 18l13 16q9 10 17 2q31 -31 72 -31q85 0 85 92v47h-1q-29 -38 -88 -38q-55 0 -88 34q-32 35 -32 93t35 93q35 36 93 36t93 -34.5t35 -93.5zM158 180q36 0 59 23q22 22 22 62t-22 62q-23 23 -59 23 q-37 0 -59 -23t-22 -62q0 -40 21.5 -62.5t59.5 -22.5z" />
</font>
</defs>
</svg>
